<svg class="animated" id="freepik_stories-bingo" xmlns="http://www.w3.org/2000/svg" viewBox="0 0 750 500" version="1.1" xmlns:xlink="http://www.w3.org/1999/xlink" xmlns:svgjs="http://svgjs.com/svgjs"><style>svg#freepik_stories-bingo:not(.animated) .animable {opacity: 0;}svg#freepik_stories-bingo.animated #freepik--background-simple--inject-34 {animation: 1s 1 forwards cubic-bezier(.36,-0.01,.5,1.38) slideLeft;animation-delay: 0s;}svg#freepik_stories-bingo.animated #freepik--bingo-card--inject-34 {animation: 6s Infinite  linear floating;animation-delay: 0s;}svg#freepik_stories-bingo.animated #freepik--Dots--inject-34 {animation: 6s Infinite  linear floating;animation-delay: 0s;}svg#freepik_stories-bingo.animated #freepik--speech-bubble--inject-34 {animation: 6s Infinite  linear heartbeat;animation-delay: 0s;}            @keyframes slideLeft {                0% {                    opacity: 0;                    transform: translateX(-30px);                }                100% {                    opacity: 1;                    transform: translateX(0);                }            }                    @keyframes floating {                0% {                    opacity: 1;                    transform: translateY(0px);                }                50% {                    transform: translateY(-10px);                }                100% {                    opacity: 1;                    transform: translateY(0px);                }            }                    @keyframes heartbeat {                0% {                    transform: scale(1);                }                10% {                    transform: scale(1.1);                }                30% {                    transform: scale(1);                }                40% {                    transform: scale(1);                }                50% {                    transform: scale(1.1);                }                60% {                    transform: scale(1);                }                100% {                    transform: scale(1);                }            }        </style><g id="freepik--background-simple--inject-34" class="animable" style="transform-origin: 374.226px 243.624px;"><path d="M704.51,303.92c-9.15-43.26-27.67-85.6-50-123.66C618.38,118.44,564.32,64.08,492.39,47.89c-163-36.67-198,123.88-234.71,145.07s-128,9.78-177.66,77.42-44,174.4-44,174.4H711.62C713.16,397.58,714.25,350,704.51,303.92Z" style="fill: rgb(0, 255, 136); transform-origin: 374.226px 243.624px;" id="el8ttab3q2d8q" class="animable"></path><g id="el4don7wk4us"><path d="M704.51,303.92c-9.15-43.26-27.67-85.6-50-123.66C618.38,118.44,564.32,64.08,492.39,47.89c-163-36.67-198,123.88-234.71,145.07s-128,9.78-177.66,77.42-44,174.4-44,174.4H711.62C713.16,397.58,714.25,350,704.51,303.92Z" style="fill: rgb(255, 255, 255); opacity: 0.7; transform-origin: 374.226px 243.624px;" class="animable"></path></g></g><g id="freepik--Window--inject-34" class="animable" style="transform-origin: 229.15px 154.04px;"><g id="elgnxztnrzmii"><g style="opacity: 0.3; transform-origin: 161.735px 154.04px;" class="animable"><rect x="94.52" y="56.38" width="134.43" height="195.32" style="fill: none; stroke: rgb(0, 0, 0); stroke-linecap: round; stroke-linejoin: round; transform-origin: 161.735px 154.04px;" id="el074dahmgx75e" class="animable"></rect><rect x="99.79" y="64.04" width="123.88" height="180" style="fill: none; stroke: rgb(0, 0, 0); stroke-linecap: round; stroke-linejoin: round; transform-origin: 161.73px 154.04px;" id="elpozetqfukee" class="animable"></rect><rect x="99.79" y="153.04" width="123.88" height="10" style="fill: none; stroke: rgb(0, 0, 0); stroke-linecap: round; stroke-linejoin: round; transform-origin: 161.73px 158.04px;" id="eljfwipsuy2ps" class="animable"></rect><line x1="218.61" y1="73.54" x2="192.89" y2="102.81" style="fill: none; stroke: rgb(0, 0, 0); stroke-linecap: round; stroke-linejoin: round; transform-origin: 205.75px 88.175px;" id="eltxf3h4nn4ea" class="animable"></line><line x1="184.23" y1="122.22" x2="180.3" y2="126.7" style="fill: none; stroke: rgb(0, 0, 0); stroke-linecap: round; stroke-linejoin: round; transform-origin: 182.265px 124.46px;" id="els800179dzu" class="animable"></line><line x1="200.76" y1="103.4" x2="188.43" y2="117.44" style="fill: none; stroke: rgb(0, 0, 0); stroke-linecap: round; stroke-linejoin: round; transform-origin: 194.595px 110.42px;" id="elknwx41ggeqh" class="animable"></line><line x1="118.89" y1="74.73" x2="110.76" y2="83.99" style="fill: none; stroke: rgb(0, 0, 0); stroke-linecap: round; stroke-linejoin: round; transform-origin: 114.825px 79.36px;" id="ela6uz9j1uxun" class="animable"></line><line x1="195.25" y1="198.68" x2="190.79" y2="203.76" style="fill: none; stroke: rgb(0, 0, 0); stroke-linecap: round; stroke-linejoin: round; transform-origin: 193.02px 201.22px;" id="elb7je6i0jdx7" class="animable"></line><line x1="212.84" y1="178.67" x2="199.19" y2="194.2" style="fill: none; stroke: rgb(0, 0, 0); stroke-linecap: round; stroke-linejoin: round; transform-origin: 206.015px 186.435px;" id="elaetcc6u4seu" class="animable"></line><line x1="218.61" y1="170.54" x2="192.89" y2="199.81" style="fill: none; stroke: rgb(0, 0, 0); stroke-linecap: round; stroke-linejoin: round; transform-origin: 205.75px 185.175px;" id="elglilp430s95" class="animable"></line><line x1="184.23" y1="219.22" x2="180.3" y2="223.7" style="fill: none; stroke: rgb(0, 0, 0); stroke-linecap: round; stroke-linejoin: round; transform-origin: 182.265px 221.46px;" id="ellk1wwov2yln" class="animable"></line><line x1="200.76" y1="200.4" x2="188.43" y2="214.44" style="fill: none; stroke: rgb(0, 0, 0); stroke-linecap: round; stroke-linejoin: round; transform-origin: 194.595px 207.42px;" id="el01c857tk8cl7" class="animable"></line><line x1="118.89" y1="171.73" x2="110.76" y2="180.99" style="fill: none; stroke: rgb(0, 0, 0); stroke-linecap: round; stroke-linejoin: round; transform-origin: 114.825px 176.36px;" id="el88d1j1h961s" class="animable"></line></g></g><g id="elb1u40pk15f9"><g style="opacity: 0.3; transform-origin: 296.565px 154.04px;" class="animable"><rect x="229.35" y="56.38" width="134.43" height="195.32" style="fill: none; stroke: rgb(0, 0, 0); stroke-linecap: round; stroke-linejoin: round; transform-origin: 296.565px 154.04px;" id="elzwwdkrdxki9" class="animable"></rect><rect x="234.62" y="64.04" width="123.88" height="180" style="fill: none; stroke: rgb(0, 0, 0); stroke-linecap: round; stroke-linejoin: round; transform-origin: 296.56px 154.04px;" id="elzd30czhin3h" class="animable"></rect><rect x="234.62" y="153.04" width="123.88" height="10" style="fill: none; stroke: rgb(0, 0, 0); stroke-linecap: round; stroke-linejoin: round; transform-origin: 296.56px 158.04px;" id="elyq954dg3n0q" class="animable"></rect><line x1="353.44" y1="73.54" x2="327.72" y2="102.81" style="fill: none; stroke: rgb(0, 0, 0); stroke-linecap: round; stroke-linejoin: round; transform-origin: 340.58px 88.175px;" id="el44ekc94iroa" class="animable"></line><line x1="319.06" y1="122.22" x2="315.12" y2="126.7" style="fill: none; stroke: rgb(0, 0, 0); stroke-linecap: round; stroke-linejoin: round; transform-origin: 317.09px 124.46px;" id="el8j6zeh7ac7w" class="animable"></line><line x1="335.59" y1="103.4" x2="323.26" y2="117.44" style="fill: none; stroke: rgb(0, 0, 0); stroke-linecap: round; stroke-linejoin: round; transform-origin: 329.425px 110.42px;" id="el313hwt5fa86" class="animable"></line><line x1="253.72" y1="74.73" x2="245.58" y2="83.99" style="fill: none; stroke: rgb(0, 0, 0); stroke-linecap: round; stroke-linejoin: round; transform-origin: 249.65px 79.36px;" id="elk1qi42uhyom" class="animable"></line><line x1="330.08" y1="198.68" x2="325.62" y2="203.76" style="fill: none; stroke: rgb(0, 0, 0); stroke-linecap: round; stroke-linejoin: round; transform-origin: 327.85px 201.22px;" id="elwmtc5epy9t" class="animable"></line><line x1="347.66" y1="178.67" x2="334.02" y2="194.2" style="fill: none; stroke: rgb(0, 0, 0); stroke-linecap: round; stroke-linejoin: round; transform-origin: 340.84px 186.435px;" id="eldov58oewhuh" class="animable"></line><line x1="353.44" y1="170.54" x2="327.72" y2="199.81" style="fill: none; stroke: rgb(0, 0, 0); stroke-linecap: round; stroke-linejoin: round; transform-origin: 340.58px 185.175px;" id="el1to8i13qlhh" class="animable"></line><line x1="319.06" y1="219.22" x2="315.12" y2="223.7" style="fill: none; stroke: rgb(0, 0, 0); stroke-linecap: round; stroke-linejoin: round; transform-origin: 317.09px 221.46px;" id="eltwgt8w0vbth" class="animable"></line><line x1="335.59" y1="200.4" x2="323.26" y2="214.44" style="fill: none; stroke: rgb(0, 0, 0); stroke-linecap: round; stroke-linejoin: round; transform-origin: 329.425px 207.42px;" id="elwpxq287jljf" class="animable"></line><line x1="253.72" y1="171.73" x2="245.58" y2="180.99" style="fill: none; stroke: rgb(0, 0, 0); stroke-linecap: round; stroke-linejoin: round; transform-origin: 249.65px 176.36px;" id="elk9z7d3qjk5" class="animable"></line></g></g></g><g id="freepik--Floor--inject-34" class="animable" style="transform-origin: 379.96px 445.41px;"><line x1="34.77" y1="445.41" x2="725.15" y2="445.41" style="fill: none; stroke: rgb(38, 50, 56); stroke-linecap: round; stroke-linejoin: round; transform-origin: 379.96px 445.41px;" id="eln2p1tnx1gmq" class="animable"></line></g><g id="freepik--Plant--inject-34" class="animable" style="transform-origin: 65.6755px 355.057px;"><path d="M73.79,320.5h0a.08.08,0,0,0,0-.11.09.09,0,0,0-.12.05,114.22,114.22,0,0,0-6,18.72,176.32,176.32,0,0,0-3.29,19.41l-.47,4.9c-.07.82-.16,1.64-.22,2.46l-.13,2.46c-.07,1.64-.17,3.28-.22,4.93l0,4.93.06,2.46c0,.82.09,1.64.15,2.46.12,1.64.22,3.28.37,4.91.32,3.27.81,6.52,1.31,9.76a.1.1,0,0,0,.09.07.09.09,0,0,0,.09-.09h0c0-1.64-.08-3.28-.12-4.91s-.19-3.26-.17-4.9,0-3.26-.05-4.89l0-2.45,0-2.44,0-4.88.13-4.89.06-2.44c0-.81.09-1.63.13-2.44l.3-4.88a173.51,173.51,0,0,1,2.77-19.36A113,113,0,0,1,73.79,320.5Z" style="fill: rgb(38, 50, 56); transform-origin: 68.5759px 359.146px;" id="elvfmeb3kop2" class="animable"></path><path d="M74.49,346a.08.08,0,0,0,0-.1.08.08,0,0,0-.11.05,115.28,115.28,0,0,0-3.48,12.41,114,114,0,0,0-2,12.75c-.44,4.27-.91,8.55-1,12.85a106.73,106.73,0,0,0,.45,12.89.11.11,0,0,0,.08.08.1.1,0,0,0,.1-.08c.49-4.28.8-8.55,1.09-12.82s.35-8.54.62-12.81a115.79,115.79,0,0,1,1.53-12.7A117.14,117.14,0,0,1,74.49,346Z" style="fill: rgb(38, 50, 56); transform-origin: 71.1863px 371.411px;" id="elhj0ayvbzktf" class="animable"></path><path d="M88.65,355a.09.09,0,0,0-.12,0,43.28,43.28,0,0,0-9.46,8.26,38.05,38.05,0,0,0-3.71,5.15l-.76,1.43L74,371.33a12.4,12.4,0,0,0-.52,1.52c-.16.51-.33,1-.46,1.52a60.47,60.47,0,0,0-2,12.5,71.47,71.47,0,0,0,.47,12.58.07.07,0,0,0,.08.07.08.08,0,0,0,.09-.08L72.79,387a109,109,0,0,1,1.58-12.28c.11-.5.25-1,.38-1.49a12.43,12.43,0,0,1,.44-1.47l.5-1.44.65-1.36a37.49,37.49,0,0,1,3.39-5.15,42.7,42.7,0,0,1,8.9-8.65h0A.08.08,0,0,0,88.65,355Z" style="fill: rgb(38, 50, 56); transform-origin: 79.8241px 377.249px;" id="elbxvskdizqh" class="animable"></path><path d="M81.8,371a13.89,13.89,0,0,0-4.31,5.18,30.56,30.56,0,0,0-2.41,6.34c-.17.54-.3,1.09-.42,1.64l-.39,1.66a27.06,27.06,0,0,0-.42,3.36c0,1.13,0,2.26,0,3.39a29.42,29.42,0,0,0,.44,3.36.12.12,0,0,0,.07.07.09.09,0,0,0,.11-.07,29.87,29.87,0,0,0,.59-3.31c.18-1.1.35-2.19.48-3.28s.3-2.17.39-3.26.23-2.18.47-3.25a29,29,0,0,1,1.84-6.28,13.92,13.92,0,0,1,3.62-5.4h0a.09.09,0,0,0,0-.11A.09.09,0,0,0,81.8,371Z" style="fill: rgb(38, 50, 56); transform-origin: 77.8644px 383.501px;" id="el8lco7e1t119" class="animable"></path><path d="M61.94,383.5c-.47-5.52-1.38-11-2.24-16.47s-1.82-10.92-2.82-16.37-2.12-10.87-3.29-16.28a.09.09,0,0,0-.1-.06.08.08,0,0,0-.07.1Q54.83,342.6,56,350.8c.83,5.47,1.61,10.94,2.3,16.43s1.2,11,1.89,16.46l2,16.45a.09.09,0,0,0,.09.08.09.09,0,0,0,.09-.08c.06-1.39.06-2.78.1-4.17s-.06-2.77-.09-4.16C62.38,389,62.15,386.27,61.94,383.5Z" style="fill: rgb(38, 50, 56); transform-origin: 57.9483px 367.269px;" id="el1zfowfravla" class="animable"></path><path d="M58.62,383.43c-.29-2.19-.69-4.37-1.11-6.54l-.78-3.23c-.25-1.08-.49-2.15-.81-3.22a91.41,91.41,0,0,0-4.22-12.57L51,356.35l-.73-1.49c-.47-1-1-2-1.58-2.92a24.18,24.18,0,0,0-4-5.29.08.08,0,0,0-.12.12h0a24.36,24.36,0,0,1,3.65,5.41c.48,1,1,1.95,1.4,3l.65,1.51.58,1.53a90.16,90.16,0,0,1,3.68,12.58c.5,2.13.84,4.3,1.25,6.44l.52,3.24c.18,1.08.41,2.15.57,3.23.34,2.16.74,4.32,1.12,6.48s.73,4.34,1.18,6.5a.11.11,0,0,0,.09.08.09.09,0,0,0,.09-.09q0-3.31-.16-6.63C59.11,387.82,58.85,385.62,58.62,383.43Z" style="fill: rgb(38, 50, 56); transform-origin: 51.9476px 371.698px;" id="elvor81fwjyo" class="animable"></path><path d="M54.05,383.71c-1-2.9-2.21-5.74-3.5-8.53a76.86,76.86,0,0,0-4.41-8.07.08.08,0,0,0-.11,0,.09.09,0,0,0,0,.12,74.93,74.93,0,0,1,3.75,8.33c1.13,2.82,2.14,5.69,3,8.61s1.48,5.88,2.25,8.8,1.48,5.88,2.38,8.84a.09.09,0,0,0,.08.06.09.09,0,0,0,.09-.08,44.33,44.33,0,0,0-.86-9.2A56.92,56.92,0,0,0,54.05,383.71Z" style="fill: rgb(38, 50, 56); transform-origin: 51.7949px 384.479px;" id="ele2guq1xk4yg" class="animable"></path><path d="M53.86,393.37a19.79,19.79,0,0,0-2.44-5.1,20.91,20.91,0,0,0-3.54-4.41,16.13,16.13,0,0,0-2.25-1.69A9.25,9.25,0,0,0,43.07,381a.09.09,0,0,0-.1.05.08.08,0,0,0,.05.11h0a12.71,12.71,0,0,1,4.24,3.29,20.13,20.13,0,0,1,2.95,4.47c.84,1.59,1.27,3.35,2,5,.32.84.64,1.68,1,2.52A19.62,19.62,0,0,0,54.35,399h0a.08.08,0,0,0,.07.05.1.1,0,0,0,.1-.09,20.46,20.46,0,0,0-.11-2.82C54.28,395.21,54.08,394.29,53.86,393.37Z" style="fill: rgb(38, 50, 56); transform-origin: 48.746px 390.024px;" id="elojmis89l8yt" class="animable"></path><path d="M54.2,342.3a15.73,15.73,0,0,1-11.15-11.85c-2.09-9.75,4.65-5.57-1.39-20.9S37,290.73,39.1,286.32s3.25-3,5.11,2.78,8.6,14.87,11.15,31.83S54.2,342.3,54.2,342.3Z" style="fill: rgb(0, 255, 136); transform-origin: 46.783px 313.014px;" id="el9kte50phg6w" class="animable"></path><path d="M72.09,325.81s-6-2.09-6.28-13.48,4.42-9.06,5.12-23.23,1.62-24.16,4.18-24.39,9.29,7,11.61,22.77-3,26.25-7.66,30.89S72.09,325.81,72.09,325.81Z" style="fill: rgb(0, 255, 136); transform-origin: 76.5399px 295.257px;" id="elbtp708a85dr" class="animable"></path><path d="M51,356s-1.4-8.36-4.18-12.31-8.83-7.43-12.78-15.1-8.36-11.38-8.13-.46S31,344.62,37,348.34,51,356,51,356Z" style="fill: rgb(0, 255, 136); transform-origin: 38.4507px 338.651px;" id="elh1n82buo67" class="animable"></path><path d="M48.39,370.41s-5.57-10.69-13.7-18.59S20.05,340,22.38,343.93s5.11,3.71,9.06,10.68,2.78,12.08,8.36,16S48.39,370.41,48.39,370.41Z" style="fill: rgb(0, 255, 136); transform-origin: 35.1457px 357.345px;" id="elexjv0d3h6k7" class="animable"></path><path d="M47.7,384.11c-.24-.69-.47-5.8-8.37-10s-15.33-2.55-14.4-.46,5.81,5.57,10.69,7.67S47.7,384.11,47.7,384.11Z" style="fill: rgb(0, 255, 136); transform-origin: 36.2755px 377.805px;" id="elvzel89jzzp" class="animable"></path><path d="M71.62,356.47s-3.48-4.41-1.62-13.71,6-7,10.68-11.84,3.72-5.58,8.36-10.69,8.83-7.9,10.69-5.81S98.8,323,96,326.74s-7.2,5.57-9.29,10.22-1.16,12.08-6.5,15.56S71.62,356.47,71.62,356.47Z" style="fill: rgb(0, 255, 136); transform-origin: 84.8926px 335.096px;" id="elr34uftnmavd" class="animable"></path><path d="M83.24,359s8.36-9.52,14.4-16.49,8.36-12.31,8.59-7.66,2.1,8.36-2.78,14.4S83.24,359,83.24,359Z" style="fill: rgb(0, 255, 136); transform-origin: 95.0061px 346.051px;" id="elggz31a40xcf" class="animable"></path><path d="M78.82,374.36s-.23-3.72,13-12.32,18.82-10.22,17.42-6.73-7.2,7-13.47,13.24S78.82,374.36,78.82,374.36Z" style="fill: rgb(0, 255, 136); transform-origin: 94.1347px 363.978px;" id="ela5u8k1xocp" class="animable"></path><path d="M54.75,341.31s-3.11-16.67-6.36-28.51-5.34-19.05-5.34-19.05" style="fill: none; stroke: rgb(38, 50, 56); stroke-linecap: round; stroke-linejoin: round; transform-origin: 48.9px 317.53px;" id="ely8sl66mwgqs" class="animable"></path><path d="M71.55,326s5.65-18.06,7.51-29-.24-19.05-1.17-23.93" style="fill: none; stroke: rgb(38, 50, 56); stroke-linecap: round; stroke-linejoin: round; transform-origin: 75.6771px 299.535px;" id="elgpgjqb7ul0t" class="animable"></path><path d="M50.22,355.66a87.59,87.59,0,0,0-8.56-12.2c-5.11-6-9.06-9.29-11.39-15.1" style="fill: none; stroke: rgb(38, 50, 56); stroke-linecap: round; stroke-linejoin: round; transform-origin: 40.245px 342.01px;" id="elqaxoesulmw" class="animable"></path><path d="M71.62,356.47s1.86-11.15,6.27-17,13.25-14.87,16.73-20.67" style="fill: none; stroke: rgb(38, 50, 56); stroke-linecap: round; stroke-linejoin: round; transform-origin: 83.12px 337.635px;" id="elmz2v92xbzkn" class="animable"></path><path d="M47.15,383.86s-7.82-5.09-13.39-7.88" style="fill: none; stroke: rgb(38, 50, 56); stroke-linecap: round; stroke-linejoin: round; transform-origin: 40.455px 379.92px;" id="el4kolkeecteo" class="animable"></path><path d="M71.64,445.41a7,7,0,0,0,7-6.39c1.15-13.79,3.58-44.79,2.32-46.31-5.11-6.24-27.17-6.24-32.28,0C47.37,394.23,49.8,425.23,51,439a7,7,0,0,0,6.95,6.39Z" style="fill: rgb(38, 50, 56); stroke: rgb(38, 50, 56); stroke-linecap: round; stroke-linejoin: round; transform-origin: 64.808px 416.72px;" id="elmpyb92q0e2" class="animable"></path></g><g id="freepik--bingo-card--inject-34" class="animable" style="transform-origin: 547.655px 238.756px;"><g id="el37chbo5gkvm"><rect x="531.85" y="-44.4" width="65.93" height="284.33" style="fill: rgb(38, 50, 56); stroke: rgb(38, 50, 56); stroke-linecap: round; stroke-linejoin: round; transform-origin: 564.815px 97.765px; transform: rotate(-83.06deg);" class="animable"></rect></g><path d="M485.64,113.93l6-49.13,12.79,1.56a36.24,36.24,0,0,1,5.92,1.21A14,14,0,0,1,515.11,70a9.39,9.39,0,0,1,2.95,4.3,15.31,15.31,0,0,1,.44,6.79A12.87,12.87,0,0,1,517,86,8,8,0,0,1,514.13,89a9.17,9.17,0,0,1-4.06,1.17,9.86,9.86,0,0,1,4.57,2.43,9.4,9.4,0,0,1,2.46,4.33,16.25,16.25,0,0,1,.27,6.13,19.51,19.51,0,0,1-1.8,6.46,11.5,11.5,0,0,1-3.43,4.17,11.8,11.8,0,0,1-5,2,21.8,21.8,0,0,1-6.44.08Zm14.44-28.16,2.12.26a7.5,7.5,0,0,0,3.86-.3,3.81,3.81,0,0,0,2-2,11.77,11.77,0,0,0,.89-3.46,6.93,6.93,0,0,0-.31-3.33,4.49,4.49,0,0,0-1.82-2.22,7.78,7.78,0,0,0-3.34-1.09l-1.88-.23Zm-2.66,21.9,2.3.28c2.38.29,4.11-.12,5.16-1.22a8.86,8.86,0,0,0,2-5.17,13.38,13.38,0,0,0-.07-4.5,4.34,4.34,0,0,0-1.71-2.64,8,8,0,0,0-3.67-1.22l-2.24-.27Z" style="fill: rgb(0, 255, 136); transform-origin: 502.167px 90.3854px;" id="elj3kuw4cq6bn" class="animable"></path><path d="M521.36,118.28l6-49.13,10.85,1.32-6,49.13Z" style="fill: rgb(0, 255, 136); transform-origin: 529.785px 94.375px;" id="elqrm2dl25zyk" class="animable"></path><path d="M539.55,120.49l6-49.12,7.65.93,7.18,24.87,2.88-23.65,9,1.09-6,49.13-7.34-.89-7-26.7-3.1,25.47Z" style="fill: rgb(0, 255, 136); transform-origin: 555.905px 97.555px;" id="elkf1wza1lakm" class="animable"></path><path d="M586.29,126.92a13.59,13.59,0,0,1-7.78-3.1,11.59,11.59,0,0,1-3.46-6.49,29,29,0,0,1-.16-9l2-16.5a27.53,27.53,0,0,1,2.43-8.87,11.3,11.3,0,0,1,5.3-5.36q3.5-1.69,9.08-1t8.36,2.87A10.29,10.29,0,0,1,605.92,85a20,20,0,0,1,.42,7.69L606,95.83l-10.61-1.29.49-4A20.1,20.1,0,0,0,596,87.6a4.05,4.05,0,0,0-.71-2.27,3.25,3.25,0,0,0-2.36-1.12,3.19,3.19,0,0,0-2.66.63A4.72,4.72,0,0,0,589,87.05a20,20,0,0,0-.56,2.89l-2.77,22.74a13.47,13.47,0,0,0,0,3.1,4.81,4.81,0,0,0,.93,2.46,3.42,3.42,0,0,0,2.41,1.18,3.56,3.56,0,0,0,2.72-.59,5,5,0,0,0,1.56-2.21,12.73,12.73,0,0,0,.74-3.05l.7-5.76-4.42-.54.77-6.37,14.2,1.73-3.11,25.47-7.15-.87-.11-4.14a8.87,8.87,0,0,1-3.27,3.08A8.56,8.56,0,0,1,586.29,126.92Z" style="fill: rgb(0, 255, 136); transform-origin: 590.574px 102.25px;" id="elr3d9b6wot3d" class="animable"></path><path d="M622.86,131.37q-5.52-.68-8.5-3a11,11,0,0,1-3.93-6.14,24.52,24.52,0,0,1-.34-8.85l2.22-18.25a24.31,24.31,0,0,1,2.45-8.51A10.78,10.78,0,0,1,620,81.7q3.45-1.53,9-.85a17.55,17.55,0,0,1,8.59,3,10.78,10.78,0,0,1,4,6.06,23.93,23.93,0,0,1,.34,8.84L639.69,117a24.55,24.55,0,0,1-2.45,8.51,10.92,10.92,0,0,1-5.32,5Q628.44,132,622.86,131.37Zm.94-7.7a3.28,3.28,0,0,0,2.59-.55,4.29,4.29,0,0,0,1.29-2.06,16,16,0,0,0,.58-2.7l2.88-23.65a15.55,15.55,0,0,0,.09-2.79,4.26,4.26,0,0,0-.77-2.28,3.28,3.28,0,0,0-2.38-1.15,3.1,3.1,0,0,0-2.47.56,4.15,4.15,0,0,0-1.29,2,15.15,15.15,0,0,0-.58,2.73l-2.88,23.65a17.1,17.1,0,0,0-.12,2.76,4.23,4.23,0,0,0,.7,2.3A3.18,3.18,0,0,0,623.8,123.67Z" style="fill: rgb(0, 255, 136); transform-origin: 626.014px 106.099px;" id="elf0wpphhet2n" class="animable"></path><g id="elyjoe6z4iew"><rect x="401.78" y="129.47" width="283.75" height="284.33" style="fill: rgb(255, 255, 255); stroke: rgb(38, 50, 56); stroke-linecap: round; stroke-linejoin: round; transform-origin: 543.655px 271.635px; transform: rotate(-83.06deg);" class="animable"></rect></g><line x1="472.1" y1="120.6" x2="437.85" y2="401.99" style="fill: none; stroke: rgb(38, 50, 56); stroke-linecap: round; stroke-linejoin: round; transform-origin: 454.975px 261.295px;" id="el6j3v793fsam" class="animable"></line><line x1="530.81" y1="127.74" x2="496.56" y2="409.13" style="fill: none; stroke: rgb(38, 50, 56); stroke-linecap: round; stroke-linejoin: round; transform-origin: 513.685px 268.435px;" id="elkjhkl6kvf3n" class="animable"></line><line x1="589.52" y1="134.89" x2="555.27" y2="416.28" style="fill: none; stroke: rgb(38, 50, 56); stroke-linecap: round; stroke-linejoin: round; transform-origin: 572.395px 275.585px;" id="ela879sw71s7k" class="animable"></line><line x1="648.23" y1="142.03" x2="613.98" y2="423.43" style="fill: none; stroke: rgb(38, 50, 56); stroke-linecap: round; stroke-linejoin: round; transform-origin: 631.105px 282.73px;" id="el82b2xgbg25r" class="animable"></line><line x1="695.94" y1="195.51" x2="414.13" y2="161.21" style="fill: none; stroke: rgb(38, 50, 56); stroke-linecap: round; stroke-linejoin: round; transform-origin: 555.035px 178.36px;" id="elsgebqkquute" class="animable"></line><line x1="688.8" y1="254.22" x2="406.99" y2="219.92" style="fill: none; stroke: rgb(38, 50, 56); stroke-linecap: round; stroke-linejoin: round; transform-origin: 547.895px 237.07px;" id="elg1nww0ayzpg" class="animable"></line><line x1="681.65" y1="312.93" x2="399.84" y2="278.63" style="fill: none; stroke: rgb(38, 50, 56); stroke-linecap: round; stroke-linejoin: round; transform-origin: 540.745px 295.78px;" id="el1owu6ekfyll" class="animable"></line><line x1="674.5" y1="371.64" x2="392.69" y2="337.34" style="fill: none; stroke: rgb(38, 50, 56); stroke-linecap: round; stroke-linejoin: round; transform-origin: 533.595px 354.49px;" id="elen54yg1b8p" class="animable"></line><path d="M426.23,148.39l.42-3.5,6.83-8.14c.51-.59,1-1.18,1.46-1.74a11.94,11.94,0,0,0,1.18-1.75,5.69,5.69,0,0,0,.61-1.95,2.41,2.41,0,0,0-.23-1.59,1.4,1.4,0,0,0-1.06-.64,1.67,1.67,0,0,0-1.3.3,2.32,2.32,0,0,0-.76,1.11,8,8,0,0,0-.36,1.64l-.14,1.18-4.81-.58.16-1.28a10,10,0,0,1,1.14-3.72,5.67,5.67,0,0,1,2.49-2.38,7.12,7.12,0,0,1,4-.49,6.59,6.59,0,0,1,4.67,2.27,6.44,6.44,0,0,1,1.08,4.87,7.74,7.74,0,0,1-.79,2.64,12.61,12.61,0,0,1-1.51,2.27c-.6.72-1.24,1.47-1.91,2.25l-5.19,6,7,.86-.47,3.88Z" style="fill: rgb(38, 50, 56); transform-origin: 433.972px 137.332px;" id="elmw0l8rntpo" class="animable"></path><path d="M447.94,151.39a7.81,7.81,0,0,1-3.56-1.16,4,4,0,0,1-1.64-2.32,8.8,8.8,0,0,1-.15-3.46l0-.19,0-.19,4.63.56a6.81,6.81,0,0,0,0,2.18c.11.48.5.77,1.17.85a1.22,1.22,0,0,0,1.06-.29,3,3,0,0,0,.61-1.42c.16-.69.31-1.65.46-2.88l.26-2.13a2.44,2.44,0,0,1-1.29.8,5.29,5.29,0,0,1-1.81.18,4.54,4.54,0,0,1-2.94-1.32,5.5,5.5,0,0,1-1.34-2.84,12.52,12.52,0,0,1-.06-3.68,13.07,13.07,0,0,1,1.17-4.27,5.57,5.57,0,0,1,2.43-2.57,6.6,6.6,0,0,1,4-.54,6.89,6.89,0,0,1,3.7,1.41,5.52,5.52,0,0,1,1.8,2.91,11,11,0,0,1,.18,4.1l-1.09,8.95a14.53,14.53,0,0,1-1.06,4.11,5.36,5.36,0,0,1-2.32,2.65A6.87,6.87,0,0,1,447.94,151.39Zm1.65-13.1a1.34,1.34,0,0,0,1-.21,3.31,3.31,0,0,0,.64-.55l.48-3.91a9.12,9.12,0,0,0,.06-1.54,2.53,2.53,0,0,0-.3-1.18,1.2,1.2,0,0,0-1-.56,1.15,1.15,0,0,0-1,.34,2.9,2.9,0,0,0-.6,1.32,18.86,18.86,0,0,0-.37,2.22q-.15,1.16-.18,2a2.88,2.88,0,0,0,.24,1.41A1.19,1.19,0,0,0,449.59,138.29Z" style="fill: rgb(38, 50, 56); transform-origin: 449.609px 139.05px;" id="elevy5c70xl3c" class="animable"></path><path d="M483.38,155.34l.43-3.5,6.82-8.13c.51-.6,1-1.18,1.46-1.75a11.43,11.43,0,0,0,1.18-1.75,5.43,5.43,0,0,0,.61-1.94,2.41,2.41,0,0,0-.23-1.59,1.38,1.38,0,0,0-1.06-.64,1.67,1.67,0,0,0-1.3.29,2.31,2.31,0,0,0-.75,1.11,8.1,8.1,0,0,0-.37,1.64l-.14,1.19-4.8-.59.15-1.27a10.15,10.15,0,0,1,1.15-3.73,5.57,5.57,0,0,1,2.48-2.37,7,7,0,0,1,4-.49,6.59,6.59,0,0,1,4.67,2.27,6.44,6.44,0,0,1,1.08,4.87,7.88,7.88,0,0,1-.79,2.64,12.2,12.2,0,0,1-1.51,2.26c-.6.72-1.23,1.47-1.91,2.25l-5.18,6,7,.85-.47,3.89Z" style="fill: rgb(38, 50, 56); transform-origin: 491.122px 144.284px;" id="elr9fvepce1as" class="animable"></path><path d="M505.08,158.43a7.12,7.12,0,0,1-3.84-1.43,5.14,5.14,0,0,1-1.72-2.9,11.67,11.67,0,0,1-.13-4l.1-.86,4.95.6s0,.13,0,.33,0,.38-.06.53a9.91,9.91,0,0,0-.09,2,1.89,1.89,0,0,0,.4,1.14,1.59,1.59,0,0,0,1,.48,1.37,1.37,0,0,0,1.06-.24,1.9,1.9,0,0,0,.59-1,11,11,0,0,0,.34-1.76,6.08,6.08,0,0,0-.16-2.77,2.14,2.14,0,0,0-1.91-1.21l-.33,0-.59-.08.41-3.4.42.05.38,0a2.29,2.29,0,0,0,2.21-.6,5.22,5.22,0,0,0,.86-2.6,4.93,4.93,0,0,0-.11-2.18,1.41,1.41,0,0,0-1.29-.91,1.26,1.26,0,0,0-1.39.67,6.47,6.47,0,0,0-.57,2.1c0,.2-.05.4-.07.61s0,.42-.08.63l-4.95-.6.18-1.45a7.79,7.79,0,0,1,1.23-3.57,5.28,5.28,0,0,1,2.53-2,7.51,7.51,0,0,1,3.6-.34,8.05,8.05,0,0,1,3.47,1.17,5.28,5.28,0,0,1,2,2.46,7.42,7.42,0,0,1,.36,3.67,6.75,6.75,0,0,1-1.29,3.42,3.59,3.59,0,0,1-2.29,1.5A4.15,4.15,0,0,1,511.7,147a4.44,4.44,0,0,1,.83,1.89,8.75,8.75,0,0,1,0,2.88,10.66,10.66,0,0,1-1.11,3.8,5.33,5.33,0,0,1-2.41,2.4A6.91,6.91,0,0,1,505.08,158.43Z" style="fill: rgb(38, 50, 56); transform-origin: 506.622px 146.061px;" id="elm0c0tg87kva" class="animable"></path><path d="M542.07,162.48l7.68-19.6-6.55-.8.46-3.77L555,139.7l-.41,3.41-7.73,20Z" style="fill: rgb(38, 50, 56); transform-origin: 548.535px 150.71px;" id="el64yzw6vx6n6" class="animable"></path><path d="M560.66,165.2a7.1,7.1,0,0,1-3.87-1.42,4.64,4.64,0,0,1-1.51-2.85,15.05,15.05,0,0,1,0-4l4.77.59a13.48,13.48,0,0,0-.12,2.24,2.12,2.12,0,0,0,.4,1.29,1.51,1.51,0,0,0,1.1.48,1.21,1.21,0,0,0,1.17-.49,4.26,4.26,0,0,0,.61-1.65c.13-.74.27-1.63.4-2.67a16.66,16.66,0,0,0,.12-2.13,3.26,3.26,0,0,0-.36-1.53,1.38,1.38,0,0,0-1.13-.69,1.59,1.59,0,0,0-1.28.38,3.49,3.49,0,0,0-.88,1.58l-4.27-.52L558,140.05l11.2,1.37-.5,4.15-7.24-.88-.87,4.91a2.48,2.48,0,0,1,1.22-.59,6.86,6.86,0,0,1,1.83-.18,4.43,4.43,0,0,1,3,1,5.33,5.33,0,0,1,1.58,2.89,13.08,13.08,0,0,1,.1,4.43,25.11,25.11,0,0,1-.66,3.52,7.87,7.87,0,0,1-1.26,2.67,4.65,4.65,0,0,1-2.21,1.58A7.69,7.69,0,0,1,560.66,165.2Z" style="fill: rgb(38, 50, 56); transform-origin: 562.173px 152.67px;" id="elp6zldh4c09b" class="animable"></path><path d="M602.56,170.21a7.81,7.81,0,0,1-3.56-1.16,4,4,0,0,1-1.64-2.32,8.8,8.8,0,0,1-.15-3.46l0-.19,0-.2,4.63.57a6.81,6.81,0,0,0,0,2.18c.11.48.5.77,1.17.85a1.2,1.2,0,0,0,1.06-.3,2.91,2.91,0,0,0,.61-1.41c.16-.69.31-1.65.46-2.88l.26-2.13a2.44,2.44,0,0,1-1.29.8,5.06,5.06,0,0,1-1.81.17,4.48,4.48,0,0,1-2.94-1.31,5.5,5.5,0,0,1-1.34-2.84,12.52,12.52,0,0,1-.06-3.68,13.07,13.07,0,0,1,1.17-4.27,5.57,5.57,0,0,1,2.43-2.57,6.6,6.6,0,0,1,4-.54,6.89,6.89,0,0,1,3.7,1.41,5.52,5.52,0,0,1,1.8,2.91,11,11,0,0,1,.18,4.1l-1.09,8.95A14.53,14.53,0,0,1,609.1,167a5.4,5.4,0,0,1-2.32,2.65A6.87,6.87,0,0,1,602.56,170.21Zm1.65-13.1a1.34,1.34,0,0,0,1-.21,3.31,3.31,0,0,0,.64-.55l.48-3.91a8.21,8.21,0,0,0,.06-1.54,2.53,2.53,0,0,0-.3-1.18,1.2,1.2,0,0,0-1-.56,1.13,1.13,0,0,0-1,.34,2.9,2.9,0,0,0-.6,1.32,18.86,18.86,0,0,0-.37,2.22q-.15,1.16-.18,2a2.88,2.88,0,0,0,.24,1.41A1.21,1.21,0,0,0,604.21,157.11Z" style="fill: rgb(38, 50, 56); transform-origin: 604.229px 157.871px;" id="eltdopi8pealo" class="animable"></path><path d="M618.91,172.29A7,7,0,0,1,615.4,171a5.59,5.59,0,0,1-1.9-2.68,8.19,8.19,0,0,1-.3-3.68l1.32-10.87a9,9,0,0,1,1.15-3.61,5.35,5.35,0,0,1,2.45-2.21,8.17,8.17,0,0,1,7.39.9,5.36,5.36,0,0,1,1.83,2.73,9.15,9.15,0,0,1,.25,3.78l-1.32,10.88a8.4,8.4,0,0,1-1.18,3.48,5.61,5.61,0,0,1-2.49,2.16A7,7,0,0,1,618.91,172.29Zm.54-4.42a1.16,1.16,0,0,0,1.08-.33,2.45,2.45,0,0,0,.51-1,7.57,7.57,0,0,0,.2-1.05l1.3-10.64c0-.33.07-.72.08-1.15a2.53,2.53,0,0,0-.24-1.17,1.13,1.13,0,0,0-1-.61,1.16,1.16,0,0,0-1.11.36,2.46,2.46,0,0,0-.51,1.08c-.09.42-.15.8-.2,1.13l-1.29,10.64a7,7,0,0,0,0,1.07,2.53,2.53,0,0,0,.27,1.11A1.11,1.11,0,0,0,619.45,167.87Z" style="fill: rgb(38, 50, 56); transform-origin: 620.398px 159.913px;" id="el6v7nf7hycox" class="animable"></path><path d="M660.09,177.3a7.12,7.12,0,0,1-3.84-1.43,5.19,5.19,0,0,1-1.73-2.9,11.94,11.94,0,0,1-.13-4l.11-.86,5,.6a2.63,2.63,0,0,0,0,.33l-.07.53a10.54,10.54,0,0,0-.08,1.94,1.86,1.86,0,0,0,.4,1.15,1.53,1.53,0,0,0,1,.47,1.35,1.35,0,0,0,1.07-.23,2.08,2.08,0,0,0,.59-1,10.28,10.28,0,0,0,.33-1.76,6,6,0,0,0-.16-2.78,2.14,2.14,0,0,0-1.91-1.21l-.32,0-.6-.07.42-3.41.41,0,.39.05a2.31,2.31,0,0,0,2.21-.6,5.33,5.33,0,0,0,.86-2.61,4.87,4.87,0,0,0-.12-2.17,1.38,1.38,0,0,0-1.28-.91,1.24,1.24,0,0,0-1.39.67,6,6,0,0,0-.57,2.1c0,.19-.05.4-.08.6s0,.42-.08.64l-5-.6.18-1.45a7.94,7.94,0,0,1,1.23-3.57,5.31,5.31,0,0,1,2.53-2,7.53,7.53,0,0,1,3.61-.35,7.88,7.88,0,0,1,3.46,1.18,5.26,5.26,0,0,1,2,2.45,7.33,7.33,0,0,1,.37,3.67,6.93,6.93,0,0,1-1.29,3.43,3.62,3.62,0,0,1-2.29,1.49,4.14,4.14,0,0,1,1.38,1.13,4.57,4.57,0,0,1,.84,1.89,9,9,0,0,1,0,2.88,11.2,11.2,0,0,1-1.11,3.81,5.48,5.48,0,0,1-2.41,2.4A7,7,0,0,1,660.09,177.3Z" style="fill: rgb(38, 50, 56); transform-origin: 661.633px 164.89px;" id="eli4tq4nunog9" class="animable"></path><path d="M675.76,178.76l.66-5.4-7.38-.9.44-3.64,8.08-14.21,5.75.7-1.82,14.94,2.22.27-.45,3.68-2.22-.28-.66,5.4Zm-2.51-9.51,3.61.44,1.22-10Z" style="fill: rgb(38, 50, 56); transform-origin: 676.375px 166.965px;" id="elkz8qsegdu4" class="animable"></path><path d="M426.85,203.22l.65-5.4-7.38-.89.45-3.65,8.07-14.21,5.75.7-1.81,14.94,2.22.27-.45,3.68-2.22-.27-.66,5.39Zm-2.51-9.51,3.61.44,1.22-10Z" style="fill: rgb(38, 50, 56); transform-origin: 427.46px 191.425px;" id="elw2gfhnu7y4" class="animable"></path><path d="M441.76,205.48a7,7,0,0,1-3.87-1.41,4.6,4.6,0,0,1-1.5-2.85,14.61,14.61,0,0,1,0-4l4.77.58a13.58,13.58,0,0,0-.12,2.24,2.13,2.13,0,0,0,.4,1.3,1.51,1.51,0,0,0,1.1.48,1.23,1.23,0,0,0,1.17-.49,4.31,4.31,0,0,0,.61-1.66c.13-.73.27-1.62.4-2.67a16.61,16.61,0,0,0,.12-2.12,3.26,3.26,0,0,0-.36-1.53,1.41,1.41,0,0,0-1.13-.7,1.56,1.56,0,0,0-1.28.39,3.44,3.44,0,0,0-.88,1.58l-4.27-.52,2.13-13.79,11.2,1.36-.5,4.15-7.24-.88-.87,4.92a2.48,2.48,0,0,1,1.22-.59,6.86,6.86,0,0,1,1.83-.18,4.43,4.43,0,0,1,3,1,5.33,5.33,0,0,1,1.58,2.88,13.14,13.14,0,0,1,.1,4.44,25.24,25.24,0,0,1-.66,3.51,7.83,7.83,0,0,1-1.26,2.68,4.72,4.72,0,0,1-2.21,1.58A7.57,7.57,0,0,1,441.76,205.48Z" style="fill: rgb(38, 50, 56); transform-origin: 443.251px 192.936px;" id="elkndozxtqlkc" class="animable"></path><path d="M482.8,210.42A7,7,0,0,1,479,209a5.33,5.33,0,0,1-1.75-2.92,11.49,11.49,0,0,1-.15-4,10.66,10.66,0,0,1,.41-1.71,6.71,6.71,0,0,1,.69-1.51,4.83,4.83,0,0,1,1-1.17,4.18,4.18,0,0,1,1.34-.75,6.11,6.11,0,0,1-1.39-2.17,7.25,7.25,0,0,1-.38-3.37,7.84,7.84,0,0,1,1.09-3.39,5,5,0,0,1,2.36-2,7.06,7.06,0,0,1,3.54-.35,7,7,0,0,1,3.35,1.2,5,5,0,0,1,1.79,2.48,7.54,7.54,0,0,1,.21,3.53,7.45,7.45,0,0,1-1.12,3.22,5.35,5.35,0,0,1-1.87,1.74,4.33,4.33,0,0,1,1.12,1,4.75,4.75,0,0,1,.71,1.38,7.12,7.12,0,0,1,.33,1.64,7.91,7.91,0,0,1,0,1.75,10.47,10.47,0,0,1-1.05,3.83,5.4,5.4,0,0,1-2.41,2.41A7,7,0,0,1,482.8,210.42Zm.44-3.65a1.24,1.24,0,0,0,1.23-.45,3.49,3.49,0,0,0,.61-1.35,14.16,14.16,0,0,0,.28-1.49,12.2,12.2,0,0,0,.14-1.79,3.33,3.33,0,0,0-.29-1.46,1.31,1.31,0,0,0-1.09-.69,1.27,1.27,0,0,0-1.19.41,3.34,3.34,0,0,0-.63,1.34,13.13,13.13,0,0,0-.32,1.78,13.52,13.52,0,0,0-.1,1.52,3.25,3.25,0,0,0,.29,1.47A1.27,1.27,0,0,0,483.24,206.77Zm1.36-11.14a1,1,0,0,0,.88-.3,2.75,2.75,0,0,0,.63-1.14,10.85,10.85,0,0,0,.41-2,4.33,4.33,0,0,0-.14-2,1.21,1.21,0,0,0-1-.85,1.24,1.24,0,0,0-1.22.58,3.73,3.73,0,0,0-.63,1.84,9.74,9.74,0,0,0-.08,2,2.49,2.49,0,0,0,.37,1.27A1.09,1.09,0,0,0,484.6,195.63Z" style="fill: rgb(38, 50, 56); transform-origin: 484.11px 198.037px;" id="el9y6t0ggj7ld" class="animable"></path><path d="M498.27,212.27a7.93,7.93,0,0,1-3.56-1.15,4.09,4.09,0,0,1-1.64-2.32,9.25,9.25,0,0,1-.15-3.47l0-.19,0-.19,4.62.56a6.8,6.8,0,0,0,0,2.18c.11.49.5.77,1.18.85a1.18,1.18,0,0,0,1.05-.29,2.82,2.82,0,0,0,.61-1.42c.16-.69.31-1.65.46-2.87l.26-2.14a2.4,2.4,0,0,1-1.29.81,5.55,5.55,0,0,1-1.81.17,4.47,4.47,0,0,1-2.94-1.32,5.45,5.45,0,0,1-1.33-2.84,12.17,12.17,0,0,1-.07-3.68,13.19,13.19,0,0,1,1.17-4.26,5.6,5.6,0,0,1,2.43-2.58,6.77,6.77,0,0,1,4-.54A7,7,0,0,1,505,189a5.44,5.44,0,0,1,1.79,2.91A10.91,10.91,0,0,1,507,196l-1.09,9a14.53,14.53,0,0,1-1.06,4.11,5.45,5.45,0,0,1-2.32,2.65A6.87,6.87,0,0,1,498.27,212.27Zm1.66-13.09a1.32,1.32,0,0,0,1-.21,3.32,3.32,0,0,0,.64-.56l.48-3.91a9.14,9.14,0,0,0,.07-1.54,2.69,2.69,0,0,0-.31-1.18,1.18,1.18,0,0,0-1-.55,1.13,1.13,0,0,0-1,.34,3.14,3.14,0,0,0-.6,1.31,21.67,21.67,0,0,0-.37,2.22c-.1.78-.15,1.46-.17,2a2.84,2.84,0,0,0,.23,1.42A1.23,1.23,0,0,0,499.93,199.18Z" style="fill: rgb(38, 50, 56); transform-origin: 499.962px 199.944px;" id="elqmbj33tgltc" class="animable"></path><path d="M539.2,217.25a7.81,7.81,0,0,1-3.56-1.15,4.06,4.06,0,0,1-1.64-2.32,9,9,0,0,1-.16-3.46l0-.2,0-.19,4.63.56a6.52,6.52,0,0,0,0,2.18c.11.49.5.77,1.17.85a1.2,1.2,0,0,0,1.06-.29,3,3,0,0,0,.61-1.41q.23-1,.45-2.88l.26-2.14a2.33,2.33,0,0,1-1.28.81,5.58,5.58,0,0,1-1.81.17,4.44,4.44,0,0,1-2.94-1.32,5.46,5.46,0,0,1-1.34-2.84,12.51,12.51,0,0,1-.06-3.68,13.19,13.19,0,0,1,1.16-4.26,5.66,5.66,0,0,1,2.44-2.58,6.73,6.73,0,0,1,4-.54,7,7,0,0,1,3.71,1.42,5.52,5.52,0,0,1,1.8,2.91,11.18,11.18,0,0,1,.17,4.1l-1.09,8.95a14.88,14.88,0,0,1-1,4.11,5.5,5.5,0,0,1-2.32,2.65A6.88,6.88,0,0,1,539.2,217.25Zm1.65-13.09a1.34,1.34,0,0,0,1-.21,4.64,4.64,0,0,0,.64-.55l.47-3.92a9.14,9.14,0,0,0,.07-1.54,2.45,2.45,0,0,0-.31-1.18,1.18,1.18,0,0,0-1-.55,1.15,1.15,0,0,0-1,.34,3,3,0,0,0-.59,1.31,21.61,21.61,0,0,0-.38,2.23c-.09.77-.15,1.45-.17,2a3.06,3.06,0,0,0,.23,1.41A1.24,1.24,0,0,0,540.85,204.16Z" style="fill: rgb(38, 50, 56); transform-origin: 540.863px 204.918px;" id="elz57reiuieop" class="animable"></path><path d="M555.55,219.33A6.86,6.86,0,0,1,552,218a5.64,5.64,0,0,1-1.9-2.68,8.34,8.34,0,0,1-.31-3.68l1.33-10.88a9.2,9.2,0,0,1,1.14-3.6,5.48,5.48,0,0,1,2.45-2.22,7,7,0,0,1,3.82-.43,7,7,0,0,1,3.58,1.33A5.47,5.47,0,0,1,564,198.6a9.09,9.09,0,0,1,.25,3.77l-1.33,10.88a8.15,8.15,0,0,1-1.17,3.48,5.63,5.63,0,0,1-2.49,2.17A6.87,6.87,0,0,1,555.55,219.33Zm.53-4.41a1.17,1.17,0,0,0,1.08-.34,2.36,2.36,0,0,0,.52-1,9.29,9.29,0,0,0,.2-1l1.29-10.64a9.58,9.58,0,0,0,.08-1.15,2.38,2.38,0,0,0-.23-1.17,1.17,1.17,0,0,0-1-.62,1.15,1.15,0,0,0-1.11.36,2.46,2.46,0,0,0-.51,1.08c-.09.42-.16.8-.2,1.14l-1.29,10.64a6.85,6.85,0,0,0,0,1.06,2.57,2.57,0,0,0,.27,1.12A1.13,1.13,0,0,0,556.08,214.92Z" style="fill: rgb(38, 50, 56); transform-origin: 557.026px 206.916px;" id="elpczkj1c55lj" class="animable"></path><path d="M595,223.68l2.33-19.11a7.9,7.9,0,0,1-.78.26l-.92.26-.94.27c-.3.08-.58.17-.83.26l.45-3.68,1-.38,1.36-.54c.48-.2.94-.41,1.37-.63a5.65,5.65,0,0,0,1-.59l3.88.48-2.92,24Z" style="fill: rgb(38, 50, 56); transform-origin: 598.39px 212.04px;" id="el7krheei5qbs" class="animable"></path><path d="M603.79,224.75l.42-3.49,6.83-8.14c.51-.6,1-1.18,1.46-1.74a10.76,10.76,0,0,0,1.17-1.76,5.39,5.39,0,0,0,.62-1.94,2.47,2.47,0,0,0-.23-1.59,1.4,1.4,0,0,0-1.07-.64,1.7,1.7,0,0,0-1.29.29,2.36,2.36,0,0,0-.76,1.12,7.36,7.36,0,0,0-.36,1.64l-.15,1.18-4.8-.58.16-1.28a10,10,0,0,1,1.14-3.72,5.61,5.61,0,0,1,2.49-2.38,7.12,7.12,0,0,1,4-.49,6.59,6.59,0,0,1,4.67,2.27,6.44,6.44,0,0,1,1.08,4.87,7.74,7.74,0,0,1-.79,2.64,12.61,12.61,0,0,1-1.51,2.27c-.6.72-1.24,1.47-1.91,2.25l-5.19,6,7,.86-.48,3.88Z" style="fill: rgb(38, 50, 56); transform-origin: 611.532px 213.702px;" id="elzg90896z23m" class="animable"></path><path d="M653.21,231.22a7.09,7.09,0,0,1-3.88-1.42,4.63,4.63,0,0,1-1.5-2.84,14.61,14.61,0,0,1,0-4l4.77.58a13.53,13.53,0,0,0-.12,2.24,2.1,2.1,0,0,0,.4,1.29,1.58,1.58,0,0,0,1.1.49,1.23,1.23,0,0,0,1.17-.49,4.16,4.16,0,0,0,.61-1.66c.14-.73.27-1.63.4-2.67a13.61,13.61,0,0,0,.12-2.12,3.28,3.28,0,0,0-.35-1.54,1.4,1.4,0,0,0-1.13-.69,1.57,1.57,0,0,0-1.29.39,3.49,3.49,0,0,0-.88,1.57l-4.27-.52,2.13-13.79,11.21,1.37-.51,4.15-7.23-.88-.87,4.92a2.35,2.35,0,0,1,1.21-.59,6.85,6.85,0,0,1,1.83-.19,4.42,4.42,0,0,1,3,1.05,5.25,5.25,0,0,1,1.57,2.88,13.07,13.07,0,0,1,.11,4.43,25.06,25.06,0,0,1-.67,3.52,7.69,7.69,0,0,1-1.26,2.67,4.62,4.62,0,0,1-2.2,1.58A7.72,7.72,0,0,1,653.21,231.22Z" style="fill: rgb(38, 50, 56); transform-origin: 654.696px 218.673px;" id="elfvdpjqhtrhm" class="animable"></path><path d="M668.93,233a6.61,6.61,0,0,1-3.69-1.48,6,6,0,0,1-1.81-3.07,11.26,11.26,0,0,1-.18-4.14l1-8.68a15,15,0,0,1,1.06-4.12,5.5,5.5,0,0,1,2.32-2.65,6.88,6.88,0,0,1,4.22-.55,7.93,7.93,0,0,1,3.56,1.15,4.16,4.16,0,0,1,1.65,2.31,9.13,9.13,0,0,1,.15,3.45,1.8,1.8,0,0,0,0,.22,1.33,1.33,0,0,1,0,.2l-4.66-.57a7.7,7.7,0,0,0,0-2.18q-.14-.72-1.14-.84a1.25,1.25,0,0,0-1.08.29,2.86,2.86,0,0,0-.63,1.4,25.18,25.18,0,0,0-.47,2.89L669,218.8a2.27,2.27,0,0,1,1.27-.82,4.67,4.67,0,0,1,1.85-.15,4.48,4.48,0,0,1,2.94,1.23,5.16,5.16,0,0,1,1.34,2.7,11.93,11.93,0,0,1,.07,3.6,15.24,15.24,0,0,1-1.13,4.36,5.8,5.8,0,0,1-2.38,2.74A6.5,6.5,0,0,1,668.93,233Zm.5-3.64a1.12,1.12,0,0,0,1.05-.33,3.13,3.13,0,0,0,.58-1.32,20.91,20.91,0,0,0,.38-2.22c.09-.79.15-1.48.17-2.06a2.85,2.85,0,0,0-.24-1.39,1.22,1.22,0,0,0-1-.63,1.84,1.84,0,0,0-.7.07,2.06,2.06,0,0,0-1,.69l-.47,3.91a8,8,0,0,0-.06,1.53,2.54,2.54,0,0,0,.37,1.2A1.25,1.25,0,0,0,669.43,229.4Z" style="fill: rgb(38, 50, 56); transform-origin: 670.223px 220.652px;" id="eloq893mmv1d" class="animable"></path><path d="M417.61,260.3l2.33-19.12q-.35.13-.78.27l-.92.26-.94.26c-.3.09-.57.17-.82.26l.44-3.67,1-.38,1.36-.54c.49-.2.94-.41,1.37-.63a6.36,6.36,0,0,0,1-.59l3.89.47-2.93,24Z" style="fill: rgb(38, 50, 56); transform-origin: 421.01px 248.655px;" id="elb09yd1avw14" class="animable"></path><path d="M432.88,262.61a7.24,7.24,0,0,1-3.84-1.43,5.23,5.23,0,0,1-1.72-2.9,11.68,11.68,0,0,1-.13-4l.11-.86,4.95.6,0,.33c0,.19,0,.37-.07.53a10.54,10.54,0,0,0-.08,1.94,1.86,1.86,0,0,0,.4,1.15,1.53,1.53,0,0,0,1,.47,1.35,1.35,0,0,0,1.07-.23,2.08,2.08,0,0,0,.59-1,11.29,11.29,0,0,0,.33-1.77,6,6,0,0,0-.16-2.77,2.15,2.15,0,0,0-1.91-1.21l-.33,0-.59-.07.42-3.41.41,0,.39.05a2.31,2.31,0,0,0,2.21-.6,5.24,5.24,0,0,0,.85-2.61,4.8,4.8,0,0,0-.11-2.18,1.41,1.41,0,0,0-1.29-.91,1.27,1.27,0,0,0-1.39.68,6.4,6.4,0,0,0-.57,2.09l-.07.61-.08.64-4.95-.6.18-1.46a7.82,7.82,0,0,1,1.23-3.56,5.27,5.27,0,0,1,2.53-2,7.5,7.5,0,0,1,3.6-.35,7.88,7.88,0,0,1,3.47,1.18,5.26,5.26,0,0,1,2,2.45,7.22,7.22,0,0,1,.36,3.67,6.76,6.76,0,0,1-1.28,3.42,3.62,3.62,0,0,1-2.29,1.5,4.14,4.14,0,0,1,1.38,1.13,4.57,4.57,0,0,1,.84,1.89,9,9,0,0,1,0,2.88,11.2,11.2,0,0,1-1.11,3.81,5.38,5.38,0,0,1-2.42,2.39A6.9,6.9,0,0,1,432.88,262.61Z" style="fill: rgb(38, 50, 56); transform-origin: 434.43px 250.2px;" id="elubj963wv0yd" class="animable"></path><path d="M477.63,268a6.61,6.61,0,0,1-3.69-1.48,6,6,0,0,1-1.81-3.06,11.32,11.32,0,0,1-.18-4.15l1.05-8.68a14.87,14.87,0,0,1,1.06-4.11,5.41,5.41,0,0,1,2.32-2.65,6.8,6.8,0,0,1,4.22-.56,7.81,7.81,0,0,1,3.56,1.16,4.11,4.11,0,0,1,1.65,2.3,9.14,9.14,0,0,1,.15,3.45.83.83,0,0,0,0,.22c0,.07,0,.14,0,.2l-4.66-.57a7.7,7.7,0,0,0,0-2.18q-.13-.72-1.14-.84a1.25,1.25,0,0,0-1.08.29,2.86,2.86,0,0,0-.63,1.4,25.18,25.18,0,0,0-.47,2.89l-.26,2.13a2.27,2.27,0,0,1,1.27-.82,5.07,5.07,0,0,1,1.85-.15A4.48,4.48,0,0,1,483.8,254a5.16,5.16,0,0,1,1.34,2.7,11.93,11.93,0,0,1,.07,3.6,14.92,14.92,0,0,1-1.13,4.36,5.8,5.8,0,0,1-2.38,2.74A6.5,6.5,0,0,1,477.63,268Zm.5-3.63a1.15,1.15,0,0,0,1.05-.34,3.13,3.13,0,0,0,.58-1.32,20.91,20.91,0,0,0,.38-2.22c.09-.79.15-1.48.17-2.06a3,3,0,0,0-.23-1.39,1.27,1.27,0,0,0-1-.63,1.84,1.84,0,0,0-.7.07,2,2,0,0,0-.61.3,1.93,1.93,0,0,0-.41.39l-.47,3.91a8,8,0,0,0-.06,1.53,2.5,2.5,0,0,0,.37,1.2A1.29,1.29,0,0,0,478.13,264.33Z" style="fill: rgb(38, 50, 56); transform-origin: 478.948px 255.646px;" id="eloj5crm4m4cd" class="animable"></path><path d="M487.13,268.76l7.68-19.61-6.55-.8.45-3.76L500.1,246l-.42,3.41-7.72,20Z" style="fill: rgb(38, 50, 56); transform-origin: 493.615px 257px;" id="elciodskfeezq" class="animable"></path><path d="M533.46,274.4l.66-5.4-7.38-.89.44-3.65,8.08-14.21,5.75.7-1.82,14.94,2.22.27-.45,3.68-2.22-.27-.66,5.39ZM531,264.89l3.61.44,1.22-10Z" style="fill: rgb(38, 50, 56); transform-origin: 534.075px 262.605px;" id="el1vhx245u0l3" class="animable"></path><path d="M548.37,276.67a7.1,7.1,0,0,1-3.87-1.42,4.65,4.65,0,0,1-1.5-2.85,14.61,14.61,0,0,1,0-4l4.77.58a13.58,13.58,0,0,0-.12,2.24,2.13,2.13,0,0,0,.4,1.3,1.51,1.51,0,0,0,1.1.48,1.23,1.23,0,0,0,1.17-.49,4.31,4.31,0,0,0,.61-1.66c.14-.73.27-1.62.4-2.67a16.51,16.51,0,0,0,.12-2.12,3.26,3.26,0,0,0-.36-1.53,1.41,1.41,0,0,0-1.13-.7,1.56,1.56,0,0,0-1.28.39,3.44,3.44,0,0,0-.88,1.58l-4.27-.52,2.13-13.79,11.2,1.36-.5,4.15-7.24-.88-.86,4.92a2.39,2.39,0,0,1,1.21-.59,6.86,6.86,0,0,1,1.83-.18,4.43,4.43,0,0,1,3,1,5.33,5.33,0,0,1,1.58,2.88,13.38,13.38,0,0,1,.11,4.44,24.9,24.9,0,0,1-.67,3.51,7.83,7.83,0,0,1-1.26,2.68,4.72,4.72,0,0,1-2.21,1.58A7.69,7.69,0,0,1,548.37,276.67Z" style="fill: rgb(38, 50, 56); transform-origin: 549.861px 264.118px;" id="el9pztesu08ea" class="animable"></path><path d="M583.32,280.47l.43-3.5,6.82-8.13c.51-.6,1-1.18,1.46-1.75a11.43,11.43,0,0,0,1.18-1.75,5.64,5.64,0,0,0,.61-1.94,2.41,2.41,0,0,0-.23-1.59,1.39,1.39,0,0,0-1.06-.65,1.71,1.71,0,0,0-1.3.3,2.31,2.31,0,0,0-.75,1.11,8.1,8.1,0,0,0-.37,1.64L590,265.4l-4.81-.59.16-1.27a9.85,9.85,0,0,1,1.15-3.73,5.57,5.57,0,0,1,2.48-2.37,7,7,0,0,1,4-.49,6.58,6.58,0,0,1,4.67,2.26,6.45,6.45,0,0,1,1.08,4.87,7.74,7.74,0,0,1-.79,2.64A12.27,12.27,0,0,1,596.4,269c-.6.72-1.23,1.47-1.91,2.25l-5.18,6,7,.85-.47,3.88Z" style="fill: rgb(38, 50, 56); transform-origin: 591.076px 269.415px;" id="elylddxyrsh8" class="animable"></path><path d="M605,283.5a7,7,0,0,1-3.77-1.44,5.33,5.33,0,0,1-1.75-2.92,10.54,10.54,0,0,1,.26-5.68,7,7,0,0,1,.69-1.51,4.83,4.83,0,0,1,1-1.17,4.21,4.21,0,0,1,1.34-.76,5.94,5.94,0,0,1-1.39-2.17,7.12,7.12,0,0,1-.37-3.37,7.71,7.71,0,0,1,1.08-3.38,5,5,0,0,1,2.36-2,7.07,7.07,0,0,1,3.54-.35,7,7,0,0,1,3.35,1.2,4.9,4.9,0,0,1,1.79,2.48,7.54,7.54,0,0,1,.21,3.53,7.35,7.35,0,0,1-1.12,3.21,5.36,5.36,0,0,1-1.86,1.75A4.49,4.49,0,0,1,611.5,272a5,5,0,0,1,.7,1.38,7.14,7.14,0,0,1,.33,1.63,8,8,0,0,1,0,1.76,10.28,10.28,0,0,1-1,3.83A5.4,5.4,0,0,1,609,283,7.08,7.08,0,0,1,605,283.5Zm.44-3.65a1.24,1.24,0,0,0,1.23-.45,3.5,3.5,0,0,0,.62-1.35c.12-.54.21-1,.27-1.49a12.31,12.31,0,0,0,.14-1.79,3.33,3.33,0,0,0-.29-1.46,1.47,1.47,0,0,0-2.28-.28,3.34,3.34,0,0,0-.63,1.34,13.13,13.13,0,0,0-.32,1.78,13.52,13.52,0,0,0-.1,1.52,3.18,3.18,0,0,0,.29,1.46A1.26,1.26,0,0,0,605.44,279.85Zm1.36-11.14a1,1,0,0,0,.88-.3,2.75,2.75,0,0,0,.63-1.14,10.06,10.06,0,0,0,.41-2,4.32,4.32,0,0,0-.14-2,1.21,1.21,0,0,0-1-.85,1.25,1.25,0,0,0-1.23.58,3.73,3.73,0,0,0-.63,1.84,9.65,9.65,0,0,0-.08,2,2.49,2.49,0,0,0,.37,1.28A1.09,1.09,0,0,0,606.8,268.71Z" style="fill: rgb(38, 50, 56); transform-origin: 606.333px 271.13px;" id="elmacen9ovpw" class="animable"></path><path d="M645.81,288.43a7.81,7.81,0,0,1-3.56-1.15,4.06,4.06,0,0,1-1.64-2.32,8.81,8.81,0,0,1-.15-3.46l0-.2,0-.19,4.63.56a6.52,6.52,0,0,0,0,2.18c.11.49.5.77,1.17.85a1.2,1.2,0,0,0,1.06-.29A3,3,0,0,0,648,283c.15-.7.31-1.66.45-2.88l.26-2.14a2.33,2.33,0,0,1-1.28.81,5.58,5.58,0,0,1-1.81.17,4.44,4.44,0,0,1-2.94-1.32,5.43,5.43,0,0,1-1.34-2.84,12.51,12.51,0,0,1-.06-3.68,13.19,13.19,0,0,1,1.16-4.26,5.71,5.71,0,0,1,2.44-2.58,6.73,6.73,0,0,1,4-.54,7,7,0,0,1,3.71,1.42,5.52,5.52,0,0,1,1.8,2.91,11.19,11.19,0,0,1,.17,4.1l-1.08,8.95a14.87,14.87,0,0,1-1.06,4.11,5.5,5.5,0,0,1-2.32,2.65A6.81,6.81,0,0,1,645.81,288.43Zm1.65-13.09a1.34,1.34,0,0,0,1-.21,4.11,4.11,0,0,0,.64-.55l.48-3.92a10.26,10.26,0,0,0,.06-1.54,2.48,2.48,0,0,0-.31-1.18,1.2,1.2,0,0,0-1-.55,1.15,1.15,0,0,0-1,.34,3,3,0,0,0-.59,1.31,21.61,21.61,0,0,0-.38,2.23c-.09.77-.15,1.45-.17,2a3,3,0,0,0,.23,1.41A1.24,1.24,0,0,0,647.46,275.34Z" style="fill: rgb(38, 50, 56); transform-origin: 647.515px 276.101px;" id="elt81b4b87gam" class="animable"></path><path d="M662.16,290.51a6.89,6.89,0,0,1-3.51-1.31,5.64,5.64,0,0,1-1.9-2.68,8.34,8.34,0,0,1-.31-3.68L657.77,272a9.2,9.2,0,0,1,1.14-3.6,5.48,5.48,0,0,1,2.45-2.22,7,7,0,0,1,3.82-.43,7,7,0,0,1,3.58,1.33,5.39,5.39,0,0,1,1.83,2.74,9.09,9.09,0,0,1,.25,3.77l-1.33,10.88a8.15,8.15,0,0,1-1.17,3.48,5.63,5.63,0,0,1-2.49,2.17A6.87,6.87,0,0,1,662.16,290.51Zm.53-4.41a1.15,1.15,0,0,0,1.08-.34,2.36,2.36,0,0,0,.52-1,9.29,9.29,0,0,0,.2-1l1.3-10.64c0-.34.06-.72.08-1.15a2.51,2.51,0,0,0-.24-1.17,1.17,1.17,0,0,0-1-.62,1.15,1.15,0,0,0-1.11.36,2.46,2.46,0,0,0-.51,1.08c-.09.42-.16.8-.2,1.14l-1.29,10.64a6.9,6.9,0,0,0,0,1.06,2.54,2.54,0,0,0,.27,1.12A1.13,1.13,0,0,0,662.69,286.1Z" style="fill: rgb(38, 50, 56); transform-origin: 663.646px 278.13px;" id="eler8tkwp0x5t" class="animable"></path><path d="M405.56,318.19l.43-3.5,6.82-8.13c.52-.6,1-1.19,1.46-1.75a11.94,11.94,0,0,0,1.18-1.75,5.5,5.5,0,0,0,.61-1.94,2.42,2.42,0,0,0-.23-1.6,1.38,1.38,0,0,0-1.06-.64,1.72,1.72,0,0,0-1.3.3,2.38,2.38,0,0,0-.75,1.11,8.1,8.1,0,0,0-.37,1.64l-.14,1.18-4.8-.58.15-1.28a10,10,0,0,1,1.15-3.72,5.7,5.7,0,0,1,2.48-2.38,7.14,7.14,0,0,1,4-.49,6.62,6.62,0,0,1,4.67,2.27,6.44,6.44,0,0,1,1.08,4.87,7.74,7.74,0,0,1-.79,2.64,12.61,12.61,0,0,1-1.51,2.27c-.6.72-1.23,1.47-1.91,2.25l-5.18,6,7,.86-.47,3.88Z" style="fill: rgb(38, 50, 56); transform-origin: 413.302px 307.132px;" id="elucbokinuj3j" class="animable"></path><path d="M427.72,321.24a6.61,6.61,0,0,1-3.69-1.48,6,6,0,0,1-1.81-3.07,11.26,11.26,0,0,1-.18-4.14l1-8.68a15,15,0,0,1,1.06-4.12,5.5,5.5,0,0,1,2.32-2.65,6.88,6.88,0,0,1,4.22-.55,7.93,7.93,0,0,1,3.56,1.15A4.16,4.16,0,0,1,435.9,300a9.13,9.13,0,0,1,.15,3.45.83.83,0,0,0,0,.22,1.27,1.27,0,0,1,0,.2l-4.66-.57a7.7,7.7,0,0,0,0-2.18q-.14-.72-1.14-.84a1.25,1.25,0,0,0-1.08.29,2.86,2.86,0,0,0-.63,1.4,27.63,27.63,0,0,0-.47,2.89l-.26,2.13a2.27,2.27,0,0,1,1.27-.82A4.86,4.86,0,0,1,431,306a4.48,4.48,0,0,1,2.94,1.23,5.16,5.16,0,0,1,1.34,2.7,11.93,11.93,0,0,1,.07,3.6,14.92,14.92,0,0,1-1.13,4.36,5.8,5.8,0,0,1-2.38,2.74A6.5,6.5,0,0,1,427.72,321.24Zm.5-3.63a1.15,1.15,0,0,0,1-.34,3.13,3.13,0,0,0,.58-1.32,20.91,20.91,0,0,0,.38-2.22c.09-.79.15-1.48.17-2.06a3,3,0,0,0-.23-1.39,1.25,1.25,0,0,0-1-.63,1.84,1.84,0,0,0-.7.07,2,2,0,0,0-.61.3,1.93,1.93,0,0,0-.41.39l-.47,3.91a7.21,7.21,0,0,0-.05,1.53,2.4,2.4,0,0,0,.36,1.2A1.31,1.31,0,0,0,428.22,317.61Z" style="fill: rgb(38, 50, 56); transform-origin: 429.038px 308.888px;" id="el9ohgscnkral" class="animable"></path><path d="M462.61,325.13l.42-3.5,6.83-8.13c.51-.6,1-1.18,1.46-1.75A11.43,11.43,0,0,0,472.5,310a5.64,5.64,0,0,0,.61-1.94,2.41,2.41,0,0,0-.23-1.59,1.37,1.37,0,0,0-1.06-.64,1.67,1.67,0,0,0-1.3.29,2.31,2.31,0,0,0-.75,1.11,8.1,8.1,0,0,0-.37,1.64l-.14,1.19-4.81-.59.16-1.27a10,10,0,0,1,1.14-3.73,5.64,5.64,0,0,1,2.49-2.37,7,7,0,0,1,4-.49,6.62,6.62,0,0,1,4.67,2.26,6.45,6.45,0,0,1,1.08,4.87,7.74,7.74,0,0,1-.79,2.64,12.27,12.27,0,0,1-1.51,2.27c-.6.72-1.23,1.47-1.91,2.25l-5.19,6,7,.85-.47,3.89Z" style="fill: rgb(38, 50, 56); transform-origin: 470.351px 314.075px;" id="elt8pfn62mpj" class="animable"></path><path d="M484.29,328.16a7,7,0,0,1-3.77-1.44,5.33,5.33,0,0,1-1.75-2.92,11.49,11.49,0,0,1-.15-4,11.85,11.85,0,0,1,.41-1.71,6.71,6.71,0,0,1,.69-1.51,4.83,4.83,0,0,1,1-1.17,4.18,4.18,0,0,1,1.34-.75,6.11,6.11,0,0,1-1.39-2.17,7.13,7.13,0,0,1-.37-3.37,7.71,7.71,0,0,1,1.08-3.39,5,5,0,0,1,2.36-2,7.07,7.07,0,0,1,3.54-.35,6.88,6.88,0,0,1,3.35,1.21,4.94,4.94,0,0,1,1.79,2.47,7.54,7.54,0,0,1,.21,3.53,7.45,7.45,0,0,1-1.12,3.22,5.42,5.42,0,0,1-1.86,1.74,4.45,4.45,0,0,1,1.11,1.05,4.75,4.75,0,0,1,.71,1.38,7.12,7.12,0,0,1,.33,1.64,7.91,7.91,0,0,1,0,1.75,10.28,10.28,0,0,1-1,3.83,5.4,5.4,0,0,1-2.41,2.41A7,7,0,0,1,484.29,328.16Zm.44-3.65a1.24,1.24,0,0,0,1.23-.45,3.65,3.65,0,0,0,.62-1.35c.12-.54.21-1,.27-1.49a12.2,12.2,0,0,0,.14-1.79,3.33,3.33,0,0,0-.29-1.46,1.29,1.29,0,0,0-1.09-.69,1.27,1.27,0,0,0-1.19.41,3.41,3.41,0,0,0-.63,1.34,14.86,14.86,0,0,0-.42,3.3,3.25,3.25,0,0,0,.29,1.47A1.27,1.27,0,0,0,484.73,324.51Zm1.36-11.14a1,1,0,0,0,.88-.3,2.75,2.75,0,0,0,.63-1.14,10.85,10.85,0,0,0,.41-2,4.33,4.33,0,0,0-.14-2,1.2,1.2,0,0,0-1-.84,1.24,1.24,0,0,0-1.23.57,3.77,3.77,0,0,0-.63,1.85,9.63,9.63,0,0,0-.08,2,2.49,2.49,0,0,0,.37,1.27A1.09,1.09,0,0,0,486.09,313.37Z" style="fill: rgb(38, 50, 56); transform-origin: 485.63px 315.776px;" id="elp6wfqa2e8n" class="animable"></path><path d="M521.33,332.28,529,312.67l-6.55-.8.46-3.76,11.38,1.38-.41,3.41-7.73,20Z" style="fill: rgb(38, 50, 56); transform-origin: 527.81px 320.505px;" id="eldi286kuh1wp" class="animable"></path><path d="M540.1,335a7.12,7.12,0,0,1-3.84-1.43,5.21,5.21,0,0,1-1.73-2.9,11.94,11.94,0,0,1-.12-4l.1-.86,5,.6,0,.33c0,.2,0,.37-.06.53a9.91,9.91,0,0,0-.09,2,1.91,1.91,0,0,0,.4,1.14,1.54,1.54,0,0,0,1,.47,1.33,1.33,0,0,0,1.06-.23,2,2,0,0,0,.59-1,11,11,0,0,0,.34-1.76,6.08,6.08,0,0,0-.16-2.77,2.12,2.12,0,0,0-1.92-1.21l-.32,0-.6-.08.42-3.4.42.05.38,0a2.3,2.3,0,0,0,2.21-.6,5.22,5.22,0,0,0,.86-2.6,5.08,5.08,0,0,0-.11-2.18,1.41,1.41,0,0,0-1.29-.91,1.24,1.24,0,0,0-1.39.67,6,6,0,0,0-.57,2.1c0,.2,0,.4-.08.61l-.07.63-5-.6.17-1.45a8,8,0,0,1,1.23-3.57,5.31,5.31,0,0,1,2.53-2,7.53,7.53,0,0,1,3.61-.34,7.92,7.92,0,0,1,3.47,1.17,5.22,5.22,0,0,1,2,2.46,7.3,7.3,0,0,1,.37,3.67,6.75,6.75,0,0,1-1.29,3.42,3.54,3.54,0,0,1-2.29,1.49,4.17,4.17,0,0,1,1.38,1.14,4.46,4.46,0,0,1,.84,1.89,8.7,8.7,0,0,1,0,2.87,11.07,11.07,0,0,1-1.11,3.81,5.43,5.43,0,0,1-2.41,2.4A6.92,6.92,0,0,1,540.1,335Z" style="fill: rgb(38, 50, 56); transform-origin: 541.647px 322.633px;" id="elydgnnxx7oc" class="animable"></path><path d="M580.53,339.48l2.32-19.12a7.8,7.8,0,0,1-.78.27l-.92.26-.93.27c-.3.08-.58.17-.83.26l.45-3.68,1-.38,1.36-.54c.49-.2.94-.41,1.37-.63a6.24,6.24,0,0,0,1-.59l3.88.48-2.92,24Z" style="fill: rgb(38, 50, 56); transform-origin: 583.92px 327.84px;" id="elfj04b11psxl" class="animable"></path><path d="M595.81,341.7a7.81,7.81,0,0,1-3.56-1.15,4.06,4.06,0,0,1-1.64-2.32,8.81,8.81,0,0,1-.15-3.46l0-.2,0-.19,4.63.56a6.8,6.8,0,0,0,0,2.18c.11.49.5.77,1.17.85a1.2,1.2,0,0,0,1.06-.29,3,3,0,0,0,.61-1.41c.15-.7.31-1.66.46-2.88l.25-2.14a2.33,2.33,0,0,1-1.28.81,5.58,5.58,0,0,1-1.81.17,4.44,4.44,0,0,1-2.94-1.32,5.46,5.46,0,0,1-1.34-2.84,12.51,12.51,0,0,1-.06-3.68,13.19,13.19,0,0,1,1.16-4.26,5.67,5.67,0,0,1,2.44-2.58,6.73,6.73,0,0,1,4-.54,7,7,0,0,1,3.71,1.42,5.52,5.52,0,0,1,1.8,2.91,11.38,11.38,0,0,1,.18,4.1l-1.09,8.95a14.87,14.87,0,0,1-1.06,4.11,5.5,5.5,0,0,1-2.32,2.65A6.88,6.88,0,0,1,595.81,341.7Zm1.65-13.09a1.34,1.34,0,0,0,1-.21,4.11,4.11,0,0,0,.64-.55l.48-3.92a10.26,10.26,0,0,0,.06-1.54,2.45,2.45,0,0,0-.31-1.18,1.18,1.18,0,0,0-1-.55,1.13,1.13,0,0,0-1,.34,2.91,2.91,0,0,0-.6,1.31,21.61,21.61,0,0,0-.38,2.23c-.09.77-.15,1.45-.17,2a3,3,0,0,0,.24,1.42A1.21,1.21,0,0,0,597.46,328.61Z" style="fill: rgb(38, 50, 56); transform-origin: 597.481px 329.365px;" id="el0b87bwzyyzlq" class="animable"></path><path d="M636,346.24l7.69-19.61-6.56-.8.46-3.76L649,323.45l-.41,3.41-7.72,20Z" style="fill: rgb(38, 50, 56); transform-origin: 642.5px 334.465px;" id="elgqqtgy4idnm" class="animable"></path><path d="M649.05,347.82l7.68-19.61-6.55-.79.45-3.77L662,325l-.42,3.4-7.72,20Z" style="fill: rgb(38, 50, 56); transform-origin: 655.525px 336.025px;" id="el7gi5bvzko4i" class="animable"></path><path d="M404.37,379.36a7.93,7.93,0,0,1-3.56-1.15,4.09,4.09,0,0,1-1.64-2.32,9.25,9.25,0,0,1-.15-3.47l0-.19,0-.19,4.62.56a6.8,6.8,0,0,0,0,2.18c.11.49.5.77,1.18.85a1.18,1.18,0,0,0,1.05-.29,2.91,2.91,0,0,0,.61-1.42c.16-.69.31-1.65.46-2.87l.26-2.14a2.52,2.52,0,0,1-1.29.81,5.55,5.55,0,0,1-1.81.17,4.56,4.56,0,0,1-2.94-1.32,5.45,5.45,0,0,1-1.33-2.84,12.17,12.17,0,0,1-.07-3.68,13.19,13.19,0,0,1,1.17-4.26,5.55,5.55,0,0,1,2.43-2.58,6.77,6.77,0,0,1,4-.54,6.89,6.89,0,0,1,3.71,1.42,5.44,5.44,0,0,1,1.79,2.91,10.91,10.91,0,0,1,.18,4.09L412,372a14.51,14.51,0,0,1-1.06,4.12,5.45,5.45,0,0,1-2.32,2.65A6.87,6.87,0,0,1,404.37,379.36ZM406,366.27a1.32,1.32,0,0,0,1-.21,3.7,3.7,0,0,0,.64-.56l.48-3.91a9.18,9.18,0,0,0,.07-1.54,2.69,2.69,0,0,0-.31-1.18,1.18,1.18,0,0,0-1-.55,1.1,1.1,0,0,0-1,.34,3.08,3.08,0,0,0-.6,1.31,21.21,21.21,0,0,0-.37,2.22c-.1.77-.15,1.45-.18,2a2.88,2.88,0,0,0,.24,1.41A1.23,1.23,0,0,0,406,366.27Z" style="fill: rgb(38, 50, 56); transform-origin: 406.038px 367.022px;" id="elf0o6y3znrbd" class="animable"></path><path d="M420.32,381.3a7.93,7.93,0,0,1-3.56-1.15,4.09,4.09,0,0,1-1.64-2.32,8.85,8.85,0,0,1-.15-3.47l0-.19,0-.19,4.63.56a6.52,6.52,0,0,0,0,2.18c.11.49.5.77,1.17.85a1.2,1.2,0,0,0,1.06-.29,3,3,0,0,0,.61-1.42c.15-.69.31-1.65.45-2.87l.26-2.14a2.33,2.33,0,0,1-1.28.81,5.58,5.58,0,0,1-1.81.17,4.54,4.54,0,0,1-2.94-1.32,5.46,5.46,0,0,1-1.34-2.84,12.51,12.51,0,0,1-.06-3.68,13.19,13.19,0,0,1,1.16-4.26,5.62,5.62,0,0,1,2.44-2.58,6.73,6.73,0,0,1,4-.54A6.93,6.93,0,0,1,427,358a5.52,5.52,0,0,1,1.8,2.91A11.34,11.34,0,0,1,429,365l-1.09,9a14.87,14.87,0,0,1-1.06,4.11,5.5,5.5,0,0,1-2.32,2.65A6.88,6.88,0,0,1,420.32,381.3ZM422,368.21a1.34,1.34,0,0,0,1-.21,3.66,3.66,0,0,0,.64-.56l.48-3.91a10.3,10.3,0,0,0,.06-1.54,2.45,2.45,0,0,0-.31-1.18,1.18,1.18,0,0,0-.95-.55,1.12,1.12,0,0,0-1,.34,3,3,0,0,0-.59,1.31,21.37,21.37,0,0,0-.38,2.22c-.09.78-.15,1.45-.17,2a3.09,3.09,0,0,0,.23,1.42A1.24,1.24,0,0,0,422,368.21Z" style="fill: rgb(38, 50, 56); transform-origin: 421.982px 368.966px;" id="elvtarnxfg67b" class="animable"></path><path d="M461.8,386l.66-5.39-7.38-.9.44-3.65,8.08-14.2,5.75.7-1.82,14.93,2.22.27-.44,3.68-2.23-.27-.65,5.39Zm-2.51-9.51,3.62.44,1.21-10Z" style="fill: rgb(38, 50, 56); transform-origin: 462.415px 374.21px;" id="el6ycivvpgx7r" class="animable"></path><path d="M477.35,388.24a6.55,6.55,0,0,1-3.68-1.48,5.88,5.88,0,0,1-1.81-3.07,11.47,11.47,0,0,1-.19-4.14l1.06-8.68a15,15,0,0,1,1-4.12,5.46,5.46,0,0,1,2.33-2.65,6.87,6.87,0,0,1,4.22-.55,7.88,7.88,0,0,1,3.55,1.15,4.12,4.12,0,0,1,1.65,2.31,9.13,9.13,0,0,1,.15,3.45,1.7,1.7,0,0,0,0,.22,1.27,1.27,0,0,1,0,.2l-4.65-.57a8.1,8.1,0,0,0,0-2.18c-.1-.48-.48-.76-1.15-.84a1.23,1.23,0,0,0-1.07.29,2.85,2.85,0,0,0-.64,1.4,27.63,27.63,0,0,0-.47,2.89l-.26,2.13a2.3,2.3,0,0,1,1.27-.82,4.9,4.9,0,0,1,1.86-.15,4.48,4.48,0,0,1,2.93,1.23,5.09,5.09,0,0,1,1.34,2.7,11.61,11.61,0,0,1,.07,3.6,14.92,14.92,0,0,1-1.13,4.36,5.75,5.75,0,0,1-2.38,2.74A6.48,6.48,0,0,1,477.35,388.24Zm.5-3.63a1.13,1.13,0,0,0,1-.34,3,3,0,0,0,.58-1.32,18.62,18.62,0,0,0,.38-2.22c.1-.79.15-1.48.17-2.06a2.85,2.85,0,0,0-.23-1.39,1.25,1.25,0,0,0-1-.63,1.84,1.84,0,0,0-.7.07,2,2,0,0,0-.61.3,1.86,1.86,0,0,0-.4.39l-.48,3.91a7.93,7.93,0,0,0-.05,1.53,2.4,2.4,0,0,0,.36,1.2A1.31,1.31,0,0,0,477.85,384.61Z" style="fill: rgb(38, 50, 56); transform-origin: 478.646px 375.885px;" id="el6oe06hxek94" class="animable"></path><path d="M512.2,392.12l.42-3.49,6.83-8.14c.51-.6,1-1.18,1.46-1.74a11.12,11.12,0,0,0,1.17-1.75,5.5,5.5,0,0,0,.62-1.95,2.41,2.41,0,0,0-.23-1.59,1.4,1.4,0,0,0-1.07-.64,1.7,1.7,0,0,0-1.29.29,2.36,2.36,0,0,0-.76,1.12,8,8,0,0,0-.36,1.64l-.15,1.18-4.8-.58.16-1.28a10,10,0,0,1,1.14-3.72,5.61,5.61,0,0,1,2.49-2.38,7.12,7.12,0,0,1,4-.49,6.59,6.59,0,0,1,4.67,2.27,6.44,6.44,0,0,1,1.08,4.87,7.74,7.74,0,0,1-.79,2.64,12.61,12.61,0,0,1-1.51,2.27c-.6.72-1.24,1.47-1.91,2.25l-5.19,6,7,.86-.48,3.88Z" style="fill: rgb(38, 50, 56); transform-origin: 519.942px 381.072px;" id="el2j6hhn3a2b1" class="animable"></path><path d="M527.43,394l.43-3.5,6.82-8.13c.52-.6,1-1.18,1.46-1.75a11.43,11.43,0,0,0,1.18-1.75,5.43,5.43,0,0,0,.61-1.94,2.35,2.35,0,0,0-.23-1.59,1.36,1.36,0,0,0-1.06-.64,1.68,1.68,0,0,0-1.3.29,2.38,2.38,0,0,0-.75,1.11,8.1,8.1,0,0,0-.37,1.64l-.14,1.19-4.8-.59.15-1.27a10.21,10.21,0,0,1,1.15-3.73,5.62,5.62,0,0,1,2.48-2.37,7,7,0,0,1,4-.49,6.56,6.56,0,0,1,4.67,2.26,6.41,6.41,0,0,1,1.08,4.87,7.74,7.74,0,0,1-.79,2.64,11.79,11.79,0,0,1-1.51,2.27c-.59.72-1.23,1.47-1.91,2.25l-5.18,6,7,.85L540,395.5Z" style="fill: rgb(38, 50, 56); transform-origin: 535.173px 382.939px;" id="elvaqa5g6drck" class="animable"></path><path d="M568.46,399l.42-3.5,6.83-8.13c.51-.6,1-1.18,1.46-1.75a11,11,0,0,0,1.18-1.75,5.64,5.64,0,0,0,.61-1.94,2.41,2.41,0,0,0-.23-1.59,1.38,1.38,0,0,0-1.06-.64,1.67,1.67,0,0,0-1.3.29,2.31,2.31,0,0,0-.75,1.11,8.1,8.1,0,0,0-.37,1.64l-.14,1.19-4.81-.58.16-1.28a9.85,9.85,0,0,1,1.15-3.72,5.54,5.54,0,0,1,2.48-2.38,7,7,0,0,1,4-.49,6.59,6.59,0,0,1,4.67,2.27,6.44,6.44,0,0,1,1.08,4.87,7.88,7.88,0,0,1-.79,2.64,12.61,12.61,0,0,1-1.51,2.27c-.6.71-1.23,1.46-1.91,2.24l-5.18,6,7,.86L581,400.5Z" style="fill: rgb(38, 50, 56); transform-origin: 576.202px 387.94px;" id="el9dv3djdzlno" class="animable"></path><path d="M590.58,402.11a6.86,6.86,0,0,1-3.51-1.31,5.53,5.53,0,0,1-1.9-2.68,8.33,8.33,0,0,1-.31-3.68l1.33-10.88a9.2,9.2,0,0,1,1.14-3.6,5.43,5.43,0,0,1,2.45-2.22,7,7,0,0,1,3.81-.43,7,7,0,0,1,3.59,1.33,5.52,5.52,0,0,1,1.83,2.74,9.26,9.26,0,0,1,.25,3.77L597.93,396a8.15,8.15,0,0,1-1.17,3.48,5.63,5.63,0,0,1-2.49,2.17A6.87,6.87,0,0,1,590.58,402.11Zm.53-4.41a1.15,1.15,0,0,0,1.08-.34,2.36,2.36,0,0,0,.52-1,9.29,9.29,0,0,0,.2-1l1.29-10.64c0-.34.07-.72.08-1.15a2.38,2.38,0,0,0-.23-1.17,1.17,1.17,0,0,0-1-.62,1.15,1.15,0,0,0-1.11.36,2.5,2.5,0,0,0-.51,1.09c-.09.41-.16.79-.2,1.13l-1.3,10.64a8.65,8.65,0,0,0,0,1.06,2.54,2.54,0,0,0,.27,1.12A1.13,1.13,0,0,0,591.11,397.7Z" style="fill: rgb(38, 50, 56); transform-origin: 592.064px 389.701px;" id="elnlvycnn9jl" class="animable"></path><path d="M628.72,406.31l7.68-19.61-6.55-.8.46-3.76,11.38,1.38-.41,3.41-7.73,20Z" style="fill: rgb(38, 50, 56); transform-origin: 635.205px 394.535px;" id="el4dy2o50wa8q" class="animable"></path><path d="M641.73,407.89l7.69-19.61-6.56-.8.46-3.76,11.38,1.39-.41,3.4-7.72,20Z" style="fill: rgb(38, 50, 56); transform-origin: 648.215px 396.115px;" id="elzhs9tu5jr5j" class="animable"></path></g><g id="freepik--Dots--inject-34" class="animable" style="transform-origin: 544.603px 269.148px;"><g id="elxfb1ioy2q8l"><circle cx="535.4" cy="323.21" r="22.77" style="fill: rgb(0, 255, 136); stroke: rgb(38, 50, 56); stroke-linecap: round; stroke-linejoin: round; transform-origin: 535.4px 323.21px; transform: rotate(-37.49deg);" class="animable"></circle></g><g id="el9vwc3f3budh"><circle cx="607.66" cy="214.97" r="22.77" style="fill: rgb(0, 255, 136); stroke: rgb(38, 50, 56); stroke-linecap: round; stroke-linejoin: round; transform-origin: 607.66px 214.97px; transform: rotate(-24.4deg);" class="animable"></circle></g><g id="eltosxzub7tv"><circle cx="643.51" cy="396.9" r="22.77" style="fill: rgb(0, 255, 136); stroke: rgb(38, 50, 56); stroke-linecap: round; stroke-linejoin: round; transform-origin: 643.51px 396.9px; transform: rotate(-32.11deg);" class="animable"></circle></g><g id="elyyjxckiu6ms"><circle cx="650.82" cy="336.85" r="22.77" style="fill: rgb(0, 255, 136); stroke: rgb(38, 50, 56); stroke-linecap: round; stroke-linejoin: round; transform-origin: 650.82px 336.85px; transform: rotate(-80.82deg);" class="animable"></circle></g><g id="elaq7mm8wwriw"><circle cx="443.93" cy="141.66" r="22.77" style="fill: rgb(0, 255, 136); stroke: rgb(38, 50, 56); stroke-linecap: round; stroke-linejoin: round; transform-origin: 443.93px 141.66px; transform: rotate(-34.42deg);" class="animable"></circle></g></g><g id="freepik--character-3--inject-34" class="animable" style="transform-origin: 372.404px 322.371px;"><path d="M440.29,274.57s-14.15,68.71-16.23,89.08,10,80.1,10,80.1" style="fill: none; stroke: rgb(38, 50, 56); stroke-linecap: round; stroke-linejoin: round; stroke-width: 5px; transform-origin: 432.055px 359.16px;" id="el2fbhrlm0qly" class="animable"></path><path d="M351.3,360.53c.15,1.13.27,2.18.37,3.12,2.07,20.37-10,80.1-10,80.1" style="fill: none; stroke: rgb(38, 50, 56); stroke-linecap: round; stroke-linejoin: round; stroke-width: 5px; transform-origin: 346.789px 402.14px;" id="elfnrib4r5toe" class="animable"></path><rect x="348.85" y="357.88" width="75.72" height="6.34" style="fill: rgb(255, 255, 255); stroke: rgb(38, 50, 56); stroke-linecap: round; stroke-linejoin: round; transform-origin: 386.71px 361.05px;" id="el2l8lkoarves" class="animable"></rect><path d="M330.2,416.72s-.75,5.75-2,7.75-12,9.74-16.74,11.24-7.74,2.25-6.75,4.75S313,444,325,443.7s25,.25,25.49-2.25-4.25-16-4.75-17.73-1.25-7.25-1.25-7.25Z" style="fill: rgb(255, 255, 255); stroke: rgb(38, 50, 56); stroke-linecap: round; stroke-linejoin: round; transform-origin: 327.523px 430.11px;" id="elks6xuade7d" class="animable"></path><path d="M330.45,426.71v2s10.17.4,16.61-.76c1.54,4.72,3.72,11.77,3.38,13.5-.5,2.5-13.5,2-25.49,2.25s-19.24-.75-20.24-3.24,2-3.25,6.75-4.75,15.49-9.25,16.74-11.24C328.2,424.47,330.45,426,330.45,426.71Z" style="fill: rgb(0, 255, 136); stroke: rgb(38, 50, 56); stroke-linecap: round; stroke-linejoin: round; transform-origin: 327.497px 434.104px;" id="elbxn26n9klj" class="animable"></path><path d="M304.71,440.46a1.84,1.84,0,0,1,.07-1.75c6.28,2,17.52,3.77,26.42,2,7.45-1.5,14.69-2.55,18.72-3.09a12,12,0,0,1,.52,3.83c-.5,2.5-13.5,2-25.49,2.25S305.71,443,304.71,440.46Z" style="fill: rgb(255, 255, 255); stroke: rgb(38, 50, 56); stroke-linecap: round; stroke-linejoin: round; transform-origin: 327.483px 440.679px;" id="elpae61ey6xd9" class="animable"></path><path d="M337.78,417.62s-.59,7-1.6,8.91-10.33,9.65-14.56,11.31-6.93,2.55-5.86,4.76,7.75,2.67,18.67,1.69,22.82-1.36,23.12-3.67-4.89-14.32-5.46-15.88a75.22,75.22,0,0,1-1.33-8.25Z" style="fill: rgb(255, 255, 255); stroke: rgb(38, 50, 56); stroke-linecap: round; stroke-linejoin: round; transform-origin: 336.544px 430.634px;" id="elfa43tr20blg" class="animable"></path><path d="M338.38,428.44l.12,1.82s9.31-.28,15.11-1.75c1.7,4.22,4.14,10.51,3.94,12.11-.3,2.31-12.19,2.68-23.12,3.67s-17.6.53-18.67-1.69,1.62-3.09,5.86-4.76,13.55-9.41,14.56-11.31C336.18,426.53,338.33,427.75,338.38,428.44Z" style="fill: rgb(0, 255, 136); stroke: rgb(38, 50, 56); stroke-linecap: round; stroke-linejoin: round; transform-origin: 336.543px 435.658px;" id="el1pmdn0e2eez" class="animable"></path><path d="M315.76,442.6a1.67,1.67,0,0,1-.05-1.59c5.86,1.38,16.23,2.33,24.23.15,6.71-1.84,13.25-3.25,16.89-4a11.4,11.4,0,0,1,.72,3.46c-.3,2.31-12.19,2.68-23.12,3.67S316.83,444.82,315.76,442.6Z" style="fill: rgb(255, 255, 255); stroke: rgb(38, 50, 56); stroke-linecap: round; stroke-linejoin: round; transform-origin: 336.541px 440.973px;" id="el42348hz7vm" class="animable"></path><path d="M371.14,284.08s-21.57,7.41-22.57,9.07S346,301.62,347,302.2s23.15,0,24.92-1.08,2-15.82,1.44-16.93S371.14,284.08,371.14,284.08Z" style="fill: rgb(255, 255, 255); stroke: rgb(38, 50, 56); stroke-linecap: round; stroke-linejoin: round; transform-origin: 360.155px 293.048px;" id="elinpzzorkz1" class="animable"></path><path d="M334.3,302s-1,2-.22,3,5.42,1.88,6.86,1.1-1-3.3-1.57-3S334.3,302,334.3,302Z" style="fill: rgb(255, 255, 255); stroke: rgb(38, 50, 56); stroke-linecap: round; stroke-linejoin: round; transform-origin: 337.585px 304.2px;" id="el9ji1odohckl" class="animable"></path><path d="M335.79,297.42a11.91,11.91,0,0,0-1.69,3.76c-.19,1.51,3.39,3.95,5.08,4.33s3.7.07,3.2-1.13S335.79,297.42,335.79,297.42Z" style="fill: rgb(255, 255, 255); stroke: rgb(38, 50, 56); stroke-linecap: round; stroke-linejoin: round; transform-origin: 338.275px 301.542px;" id="elw1q2gjzuoup" class="animable"></path><path d="M339.08,289.22l2.79,14a2.61,2.61,0,0,0,3,2.05h0a2.61,2.61,0,0,0,2.09-3l-2.56-14a2.68,2.68,0,0,0-3.45-2.07l-.09,0A2.68,2.68,0,0,0,339.08,289.22Z" style="fill: rgb(0, 255, 136); stroke: rgb(38, 50, 56); stroke-linecap: round; stroke-linejoin: round; transform-origin: 343.017px 295.691px;" id="elet3tew0rdk4" class="animable"></path><path d="M340.12,293.09s-4.14.19-4.33,2.63,2.45,6,3.58,7.34a1.74,1.74,0,0,0,2.5.12Z" style="fill: rgb(255, 255, 255); stroke: rgb(38, 50, 56); stroke-linecap: round; stroke-linejoin: round; transform-origin: 338.825px 298.371px;" id="el0acgmoiaqybq" class="animable"></path><path d="M345.59,292.27s.44,7.19,1.1,7.74,2.55.55,2.88-.88.77-4.76.11-6.42S347.69,289.61,345.59,292.27Z" style="fill: rgb(255, 255, 255); stroke: rgb(38, 50, 56); stroke-linecap: round; stroke-linejoin: round; transform-origin: 347.806px 295.574px;" id="eluh8ald35ixf" class="animable"></path><path d="M322.33,368.07l1,50.77s1.77,1.77,7.65,1.38a43,43,0,0,0,9-1.38s-7.44-43.51-7.44-50.77S326.06,359.25,322.33,368.07Z" style="fill: rgb(38, 50, 56); stroke: rgb(38, 50, 56); stroke-linecap: round; stroke-linejoin: round; transform-origin: 331.155px 391.151px;" id="elxdvo2cmxh6" class="animable"></path><path d="M368.79,327.3s-38.62,3.14-46.65,12.15-2,29.21,1.37,36.66,10.58,44.5,10.58,44.5,2.75.59,8.63-.79a33.83,33.83,0,0,0,10.58-4.7s-5.68-29.6-5.88-35.68-1.76-22.34-1.76-22.34,52.14,2.54,62.92.78,14.31-9.21,15.49-17.84-2-14.31-2-14.31Z" style="fill: rgb(38, 50, 56); stroke: rgb(38, 50, 56); stroke-linecap: round; stroke-linejoin: round; transform-origin: 371.243px 373.233px;" id="elwhig9vo1qxk" class="animable"></path><path d="M373.23,259.6s-4.32,32.74-4.51,42.33-2.45,19.76-1.13,23.71,6.21,4.14,7.52,4.14,30.86-.19,38.38-.19,9.79,0,10.92-3.95,1.69-5.08.75-10.16S416.69,273.9,412,262.8s-15.8-18.81-18.81-19.38S373.23,259.6,373.23,259.6Z" style="fill: rgb(255, 255, 255); stroke: rgb(38, 50, 56); stroke-linecap: round; stroke-linejoin: round; transform-origin: 396.407px 286.593px;" id="ellklu3p5jpal" class="animable"></path><path d="M365.52,203.54s-7.53,6.77-8.28,10.53a21.18,21.18,0,0,1-2.07,6s-4.7,6-4.89,10,2.63,3.2,2.63,3.2l1.13,5.27a2.63,2.63,0,0,0-.94,2.63c.38,1.7,1.32,5.84,4.33,7.34s7.9-.56,7.9-.56l7.34,6.21,16.74-14.3-1.5-4.9s8.46-3.38,9.4-14.67-7.71-16.74-13.54-19S369.28,199.58,365.52,203.54Z" style="fill: rgb(255, 255, 255); stroke: rgb(38, 50, 56); stroke-linecap: round; stroke-linejoin: round; transform-origin: 373.826px 227.062px;" id="eldcfm37c3wdi" class="animable"></path><path d="M383.77,201.28c-5.83-2.26-14.49-1.7-18.25,2.26,0,0-.54.48-1.33,1.25V205s-.75,1.88,1.69,1.32a47.33,47.33,0,0,1,6.59-.76s-2.07,1.7-.75,2.45,3.57.19,3.57.19-6.21,5.83-5.64,10.16,5.27,5.08,5.27,5.08l1.88-2.82s-.76,3.38.75,3.38,3.2-2.63,3.76-.56a10,10,0,0,1-.94,6.21,8.21,8.21,0,0,1-1.69,1.5s1.13,3.58,3,3.76a3.69,3.69,0,0,0,3-1.12l3.2,1.12s8.46-3.38,9.4-14.67S389.6,203.54,383.77,201.28Z" style="fill: rgb(190, 193, 195); stroke: rgb(133, 140, 144); stroke-linecap: round; stroke-linejoin: round; transform-origin: 380.716px 217.441px;" id="elxqsax356gkl" class="animable"></path><line x1="355.36" y1="237.78" x2="359.69" y2="235.9" style="fill: none; stroke: rgb(38, 50, 56); stroke-linecap: round; stroke-linejoin: round; transform-origin: 357.525px 236.84px;" id="el0aiei5n25uen" class="animable"></line><path d="M358.75,224.42s.56,2.26,3.76,3.2" style="fill: none; stroke: rgb(38, 50, 56); stroke-linecap: round; stroke-linejoin: round; transform-origin: 360.63px 226.02px;" id="elaep31asdj0p" class="animable"></path><path d="M378.69,231.19l-3,.75a10.58,10.58,0,0,1-2.26,6.21" style="fill: none; stroke: rgb(38, 50, 56); stroke-linecap: round; stroke-linejoin: round; transform-origin: 376.06px 234.67px;" id="eljmyjc2ruypm" class="animable"></path><path d="M358.93,215.58s3.58-2.83,5.46,1.88" style="fill: none; stroke: rgb(38, 50, 56); stroke-linecap: round; stroke-linejoin: round; transform-origin: 361.66px 216.098px;" id="elce9y96apuv5" class="animable"></path><ellipse cx="360.16" cy="220.47" rx="1.22" ry="2.07" style="fill: rgb(38, 50, 56); transform-origin: 360.16px 220.47px;" id="elejzp9vdvhwm" class="animable"></ellipse><polygon points="389.6 237.59 369.47 256.21 374.55 264.49 394.68 242.86 389.6 237.59" style="fill: rgb(255, 255, 255); stroke: rgb(38, 50, 56); stroke-linecap: round; stroke-linejoin: round; transform-origin: 382.075px 251.04px;" id="eluqkwhz7p9tk" class="animable"></polygon><path d="M374.93,298.73s-7.91-3-10-3-7.71,1.13-10.16,1.51-8.09,6-8.65,6.77.56.57,2.45.38,8.65-1.51,8.65-1.51a31.7,31.7,0,0,0,7,2.07,13.68,13.68,0,0,0,5.46-.19,20.86,20.86,0,0,1,3.38,0Z" style="fill: rgb(255, 255, 255); stroke: rgb(38, 50, 56); stroke-linecap: round; stroke-linejoin: round; transform-origin: 360.453px 300.434px;" id="el494ykn1bh7n" class="animable"></path><path d="M380.38,299.3s-4.7-1.13-5.45-.57-2.07,4.33-1.89,6,4.52,3.58,4.52,3.58l2.82-6.77Z" style="fill: rgb(255, 255, 255); stroke: rgb(38, 50, 56); stroke-linecap: round; stroke-linejoin: round; transform-origin: 376.702px 303.442px;" id="el9qbze4zxdor" class="animable"></path><path d="M391.29,261.67s-1.88,13.36-.56,20.51,4.89,18.25,4.89,18.25S381.7,298,380.38,299.3s-6,5.27-2.82,9,26.72,13,33.68,13.92,7.52-8.46,7.52-12.79-4.7-38.38-6.58-44.78-6.59-10.72-10.54-11.85" style="fill: rgb(255, 255, 255); stroke: rgb(38, 50, 56); stroke-linecap: round; stroke-linejoin: round; transform-origin: 397.617px 287.542px;" id="el4yqk5reo3in" class="animable"></path><polyline points="409.92 303.81 397.31 300.99 405.03 300.8" style="fill: none; stroke: rgb(38, 50, 56); stroke-linecap: round; stroke-linejoin: round; transform-origin: 403.615px 302.305px;" id="elilljciega2" class="animable"></polyline></g><g id="freepik--character-2--inject-34" class="animable" style="transform-origin: 263.804px 323.734px;"><polygon points="297 353.19 232.19 353.19 232.19 283.39 300.49 283.39 297 353.19" style="fill: rgb(255, 255, 255); stroke: rgb(38, 50, 56); stroke-linecap: round; stroke-linejoin: round; transform-origin: 266.34px 318.29px;" id="el8zzip76k57d" class="animable"></polygon><path d="M301,278.27s-6.82,114-3.08,164.26" style="fill: none; stroke: rgb(38, 50, 56); stroke-linecap: round; stroke-linejoin: round; stroke-width: 5px; transform-origin: 298.9px 360.4px;" id="elpk6whcag3no" class="animable"></path><path d="M232,278.24s3.4,114.19-2.22,164.28" style="fill: none; stroke: rgb(38, 50, 56); stroke-linecap: round; stroke-linejoin: round; stroke-width: 5px; transform-origin: 231.4px 360.38px;" id="eluax9ph5xgrq" class="animable"></path><rect x="226.7" y="362" width="75.72" height="6.34" style="fill: rgb(255, 255, 255); stroke: rgb(38, 50, 56); stroke-linecap: round; stroke-linejoin: round; transform-origin: 264.56px 365.17px;" id="elb58uqy2x8o4" class="animable"></rect><path d="M234.36,367s2.72,27.54,5.62,40.59,2.54,22.28,4.35,23.91,6.7,2.18,7.43-.9,2.53-16.31,2.53-16.31l3.26-26.45,1.27-19.21Z" style="fill: rgb(255, 255, 255); stroke: rgb(38, 50, 56); stroke-linecap: round; stroke-linejoin: round; transform-origin: 246.59px 399.909px;" id="elh5mz727mth8" class="animable"></path><path d="M256.29,368s2,36.42,1.81,42.94,0,19.93,0,19.93l10.14.18,5.08-19s7.61-27.36,8.51-34.07,1.63-11.41,1.63-11.41Z" style="fill: rgb(255, 255, 255); stroke: rgb(38, 50, 56); stroke-linecap: round; stroke-linejoin: round; transform-origin: 269.875px 398.81px;" id="elb6b5yowbko9" class="animable"></path><path d="M252.66,429.28a13.86,13.86,0,0,1-2.72,1.08c-.54,0-2.35-3.8-4.34-4a3.63,3.63,0,0,0-4,2.9c-.36,1.81-4.35,8.51-4.53,9.24s-3.26,2.35-3.08,4.71,6.7,2.35,10,2.17,7.07.18,8.16-2.53.9-5.8.9-8S252.66,430.18,252.66,429.28Z" style="fill: rgb(255, 255, 255); stroke: rgb(38, 50, 56); stroke-linecap: round; stroke-linejoin: round; transform-origin: 243.523px 435.892px;" id="el57le83c6b7p" class="animable"></path><path d="M268.27,431.75a14.68,14.68,0,0,0-3.25-4.3,4.61,4.61,0,0,0-6.81,1.05,13.51,13.51,0,0,0-1.89,6.08c0,.94-1,3-1.78,6s-1.89,3.25-.84,4.3,10.17.63,12.06.63a4.74,4.74,0,0,0,4.3-4.51c.1-2.62-.84-5.25-.74-6.82S269.85,431.75,268.27,431.75Z" style="fill: rgb(255, 255, 255); stroke: rgb(38, 50, 56); stroke-linecap: round; stroke-linejoin: round; transform-origin: 261.669px 435.993px;" id="eljuvr56ro10h" class="animable"></path><path d="M258.64,256.11A47.43,47.43,0,0,0,241.57,265c-8,6.7-18,21.41-19.7,27.19s1.44,8.14,5.64,8.14,12.87-3,12.87-3a148.18,148.18,0,0,0-6.83,17.07c-2.36,7.75-6.17,19.18-6.3,29.81s3.41,15.37,3.41,15.37L232,371.42H284.9l2.37-10a45.36,45.36,0,0,0,12.48-4.2c5.91-3.16,8-15.9,5.38-25.88s-8.67-23.11-9.59-24.95-3.41-8.27-3.41-8.27h16s-4.73-11.82-9.72-21.67S287.14,259.53,281,257a34.16,34.16,0,0,0-10.9-2.76C269.54,254.27,258.64,256.11,258.64,256.11Z" style="fill: rgb(38, 50, 56); stroke: rgb(38, 50, 56); stroke-linecap: round; stroke-linejoin: round; transform-origin: 264.765px 312.83px;" id="elya4cmda7hji" class="animable"></path><path d="M260.27,332.89s17.4-9.24,39.68,3.62" style="fill: none; stroke: rgb(38, 50, 56); stroke-linecap: round; stroke-linejoin: round; transform-origin: 280.11px 333.094px;" id="el2gask2gt24h" class="animable"></path><path d="M252.66,332.16s-12.68-3.26-19.39,3.45" style="fill: none; stroke: rgb(38, 50, 56); stroke-linecap: round; stroke-linejoin: round; transform-origin: 242.965px 333.489px;" id="elh5fm8pfy12" class="animable"></path><path d="M287.27,361.44a75,75,0,0,0,1.81-15.69" style="fill: none; stroke: rgb(38, 50, 56); stroke-linecap: round; stroke-linejoin: round; transform-origin: 288.175px 353.595px;" id="el3wrcfxbixpe" class="animable"></path><path d="M230.66,359.6s-.83-11.13,1.17-18.56" style="fill: none; stroke: rgb(38, 50, 56); stroke-linecap: round; stroke-linejoin: round; transform-origin: 231.16px 350.32px;" id="elpyb29icw6la" class="animable"></path><path d="M262,254.51s-4.31,1-5.64,2.65-5.3,8.62-3.81,10.44,12.6-1.49,12.6-1.49,11.6,5,14.25,2.49,3-9.28-1-12.93S262,254.51,262,254.51Z" style="fill: rgb(255, 255, 255); stroke: rgb(38, 50, 56); stroke-linecap: round; stroke-linejoin: round; transform-origin: 266.81px 261.493px;" id="eltg0ubl9h4le" class="animable"></path><path d="M257.37,229s-2.65-3-4.81-1.16-.66,7.12.33,9.28a4.59,4.59,0,0,0,3.65,2.32Z" style="fill: rgb(255, 255, 255); stroke: rgb(38, 50, 56); stroke-linecap: round; stroke-linejoin: round; transform-origin: 254.412px 233.341px;" id="eld4quo0mcxyo" class="animable"></path><path d="M271.12,209.6s-1.32-3,2.82-6,10.94-1.82,14.58,1.49,4.48,9.62,1.83,14.09-9.12.5-11.27-2-7.79-6.46-7.79-6.46Z" style="fill: rgb(190, 193, 195); stroke: rgb(133, 140, 144); stroke-linecap: round; stroke-linejoin: round; transform-origin: 281.41px 211.54px;" id="elkmf81lpu0ho" class="animable"></path><path d="M253.55,226.83s-1.32-1.82-.49-6.46,8.28-11.6,16.57-11.6A17.26,17.26,0,0,1,286,220c2.15,6,.16,11.77-1.66,13.09s-5,2.49-5.3,1.49-.5-9.28-4.48-13.09-12.76-1.82-14.75,0-3.31,7.13-3.31,7.13Z" style="fill: rgb(190, 193, 195); stroke: rgb(133, 140, 144); stroke-linecap: round; stroke-linejoin: round; transform-origin: 269.86px 221.862px;" id="ell21iiswu8ok" class="animable"></path><path d="M257.7,219.71A43.39,43.39,0,0,0,254.88,233c-.33,7.29,1.49,14.91,3.48,17.56s2.32,5.31,2.82,10.61,3.48,7.46,5.14,6.13,5.8-6.63,7.45-9.11,3.15-8,3.32-9.12,1.49-5.3,1.49-5.3,6.3-3.65,7.46-6.8.66-5.8-.17-5.8a33.79,33.79,0,0,0-4.8,1.49s1.82-9.44-4.15-13.75S262.5,215.23,257.7,219.71Z" style="fill: rgb(255, 255, 255); stroke: rgb(38, 50, 56); stroke-linecap: round; stroke-linejoin: round; transform-origin: 270.781px 241.837px;" id="elu7yq2m8jvp" class="animable"></path><path d="M266.15,232.14l-2.49,9.44a4.22,4.22,0,0,0,3.48-.82" style="fill: none; stroke: rgb(38, 50, 56); stroke-linecap: round; stroke-linejoin: round; transform-origin: 265.4px 236.905px;" id="elk9mxwa4vax" class="animable"></path><path d="M261.18,244.4s4.64,2.82,7.62-.16" style="fill: none; stroke: rgb(38, 50, 56); stroke-linecap: round; stroke-linejoin: round; transform-origin: 264.99px 244.924px;" id="el16gobx68x7b" class="animable"></path><path d="M257.86,227.5s4-1.66,6.47.33" style="fill: none; stroke: rgb(38, 50, 56); stroke-linecap: round; stroke-linejoin: round; transform-origin: 261.095px 227.341px;" id="el07ddalut4wbj" class="animable"></path><path d="M269.3,229.32s3.81-1.66,5.8,2" style="fill: none; stroke: rgb(38, 50, 56); stroke-linecap: round; stroke-linejoin: round; transform-origin: 272.2px 230.132px;" id="elwbnt53v7rjg" class="animable"></path><path d="M261.18,232.39c0,1.05-.48,1.9-1.08,1.9s-1.08-.85-1.08-1.9.49-1.91,1.08-1.91S261.18,231.33,261.18,232.39Z" style="fill: rgb(38, 50, 56); transform-origin: 260.1px 232.385px;" id="elyizsqer2wqo" class="animable"></path><path d="M273,234c-.09,1.05-.63,1.87-1.23,1.82s-1-.93-.92-2,.62-1.87,1.22-1.82S273.11,233,273,234Z" style="fill: rgb(38, 50, 56); transform-origin: 271.928px 233.91px;" id="el85j0agtl3d3" class="animable"></path><path d="M224.62,287.63s-5.64,6-5.25,10.38,3.41,8,9.06,5.77S243,295.9,243,295.9l-1.31-9.85a111.77,111.77,0,0,0-13.14.14" style="fill: rgb(38, 50, 56); stroke: rgb(38, 50, 56); stroke-linecap: round; stroke-linejoin: round; transform-origin: 231.175px 295.189px;" id="elrslx0xpu44" class="animable"></path><path d="M246.56,286.58a13.22,13.22,0,0,0-7.1-2.23c-4.33-.13-1.18,4.46-1.18,4.46s-5.91.92-4.73,3.94,5.39,2.1,5.39,2.1-2.23,5.13,1.57,5.13,5.78-3,6.57-5S248.66,288.29,246.56,286.58Z" style="fill: rgb(255, 255, 255); stroke: rgb(38, 50, 56); stroke-linecap: round; stroke-linejoin: round; transform-origin: 240.65px 292.164px;" id="elsbyhccbbxb" class="animable"></path><path d="M245.1,287l1.83-3.14s-.34-5.31.16-6.8,3.15-4.81,4-5.63,3.65-2.49,4.14-2.16,2.32-1.32,3-.16a3.53,3.53,0,0,1,0,2.7,6.09,6.09,0,0,1,1.28,2.6,26.43,26.43,0,0,1-.83,4s5-3.48,5-1.83-2,3.15-2.81,4-2.82,4.64-3.81,6.3a8.23,8.23,0,0,1-5.64,3.81,47.85,47.85,0,0,0-6.3,2A5.28,5.28,0,0,1,245.1,287Z" style="fill: rgb(255, 255, 255); stroke: rgb(38, 50, 56); stroke-linecap: round; stroke-linejoin: round; transform-origin: 253.979px 280.69px;" id="elnf2826atu0o" class="animable"></path><path d="M251.07,271.42s2.15-.17,1.16,2.15-2,4.47-2,4.47l.17,4.15" style="fill: none; stroke: rgb(38, 50, 56); stroke-linecap: round; stroke-linejoin: round; transform-origin: 251.36px 276.804px;" id="elf64wi7rucs" class="animable"></path><path d="M255.21,269.26s.27.2.27,1.45a16.82,16.82,0,0,1-1.17,4.86c-.42.84-.76,6.11-.76,6.11" style="fill: none; stroke: rgb(38, 50, 56); stroke-linecap: round; stroke-linejoin: round; transform-origin: 254.515px 275.47px;" id="el580y83ldqqs" class="animable"></path><polyline points="258.24 271.8 256.4 276.49 256.06 280.76" style="fill: none; stroke: rgb(38, 50, 56); stroke-linecap: round; stroke-linejoin: round; transform-origin: 257.15px 276.28px;" id="ellpg1fdp223p" class="animable"></polyline><path d="M303,287.24s11,15.62,1.18,17.86-26.79-8.54-26.79-8.54L281,284.87s11,0,16.55,1.18" style="fill: rgb(38, 50, 56); stroke: rgb(38, 50, 56); stroke-linecap: round; stroke-linejoin: round; transform-origin: 292.824px 295.138px;" id="elajwi3t2w48i" class="animable"></path><path d="M279.91,286.5,273.28,283s-2.16-3.48-3.48-5.47-3.32-3.15-4.81-5.47-3.15-1.66-3.15,0a6.85,6.85,0,0,0,1.82,4.47,8.71,8.71,0,0,1,1.5,2s-5.64.66-9.28.83-8,.66-8.13,1.82,2,2.16,2,2.16a41.5,41.5,0,0,0,4.64,6.13c1.83,1.66,9.45,2,9.45,2L270,291l6.8,2.65Z" style="fill: rgb(255, 255, 255); stroke: rgb(38, 50, 56); stroke-linecap: round; stroke-linejoin: round; transform-origin: 263.827px 282.104px;" id="el2i8bfz114oh" class="animable"></path><path d="M249.74,283.35s3.65.16,6.3.5a15.27,15.27,0,0,0,4.81-.17" style="fill: none; stroke: rgb(38, 50, 56); stroke-linecap: round; stroke-linejoin: round; transform-origin: 255.295px 283.658px;" id="elwn8blwrsir" class="animable"></path><path d="M251.73,286.17s6.47,1.49,9.61.66" style="fill: none; stroke: rgb(38, 50, 56); stroke-linecap: round; stroke-linejoin: round; transform-origin: 256.535px 286.626px;" id="ela5ggxsb7d7w" class="animable"></path><path d="M254.38,289.48s5.14.66,7.79-.5" style="fill: none; stroke: rgb(38, 50, 56); stroke-linecap: round; stroke-linejoin: round; transform-origin: 258.275px 289.324px;" id="elakk4gh4ev97" class="animable"></path><path d="M278.6,284.61l-4.33,10.11s.65,5,3.41,6.17,2.63-4.59,2.63-4.59,4.2,1.18,4.86-1.05-1.45-4.07-1.45-4.07,3.15-3.16,1-4.73A10.06,10.06,0,0,0,278.6,284.61Z" style="fill: rgb(255, 255, 255); stroke: rgb(38, 50, 56); stroke-linecap: round; stroke-linejoin: round; transform-origin: 279.87px 292.826px;" id="elx9iv1ibze5" class="animable"></path></g><g id="freepik--character-1--inject-34" class="animable" style="transform-origin: 155.431px 309.398px;"><path d="M89.94,275.16s14.15,68.71,16.23,89.08-10,80.1-10,80.1" style="fill: none; stroke: rgb(38, 50, 56); stroke-linecap: round; stroke-linejoin: round; stroke-width: 5px; transform-origin: 98.1754px 359.75px;" id="eluprzueyutz" class="animable"></path><path d="M180,205.67l.5-2.5s-4.17-7.17-4.17-9.51.84-4.67.5-6.84-.67-3.5.67-3.5,2.5,2.83,2.5,2.83,2.17-5.34,2.67-7.17.34-4.34,2-4.51,1.17,1.5,1,2.84-2,8.34-2,8.34,5.84-9.84,6.34-10.84,1.67-1,2-.34-.34,2.67-.67,3.51-3.51,8.34-3.51,8.34,6.51-5.84,7.51-6.67,2.34-.84,2.34.5-6.51,8-6.51,8,5.67-2.5,6.51-2.83,2,.33.67,1.5-6,4.5-6,4.5a18.8,18.8,0,0,1-.83,5.18,29,29,0,0,1-2.67,5.34l-1,4.17Z" style="fill: rgb(255, 255, 255); stroke: rgb(38, 50, 56); stroke-linecap: round; stroke-linejoin: round; transform-origin: 187.642px 190.01px;" id="el2r1q0dcj8qn" class="animable"></path><path d="M180,186.15v4.51s4.67,2.83,4.34,4.67-.5,2.67-.5,2.67" style="fill: none; stroke: rgb(38, 50, 56); stroke-linecap: round; stroke-linejoin: round; transform-origin: 182.178px 192.075px;" id="el9b34bc4cz0q" class="animable"></path><line x1="183.62" y1="185.65" x2="191.13" y2="188.15" style="fill: none; stroke: rgb(38, 50, 56); stroke-linecap: round; stroke-linejoin: round; transform-origin: 187.375px 186.9px;" id="elj4y7mmcbacg" class="animable"></line><path d="M178,209.35s.67-3.84,1.5-4.68,5.51-1,7.84.34,1.34,5.5,1.34,5.5S187.29,207.18,178,209.35Z" style="fill: rgb(255, 255, 255); stroke: rgb(38, 50, 56); stroke-linecap: round; stroke-linejoin: round; transform-origin: 183.444px 207.266px;" id="eld0ltoxv6cfm" class="animable"></path><path d="M195.24,416.66s.75,5.75,2,7.75,12,9.74,16.73,11.24,7.75,2.25,6.75,4.75-8.24,3.49-20.24,3.24-25,.25-25.48-2.24,4.25-16,4.75-17.74,1.25-7.25,1.25-7.25Z" style="fill: rgb(255, 255, 255); stroke: rgb(38, 50, 56); stroke-linecap: round; stroke-linejoin: round; transform-origin: 197.939px 430.044px;" id="el947z348202v" class="animable"></path><path d="M195,426.65v2s-10.17.4-16.62-.76c-1.53,4.72-3.72,11.77-3.37,13.51.5,2.49,13.49,2,25.48,2.24s19.24-.75,20.24-3.24-2-3.25-6.75-4.75-15.49-9.25-16.73-11.24C197.24,424.41,195,425.9,195,426.65Z" style="fill: rgb(255, 255, 255); stroke: rgb(38, 50, 56); stroke-linecap: round; stroke-linejoin: round; transform-origin: 197.947px 434.042px;" id="elu3sed2gs77e" class="animable"></path><path d="M220.72,440.4a1.82,1.82,0,0,0-.06-1.74c-6.29,1.95-17.53,3.77-26.42,2-7.46-1.5-14.69-2.55-18.72-3.09a12,12,0,0,0-.52,3.84c.5,2.49,13.49,2,25.48,2.24S219.72,442.89,220.72,440.4Z" style="fill: rgb(255, 255, 255); stroke: rgb(38, 50, 56); stroke-linecap: round; stroke-linejoin: round; transform-origin: 197.954px 440.627px;" id="elpnl0urelkfj" class="animable"></path><path d="M193.34,417.76s.75,5.75,2,7.75,12,9.74,16.74,11.24,7.74,2.25,6.74,4.75-8.24,3.49-20.23,3.24-25,.25-25.49-2.24,4.25-16,4.75-17.74,1.25-7.25,1.25-7.25Z" style="fill: rgb(255, 255, 255); stroke: rgb(38, 50, 56); stroke-linecap: round; stroke-linejoin: round; transform-origin: 196.038px 431.144px;" id="elh2stw39ocj" class="animable"></path><path d="M193.09,427.75v2s-10.17.4-16.61-.76c-1.54,4.72-3.73,11.77-3.38,13.51.5,2.49,13.49,2,25.49,2.24s19.23-.75,20.23-3.24-2-3.25-6.74-4.75-15.49-9.25-16.74-11.24C195.34,425.51,193.09,427,193.09,427.75Z" style="fill: rgb(255, 255, 255); stroke: rgb(38, 50, 56); stroke-linecap: round; stroke-linejoin: round; transform-origin: 196.037px 435.142px;" id="eld9ejcjc413" class="animable"></path><path d="M218.82,441.5a1.82,1.82,0,0,0-.06-1.74c-6.29,1.95-17.52,3.77-26.42,2-7.46-1.5-14.69-2.55-18.72-3.09a12,12,0,0,0-.52,3.84c.5,2.49,13.49,2,25.49,2.24S217.82,444,218.82,441.5Z" style="fill: rgb(255, 255, 255); stroke: rgb(38, 50, 56); stroke-linecap: round; stroke-linejoin: round; transform-origin: 196.054px 441.727px;" id="el4lta6ht903j" class="animable"></path><path d="M165.36,318.41l7.24,9.25s32.48,3.24,41.73,6.74,4.24,24.74-.75,39.73-13,46.13-13,46.13l-15.24.25,4.25-67.62s-65.71-1-73.7-2-11-12.74-11-16.49-2-15.74-2-15.74Z" style="fill: rgb(190, 193, 195); stroke: rgb(38, 50, 56); stroke-linecap: round; stroke-linejoin: round; transform-origin: 161.195px 369.46px;" id="elg6syig0fqq" class="animable"></path><path d="M114.06,247.76a33.09,33.09,0,0,0-17.19,24.53c-2.67,17.85,1.51,49.72,3.84,52.22s9.35,1.67,11.18,1.67,31.7-2.5,40.71-2.5,15.86-1.17,15.86-4-13.52-51.39-13.52-51.39,26.2-3.83,31.87-7.17,6.17-24.36,6.17-31.2-2.85-18.9-3.68-20.56-10.18-1.67-11.35,0-4.49,13.05-5.32,19.89-1.51,11.18-1.51,11.18-2.5-.5-10.34-.5-8.5-2.25-24.86.21S114.06,247.76,114.06,247.76Z" style="fill: rgb(0, 255, 136); stroke: rgb(38, 50, 56); stroke-linecap: round; stroke-linejoin: round; transform-origin: 144.494px 267.212px;" id="el19nmeonp641" class="animable"></path><path d="M159.07,283.55l-6.16-6.82a.22.22,0,0,0-.24-.07.43.43,0,0,0-.24.21L147,286.56l-5.82-6.45A.23.23,0,0,0,141,280a.4.4,0,0,0-.24.21l-5.42,9.69-5.83-6.44a.21.21,0,0,0-.24-.08.41.41,0,0,0-.23.21l-5.74,10.24a.68.68,0,0,0-.09.37.42.42,0,0,0,.11.31l6.15,6.81a.21.21,0,0,0,.24.08.36.36,0,0,0,.23-.21l5.44-9.69,5.82,6.44a.21.21,0,0,0,.24.08.39.39,0,0,0,.23-.21l5.43-9.69,5.82,6.44a.21.21,0,0,0,.24.08.4.4,0,0,0,.24-.21l5.73-10.24a.6.6,0,0,0,.09-.37A.41.41,0,0,0,159.07,283.55Z" id="elu2b66ip21ws" class="animable" style="transform-origin: 141.216px 289.03px;"></path><path d="M171.12,240.42a11.79,11.79,0,0,0,3.43,5.47" style="fill: none; stroke: rgb(38, 50, 56); stroke-linecap: round; stroke-linejoin: round; transform-origin: 172.835px 243.155px;" id="el90hffhj41rb" class="animable"></path><path d="M170.79,243.82a14,14,0,0,0,2.45,5.82" style="fill: none; stroke: rgb(38, 50, 56); stroke-linecap: round; stroke-linejoin: round; transform-origin: 172.015px 246.73px;" id="elppd2gg0z5ra" class="animable"></path><path d="M103.14,321.91s2.5,27.48,7.25,32.48,18,8.24,38.23,6.75,31.73-3,31.73-3-3.25,2.25-3.25,15-1,48.13-1,48.13L195.84,420s4.24-30.39,8.74-48.13,4.5-33.23,3.75-36.23-8.75-6.49-35.73-8-46.72,0-57.21,4" style="fill: rgb(190, 193, 195); stroke: rgb(38, 50, 56); stroke-linecap: round; stroke-linejoin: round; transform-origin: 155.921px 371.59px;" id="el8gmln3ngwqq" class="animable"></path><path d="M133.25,261.28l8,3.17s1.67-8.35,1.83-10.18-3.33-5.17-8-4.17S130.41,258.11,133.25,261.28Z" style="fill: rgb(255, 255, 255); stroke: rgb(38, 50, 56); stroke-linecap: round; stroke-linejoin: round; transform-origin: 137.196px 257.184px;" id="elmfxal04aihk" class="animable"></path><path d="M122.74,197.7s9.32-2.13,16.49,3.11,8.42,10.49,8.56,12,.82,2.63,2.2,4.42,4,3.72,3.45,5.52-3,2.62-3,2.62,1.1,7.59,0,10.35-4.69,4.69-6.76,5.24a13.53,13.53,0,0,1-3,.55l-1.24,17.25-3.31-5.52s-11.45-7.59-14.35-9.66l-2.9-2.07-.68-6.48a25.52,25.52,0,0,1-10.63-12.28c-3.31-8.42,1.52-18.08,6.07-21.11A28.21,28.21,0,0,1,122.74,197.7Z" style="fill: rgb(255, 255, 255); stroke: rgb(38, 50, 56); stroke-linecap: round; stroke-linejoin: round; transform-origin: 129.995px 228.016px;" id="elqb6dqgrb6v9" class="animable"></path><path d="M107.5,222.75a25.64,25.64,0,0,0,9.38,11.51c1.88-1.71,3.67-3.73,4.14-5.58,1.11-4.28-.55-5.93-.55-5.93a3.8,3.8,0,0,0,2.48-3.18c.28-2.48-2.2-2.75-.55-5.93s2.76-6.48,1-7.86-5.38,2.07-8.69,1.93-1.25-3.45-1.11-6.07C109,204.67,104.19,214.33,107.5,222.75Z" style="fill: rgb(190, 193, 195); stroke: rgb(133, 140, 144); stroke-linecap: round; stroke-linejoin: round; transform-origin: 115.349px 217.95px;" id="elgmpj7qoe13o" class="animable"></path><path d="M150.41,225.37s-3.18.55-4-.55a3.06,3.06,0,0,1-.28-2.62" style="fill: none; stroke: rgb(38, 50, 56); stroke-linecap: round; stroke-linejoin: round; transform-origin: 148.183px 223.854px;" id="elkca3o2r3yjb" class="animable"></path><path d="M147.23,228.54s-6.48-.55-8-3c0,0-.55,6.21,2.21,6.76S147.23,228.54,147.23,228.54Z" style="fill: rgb(38, 50, 56); stroke: rgb(38, 50, 56); stroke-linecap: round; stroke-linejoin: round; transform-origin: 143.208px 228.944px;" id="el1hs1zu63idl" class="animable"></path><path d="M146.13,210.33s-5.38-.41-9,1.79a6.45,6.45,0,0,0,1,5c1.66,2.35,5.38,1.66,7,.83S146.13,210.33,146.13,210.33Z" style="fill: none; stroke: rgb(38, 50, 56); stroke-linecap: round; stroke-linejoin: round; transform-origin: 141.618px 214.514px;" id="el5rv66lrydj4" class="animable"></path><path d="M146.13,210.33a34.4,34.4,0,0,1,4.83-.27c1.38.13,1.93,5.1,1,6.62s-1,.55-1,.55" style="fill: none; stroke: rgb(38, 50, 56); stroke-linecap: round; stroke-linejoin: round; transform-origin: 149.275px 213.796px;" id="elq1fo72z2x5n" class="animable"></path><line x1="137.16" y1="212.12" x2="117.85" y2="219.71" style="fill: none; stroke: rgb(38, 50, 56); stroke-linecap: round; stroke-linejoin: round; transform-origin: 127.505px 215.915px;" id="eln43py7cke0k" class="animable"></line><path d="M123.78,223.44s-3.25-8-7.36-5.1-.52,8.74,2.4,11.14,6.34-1.37,6.34-1.37" style="fill: rgb(255, 255, 255); stroke: rgb(38, 50, 56); stroke-linecap: round; stroke-linejoin: round; transform-origin: 119.863px 223.993px;" id="elt94rjxzytbo" class="animable"></path><path d="M142.68,214.88c0,.77-.37,1.38-.83,1.38s-.82-.61-.82-1.38.37-1.38.82-1.38S142.68,214.12,142.68,214.88Z" style="fill: rgb(38, 50, 56); transform-origin: 141.855px 214.88px;" id="elr0fayn47hlj" class="animable"></path><path d="M137.58,210.19s2.48-2.34,5.24-1.65" style="fill: none; stroke: rgb(38, 50, 56); stroke-linecap: round; stroke-linejoin: round; transform-origin: 140.2px 209.301px;" id="ellt9prcul6nf" class="animable"></path><polygon points="140.61 241.51 135.92 240.13 139.78 253.65 140.61 241.51" style="fill: rgb(38, 50, 56); stroke: rgb(38, 50, 56); stroke-linecap: round; stroke-linejoin: round; transform-origin: 138.265px 246.89px;" id="elmqz1b8u2ms" class="animable"></polygon><polygon points="118.81 241.51 111.89 247.76 132.25 265.61 136.06 253.24 118.81 241.51" style="fill: rgb(255, 255, 255); stroke: rgb(38, 50, 56); stroke-linecap: round; stroke-linejoin: round; transform-origin: 123.975px 253.56px;" id="elyxra1vsjx8g" class="animable"></polygon><polygon points="139.78 253.65 147.93 257.44 140.42 247.43 139.78 253.65" style="fill: rgb(255, 255, 255); stroke: rgb(38, 50, 56); stroke-linecap: round; stroke-linejoin: round; transform-origin: 143.855px 252.435px;" id="el18futn8vcws" class="animable"></polygon><path d="M168.9,277.14l-5-13.64a45.31,45.31,0,0,0,9.56-4c5.33-2.89,6.09-3.71,6.09-3.71l2.25,24.47s-.76.82-4.51,2.23a57.67,57.67,0,0,1-6.36,2Z" style="fill: rgb(255, 255, 255); stroke: rgb(38, 50, 56); stroke-linecap: round; stroke-linejoin: round; transform-origin: 172.85px 270.14px;" id="eljzkcia3q47s" class="animable"></path><path d="M164.46,292.36s3.52-3.46,3.51-4.88-1.56-6.55-.82-7.89a14.2,14.2,0,0,1,1.75-2.45l1.14,2.07s7-3.17,8.6-4.13,2.83-1.95,3.87-1.09.47,4.1.47,4.1a35.32,35.32,0,0,1,1.49,5.85c.06,1.59-.6,5-1.73,5.83s-5.62,3.54-6.28,4.14-8.84,6.36-8.84,6.36Z" style="fill: rgb(255, 255, 255); stroke: rgb(38, 50, 56); stroke-linecap: round; stroke-linejoin: round; transform-origin: 174.467px 286.965px;" id="eldt2cjwue7t6" class="animable"></path><path d="M160.51,292.12s4.36-2.17,5.47-.63,3.19,6.11,3.15,7.91-5,3.31-5,3.31S162.37,295.17,160.51,292.12Z" style="fill: rgb(255, 255, 255); stroke: rgb(38, 50, 56); stroke-linecap: round; stroke-linejoin: round; transform-origin: 164.82px 296.824px;" id="el6vhrqof3nru" class="animable"></path><path d="M106.85,253.15s-5,3.84-6.41,13.29-.12,17.69,4.38,29.19,10.43,24.42,15.51,27.5,22-6.48,33.54-12.26,12.45-10,11.71-12.95-1.9-5.53-5.2-6.25-22,5.06-24.8,6.12l-2.81,1.06S127.44,278,121.9,268.53" style="fill: rgb(0, 255, 136); stroke: rgb(38, 50, 56); stroke-linecap: round; stroke-linejoin: round; transform-origin: 132.834px 288.438px;" id="el1eea4yaim7jh" class="animable"></path><path d="M178.93,361.12c-.15,1.14-.27,2.18-.37,3.12-2.07,20.37,10,80.1,10,80.1" style="fill: none; stroke: rgb(38, 50, 56); stroke-linecap: round; stroke-linejoin: round; stroke-width: 5px; transform-origin: 183.441px 402.73px;" id="elvruukskhhr" class="animable"></path><g id="el8x1183qqjnx"><rect x="105.66" y="358.47" width="75.72" height="6.34" style="fill: rgb(255, 255, 255); stroke: rgb(38, 50, 56); stroke-linecap: round; stroke-linejoin: round; transform-origin: 143.52px 361.64px; transform: rotate(180deg);" class="animable"></rect></g></g><g id="freepik--Table--inject-34" class="animable" style="transform-origin: 264.23px 375.1px;"><rect x="164.84" y="307.77" width="196.39" height="16.1" style="fill: rgb(255, 255, 255); stroke: rgb(38, 50, 56); stroke-linecap: round; stroke-linejoin: round; transform-origin: 263.035px 315.82px;" id="elhev9n2bxgld" class="animable"></rect><rect x="163.02" y="308.29" width="4.45" height="136.02" style="fill: rgb(255, 255, 255); stroke: rgb(38, 50, 56); stroke-linecap: round; stroke-linejoin: round; transform-origin: 165.245px 376.3px;" id="elh2v5tbyuckh" class="animable"></rect><rect x="358.55" y="308.29" width="4.45" height="136.02" style="fill: rgb(255, 255, 255); stroke: rgb(38, 50, 56); stroke-linecap: round; stroke-linejoin: round; transform-origin: 360.775px 376.3px;" id="eln7lr5o4f7ul" class="animable"></rect><rect x="163.02" y="308.29" width="200.11" height="5.81" style="fill: rgb(38, 50, 56); stroke: rgb(38, 50, 56); stroke-linecap: round; stroke-linejoin: round; transform-origin: 263.075px 311.195px;" id="elyor8e1eirg" class="animable"></rect><rect x="156.79" y="305.89" width="214.88" height="4.11" style="fill: rgb(255, 255, 255); stroke: rgb(38, 50, 56); stroke-linecap: round; stroke-linejoin: round; transform-origin: 264.23px 307.945px;" id="el7twuqqi3g25" class="animable"></rect></g><g id="freepik--speech-bubble--inject-34" class="animable" style="transform-origin: 150.05px 148.48px;"><path d="M176.76,114.89H120.32a11.42,11.42,0,0,0-11.43,11.43v19.51a11.43,11.43,0,0,0,11.43,11.43h15.14l4.3,28.45,7.38-28.45h29.62a11.43,11.43,0,0,0,11.43-11.43V126.32A11.43,11.43,0,0,0,176.76,114.89Z" style="fill: rgb(38, 50, 56); stroke: rgb(38, 50, 56); stroke-linecap: round; stroke-linejoin: round; transform-origin: 148.54px 150.3px;" id="el1ko976pqyaq" class="animable"></path><path d="M179.78,111.25H123.34a11.43,11.43,0,0,0-11.43,11.43V142.2a11.43,11.43,0,0,0,11.43,11.43h15.15l4.3,28.45,7.37-28.45h29.62a11.43,11.43,0,0,0,11.43-11.43V122.68A11.43,11.43,0,0,0,179.78,111.25Z" style="fill: rgb(255, 255, 255); stroke: rgb(38, 50, 56); stroke-linecap: round; stroke-linejoin: round; transform-origin: 151.56px 146.665px;" id="eltjzb8jw91gd" class="animable"></path><path d="M125,141V123h4.69a12.68,12.68,0,0,1,2.18.17,5.07,5.07,0,0,1,1.83.68,3.42,3.42,0,0,1,1.26,1.42,5.55,5.55,0,0,1,.45,2.43,4.48,4.48,0,0,1-.32,1.83,2.88,2.88,0,0,1-.91,1.19,3.34,3.34,0,0,1-1.41.6,3.54,3.54,0,0,1,1.76.68,3.31,3.31,0,0,1,1.07,1.45,5.79,5.79,0,0,1,.37,2.2,6.88,6.88,0,0,1-.37,2.4,4.08,4.08,0,0,1-1,1.66,4.22,4.22,0,0,1-1.7.95,7.8,7.8,0,0,1-2.32.31Zm4-10.78h.77a2.79,2.79,0,0,0,1.38-.28,1.42,1.42,0,0,0,.63-.81,4.43,4.43,0,0,0,.17-1.29,2.52,2.52,0,0,0-.26-1.19,1.74,1.74,0,0,0-.75-.72,2.89,2.89,0,0,0-1.26-.24H129Zm0,8h.84a2.12,2.12,0,0,0,1.81-.67,3.22,3.22,0,0,0,.5-1.95,5,5,0,0,0-.22-1.62,1.62,1.62,0,0,0-.74-.88,3,3,0,0,0-1.37-.27H129Z" style="fill: rgb(38, 50, 56); transform-origin: 130.486px 132px;" id="elfxdiumw6yfj" class="animable"></path><path d="M137.85,126V123.5h3.64V126Zm0,15V128.18h3.61V141Z" style="fill: rgb(38, 50, 56); transform-origin: 139.67px 132.25px;" id="eldk4yodu4bm" class="animable"></path><path d="M143.74,141V128.18h3.61v1.29a6.43,6.43,0,0,1,1.48-1.11,3.52,3.52,0,0,1,1.61-.4,2.15,2.15,0,0,1,1.32.39,2.41,2.41,0,0,1,.79,1.07,4.11,4.11,0,0,1,.26,1.54v10h-3.59v-9.54a1.27,1.27,0,0,0-.16-.71.62.62,0,0,0-.57-.24,1.38,1.38,0,0,0-.52.12,3,3,0,0,0-.62.34v10Z" style="fill: rgb(38, 50, 56); transform-origin: 148.276px 134.479px;" id="el7sfwcxt0zxn" class="animable"></path><path d="M159.16,145.45a9.36,9.36,0,0,1-2.51-.29,3.68,3.68,0,0,1-1.65-.86,2,2,0,0,1-.59-1.47,2.23,2.23,0,0,1,.26-1.07,2.71,2.71,0,0,1,.71-.85,5.24,5.24,0,0,1,1-.63,2.9,2.9,0,0,1-1.31-.73,1.83,1.83,0,0,1-.47-1.31,2.35,2.35,0,0,1,.38-1.34,6,6,0,0,1,1-1.15,3.65,3.65,0,0,1-.94-1.36,5.46,5.46,0,0,1-.32-2,5.21,5.21,0,0,1,.53-2.44,3.53,3.53,0,0,1,1.57-1.51,6.33,6.33,0,0,1,4.25-.26,3.33,3.33,0,0,1,1.29.75,3.53,3.53,0,0,1,.64-.73,3.78,3.78,0,0,1,.91-.6l.46-.22.85,1.73c-.13,0-.32.12-.56.22l-.74.33c-.26.12-.49.24-.7.36a4.66,4.66,0,0,1,.38,1.11,6,6,0,0,1,.13,1.29,5.28,5.28,0,0,1-.5,2.37,3.38,3.38,0,0,1-1.47,1.52,5.17,5.17,0,0,1-2.45.52,6.29,6.29,0,0,1-1.17-.1,6.92,6.92,0,0,1-1-.25,3.75,3.75,0,0,0-.24.36,1,1,0,0,0-.1.41.49.49,0,0,0,.27.43,3,3,0,0,0,.95.24l3.38.38a3.67,3.67,0,0,1,2.42,1,3.33,3.33,0,0,1,.77,2.3,3.74,3.74,0,0,1-.54,2.06,3.3,3.3,0,0,1-1.75,1.28A9.67,9.67,0,0,1,159.16,145.45Zm.47-2.62a6.46,6.46,0,0,0,1.87-.2.8.8,0,0,0,.66-.82.71.71,0,0,0-.18-.5,1.34,1.34,0,0,0-.59-.31,6.77,6.77,0,0,0-1.16-.19l-2.38-.24a2.57,2.57,0,0,0-.39.34,1.61,1.61,0,0,0-.26.4,1,1,0,0,0-.1.46.86.86,0,0,0,.58.8A5.22,5.22,0,0,0,159.63,142.83Zm-.25-8.12a1,1,0,0,0,.51-.12.67.67,0,0,0,.3-.39,2.72,2.72,0,0,0,.15-.71c0-.3,0-.65,0-1.07s0-.78,0-1.07a2.82,2.82,0,0,0-.15-.71.66.66,0,0,0-.3-.4,1,1,0,0,0-.51-.12,1,1,0,0,0-.51.12.76.76,0,0,0-.3.39,3.16,3.16,0,0,0-.14.71c0,.29,0,.65,0,1.08s0,.77,0,1.06a3.56,3.56,0,0,0,.14.71.79.79,0,0,0,.3.4A1,1,0,0,0,159.38,134.71Z" style="fill: rgb(38, 50, 56); transform-origin: 159.815px 136.416px;" id="elu90gc9keh2e" class="animable"></path><path d="M170.3,141.24a5.64,5.64,0,0,1-2.38-.47,3.4,3.4,0,0,1-1.55-1.4,4.49,4.49,0,0,1-.55-2.33v-4.88a4.49,4.49,0,0,1,.55-2.33,3.4,3.4,0,0,1,1.55-1.4,6.29,6.29,0,0,1,4.77,0,3.5,3.5,0,0,1,1.57,1.4,4.49,4.49,0,0,1,.55,2.33V137a4.49,4.49,0,0,1-.55,2.33,3.5,3.5,0,0,1-1.57,1.4A5.66,5.66,0,0,1,170.3,141.24Zm0-2.4a.75.75,0,0,0,.55-.19,1,1,0,0,0,.28-.53,4,4,0,0,0,.08-.84v-5.37a4,4,0,0,0-.08-.83.93.93,0,0,0-.28-.53.75.75,0,0,0-.55-.19.78.78,0,0,0-.56.19,1.08,1.08,0,0,0-.29.53,3.34,3.34,0,0,0-.09.83v5.37a3.37,3.37,0,0,0,.09.84,1.13,1.13,0,0,0,.29.53A.78.78,0,0,0,170.33,138.84Z" style="fill: rgb(38, 50, 56); transform-origin: 170.315px 134.601px;" id="el2zswrqe0kb8" class="animable"></path><path d="M176.7,141v-3.37h3.41V141Zm1.11-4.57-1.05-13.36h3.6l-1.31,13.36Z" style="fill: rgb(38, 50, 56); transform-origin: 178.53px 132.035px;" id="elnv8m9bllrhi" class="animable"></path></g><defs>     <filter id="active" height="200%">         <feMorphology in="SourceAlpha" result="DILATED" operator="dilate" radius="2"></feMorphology>                <feFlood flood-color="#32DFEC" flood-opacity="1" result="PINK"></feFlood>        <feComposite in="PINK" in2="DILATED" operator="in" result="OUTLINE"></feComposite>        <feMerge>            <feMergeNode in="OUTLINE"></feMergeNode>            <feMergeNode in="SourceGraphic"></feMergeNode>        </feMerge>    </filter>    <filter id="hover" height="200%">        <feMorphology in="SourceAlpha" result="DILATED" operator="dilate" radius="2"></feMorphology>                <feFlood flood-color="#ff0000" flood-opacity="0.5" result="PINK"></feFlood>        <feComposite in="PINK" in2="DILATED" operator="in" result="OUTLINE"></feComposite>        <feMerge>            <feMergeNode in="OUTLINE"></feMergeNode>            <feMergeNode in="SourceGraphic"></feMergeNode>        </feMerge>            <feColorMatrix type="matrix" values="0   0   0   0   0                0   1   0   0   0                0   0   0   0   0                0   0   0   1   0 "></feColorMatrix>    </filter></defs></svg>