<svg class="animated" id="freepik_stories-bingo" xmlns="http://www.w3.org/2000/svg" viewBox="0 0 500 500" version="1.1" xmlns:xlink="http://www.w3.org/1999/xlink" xmlns:svgjs="http://svgjs.com/svgjs"><style>svg#freepik_stories-bingo:not(.animated) .animable {opacity: 0;}svg#freepik_stories-bingo.animated #freepik--bingo-card-2--inject-33 {animation: 6s Infinite  linear heartbeat;animation-delay: 1s;}svg#freepik_stories-bingo.animated #freepik--bingo-card-1--inject-33 {animation: 6s Infinite  linear floating;animation-delay: 1s;}svg#freepik_stories-bingo.animated #freepik--Character--inject-33 {animation: 1s 1 forwards cubic-bezier(.36,-0.01,.5,1.38) slideLeft,3s Infinite  linear wind;animation-delay: 0s,1s;}            @keyframes heartbeat {                0% {                    transform: scale(1);                }                10% {                    transform: scale(1.1);                }                30% {                    transform: scale(1);                }                40% {                    transform: scale(1);                }                50% {                    transform: scale(1.1);                }                60% {                    transform: scale(1);                }                100% {                    transform: scale(1);                }            }                    @keyframes floating {                0% {                    opacity: 1;                    transform: translateY(0px);                }                50% {                    transform: translateY(-10px);                }                100% {                    opacity: 1;                    transform: translateY(0px);                }            }                    @keyframes slideLeft {                0% {                    opacity: 0;                    transform: translateX(-30px);                }                100% {                    opacity: 1;                    transform: translateX(0);                }            }                    @keyframes wind {                0% {                    transform: rotate( 0deg );                }                25% {                    transform: rotate( 1deg );                }                75% {                    transform: rotate( -1deg );                }            }        .animator-hidden { display: none; }</style><g id="freepik--background-complete--inject-33" class="animable animator-hidden" style="transform-origin: 250px 228.23px;"><rect y="382.4" width="500" height="0.25" style="fill: rgb(235, 235, 235); transform-origin: 250px 382.525px;" id="el8xpyfwlab45" class="animable"></rect><rect x="416.78" y="398.49" width="33.12" height="0.25" style="fill: rgb(235, 235, 235); transform-origin: 433.34px 398.615px;" id="elnca58xqq0z" class="animable"></rect><rect x="322.53" y="401.21" width="8.69" height="0.25" style="fill: rgb(235, 235, 235); transform-origin: 326.875px 401.335px;" id="el1o8sz3ipyzd" class="animable"></rect><rect x="396.59" y="389.21" width="19.19" height="0.25" style="fill: rgb(235, 235, 235); transform-origin: 406.185px 389.335px;" id="el2n8rkfmvry2" class="animable"></rect><rect x="52.46" y="390.89" width="43.19" height="0.25" style="fill: rgb(235, 235, 235); transform-origin: 74.055px 391.015px;" id="eli1ki7pnt1no" class="animable"></rect><rect x="104.56" y="390.89" width="6.33" height="0.25" style="fill: rgb(235, 235, 235); transform-origin: 107.725px 391.015px;" id="elu0jbpgyvrx" class="animable"></rect><rect x="131.47" y="395.11" width="93.68" height="0.25" style="fill: rgb(235, 235, 235); transform-origin: 178.31px 395.235px;" id="elnfungzl3tu8" class="animable"></rect><path d="M237,337.8H43.91a5.71,5.71,0,0,1-5.7-5.71V60.66A5.71,5.71,0,0,1,43.91,55H237a5.71,5.71,0,0,1,5.71,5.71V332.09A5.71,5.71,0,0,1,237,337.8ZM43.91,55.2a5.46,5.46,0,0,0-5.45,5.46V332.09a5.46,5.46,0,0,0,5.45,5.46H237a5.47,5.47,0,0,0,5.46-5.46V60.66A5.47,5.47,0,0,0,237,55.2Z" style="fill: rgb(235, 235, 235); transform-origin: 140.46px 196.4px;" id="elw7gjqdxl3wf" class="animable"></path><path d="M453.31,337.8H260.21a5.72,5.72,0,0,1-5.71-5.71V60.66A5.72,5.72,0,0,1,260.21,55h193.1A5.71,5.71,0,0,1,459,60.66V332.09A5.71,5.71,0,0,1,453.31,337.8ZM260.21,55.2a5.47,5.47,0,0,0-5.46,5.46V332.09a5.47,5.47,0,0,0,5.46,5.46h193.1a5.47,5.47,0,0,0,5.46-5.46V60.66a5.47,5.47,0,0,0-5.46-5.46Z" style="fill: rgb(235, 235, 235); transform-origin: 356.75px 196.4px;" id="elj8b1q1po3ie" class="animable"></path><polygon points="403.13 210.11 252.69 227.94 371.67 134.16 344.89 107.38 251.12 226.36 268.94 75.92 231.06 75.92 248.89 226.36 155.11 107.38 128.33 134.16 247.31 227.94 96.87 210.11 96.87 247.99 247.31 230.16 128.33 323.94 155.11 350.72 248.88 231.74 231.06 382.18 268.94 382.18 251.12 231.74 344.89 350.72 371.67 323.94 252.69 230.16 403.13 247.99 403.13 210.11" style="fill: rgb(245, 245, 245); transform-origin: 250px 229.05px;" id="elixi3r7s7bw" class="animable"></polygon><polygon points="248.37 114.66 284.08 187.02 363.94 198.62 306.15 254.95 319.79 334.48 248.37 296.93 176.94 334.48 190.58 254.95 132.8 198.62 212.66 187.02 248.37 114.66" style="fill: rgb(224, 224, 224); transform-origin: 248.37px 224.57px;" id="ela72l0iwqy9" class="animable"></polygon><polygon points="365.62 117.19 376.43 124.28 388.41 119.39 385 131.87 393.35 141.75 380.43 142.36 373.62 153.35 369.04 141.26 356.48 138.18 366.57 130.08 365.62 117.19" style="fill: rgb(224, 224, 224); transform-origin: 374.915px 135.27px;" id="ely91p87th0x" class="animable"></polygon><polygon points="375.12 307.67 385.94 314.76 397.91 309.88 394.5 322.35 402.85 332.23 389.93 332.85 383.12 343.84 378.54 331.75 365.98 328.66 376.07 320.57 375.12 307.67" style="fill: rgb(224, 224, 224); transform-origin: 384.415px 325.755px;" id="el9yucxh3a4x4" class="animable"></polygon><polygon points="248.5 362.63 259.32 369.73 271.29 364.84 267.88 377.32 276.23 387.19 263.31 387.81 256.5 398.8 251.92 386.71 239.36 383.62 249.45 375.53 248.5 362.63" style="fill: rgb(224, 224, 224); transform-origin: 257.795px 380.715px;" id="elem6cowc537d" class="animable"></polygon><polygon points="96.77 333.88 107.59 340.97 119.56 336.09 116.16 348.56 124.5 358.44 111.59 359.06 104.77 370.05 100.19 357.95 87.63 354.87 97.72 346.78 96.77 333.88" style="fill: rgb(224, 224, 224); transform-origin: 106.065px 351.965px;" id="eldoqpi6m8ucb" class="animable"></polygon><polygon points="76.17 228.87 81.71 232.5 87.84 230 86.1 236.39 90.38 241.45 83.76 241.77 80.27 247.4 77.92 241.2 71.48 239.62 76.65 235.48 76.17 228.87" style="fill: rgb(224, 224, 224); transform-origin: 80.93px 238.135px;" id="ellcempqsaa9" class="animable"></polygon><polygon points="414.31 218.4 419.85 222.03 425.99 219.53 424.24 225.92 428.52 230.99 421.9 231.3 418.41 236.93 416.06 230.74 409.62 229.16 414.79 225.01 414.31 218.4" style="fill: rgb(224, 224, 224); transform-origin: 419.07px 227.665px;" id="el3946ro5ckw9" class="animable"></polygon><polygon points="351.78 246.57 359.41 251.58 367.86 248.13 365.46 256.94 371.35 263.91 362.23 264.35 357.42 272.11 354.19 263.57 345.33 261.39 352.45 255.68 351.78 246.57" style="fill: rgb(224, 224, 224); transform-origin: 358.34px 259.34px;" id="elxr8qn5fp01" class="animable"></polygon><polygon points="338.78 359.94 344.32 363.57 350.46 361.07 348.71 367.46 352.99 372.53 346.37 372.84 342.88 378.47 340.53 372.28 334.1 370.7 339.27 366.55 338.78 359.94" style="fill: rgb(224, 224, 224); transform-origin: 343.545px 369.205px;" id="el94d8ik6mav" class="animable"></polygon><polygon points="300.87 342.16 304.41 344.48 308.32 342.88 307.21 346.96 309.94 350.19 305.71 350.39 303.49 353.99 301.99 350.03 297.88 349.02 301.18 346.38 300.87 342.16" style="fill: rgb(224, 224, 224); transform-origin: 303.91px 348.075px;" id="ellvdvs00zxbi" class="animable"></polygon><polygon points="218.64 337.93 222.18 340.25 226.09 338.65 224.98 342.73 227.71 345.96 223.49 346.16 221.26 349.75 219.76 345.8 215.65 344.79 218.95 342.14 218.64 337.93" style="fill: rgb(224, 224, 224); transform-origin: 221.68px 343.84px;" id="el1v9oani6tbz" class="animable"></polygon><polygon points="110.15 181.63 109.24 185.76 112.12 188.85 107.91 189.26 105.85 192.95 104.17 189.07 100.02 188.26 103.19 185.46 102.67 181.26 106.32 183.41 110.15 181.63" style="fill: rgb(224, 224, 224); transform-origin: 106.07px 187.105px;" id="elmb88pj0pae9" class="animable"></polygon><polygon points="319.24 98.53 318.32 102.66 321.2 105.76 316.99 106.16 314.94 109.86 313.25 105.98 309.1 105.17 312.27 102.37 311.76 98.17 315.4 100.32 319.24 98.53" style="fill: rgb(224, 224, 224); transform-origin: 315.15px 104.015px;" id="elosqg5vyvnzr" class="animable"></polygon><polygon points="138.99 267.71 144.53 271.35 150.67 268.84 148.93 275.24 153.2 280.3 146.58 280.61 143.09 286.25 140.75 280.05 134.31 278.47 139.48 274.32 138.99 267.71" style="fill: rgb(224, 224, 224); transform-origin: 143.755px 276.98px;" id="elx7im2n5ci7h" class="animable"></polygon><polygon points="179.76 374.95 185.3 378.58 191.44 376.08 189.69 382.47 193.97 387.53 187.35 387.85 183.86 393.48 181.51 387.28 175.08 385.7 180.25 381.56 179.76 374.95" style="fill: rgb(224, 224, 224); transform-origin: 184.525px 384.215px;" id="eld3brjwk15a" class="animable"></polygon><polygon points="176.84 140.18 182.38 143.81 188.52 141.31 186.77 147.7 191.05 152.76 184.43 153.08 180.94 158.71 178.59 152.51 172.16 150.93 177.32 146.79 176.84 140.18" style="fill: rgb(224, 224, 224); transform-origin: 181.605px 149.445px;" id="elh81ui70zyx8" class="animable"></polygon><polygon points="274.68 109.68 280.22 113.32 286.36 110.81 284.61 117.21 288.89 122.27 282.27 122.58 278.78 128.22 276.43 122.02 270 120.44 275.17 116.29 274.68 109.68" style="fill: rgb(224, 224, 224); transform-origin: 279.445px 118.95px;" id="eluzxv754qamg" class="animable"></polygon><polygon points="112.08 108.31 122.9 115.4 134.87 110.51 131.47 122.99 139.81 132.87 126.89 133.49 120.08 144.48 115.5 132.38 102.94 129.3 113.03 121.2 112.08 108.31" style="fill: rgb(224, 224, 224); transform-origin: 121.375px 126.395px;" id="elfkmpuhub2ap" class="animable"></polygon><polygon points="212.22 84.87 218.35 88.89 225.13 86.12 223.2 93.19 227.93 98.78 220.61 99.13 216.75 105.36 214.16 98.51 207.05 96.76 212.76 92.18 212.22 84.87" style="fill: rgb(224, 224, 224); transform-origin: 217.49px 95.115px;" id="elwyhisgi4e8" class="animable"></polygon></g><g id="freepik--Shadow--inject-33" class="animable" style="transform-origin: 250px 416.24px;"><ellipse id="freepik--path--inject-33" cx="250" cy="416.24" rx="193.89" ry="11.32" style="fill: rgb(245, 245, 245); transform-origin: 250px 416.24px;" class="animable"></ellipse></g><g id="freepik--bingo-card-2--inject-33" class="animable" style="transform-origin: 347.274px 261.155px;"><g id="eloe90lgl63nh"><rect x="298.89" y="200.01" width="96.77" height="122.33" style="fill: rgb(38, 50, 56); transform-origin: 347.275px 261.175px; transform: rotate(10.94deg);" class="animable"></rect></g><g id="elcv8v5uq7x9r"><rect x="335.92" y="265.45" width="17.65" height="17.65" style="fill: rgb(255, 255, 255); transform-origin: 344.745px 274.275px; transform: rotate(10.94deg);" class="animable"></rect></g><path d="M352.29,275.73a7.68,7.68,0,1,1-6.09-9A7.68,7.68,0,0,1,352.29,275.73Z" style="fill: rgb(38, 50, 56); transform-origin: 344.75px 274.272px;" id="el6kbs0jmou6" class="animable"></path><g id="elohou3f694xp"><rect x="306.53" y="222.27" width="17.65" height="17.65" style="fill: rgb(255, 255, 255); transform-origin: 315.355px 231.095px; transform: rotate(10.94deg);" class="animable"></rect></g><path d="M317.27,227.13l-1.57,8.12-1.51-.29,1.33-6.86-1.72-.33.25-1.26Z" style="fill: rgb(38, 50, 56); transform-origin: 315.535px 230.88px;" id="el0ik9binte6yi" class="animable"></path><g id="el8z0m2sei43a"><rect x="324.72" y="225.79" width="17.65" height="17.65" style="fill: rgb(255, 255, 255); transform-origin: 333.545px 234.615px; transform: rotate(10.94deg);" class="animable"></rect></g><path d="M332.09,230l-1.57,8.12-1.51-.29,1.33-6.85-1.72-.33.24-1.27Z" style="fill: rgb(38, 50, 56); transform-origin: 330.355px 233.75px;" id="elp1nb9wo1stk" class="animable"></path><path d="M338.36,237.1c-.26,1.37-1.52,2.35-3.7,1.93a5.17,5.17,0,0,1-2.87-1.53l.87-1a3.89,3.89,0,0,0,2.23,1.26c1.07.2,1.8-.15,1.95-.9s-.3-1.31-1.53-1.55l-.74-.14.2-1,2.27-1.84-3.69-.71.24-1.26,5.53,1.07-.19,1-2.43,2A2.36,2.36,0,0,1,338.36,237.1Z" style="fill: rgb(38, 50, 56); transform-origin: 335.455px 234.744px;" id="eljx519i8zruc" class="animable"></path><g id="el70sdbh163hs"><rect x="342.91" y="229.31" width="17.65" height="17.65" style="fill: rgb(255, 255, 255); transform-origin: 351.735px 238.135px; transform: rotate(10.94deg);" class="animable"></rect></g><path d="M351.82,240.32l-1.43-.28-.36,1.84-1.46-.28.35-1.84-4.45-.86.2-1.05,5-4.45,1.61.31L346.56,238l2.66.51.31-1.63,1.42.27-.32,1.64,1.44.27Z" style="fill: rgb(38, 50, 56); transform-origin: 348.27px 237.64px;" id="elopi5fg4sst" class="animable"></path><path d="M358.22,240.94c-.26,1.37-1.52,2.35-3.71,1.93a5.17,5.17,0,0,1-2.86-1.53l.87-1a3.89,3.89,0,0,0,2.23,1.26c1.07.2,1.8-.15,1.95-.9s-.3-1.31-1.53-1.55l-.74-.14.2-1,2.26-1.84-3.68-.71.24-1.26L359,235.2l-.19,1-2.43,2A2.36,2.36,0,0,1,358.22,240.94Z" style="fill: rgb(38, 50, 56); transform-origin: 355.325px 238.584px;" id="el1wv3z53me0p" class="animable"></path><g id="el7yt45nsdkt"><rect x="361.1" y="232.83" width="17.65" height="17.65" style="fill: rgb(255, 255, 255); transform-origin: 369.925px 241.655px; transform: rotate(10.94deg);" class="animable"></rect></g><path d="M369.21,243.07c-.27,1.36-1.53,2.35-3.71,1.93a5.29,5.29,0,0,1-2.87-1.53l.88-1.05a3.83,3.83,0,0,0,2.22,1.26c1.08.21,1.81-.14,1.95-.9s-.3-1.31-1.52-1.54l-.75-.15.2-1,2.27-1.83-3.69-.72.25-1.26,5.53,1.07-.2,1-2.42,2A2.37,2.37,0,0,1,369.21,243.07Z" style="fill: rgb(38, 50, 56); transform-origin: 366.3px 240.689px;" id="elqgt0umu15wn" class="animable"></path><path d="M376,244.32c-.28,1.42-1.54,2.41-3.72,2a5.18,5.18,0,0,1-2.87-1.52l.87-1.05A3.89,3.89,0,0,0,372.5,245c1.08.21,1.81-.14,2-.91s-.26-1.36-1.94-1.68l-2-.38,1.27-4.34,4.77.92-.25,1.27-3.49-.68-.53,1.85.77.15C375.5,241.65,376.26,242.88,376,244.32Z" style="fill: rgb(38, 50, 56); transform-origin: 373.005px 242.052px;" id="elaok1h9e2uap" class="animable"></path><g id="el00djccvh25sk"><rect x="379.29" y="236.34" width="17.65" height="17.65" style="fill: rgb(255, 255, 255); transform-origin: 388.115px 245.165px; transform: rotate(10.94deg);" class="animable"></rect></g><path d="M387.39,244.75c-.54,2.79-2.46,4-4.81,3.55a4.16,4.16,0,0,1-2-.94l.78-1a2.81,2.81,0,0,0,1.47.7c1.53.29,2.67-.47,3-2.32h0a2.78,2.78,0,0,1-2.33.43,2.57,2.57,0,0,1-2.31-3,2.76,2.76,0,0,1,3.48-2.06C386.87,240.47,387.89,242.14,387.39,244.75Zm-1.47-1.82c.15-.76-.33-1.48-1.41-1.69a1.44,1.44,0,0,0-1.86,1.07c-.16.85.37,1.5,1.36,1.69A1.5,1.5,0,0,0,385.92,242.93Z" style="fill: rgb(38, 50, 56); transform-origin: 384.047px 244.194px;" id="elfnuy8kvwzkd" class="animable"></path><path d="M388.38,245.09c.52-2.67,2.27-3.89,4.19-3.52s3.11,2.16,2.59,4.83-2.26,3.89-4.2,3.52S387.86,247.76,388.38,245.09Zm5.26,1c.38-2-.21-3-1.32-3.23s-2,.54-2.42,2.5.21,3,1.31,3.23S393.27,248.07,393.64,246.11Z" style="fill: rgb(38, 50, 56); transform-origin: 391.769px 245.745px;" id="el1i2niqrc7de" class="animable"></path><g id="elfe5y1nb6uw4"><rect x="303.03" y="240.34" width="17.65" height="17.65" style="fill: rgb(255, 255, 255); transform-origin: 311.855px 249.165px; transform: rotate(10.94deg);" class="animable"></rect></g><path d="M312.4,250.76c-.28,1.43-1.54,2.41-3.72,2a5.1,5.1,0,0,1-2.86-1.53l.86-1a4,4,0,0,0,2.23,1.26c1.08.21,1.81-.15,2-.91s-.25-1.36-1.94-1.69l-2-.38,1.28-4.33,4.76.92-.24,1.26-3.49-.67-.54,1.84.78.15C311.92,248.1,312.68,249.33,312.4,250.76Z" style="fill: rgb(38, 50, 56); transform-origin: 309.415px 248.517px;" id="elkwcsbue05vl" class="animable"></path><path d="M317.16,245.85,315.59,254l-1.51-.29,1.33-6.86-1.72-.33.25-1.26Z" style="fill: rgb(38, 50, 56); transform-origin: 315.425px 249.63px;" id="eljaksz092h3" class="animable"></path><g id="elnkbnyqg8u6"><rect x="321.22" y="243.86" width="17.65" height="17.65" style="fill: rgb(255, 255, 255); transform-origin: 330.045px 252.685px; transform: rotate(10.94deg);" class="animable"></rect></g><path d="M330.85,254.5c-.29,1.51-1.78,2.19-3.8,1.8s-3.13-1.58-2.83-3.08a2.07,2.07,0,0,1,1.67-1.69,1.88,1.88,0,0,1-.68-1.9c.27-1.39,1.66-2,3.45-1.68s2.87,1.46,2.6,2.85a1.89,1.89,0,0,1-1.36,1.51A2.09,2.09,0,0,1,330.85,254.5Zm-1.51-.34c.15-.8-.45-1.43-1.56-1.65s-1.88.16-2,1,.42,1.44,1.54,1.65S329.18,255,329.34,254.16ZM326.68,250c-.13.7.36,1.25,1.31,1.43s1.64-.14,1.78-.83-.41-1.27-1.34-1.45S326.82,249.26,326.68,250Z" style="fill: rgb(38, 50, 56); transform-origin: 327.736px 252.137px;" id="el4r03kkt7r4l" class="animable"></path><path d="M335.75,249.44l-1.57,8.12-1.51-.29,1.32-6.85-1.71-.33.24-1.27Z" style="fill: rgb(38, 50, 56); transform-origin: 334.015px 253.19px;" id="eloi6w5lpt0jk" class="animable"></path><g id="elzcqkhl9r8r"><rect x="339.41" y="247.38" width="17.65" height="17.65" style="fill: rgb(255, 255, 255); transform-origin: 348.235px 256.205px; transform: rotate(10.94deg);" class="animable"></rect></g><path d="M348.53,259l-.24,1.28-6-1.16.2-1,3.81-2.43c.94-.61,1.17-1.05,1.26-1.51.14-.74-.29-1.26-1.28-1.46a2.35,2.35,0,0,0-2.07.48l-.9-1a3.8,3.8,0,0,1,3.35-.75c1.76.34,2.72,1.45,2.44,2.89a3.3,3.3,0,0,1-1.84,2.3l-2.56,1.65Z" style="fill: rgb(38, 50, 56); transform-origin: 345.719px 255.807px;" id="elasei5qshy3q" class="animable"></path><path d="M353.53,252.88,352,261l-1.51-.29,1.33-6.85-1.72-.34.25-1.26Z" style="fill: rgb(38, 50, 56); transform-origin: 351.815px 256.63px;" id="elv1fb20my0a" class="animable"></path><g id="elu7o2bx9rals"><rect x="357.6" y="250.89" width="17.65" height="17.65" style="fill: rgb(255, 255, 255); transform-origin: 366.425px 259.715px; transform: rotate(10.94deg);" class="animable"></rect></g><path d="M364.82,255.07l-1.57,8.11-1.5-.29,1.32-6.85-1.72-.33.25-1.27Z" style="fill: rgb(38, 50, 56); transform-origin: 363.085px 258.81px;" id="elfn1naroy1o" class="animable"></path><path d="M372.55,256.56l-.19,1-4.53,6.5-1.61-.31,4.37-6.25-3.19-.62-.26,1.38-1.41-.27.52-2.66Z" style="fill: rgb(38, 50, 56); transform-origin: 369.14px 259.695px;" id="el65zhzwxk6v2" class="animable"></path><g id="elvz61tqf0luf"><rect x="375.79" y="254.41" width="17.65" height="17.65" style="fill: rgb(255, 255, 255); transform-origin: 384.615px 263.235px; transform: rotate(10.94deg);" class="animable"></rect></g><path d="M384.09,265.3l-1.44-.28-.36,1.85-1.46-.29.36-1.84-4.45-.86.2-1,5-4.46,1.61.31L378.83,263l2.65.51.32-1.63,1.41.27-.31,1.64,1.44.28Z" style="fill: rgb(38, 50, 56); transform-origin: 380.54px 262.645px;" id="elponl3ctebmr" class="animable"></path><path d="M392,266.82l-1.44-.28-.35,1.85-1.47-.28.36-1.85-4.45-.86.2-1,5-4.46,1.61.31-4.73,4.27,2.65.52.32-1.64,1.42.27-.32,1.64,1.44.28Z" style="fill: rgb(38, 50, 56); transform-origin: 388.445px 264.165px;" id="elvd92d8sv5l" class="animable"></path><g id="elm2z51380epd"><rect x="299.54" y="258.41" width="17.65" height="17.65" style="fill: rgb(255, 255, 255); transform-origin: 308.365px 267.235px; transform: rotate(10.94deg);" class="animable"></rect></g><path d="M308,268.82c-.29,1.51-1.78,2.2-3.8,1.81s-3.13-1.58-2.83-3.09a2.06,2.06,0,0,1,1.67-1.68,1.89,1.89,0,0,1-.68-1.9c.27-1.39,1.65-2,3.45-1.68s2.87,1.46,2.6,2.85a1.89,1.89,0,0,1-1.36,1.5A2.09,2.09,0,0,1,308,268.82Zm-1.51-.34c.15-.8-.45-1.43-1.56-1.64s-1.88.15-2,1,.42,1.44,1.54,1.65S306.32,269.31,306.48,268.48Zm-2.66-4.17c-.13.7.36,1.25,1.31,1.44s1.64-.14,1.78-.84-.41-1.27-1.34-1.45S304,263.58,303.82,264.31Z" style="fill: rgb(38, 50, 56); transform-origin: 304.887px 266.467px;" id="elqvgzdmqt9gr" class="animable"></path><path d="M314.89,270c-.27,1.43-1.53,2.41-3.71,2a5.13,5.13,0,0,1-2.87-1.53l.86-1.05a3.89,3.89,0,0,0,2.24,1.26c1.08.21,1.81-.14,1.95-.91s-.25-1.36-1.93-1.68l-2-.38,1.27-4.34,4.77.93-.25,1.26-3.49-.67-.54,1.84.78.15C314.41,267.32,315.17,268.55,314.89,270Z" style="fill: rgb(38, 50, 56); transform-origin: 311.89px 267.732px;" id="el9pg72xh9qwk" class="animable"></path><g id="eld3jy0ius2sm"><rect x="317.73" y="261.93" width="17.65" height="17.65" style="fill: rgb(255, 255, 255); transform-origin: 326.555px 270.755px; transform: rotate(10.94deg);" class="animable"></rect></g><path d="M329.3,272.78c-.27,1.42-1.53,2.41-3.71,2a5.26,5.26,0,0,1-2.87-1.53l.86-1.05a4,4,0,0,0,2.24,1.26c1.08.21,1.81-.14,1.95-.91s-.25-1.36-1.93-1.68l-2-.38,1.27-4.34,4.77.92-.25,1.27-3.49-.68-.54,1.85.78.15C328.82,270.11,329.58,271.34,329.3,272.78Z" style="fill: rgb(38, 50, 56); transform-origin: 326.3px 270.512px;" id="elq8vuw47dtcn" class="animable"></path><g id="elyk59f1r7qu"><rect x="354.11" y="268.96" width="17.65" height="17.65" style="fill: rgb(255, 255, 255); transform-origin: 362.935px 277.785px; transform: rotate(10.94deg);" class="animable"></rect></g><path d="M363.53,273.56l-.2,1-4.53,6.5-1.61-.31,4.37-6.26-3.19-.61-.26,1.38L356.7,275l.52-2.66Z" style="fill: rgb(38, 50, 56); transform-origin: 360.115px 276.7px;" id="elpprotgbvdlb" class="animable"></path><path d="M369,280.52c-.26,1.37-1.52,2.35-3.7,1.93a5.17,5.17,0,0,1-2.87-1.53l.88-1.05a3.78,3.78,0,0,0,2.22,1.26c1.08.21,1.81-.14,1.95-.89s-.3-1.31-1.53-1.55l-.74-.14.2-1,2.27-1.83L364,275l.24-1.27,5.54,1.07-.2,1-2.42,2A2.35,2.35,0,0,1,369,280.52Z" style="fill: rgb(38, 50, 56); transform-origin: 366.105px 278.139px;" id="elm05jadhwc6b" class="animable"></path><g id="el5qydihm43nt"><rect x="372.3" y="272.48" width="17.65" height="17.65" style="fill: rgb(255, 255, 255); transform-origin: 381.125px 281.305px; transform: rotate(10.94deg);" class="animable"></rect></g><path d="M379.74,283.79l-.24,1.28-6-1.16.2-1,3.81-2.44c.94-.59,1.17-1,1.26-1.5.14-.74-.29-1.27-1.28-1.46a2.35,2.35,0,0,0-2.07.48l-.9-1a3.87,3.87,0,0,1,3.35-.75c1.76.35,2.72,1.46,2.44,2.9a3.3,3.3,0,0,1-1.84,2.3l-2.56,1.64Z" style="fill: rgb(38, 50, 56); transform-origin: 376.929px 280.6px;" id="eluc6rrcp15n" class="animable"></path><path d="M381.11,281.17c.52-2.66,2.27-3.89,4.2-3.52s3.1,2.17,2.59,4.83-2.27,3.9-4.21,3.52S380.6,283.84,381.11,281.17Zm5.27,1c.38-2-.21-3-1.33-3.23s-2,.55-2.42,2.51.21,3,1.32,3.22S386,284.15,386.38,282.19Z" style="fill: rgb(38, 50, 56); transform-origin: 384.504px 281.826px;" id="elxse48vt9i0m" class="animable"></path><g id="elrm4ix3u1e0c"><rect x="296.05" y="276.48" width="17.65" height="17.65" style="fill: rgb(255, 255, 255); transform-origin: 304.875px 285.305px; transform: rotate(10.94deg);" class="animable"></rect></g><path d="M307.88,287.55c-.29,1.5-1.78,2.19-3.8,1.8s-3.12-1.58-2.83-3.08a2.06,2.06,0,0,1,1.67-1.69,1.88,1.88,0,0,1-.68-1.9c.27-1.39,1.66-2,3.45-1.68s2.87,1.46,2.6,2.85a1.88,1.88,0,0,1-1.36,1.51A2.08,2.08,0,0,1,307.88,287.55Zm-1.51-.34c.15-.8-.45-1.44-1.56-1.65s-1.88.15-2,.95.42,1.44,1.54,1.66S306.21,288,306.37,287.21ZM303.71,283c-.13.69.36,1.25,1.31,1.43s1.64-.14,1.78-.84-.41-1.27-1.34-1.45S303.85,282.31,303.71,283Z" style="fill: rgb(38, 50, 56); transform-origin: 304.768px 285.187px;" id="el2ipc7pfg49p" class="animable"></path><g id="elunwif2ra85"><rect x="314.24" y="280" width="17.65" height="17.65" style="fill: rgb(255, 255, 255); transform-origin: 323.065px 288.825px; transform: rotate(10.94deg);" class="animable"></rect></g><path d="M322.77,284.42l-1.57,8.12-1.51-.29L321,285.4l-1.72-.33.25-1.27Z" style="fill: rgb(38, 50, 56); transform-origin: 321.025px 288.17px;" id="elhna5jw0jljr" class="animable"></path><path d="M327.19,285.28l-1.57,8.11-1.51-.29,1.33-6.85-1.72-.33.24-1.27Z" style="fill: rgb(38, 50, 56); transform-origin: 325.455px 289.02px;" id="elji63m7cjha8" class="animable"></path><g id="el1l7xmysfmv8h"><rect x="332.43" y="283.51" width="17.65" height="17.65" style="fill: rgb(255, 255, 255); transform-origin: 341.255px 292.335px; transform: rotate(10.94deg);" class="animable"></rect></g><path d="M342.9,288.32l-.19,1-4.53,6.49-1.61-.31,4.37-6.25-3.19-.62-.27,1.38-1.4-.27.52-2.65Z" style="fill: rgb(38, 50, 56); transform-origin: 339.49px 291.45px;" id="el7lmhwq42kdv" class="animable"></path><path d="M346.75,289.06l-1.57,8.12-1.51-.29L345,290l-1.72-.33.25-1.26Z" style="fill: rgb(38, 50, 56); transform-origin: 345.015px 292.795px;" id="elyfka28vn8ei" class="animable"></path><g id="elbsfu4ne6azs"><rect x="350.62" y="287.03" width="17.65" height="17.65" style="fill: rgb(255, 255, 255); transform-origin: 359.445px 295.855px; transform: rotate(10.94deg);" class="animable"></rect></g><path d="M361.94,299.1l-.24,1.27-6-1.16.2-1,3.81-2.44c.94-.6,1.17-1,1.26-1.5.14-.75-.29-1.27-1.28-1.47a2.35,2.35,0,0,0-2.07.48l-.9-1a3.8,3.8,0,0,1,3.35-.75c1.76.34,2.72,1.45,2.44,2.89a3.3,3.3,0,0,1-1.84,2.3l-2.56,1.65Z" style="fill: rgb(38, 50, 56); transform-origin: 359.129px 295.892px;" id="elchif2algi55" class="animable"></path><g id="ell7fv2dq9rm"><rect x="368.81" y="290.55" width="17.65" height="17.65" style="fill: rgb(255, 255, 255); transform-origin: 377.635px 299.375px; transform: rotate(10.94deg);" class="animable"></rect></g><path d="M376,294.72l-1.57,8.12-1.5-.29,1.32-6.86-1.71-.33.24-1.26Z" style="fill: rgb(38, 50, 56); transform-origin: 374.27px 298.47px;" id="eld0m7wlo4oha" class="animable"></path><path d="M383.76,296.22l-.2,1L379,303.72l-1.61-.31,4.37-6.25-3.19-.62-.26,1.38-1.4-.27.51-2.65Z" style="fill: rgb(38, 50, 56); transform-origin: 380.335px 299.36px;" id="el75k6vmci0w8" class="animable"></path><g id="elhhzpw3gfxh7"><rect x="292.55" y="294.55" width="17.65" height="17.65" style="fill: rgb(255, 255, 255); transform-origin: 301.375px 303.375px; transform: rotate(10.94deg);" class="animable"></rect></g><path d="M303,299.35l-.19,1-4.53,6.5-1.62-.31,4.38-6.26-3.19-.61-.27,1.38-1.4-.27.51-2.66Z" style="fill: rgb(38, 50, 56); transform-origin: 299.59px 302.485px;" id="elyzqz5jbm0cd" class="animable"></path><path d="M306.88,300.09l-1.57,8.12-1.51-.29,1.33-6.85-1.72-.33.24-1.27Z" style="fill: rgb(38, 50, 56); transform-origin: 305.145px 303.84px;" id="elqshjgp3flam" class="animable"></path><g id="elbeq7zp7bule"><rect x="310.74" y="298.07" width="17.65" height="17.65" style="fill: rgb(255, 255, 255); transform-origin: 319.565px 306.895px; transform: rotate(10.94deg);" class="animable"></rect></g><path d="M318.54,308.24c-.26,1.37-1.52,2.36-3.7,1.93a5.22,5.22,0,0,1-2.87-1.52l.88-1a3.83,3.83,0,0,0,2.22,1.26c1.08.21,1.81-.14,1.95-.9s-.3-1.31-1.53-1.54l-.74-.15.2-1,2.27-1.83-3.69-.72.25-1.26,5.53,1.07-.2,1-2.42,2A2.35,2.35,0,0,1,318.54,308.24Z" style="fill: rgb(38, 50, 56); transform-origin: 315.64px 305.891px;" id="eltmkwhyk1sls" class="animable"></path><path d="M326.12,307.88c-.54,2.79-2.46,4-4.81,3.55a4.16,4.16,0,0,1-2-.94l.78-1a2.8,2.8,0,0,0,1.47.69c1.53.3,2.67-.46,3-2.31h0a2.81,2.81,0,0,1-2.33.43,2.58,2.58,0,0,1-2.31-3,2.75,2.75,0,0,1,3.48-2.05C325.6,303.59,326.62,305.27,326.12,307.88Zm-1.47-1.82c.15-.77-.33-1.49-1.41-1.7a1.44,1.44,0,0,0-1.86,1.08c-.16.84.37,1.5,1.36,1.69A1.5,1.5,0,0,0,324.65,306.06Z" style="fill: rgb(38, 50, 56); transform-origin: 322.777px 307.328px;" id="elmwmx7yhil19" class="animable"></path><g id="elny6au3ildu"><rect x="328.93" y="301.58" width="17.65" height="17.65" style="fill: rgb(255, 255, 255); transform-origin: 337.755px 310.405px; transform: rotate(10.94deg);" class="animable"></rect></g><path d="M336.29,305.78l-1.57,8.12-1.51-.29,1.33-6.86-1.72-.33.25-1.26Z" style="fill: rgb(38, 50, 56); transform-origin: 334.555px 309.53px;" id="els9f5qrnllmm" class="animable"></path><path d="M342.71,312.86c-.27,1.42-1.53,2.41-3.71,2a5.26,5.26,0,0,1-2.87-1.53l.86-1.05a4,4,0,0,0,2.24,1.26c1.08.21,1.81-.14,1.95-.91s-.25-1.36-1.93-1.68l-2-.38,1.27-4.34,4.77.92-.25,1.27-3.49-.68-.54,1.85.78.15C342.23,310.19,343,311.42,342.71,312.86Z" style="fill: rgb(38, 50, 56); transform-origin: 339.71px 310.592px;" id="el616i45tzsqr" class="animable"></path><g id="elcurgz8linl"><rect x="347.12" y="305.1" width="17.65" height="17.65" style="fill: rgb(255, 255, 255); transform-origin: 355.945px 313.925px; transform: rotate(10.94deg);" class="animable"></rect></g><path d="M355.21,315.33c-.26,1.37-1.52,2.36-3.7,1.94a5.29,5.29,0,0,1-2.87-1.53l.88-1.05a3.83,3.83,0,0,0,2.22,1.26c1.08.21,1.81-.14,1.95-.9s-.3-1.3-1.53-1.54l-.74-.15.2-1,2.27-1.83-3.69-.72.25-1.26,5.53,1.07-.2,1-2.42,2A2.35,2.35,0,0,1,355.21,315.33Z" style="fill: rgb(38, 50, 56); transform-origin: 352.31px 312.959px;" id="elkh87sw60j2e" class="animable"></path><path d="M361.79,317.81l-.24,1.28-6-1.16.2-1,3.81-2.44c.94-.6,1.17-1.05,1.26-1.5.14-.74-.29-1.27-1.28-1.46a2.33,2.33,0,0,0-2.07.48l-.9-1a3.8,3.8,0,0,1,3.35-.75c1.76.34,2.72,1.46,2.45,2.89a3.37,3.37,0,0,1-1.84,2.31L358,317.07Z" style="fill: rgb(38, 50, 56); transform-origin: 358.983px 314.617px;" id="elbczwc9fwbms" class="animable"></path><g id="elrck04ae577"><rect x="365.31" y="308.62" width="17.65" height="17.65" style="fill: rgb(255, 255, 255); transform-origin: 374.135px 317.445px; transform: rotate(10.94deg);" class="animable"></rect></g><path d="M372.15,312.72l-1.57,8.11-1.5-.29,1.32-6.85-1.71-.33.24-1.27Z" style="fill: rgb(38, 50, 56); transform-origin: 370.42px 316.46px;" id="elw75n2bscpl" class="animable"></path><path d="M373,317.09c.51-2.67,2.27-3.9,4.19-3.52s3.11,2.16,2.59,4.83-2.27,3.89-4.2,3.52S372.46,319.75,373,317.09Zm5.26,1c.38-2-.21-3-1.32-3.22s-2,.54-2.42,2.5.21,3,1.31,3.22S377.86,320.06,378.24,318.1Z" style="fill: rgb(38, 50, 56); transform-origin: 376.386px 317.744px;" id="eljtu767lxoof" class="animable"></path><polygon points="345.7 269.32 346.57 272.5 349.69 273.58 346.93 275.4 346.86 278.69 344.29 276.63 341.13 277.59 342.3 274.5 340.41 271.79 343.71 271.94 345.7 269.32" style="fill: rgb(0, 255, 136); transform-origin: 345.05px 274.005px;" id="elv57uggfo32" class="animable"></polygon><path d="M390.91,213.47c-5.41-1.05-10.13,2-11.13,7.15s2.25,9.74,7.66,10.79,10.13-2,11.13-7.15S396.31,214.51,390.91,213.47Z" style="fill: rgb(0, 255, 136); transform-origin: 389.175px 222.44px;" id="eletmbg9t2r57" class="animable"></path><polygon points="390.38 216.22 391.5 220.31 395.51 221.71 391.96 224.04 391.87 228.29 388.56 225.63 384.49 226.86 385.99 222.89 383.57 219.4 387.81 219.6 390.38 216.22" style="fill: rgb(38, 50, 56); transform-origin: 389.54px 222.255px;" id="elidx5zpgdwef" class="animable"></polygon><path d="M329.42,215c-.58,3-3.25,4.28-7.74,3.42L313,216.76l3.37-17.44,8.17,1.58c4.19.81,6.09,3,5.56,5.77a4.26,4.26,0,0,1-3,3.41A4.36,4.36,0,0,1,329.42,215Zm-10.29-12.54-.93,4.81,4.58.89c2.25.43,3.67-.12,4-1.71s-.8-2.67-3.05-3.1Zm7.09,11.59c.34-1.75-.83-2.78-3.27-3.25l-5.24-1-1,5,5.23,1C324.41,216.33,325.88,215.81,326.22,214.07Z" style="fill: rgb(0, 255, 136); transform-origin: 321.593px 209.001px;" id="elkxkymqwjplo" class="animable"></path><path d="M335.34,203l3.24.63-3.37,17.44-3.24-.62Z" style="fill: rgb(0, 255, 136); transform-origin: 335.275px 212.035px;" id="eld0fzlh875qt" class="animable"></path><path d="M358.79,207.52,355.42,225l-2.67-.52-7.33-13.67-2.29,11.81-3.21-.62,3.37-17.44L346,205l7.33,13.68,2.29-11.82Z" style="fill: rgb(0, 255, 136); transform-origin: 349.355px 214.78px;" id="elmbemfgny6fg" class="animable"></path><path d="M373.74,219.25l3.06.59-1.34,6.95a11.22,11.22,0,0,1-7.26.9c-5.41-1.05-8.66-5.58-7.66-10.79s5.72-8.2,11.18-7.14a9.16,9.16,0,0,1,6.45,4.19l-2.42,1.6a6.62,6.62,0,0,0-4.43-2.92,6.24,6.24,0,1,0-2.39,12.25,7.19,7.19,0,0,0,3.76-.2Z" style="fill: rgb(0, 255, 136); transform-origin: 369.265px 218.741px;" id="elwi5zal2zft" class="animable"></path><g id="eljz9hk7hipyg"><rect x="298.89" y="200.01" width="96.77" height="122.33" style="fill: rgb(255, 255, 255); opacity: 0.2; transform-origin: 347.275px 261.175px; transform: rotate(10.94deg);" class="animable"></rect></g><g id="el9e0dwwu6dsv"><path d="M376.79,203.94S339.3,286.53,288.16,312l23.22-120.1Z" style="opacity: 0.2; transform-origin: 332.475px 251.95px;" class="animable"></path></g></g><g id="freepik--Balls--inject-33" class="animable" style="transform-origin: 246.082px 256.639px;"><path d="M421,288.82a22.1,22.1,0,1,1-.38-4.08v0A21.75,21.75,0,0,1,421,288.82Z" style="fill: rgb(0, 255, 136); transform-origin: 398.9px 288.821px;" id="elvjp5bflds88" class="animable"></path><g id="ely3cfib87r4"><g style="opacity: 0.8; transform-origin: 403.383px 286.42px;" class="animable"><path d="M420.6,284.76a16.18,16.18,0,0,1,.09,1.71,16.93,16.93,0,1,1-5-12,22,22,0,0,0-5.94-4.92,17.91,17.91,0,1,0,10.92,22.7,22.09,22.09,0,0,0,.27-3.48A21.75,21.75,0,0,0,420.6,284.76Z" style="fill: rgb(255, 255, 255); transform-origin: 403.383px 286.42px;" id="eldim2sa7u8o" class="animable"></path></g></g><g id="el81ur7zs1brq"><circle cx="404.78" cy="286.01" r="13.91" style="fill: rgb(255, 255, 255); opacity: 0.8; transform-origin: 404.78px 286.01px;" class="animable"></circle></g><path d="M412.81,283.48c1.38,4.95-.75,8.48-4.94,9.65a7.41,7.41,0,0,1-4.05.13l.42-2.29a5.18,5.18,0,0,0,2.94-.07c2.73-.76,4-2.93,3.05-6.21v0a5.1,5.1,0,0,1-3.43,2.58c-2.85.8-5.46-.34-6.21-3.05s1-5.33,4-6.15C408.49,277,411.51,278.84,412.81,283.48ZM409,281.71c-.38-1.36-1.75-2.14-3.67-1.6-1.67.47-2.56,1.74-2.14,3.24s1.82,2.14,3.57,1.65S409.35,283.13,409,281.71Z" style="fill: rgb(38, 50, 56); transform-origin: 406.823px 285.628px;" id="el1fp1mose77m" class="animable"></path><g id="eloqlej2h07gp"><path d="M421,288.82a22.09,22.09,0,0,1-44,2.63,22.08,22.08,0,0,0,41.73-10.12,21.54,21.54,0,0,0-.17-2.68,22,22,0,0,1,2.09,6.09v0A21.75,21.75,0,0,1,421,288.82Z" style="opacity: 0.2; transform-origin: 399px 294.691px;" class="animable"></path></g><g id="elsldf5e5b36b"><circle cx="392.02" cy="276.98" r="6.94" style="fill: rgb(255, 255, 255); opacity: 0.2; transform-origin: 392.02px 276.98px;" class="animable"></circle></g><g id="elflnnebr3cc"><circle cx="382.77" cy="283.92" r="3.1" style="fill: rgb(255, 255, 255); opacity: 0.2; transform-origin: 382.77px 283.92px;" class="animable"></circle></g><path d="M176.4,107A22.07,22.07,0,0,0,183,137.52a22.1,22.1,0,0,0,24-37.13,22.12,22.12,0,0,0-28,3.35v0A22.21,22.21,0,0,0,176.4,107Z" style="fill: rgb(0, 255, 136); transform-origin: 194.984px 118.96px;" id="eln4ragtz6eaa" class="animable"></path><g id="elscthk9bs1h"><path d="M176.4,107A22.07,22.07,0,0,0,183,137.52a22.1,22.1,0,0,0,24-37.13,22.12,22.12,0,0,0-28,3.35v0A22.21,22.21,0,0,0,176.4,107Z" style="opacity: 0.4; transform-origin: 194.984px 118.96px;" class="animable"></path></g><g id="el1lukfu55gbw"><g style="opacity: 0.8; transform-origin: 192.12px 114.572px;" class="animable"><path d="M176.4,107a22.33,22.33,0,0,0-1.66,3.07,17.9,17.9,0,1,0,21.49-13.14,22,22,0,0,0-7.66.91,16.9,16.9,0,1,1-10.65,7.35,14,14,0,0,1,1-1.39A22.21,22.21,0,0,0,176.4,107Z" style="fill: rgb(255, 255, 255); transform-origin: 192.12px 114.572px;" id="elwqeabudtne" class="animable"></path></g></g><g id="elmrlzp7l295"><path d="M179.85,105.84a13.91,13.91,0,1,0,19.23-4.14A13.91,13.91,0,0,0,179.85,105.84Z" style="fill: rgb(255, 255, 255); opacity: 0.8; transform-origin: 191.535px 113.386px;" class="animable"></path></g><path d="M198.66,111.67l-1.3,1.33L184,118.36l-2.13-2.08,12.85-5.13L190.52,107l-1.78,1.83-1.85-1.81,3.41-3.52Z" style="fill: rgb(38, 50, 56); transform-origin: 190.265px 110.93px;" id="eld5w64bfrpzw" class="animable"></path><g id="el25gqmf3m12g"><path d="M176.4,107A22.07,22.07,0,0,0,183,137.52a22.1,22.1,0,0,0,29-4.46A22.09,22.09,0,0,1,180.74,105a21.3,21.3,0,0,1,1.66-3.07A20.38,20.38,0,0,1,184,99.76a22.1,22.1,0,0,0-5.06,4v0A22.21,22.21,0,0,0,176.4,107Z" style="opacity: 0.2; transform-origin: 192.438px 120.407px;" class="animable"></path></g><g id="elqe2u50wr46s"><path d="M201.32,109a6.94,6.94,0,1,0,9.6-2.07A6.94,6.94,0,0,0,201.32,109Z" style="fill: rgb(255, 255, 255); opacity: 0.2; transform-origin: 207.154px 112.759px;" class="animable"></path></g><g id="elh2ubajbrj9n"><path d="M208.55,121.9a3.1,3.1,0,1,0,4.29-.92A3.1,3.1,0,0,0,208.55,121.9Z" style="fill: rgb(255, 255, 255); opacity: 0.2; transform-origin: 211.154px 123.582px;" class="animable"></path></g><path d="M206.77,381.83a32.93,32.93,0,0,1-32.32,32.93h-.62a33.78,33.78,0,0,1-7-.72A32.95,32.95,0,0,1,147,400.92h0a32.94,32.94,0,1,1,59.8-19.08Z" style="fill: rgb(38, 50, 56); transform-origin: 173.86px 381.836px;" id="el6wbck5ojzv4" class="animable"></path><g id="ele6e9p1pzrd4"><g style="opacity: 0.8; transform-origin: 169.733px 389.755px;" class="animable"><path d="M169.72,364.75A25.25,25.25,0,0,0,147,400.91h0a33.3,33.3,0,0,0,5.12,5.68,24.21,24.21,0,1,1,14.77,7.45,33.78,33.78,0,0,0,7,.72h.62a25.23,25.23,0,0,0-4.73-50Z" style="fill: rgb(255, 255, 255); transform-origin: 169.733px 389.755px;" id="elhpdubbj4wet" class="animable"></path></g></g><g id="eld8i1yyxk6bb"><circle cx="168.73" cy="390.98" r="20.74" style="fill: rgb(255, 255, 255); opacity: 0.8; transform-origin: 168.73px 390.98px;" class="animable"></circle></g><path d="M166.7,402c-.12,1-.25,1.94-.37,2.91a89.54,89.54,0,0,1-13.52-3c.1-.76.2-1.53.29-2.29q4-2.37,8.12-5.08c2-1.35,2.46-2.39,2.58-3.41.21-1.69-.82-2.86-3.08-3.36a4.92,4.92,0,0,0-4.52.85c-.71-.83-1.42-1.67-2.12-2.52,1.63-1.49,4.29-1.9,7.3-1.24,4,.87,6.34,3.21,5.93,6.5-.23,1.78-.94,3.38-3.8,5.33q-2.76,1.89-5.5,3.65C160.89,401.08,163.78,401.64,166.7,402Z" style="fill: rgb(38, 50, 56); transform-origin: 160.083px 394.733px;" id="eldj6vldqav9" class="animable"></path><path d="M184.64,387.14c-.1.77-.2,1.54-.29,2.31q-4.65,8.32-9.29,16.3c-1.24-.05-2.47-.13-3.7-.23q4.47-7.51,9-15.36-3.68,0-7.33-.29c-.13,1.05-.27,2.1-.4,3.15-1.07-.09-2.14-.19-3.21-.32q.38-3,.76-6.05A88.82,88.82,0,0,0,184.64,387.14Z" style="fill: rgb(38, 50, 56); transform-origin: 177.03px 396.2px;" id="elstjnst9hqs" class="animable"></path><g id="el6gxhs6yk0pi"><path d="M206.77,381.83a32.93,32.93,0,0,1-32.32,32.93h-.62a33.78,33.78,0,0,1-7-.72A32.95,32.95,0,0,1,147,400.92h0a32.93,32.93,0,0,1-6.07-19.08,33.28,33.28,0,0,1,.75-7,32.85,32.85,0,0,0,6,17.46l0,0a34.14,34.14,0,0,0,5.12,5.69,32.77,32.77,0,0,0,21.72,8.17c.21,0,.41,0,.62,0a33,33,0,0,0,31.57-25.9C206.76,380.75,206.77,381.3,206.77,381.83Z" style="opacity: 0.2; transform-origin: 173.85px 394.8px;" class="animable"></path></g><g id="elw5y90jwllol"><circle cx="171.64" cy="362.37" r="9.59" style="fill: rgb(255, 255, 255); opacity: 0.2; transform-origin: 171.64px 362.37px; transform: rotate(-45deg);" class="animable"></circle></g><g id="elgmh7ykbqpl"><circle cx="186.89" cy="364.75" r="3.34" style="fill: rgb(255, 255, 255); opacity: 0.2; transform-origin: 186.89px 364.75px;" class="animable"></circle></g><path d="M114.3,281.47a23.05,23.05,0,0,1,.67,2.63,22.1,22.1,0,1,1-2.1-6.05h0A21.89,21.89,0,0,1,114.3,281.47Z" style="fill: rgb(0, 255, 136); transform-origin: 93.2623px 288.245px;" id="elqmk36sqgw9l" class="animable"></path><g id="elmowkkqb9vzq"><g style="opacity: 0.8; transform-origin: 97.09px 284.114px;" class="animable"><path d="M112.87,278.06c.1.28.2.55.29.82a16.92,16.92,0,1,1-11.56-11.1,22,22,0,0,0-6.33-1.53A17.91,17.91,0,1,0,115,284.1a23.05,23.05,0,0,0-.67-2.63A21.89,21.89,0,0,0,112.87,278.06Z" style="fill: rgb(255, 255, 255); transform-origin: 97.09px 284.114px;" id="elwtcisul612" class="animable"></path></g></g><g id="elr44jc63yenm"><circle cx="98.02" cy="283.76" r="13.91" style="fill: rgb(255, 255, 255); opacity: 0.8; transform-origin: 98.02px 283.76px; transform: rotate(-62.86deg);" class="animable"></circle></g><path d="M102.46,284.39c1,2.47-.24,5.42-3.89,7.1a8.28,8.28,0,0,1-5.59.66c.14-.85.27-1.71.38-2.55a6.48,6.48,0,0,0,4.48-.44c1.81-.83,2.62-2.17,2.11-3.5s-1.73-1.78-4.55-.48l-3.29,1.51a44,44,0,0,0-3.3-7.45l8-3.69c.45.64.87,1.3,1.28,2l-5.87,2.7c.51,1,1,2.1,1.41,3.17l1.31-.6C99,280.93,101.51,281.9,102.46,284.39Z" style="fill: rgb(38, 50, 56); transform-origin: 95.8015px 283.958px;" id="el3s3byxtptr9" class="animable"></path><path d="M103.81,272.33A44.56,44.56,0,0,1,110.05,286l-2.52,1.16a44.44,44.44,0,0,0-5-11.66l-2.89,1.32c-.41-.66-.83-1.32-1.27-2Z" style="fill: rgb(38, 50, 56); transform-origin: 104.21px 279.745px;" id="eld7dhz3wjini" class="animable"></path><g id="elh511s0ib3x6"><path d="M115.14,285.13A22.09,22.09,0,0,1,72.24,295,21.84,21.84,0,0,1,72,282.45a21.51,21.51,0,0,0,.84,3.66,22.09,22.09,0,0,0,42.35-1Z" style="opacity: 0.2; transform-origin: 93.2774px 296.389px;" class="animable"></path></g><g id="elg9wd3dhgi64"><path d="M97.28,271.38c1,3.1-1.81,6.78-6.28,8.22s-8.91.09-9.91-3,1.82-6.78,6.29-8.22S96.28,268.28,97.28,271.38Z" style="fill: rgb(255, 255, 255); opacity: 0.2; transform-origin: 89.1853px 273.989px;" class="animable"></path></g><g id="elv4ic1qk70ul"><path d="M87.16,284.82c-.11,1.34-1.77,2.3-3.71,2.14s-3.42-1.37-3.31-2.72,1.77-2.3,3.71-2.14S87.27,283.47,87.16,284.82Z" style="fill: rgb(255, 255, 255); opacity: 0.2; transform-origin: 83.65px 284.53px;" class="animable"></path></g><g id="elpsv9ruoce0h"><circle cx="344.19" cy="380.05" r="25.71" style="fill: rgb(0, 255, 136); transform-origin: 344.19px 380.05px; transform: rotate(-45deg);" class="animable"></circle></g><g id="els7h5h7cdkz"><path d="M369.89,380.05c0,.25,0,.49,0,.73a25.71,25.71,0,1,1-4.06-14.61,24.36,24.36,0,0,1,2.32,4.55A25.38,25.38,0,0,1,369.89,380.05Z" style="opacity: 0.4; transform-origin: 344.185px 380.053px;" class="animable"></path></g><g id="elkhmxesnixqf"><g style="opacity: 0.8; transform-origin: 349.862px 377.03px;" class="animable"><path d="M368.13,370.72a18.82,18.82,0,0,1,1.09,6.35,19.2,19.2,0,1,1-3.41-10.9,25.65,25.65,0,0,0-7.1-7.32,19.94,19.94,0,0,0-8.67-2,20.18,20.18,0,1,0,19.83,23.89c0-.24,0-.48,0-.73A25.38,25.38,0,0,0,368.13,370.72Z" style="fill: rgb(255, 255, 255); transform-origin: 349.862px 377.03px;" id="eldj40gw6v7h9" class="animable"></path></g></g><g id="elj7tyd5c11pa"><circle cx="351.04" cy="376.78" r="16.18" style="fill: rgb(255, 255, 255); opacity: 0.8; transform-origin: 351.04px 376.78px;" class="animable"></circle></g><path d="M361.17,377.42c.82,2.95-.63,6-5.14,7.26a11,11,0,0,1-6.86-.18l.64-2.79a8.31,8.31,0,0,0,5.41.27c2.23-.62,3.28-2,2.84-3.56s-1.77-2.33-5.25-1.36l-4.06,1.14-1.69-9.4,9.87-2.75.73,2.62-7.23,2,.73,4,1.61-.44C357.74,372.84,360.34,374.44,361.17,377.42Z" style="fill: rgb(38, 50, 56); transform-origin: 354.224px 375.596px;" id="elu0x525rqvvt" class="animable"></path><g id="elzmqwcprhpd"><circle cx="331.19" cy="371.01" r="7.38" style="fill: rgb(255, 255, 255); opacity: 0.2; transform-origin: 331.19px 371.01px; transform: rotate(-22.5deg);" class="animable"></circle></g><g id="elnbkhj5ueef"><path d="M337.27,381.8a2.41,2.41,0,1,1-2.41-2.41A2.41,2.41,0,0,1,337.27,381.8Z" style="fill: rgb(255, 255, 255); opacity: 0.2; transform-origin: 334.86px 381.8px;" class="animable"></path></g><g id="el4xco4xn16h4"><path d="M369.89,380.05c0,.25,0,.49,0,.73a25.7,25.7,0,0,1-51.1,3.13,25.7,25.7,0,0,0,49-10.12c0-.24,0-.48,0-.73a25.75,25.75,0,0,0-.29-3.85c.23.49.45,1,.64,1.51A25.38,25.38,0,0,1,369.89,380.05Z" style="opacity: 0.2; transform-origin: 344.34px 387.485px;" class="animable"></path></g><path d="M395.47,170.07a22.1,22.1,0,1,1-43.38-5.94,20.93,20.93,0,0,1,2.23-5.23A22,22,0,0,1,373.37,148c.4,0,.79,0,1.18,0A22.1,22.1,0,0,1,395.47,170.07Z" style="fill: rgb(38, 50, 56); transform-origin: 373.37px 170.097px;" id="eluzpiqflxbql" class="animable"></path><g id="ell0xewne7zri"><g style="opacity: 0.8; transform-origin: 370px 165.616px;" class="animable"><path d="M374.55,148c-.39,0-.78,0-1.18,0a22,22,0,0,0-4.55.47c.38,0,.76,0,1.14,0a16.91,16.91,0,1,1-16.91,16.91,16.69,16.69,0,0,1,1.27-6.41,20.93,20.93,0,0,0-2.23,5.23c0,.39,0,.78,0,1.18A17.91,17.91,0,1,0,374.55,148Z" style="fill: rgb(255, 255, 255); transform-origin: 370px 165.616px;" id="el0nowow673vin" class="animable"></path></g></g><g id="elrppmg6gskr"><circle cx="368.99" cy="164.52" r="13.91" style="fill: rgb(255, 255, 255); opacity: 0.8; transform-origin: 368.99px 164.52px;" class="animable"></circle></g><path d="M370,154.15A42.86,42.86,0,0,0,361,168.06l-2.51-1a41.89,41.89,0,0,1,7.16-11.88l-2.81-1.08c.58-.68,1.18-1.35,1.8-2Z" style="fill: rgb(38, 50, 56); transform-origin: 364.245px 160.08px;" id="elctv3u9c6nth" class="animable"></path><path d="M377.2,156.91a42.56,42.56,0,0,0-8.81,13.94l-2.51-.95A41.56,41.56,0,0,1,373,158l-2.82-1.07c.57-.68,1.17-1.35,1.79-2Z" style="fill: rgb(38, 50, 56); transform-origin: 371.54px 162.89px;" id="elestj8cb4p1" class="animable"></path><g id="el9jtcuql9wdu"><path d="M395.47,170.07a22.1,22.1,0,0,1-44,2.85A22.1,22.1,0,0,0,393,162.36a21,21,0,0,0-.19-2.87A21.93,21.93,0,0,1,395.47,170.07Z" style="opacity: 0.2; transform-origin: 373.47px 175.773px;" class="animable"></path></g><g id="elpjhb2yxqzuk"><path d="M387.16,158a6.54,6.54,0,1,1-6.54-6.54A6.54,6.54,0,0,1,387.16,158Z" style="fill: rgb(255, 255, 255); opacity: 0.2; transform-origin: 380.62px 158px;" class="animable"></path></g><g id="el42gbhnqkdnq"><path d="M389.93,167.29a2.77,2.77,0,1,1-2.77-2.77A2.77,2.77,0,0,1,389.93,167.29Z" style="fill: rgb(255, 255, 255); opacity: 0.2; transform-origin: 387.16px 167.29px;" class="animable"></path></g></g><g id="freepik--bingo-card-1--inject-33" class="animable" style="transform-origin: 196.375px 239.052px;"><g id="el7bkozx4918j"><rect x="108.55" y="128.04" width="175.65" height="222.03" style="fill: rgb(0, 255, 136); transform-origin: 196.375px 239.055px; transform: rotate(-11.05deg);" class="animable"></rect></g><g id="elxaw60cx58ml"><rect x="185" y="246.79" width="32.03" height="32.03" style="fill: rgb(255, 255, 255); transform-origin: 201.015px 262.805px; transform: rotate(-11.05deg);" class="animable"></rect></g><g id="el3rwz82bozp"><circle cx="201.02" cy="262.81" r="13.95" style="fill: rgb(0, 255, 136); transform-origin: 201.02px 262.81px; transform: rotate(-55.9925deg);" class="animable"></circle></g><g id="elnhhxcns4edr"><rect x="106.19" y="194.12" width="32.03" height="32.03" style="fill: rgb(255, 255, 255); transform-origin: 122.205px 210.135px; transform: rotate(-10.9722deg);" class="animable"></rect></g><path d="M122.49,215.09l.45,2.31-10.85,2.12-.35-1.83L116.5,211c1.16-1.65,1.25-2.56,1.09-3.38-.27-1.35-1.35-1.94-3.15-1.59a4.23,4.23,0,0,0-3.15,2.21l-2.2-1.1a6.9,6.9,0,0,1,5.11-3.53c3.2-.63,5.58.59,6.09,3.2.27,1.43.13,2.81-1.54,5.12l-3.2,4.51Z" style="fill: rgb(38, 50, 56); transform-origin: 116.015px 211.483px;" id="eli1k2bolg4s" class="animable"></path><path d="M134.73,212.7l.45,2.31-10.84,2.12L124,215.3l4.76-6.69c1.16-1.65,1.25-2.56,1.09-3.38-.27-1.35-1.34-1.94-3.15-1.59a4.23,4.23,0,0,0-3.15,2.21l-2.2-1.1a6.9,6.9,0,0,1,5.11-3.53c3.2-.63,5.58.59,6.09,3.2.28,1.43.13,2.81-1.53,5.12l-3.21,4.51Z" style="fill: rgb(38, 50, 56); transform-origin: 128.265px 209.093px;" id="elffv5dre49rh" class="animable"></path><g id="elcdyflxfaqgp"><rect x="139.19" y="187.67" width="32.03" height="32.03" style="fill: rgb(255, 255, 255); transform-origin: 155.205px 203.685px; transform: rotate(-11.05deg);" class="animable"></rect></g><path d="M149.61,196.91l2.88,14.72-2.74.53-2.42-12.42-3.11.6-.45-2.29Z" style="fill: rgb(38, 50, 56); transform-origin: 148.13px 204.535px;" id="el2eo2441ygmn" class="animable"></path><path d="M165,204.6c.48,2.48-1,5-4.92,5.77a9.42,9.42,0,0,1-5.86-.63l.76-2.35a7,7,0,0,0,4.59.61c2-.38,3-1.47,2.68-2.84s-1.39-2-3.62-1.56l-1.35.26-.36-1.87,2.56-4.63-6.68,1.31-.45-2.29,10-2,.36,1.83L160,201.19C162.84,201,164.57,202.39,165,204.6Z" style="fill: rgb(38, 50, 56); transform-origin: 158.719px 202.48px;" id="elxv3tchnrsx" class="animable"></path><g id="el4bvw9fxzwnv"><rect x="172.19" y="181.23" width="32.03" height="32.03" style="fill: rgb(255, 255, 255); transform-origin: 188.205px 197.245px; transform: rotate(-11.05deg);" class="animable"></rect></g><path d="M188.12,200c.5,2.58-1,5.09-4.9,5.87a9.41,9.41,0,0,1-5.86-.63l.74-2.35a7.07,7.07,0,0,0,4.61.61c2-.38,2.95-1.47,2.68-2.86S184,198.5,181,199.1l-3.55.69-.81-8.15,8.65-1.69.44,2.29-6.33,1.24.35,3.46,1.41-.27C185.5,195.82,187.61,197.37,188.12,200Z" style="fill: rgb(38, 50, 56); transform-origin: 182.426px 198.015px;" id="ele3mlx7bb395" class="animable"></path><path d="M200.3,197.6c.5,2.59-1,5.1-4.9,5.87a9.44,9.44,0,0,1-5.87-.63l.75-2.35a7.07,7.07,0,0,0,4.61.61c2-.38,2.94-1.47,2.67-2.86s-1.35-2.11-4.4-1.52l-3.55.7-.81-8.16,8.64-1.69.45,2.29-6.33,1.24.35,3.46,1.41-.27C197.67,193.44,199.79,195,200.3,197.6Z" style="fill: rgb(38, 50, 56); transform-origin: 194.597px 195.625px;" id="ellaidm6dq7bq" class="animable"></path><g id="eljmy0nlrbcd"><rect x="205.2" y="174.78" width="32.03" height="32.03" style="fill: rgb(255, 255, 255); transform-origin: 221.215px 190.795px; transform: rotate(-11.05deg);" class="animable"></rect></g><path d="M221.48,195.75l.45,2.32-10.85,2.12-.36-1.83,4.77-6.7c1.16-1.64,1.24-2.55,1.08-3.37-.26-1.35-1.34-1.95-3.15-1.59a4.21,4.21,0,0,0-3.14,2.2l-2.21-1.09a7,7,0,0,1,5.12-3.54c3.2-.62,5.57.6,6.08,3.21.28,1.42.14,2.81-1.53,5.12l-3.2,4.51Z" style="fill: rgb(38, 50, 56); transform-origin: 215px 192.151px;" id="el2zld2vgd3rz" class="animable"></path><path d="M233.33,191.15c.51,2.58-1,5.09-4.9,5.87a9.41,9.41,0,0,1-5.86-.63l.74-2.35a7.07,7.07,0,0,0,4.61.61c2-.38,3-1.47,2.68-2.86s-1.35-2.12-4.4-1.52l-3.56.69-.8-8.15,8.64-1.69.44,2.29-6.32,1.24.35,3.46,1.4-.27C230.71,187,232.82,188.54,233.33,191.15Z" style="fill: rgb(38, 50, 56); transform-origin: 227.633px 189.175px;" id="elw7z5gthl3yq" class="animable"></path><g id="el286dsp7oray"><rect x="238.2" y="168.34" width="32.03" height="32.03" style="fill: rgb(255, 255, 255); transform-origin: 254.215px 184.355px; transform: rotate(-11.05deg);" class="animable"></rect></g><path d="M258.12,187.53l-2.61.51.65,3.34-2.64.52-.66-3.35-8.07,1.58-.37-1.89,5.4-10.9,2.92-.57-5.06,10.4,4.81-.94-.57-3,2.56-.5.58,3,2.61-.51Z" style="fill: rgb(38, 50, 56); transform-origin: 251.27px 184.335px;" id="elomy1bsxudz" class="animable"></path><path d="M261.62,175l2.87,14.72-2.73.54-2.43-12.43-3.11.61-.45-2.29Z" style="fill: rgb(38, 50, 56); transform-origin: 260.13px 182.63px;" id="elvzzyk8k3xc" class="animable"></path><g id="el07n4mqho8c3s"><rect x="112.59" y="226.9" width="32.03" height="32.03" style="fill: rgb(255, 255, 255); transform-origin: 128.605px 242.915px; transform: rotate(-11.05deg);" class="animable"></rect></g><path d="M125.13,235.73,128,250.45l-2.73.53-2.43-12.43-3.11.61-.45-2.29Z" style="fill: rgb(38, 50, 56); transform-origin: 123.64px 243.355px;" id="elxrb7o3hu649" class="animable"></path><path d="M133.14,234.16,136,248.88l-2.74.53L130.85,237l-3.11.61-.44-2.3Z" style="fill: rgb(38, 50, 56); transform-origin: 131.65px 241.785px;" id="elnc3qgwifydr" class="animable"></path><g id="elfww18km03ff"><rect x="145.59" y="220.46" width="32.03" height="32.03" style="fill: rgb(255, 255, 255); transform-origin: 161.605px 236.475px; transform: rotate(-11.05deg);" class="animable"></rect></g><path d="M163.24,240.09l-2.61.51.66,3.34-2.65.52-.65-3.34-8.08,1.58-.37-1.9,5.4-10.9,2.93-.57-5.07,10.4,4.82-.94-.58-3,2.56-.5.58,3,2.61-.51Z" style="fill: rgb(38, 50, 56); transform-origin: 156.39px 236.895px;" id="ellvdgl737okq" class="animable"></path><path d="M174.43,236.79c.49,2.48-1,5-4.92,5.77a9.43,9.43,0,0,1-5.86-.63l.76-2.35a7,7,0,0,0,4.6.61c2-.38,2.94-1.47,2.67-2.84s-1.39-2-3.62-1.56l-1.35.26-.36-1.87,2.56-4.63-6.68,1.31-.45-2.29,10-2,.36,1.83-2.75,4.94C172.27,233.2,174,234.58,174.43,236.79Z" style="fill: rgb(38, 50, 56); transform-origin: 168.15px 234.669px;" id="elelvcsh232a" class="animable"></path><g id="elmnpn80qu3mi"><rect x="178.6" y="214.01" width="32.03" height="32.03" style="fill: rgb(255, 255, 255); transform-origin: 194.615px 230.025px; transform: rotate(-11.05deg);" class="animable"></rect></g><path d="M195.18,233.85l-2.6.51.65,3.35-2.65.51-.65-3.34-8.08,1.58-.37-1.9,5.41-10.9,2.92-.57-5.07,10.4,4.82-.94-.58-3,2.56-.51.58,3,2.61-.51Z" style="fill: rgb(38, 50, 56); transform-origin: 188.33px 230.655px;" id="elok8nlmspqc" class="animable"></path><path d="M195.56,229.61c-.95-4.84,1.17-8.09,4.66-8.77s6.69,1.53,7.64,6.37-1.17,8.08-4.68,8.77S196.5,234.45,195.56,229.61Zm9.54-1.86c-.69-3.56-2.4-4.93-4.42-4.53s-3.06,2.3-2.37,5.85,2.41,4.93,4.4,4.54S205.8,231.3,205.1,227.75Z" style="fill: rgb(38, 50, 56); transform-origin: 201.71px 228.411px;" id="el5kh0gu8lmj9" class="animable"></path><g id="elr93jcto2sr"><rect x="211.6" y="207.57" width="32.03" height="32.03" style="fill: rgb(255, 255, 255); transform-origin: 227.615px 223.585px; transform: rotate(-11.05deg);" class="animable"></rect></g><path d="M221.55,216.89l2.87,14.72-2.73.54-2.43-12.43-3.11.61L215.7,218Z" style="fill: rgb(38, 50, 56); transform-origin: 220.06px 224.52px;" id="eljrx041sjdyk" class="animable"></path><path d="M237.19,221.22c1,5-1.41,8.39-5.68,9.23a7.66,7.66,0,0,1-4-.19l.6-2.26a5.12,5.12,0,0,0,2.94.17c2.78-.55,4.18-2.61,3.53-5.95v0a5.14,5.14,0,0,1-3.64,2.3c-2.9.57-5.41-.78-5.95-3.53-.57-2.92,1.45-5.24,4.45-5.83C233.41,214.36,236.27,216.48,237.19,221.22Zm-3.7-2.08c-.27-1.38-1.57-2.26-3.53-1.88-1.7.33-2.69,1.53-2.39,3.06s1.64,2.28,3.43,1.93S233.78,220.6,233.49,219.14Z" style="fill: rgb(38, 50, 56); transform-origin: 231.154px 222.812px;" id="elwwjq7rynknl" class="animable"></path><g id="el1923cjn04ll"><rect x="244.6" y="201.12" width="32.03" height="32.03" style="fill: rgb(255, 255, 255); transform-origin: 260.615px 217.135px; transform: rotate(-11.05deg);" class="animable"></rect></g><path d="M260.13,219.9c.57,2.92-1.44,5.24-4.45,5.83-4,.78-6.88-1.35-7.8-6.08-1-5,1.41-8.39,5.68-9.23a7.69,7.69,0,0,1,4.06.19l-.61,2.26a5.12,5.12,0,0,0-2.94-.17c-2.77.54-4.18,2.61-3.53,6v0a5.12,5.12,0,0,1,3.63-2.3C257.08,215.8,259.59,217.15,260.13,219.9Zm-2.63.65c-.29-1.54-1.64-2.28-3.43-1.93s-2.77,1.65-2.49,3.1,1.58,2.27,3.53,1.89C256.82,223.28,257.8,222.08,257.5,220.55Z" style="fill: rgb(38, 50, 56); transform-origin: 253.941px 218.061px;" id="el1jwoi6bnh8b" class="animable"></path><path d="M261,216.83c-.95-4.84,1.17-8.09,4.66-8.77s6.69,1.53,7.64,6.36-1.17,8.09-4.69,8.78S262,221.66,261,216.83Zm9.54-1.87c-.69-3.55-2.4-4.92-4.42-4.53s-3.06,2.3-2.37,5.86,2.4,4.92,4.4,4.53S271.26,218.51,270.56,215Z" style="fill: rgb(38, 50, 56); transform-origin: 267.15px 215.631px;" id="elnsltgipoa3" class="animable"></path><g id="el4a8p7fnou3a"><rect x="118.99" y="259.69" width="32.03" height="32.03" style="fill: rgb(255, 255, 255); transform-origin: 135.005px 275.705px; transform: rotate(-11.05deg);" class="animable"></rect></g><path d="M133.21,268.18l.36,1.83-3.2,14-2.93.57,3.11-13.49-5.78,1.13.49,2.5-2.55.5-.94-4.81Z" style="fill: rgb(38, 50, 56); transform-origin: 127.67px 276.38px;" id="elfuk2r8ihvks" class="animable"></path><path d="M147.21,276c.51,2.59-.94,5.1-4.9,5.87a9.35,9.35,0,0,1-5.86-.62l.74-2.35a7.11,7.11,0,0,0,4.62.6c1.95-.38,2.94-1.47,2.67-2.85s-1.35-2.12-4.4-1.52l-3.56.69-.8-8.16,8.64-1.69.45,2.3-6.33,1.23.35,3.47,1.41-.28C144.59,271.88,146.7,273.43,147.21,276Z" style="fill: rgb(38, 50, 56); transform-origin: 141.514px 274.028px;" id="ellrvot6ojlzb" class="animable"></path><g id="eluo8ebrsyjb"><rect x="152" y="253.24" width="32.03" height="32.03" style="fill: rgb(255, 255, 255); transform-origin: 168.015px 269.255px; transform: rotate(-11.05deg);" class="animable"></rect></g><path d="M174.42,273l.45,2.31L164,277.44l-.35-1.83,4.76-6.69c1.16-1.64,1.24-2.56,1.08-3.38-.26-1.34-1.34-1.94-3.14-1.59a4.23,4.23,0,0,0-3.15,2.21l-2.2-1.1a6.91,6.91,0,0,1,5.11-3.53c3.2-.62,5.58.59,6.08,3.2.28,1.43.14,2.81-1.53,5.13l-3.2,4.51Z" style="fill: rgb(38, 50, 56); transform-origin: 167.935px 269.405px;" id="ele549f5v032f" class="animable"></path><g id="elbw1yvrqtfha"><rect x="218" y="240.35" width="32.03" height="32.03" style="fill: rgb(255, 255, 255); transform-origin: 234.015px 256.365px; transform: rotate(-11.05deg);" class="animable"></rect></g><path d="M234.49,258.94c.57,2.93-1.45,5.24-4.45,5.83-4,.78-6.88-1.34-7.8-6.07-1-5,1.41-8.4,5.68-9.24a7.55,7.55,0,0,1,4.05.2l-.6,2.25a5.12,5.12,0,0,0-2.94-.17c-2.77.55-4.18,2.61-3.53,6v0a5.14,5.14,0,0,1,3.64-2.31C231.44,254.85,234,256.19,234.49,258.94Zm-2.63.65c-.3-1.54-1.64-2.28-3.43-1.93s-2.78,1.66-2.49,3.11,1.58,2.26,3.53,1.88C231.17,262.32,232.16,261.12,231.86,259.59Z" style="fill: rgb(38, 50, 56); transform-origin: 228.301px 257.101px;" id="elnnwze0av0id" class="animable"></path><path d="M246.4,256.77c.48,2.48-1,5-4.92,5.76a9.42,9.42,0,0,1-5.86-.62l.76-2.35a7.06,7.06,0,0,0,4.59.61c2-.39,2.95-1.47,2.68-2.84s-1.4-2-3.62-1.56l-1.35.26-.36-1.87,2.56-4.63-6.68,1.31-.45-2.3,10-1.95.35,1.83-2.74,4.94C244.24,253.18,246,254.56,246.4,256.77Z" style="fill: rgb(38, 50, 56); transform-origin: 240.119px 254.666px;" id="el12irpck1kia" class="animable"></path><g id="elxa24hmj6f68"><rect x="251.01" y="233.9" width="32.03" height="32.03" style="fill: rgb(255, 255, 255); transform-origin: 267.025px 249.915px; transform: rotate(-11.05deg);" class="animable"></rect></g><path d="M266.38,255.05l.46,2.31L256,259.48l-.36-1.83,4.76-6.69c1.16-1.65,1.25-2.56,1.09-3.38-.27-1.34-1.34-1.94-3.15-1.59a4.23,4.23,0,0,0-3.15,2.21l-2.2-1.1a6.93,6.93,0,0,1,5.12-3.53c3.19-.62,5.57.59,6.08,3.2.28,1.43.13,2.81-1.53,5.12l-3.2,4.51Z" style="fill: rgb(38, 50, 56); transform-origin: 259.915px 251.445px;" id="el2ki90jdaikc" class="animable"></path><path d="M266.91,249.71c-.94-4.84,1.18-8.09,4.67-8.77s6.69,1.53,7.64,6.36-1.18,8.09-4.69,8.78S267.86,254.54,266.91,249.71Zm9.55-1.87c-.69-3.55-2.4-4.92-4.42-4.53s-3.06,2.31-2.37,5.86,2.4,4.92,4.4,4.53S277.16,251.4,276.46,247.84Z" style="fill: rgb(38, 50, 56); transform-origin: 273.067px 248.511px;" id="ellub8nk21pg9" class="animable"></path><g id="elntl7sdauk6"><rect x="125.4" y="292.47" width="32.03" height="32.03" style="fill: rgb(255, 255, 255); transform-origin: 141.415px 308.485px; transform: rotate(-11.05deg);" class="animable"></rect></g><path d="M148,310.22c.54,2.73-1.51,4.9-5.16,5.61s-6.33-.53-6.86-3.26a3.75,3.75,0,0,1,1.67-4,3.44,3.44,0,0,1-2.44-2.74c-.49-2.52,1.41-4.53,4.67-5.16s5.82.5,6.31,3a3.43,3.43,0,0,1-1.27,3.46A3.75,3.75,0,0,1,148,310.22Zm-10.07-4.76c.25,1.27,1.45,1.86,3.18,1.52s2.66-1.35,2.41-2.61-1.54-1.86-3.22-1.53S137.66,304.14,137.92,305.46Zm7.3,5.21c-.28-1.45-1.72-2.1-3.74-1.71s-3.06,1.54-2.77,3,1.68,2.13,3.7,1.74S145.52,312.17,145.22,310.67Z" style="fill: rgb(38, 50, 56); transform-origin: 141.61px 308.263px;" id="elzboceheap3m" class="animable"></path><g id="els67omhvo11o"><rect x="158.4" y="286.02" width="32.03" height="32.03" style="fill: rgb(255, 255, 255); transform-origin: 174.415px 302.035px; transform: rotate(-11.05deg);" class="animable"></rect></g><path d="M173.82,304.87c.51,2.59-.95,5.1-4.9,5.87a9.48,9.48,0,0,1-5.86-.62l.74-2.35a7.07,7.07,0,0,0,4.61.6c2-.38,3-1.47,2.68-2.86s-1.36-2.11-4.4-1.52l-3.56.7-.81-8.16,8.65-1.69.44,2.29-6.32,1.24.35,3.47,1.4-.28C171.2,300.71,173.31,302.26,173.82,304.87Z" style="fill: rgb(38, 50, 56); transform-origin: 168.119px 302.895px;" id="elwt7fruqt0ie" class="animable"></path><path d="M186.13,299.26c1,5-1.42,8.39-5.68,9.23a7.69,7.69,0,0,1-4.06-.19L177,306a5.09,5.09,0,0,0,2.93.17c2.78-.54,4.19-2.61,3.54-5.95v0a5.12,5.12,0,0,1-3.63,2.3c-2.9.57-5.41-.78-6-3.53-.57-2.92,1.44-5.24,4.45-5.83C182.35,292.4,185.21,294.53,186.13,299.26Zm-3.7-2.08c-.27-1.38-1.58-2.26-3.53-1.88-1.71.33-2.7,1.53-2.4,3.06s1.65,2.28,3.44,1.93S182.71,298.64,182.43,297.18Z" style="fill: rgb(38, 50, 56); transform-origin: 180.049px 300.843px;" id="elnp9jckcwb6g" class="animable"></path><g id="ellvq3erqun3e"><rect x="191.4" y="279.58" width="32.03" height="32.03" style="fill: rgb(255, 255, 255); transform-origin: 207.415px 295.595px; transform: rotate(-11.05deg);" class="animable"></rect></g><path d="M207.46,287.71l.36,1.83-3.2,14-2.93.57,3.11-13.49L199,291.76l.49,2.5-2.55.5L196,290Z" style="fill: rgb(38, 50, 56); transform-origin: 201.91px 295.91px;" id="elq3vfy4n4b6o" class="animable"></path><path d="M214.44,286.35l2.88,14.72-2.73.53-2.43-12.43-3.11.61-.45-2.29Z" style="fill: rgb(38, 50, 56); transform-origin: 212.96px 293.975px;" id="elr94sbt3gsd" class="animable"></path><g id="elm5a9e5iaa3"><rect x="224.41" y="273.13" width="32.03" height="32.03" style="fill: rgb(255, 255, 255); transform-origin: 240.425px 289.145px; transform: rotate(-11.05deg);" class="animable"></rect></g><path d="M240.33,291.88c.51,2.59-1,5.1-4.9,5.87a9.41,9.41,0,0,1-5.86-.63l.74-2.34a7.07,7.07,0,0,0,4.61.6c2-.38,3-1.47,2.68-2.86s-1.35-2.11-4.4-1.52l-3.56.7-.8-8.16,8.64-1.69.44,2.29-6.32,1.24.35,3.47,1.4-.28C237.71,287.72,239.82,289.27,240.33,291.88Z" style="fill: rgb(38, 50, 56); transform-origin: 234.633px 289.905px;" id="elvnth1xbwoam" class="animable"></path><path d="M252.51,289.5c.5,2.59-.95,5.1-4.9,5.87a9.41,9.41,0,0,1-5.86-.62l.74-2.35a7.07,7.07,0,0,0,4.61.6c2-.38,2.94-1.47,2.67-2.86s-1.35-2.11-4.4-1.52l-3.55.7-.81-8.16,8.64-1.69.45,2.29L243.77,283l.35,3.47,1.41-.28C249.88,285.34,252,286.89,252.51,289.5Z" style="fill: rgb(38, 50, 56); transform-origin: 246.808px 287.526px;" id="elezfcigci9m8" class="animable"></path><g id="elqjgm2gd6bkg"><rect x="257.41" y="266.69" width="32.03" height="32.03" style="fill: rgb(255, 255, 255); transform-origin: 273.425px 282.705px; transform: rotate(-11.05deg);" class="animable"></rect></g><path d="M274,274.73l2.88,14.71-2.74.54-2.42-12.43-3.12.61-.44-2.29Z" style="fill: rgb(38, 50, 56); transform-origin: 272.52px 282.355px;" id="el9yydeo6mrfn" class="animable"></path><g id="elw0y548fzl3a"><rect x="131.8" y="325.25" width="32.03" height="32.03" style="fill: rgb(255, 255, 255); transform-origin: 147.815px 341.265px; transform: rotate(-11.05deg);" class="animable"></rect></g><path d="M142.2,334.49l2.88,14.72-2.74.53-2.42-12.42-3.12.61-.44-2.3Z" style="fill: rgb(38, 50, 56); transform-origin: 140.72px 342.115px;" id="el90282i28gh6" class="animable"></path><path d="M157.82,342c.51,2.58-.95,5.09-4.9,5.87a9.41,9.41,0,0,1-5.86-.63l.74-2.35a7.07,7.07,0,0,0,4.61.61c2-.38,3-1.47,2.68-2.86s-1.36-2.11-4.4-1.52l-3.56.69-.81-8.15L155,332l.44,2.29-6.32,1.24.35,3.46,1.4-.27C155.2,337.87,157.31,339.42,157.82,342Z" style="fill: rgb(38, 50, 56); transform-origin: 152.119px 340.04px;" id="elqbypoot00qh" class="animable"></path><g id="elf6iskvi2hyt"><rect x="164.8" y="318.81" width="32.03" height="32.03" style="fill: rgb(255, 255, 255); transform-origin: 180.815px 334.825px; transform: rotate(-11.05deg);" class="animable"></rect></g><path d="M180.57,337.69c.48,2.49-1,5-4.92,5.77a9.42,9.42,0,0,1-5.86-.63l.76-2.35a7,7,0,0,0,4.59.61c2-.38,3-1.47,2.68-2.84s-1.39-2-3.62-1.56l-1.35.26-.36-1.87,2.56-4.62-6.68,1.3-.45-2.29,10-2,.36,1.83-2.75,4.94C178.41,334.1,180.14,335.49,180.57,337.69Z" style="fill: rgb(38, 50, 56); transform-origin: 174.289px 335.57px;" id="el9uj3y1dglz" class="animable"></path><path d="M192.83,335.19c.51,2.59-1,5.1-4.9,5.87a9.48,9.48,0,0,1-5.86-.62l.74-2.35a7.16,7.16,0,0,0,4.62.6c1.95-.38,2.94-1.47,2.67-2.86s-1.35-2.11-4.4-1.52l-3.56.7-.8-8.16,8.64-1.69.45,2.29-6.33,1.24.35,3.47,1.41-.28C190.21,331,192.32,332.58,192.83,335.19Z" style="fill: rgb(38, 50, 56); transform-origin: 187.133px 333.215px;" id="elw4kdtzrfpu" class="animable"></path><g id="el120ljftesqhe"><rect x="197.81" y="312.36" width="32.03" height="32.03" style="fill: rgb(255, 255, 255); transform-origin: 213.825px 328.375px; transform: rotate(-11.05deg);" class="animable"></rect></g><path d="M208,321.65l2.87,14.72-2.73.53-2.43-12.42-3.11.6-.45-2.29Z" style="fill: rgb(38, 50, 56); transform-origin: 206.51px 329.275px;" id="el5lkie5xrusw" class="animable"></path><path d="M222,318.91l.36,1.83-3.2,14-2.93.57,3.11-13.49L213.54,323l.49,2.5-2.55.5-.94-4.82Z" style="fill: rgb(38, 50, 56); transform-origin: 216.45px 327.11px;" id="el3jn50uyokfc" class="animable"></path><g id="elf3qc1yrrpto"><rect x="230.81" y="305.91" width="32.03" height="32.03" style="fill: rgb(255, 255, 255); transform-origin: 246.825px 321.925px; transform: rotate(-11.05deg);" class="animable"></rect></g><path d="M246.54,324.81c.49,2.48-1,5-4.92,5.76a9.43,9.43,0,0,1-5.86-.62l.76-2.35a7,7,0,0,0,4.6.6c1.95-.38,2.94-1.47,2.67-2.83s-1.39-2-3.62-1.57l-1.34.27-.37-1.87,2.57-4.63-6.69,1.31-.45-2.3,10-2,.36,1.83-2.75,4.95C244.38,321.21,246.11,322.6,246.54,324.81Z" style="fill: rgb(38, 50, 56); transform-origin: 240.26px 322.681px;" id="el326jxqjj77n" class="animable"></path><path d="M259.3,324.5l.45,2.31-10.85,2.12-.35-1.83,4.76-6.69c1.16-1.65,1.24-2.56,1.08-3.38-.26-1.34-1.34-1.94-3.14-1.59a4.23,4.23,0,0,0-3.15,2.21l-2.2-1.1A6.88,6.88,0,0,1,251,313c3.2-.62,5.58.59,6.08,3.2.28,1.43.14,2.81-1.53,5.12l-3.2,4.51Z" style="fill: rgb(38, 50, 56); transform-origin: 252.825px 320.885px;" id="elsyb8imewau" class="animable"></path><g id="elfd9wh9k1xpk"><rect x="263.81" y="299.47" width="32.03" height="32.03" style="fill: rgb(255, 255, 255); transform-origin: 279.825px 315.485px; transform: rotate(-11.05deg);" class="animable"></rect></g><path d="M285.4,313.9c1,5.05-1.42,8.4-5.68,9.23a7.49,7.49,0,0,1-4.06-.19l.61-2.26a5.09,5.09,0,0,0,2.93.17c2.78-.54,4.19-2.6,3.54-6v0a5.12,5.12,0,0,1-3.63,2.3c-2.9.57-5.41-.77-6-3.53-.57-2.92,1.44-5.23,4.45-5.82C281.62,307,284.48,309.17,285.4,313.9Zm-3.7-2.07c-.27-1.39-1.58-2.27-3.53-1.89-1.71.34-2.7,1.53-2.4,3.07s1.65,2.28,3.44,1.93S282,313.28,281.7,311.83Z" style="fill: rgb(38, 50, 56); transform-origin: 279.319px 315.481px;" id="elt3p6ql4vx97" class="animable"></path><polygon points="199.26 253.83 202.89 258.59 208.87 258.3 205.47 263.22 207.59 268.82 201.85 267.1 197.19 270.85 197.05 264.86 192.04 261.58 197.69 259.6 199.26 253.83" style="fill: rgb(255, 255, 255); transform-origin: 200.455px 262.34px;" id="el4xhv5gtyjwk" class="animable"></polygon><path d="M237.37,129.1c-9.81,1.92-15.69,10.25-13.86,19.61s10.41,14.86,20.22,12.95,15.7-10.2,13.87-19.61S247.18,127.19,237.37,129.1Z" style="fill: rgb(255, 255, 255); transform-origin: 240.555px 145.379px;" id="el5v2m312xwoq" class="animable"></path><polygon points="238.35 134.1 243.02 140.23 250.72 139.85 246.33 146.19 249.06 153.39 241.68 151.18 235.68 156.01 235.5 148.3 229.05 144.08 236.32 141.53 238.35 134.1" style="fill: rgb(0, 255, 136); transform-origin: 239.885px 145.055px;" id="elhipntmtohbq" class="animable"></polygon><path d="M135,173.52c1.06,5.42-2.57,9.42-10.71,11l-15.73,3.08L102.33,156l14.83-2.9c7.59-1.48,12.29.94,13.27,5.95a7.72,7.72,0,0,1-2.71,7.76A7.93,7.93,0,0,1,135,173.52Zm-25.84-14.11,1.7,8.73,8.32-1.63c4.07-.79,6.09-2.69,5.53-5.58s-3.16-3.94-7.23-3.14Zm19.81,14.67c-.62-3.16-3.29-4.09-7.72-3.23l-9.5,1.86,1.79,9.13L123,180C127.41,179.12,129.54,177.25,128.92,174.08Z" style="fill: rgb(255, 255, 255); transform-origin: 118.755px 170.135px;" id="elgats0fvpmya" class="animable"></path><path d="M136.73,149.23l5.88-1.15,6.18,31.65-5.88,1.15Z" style="fill: rgb(255, 255, 255); transform-origin: 142.76px 164.48px;" id="elg17umtsc85" class="animable"></path><path d="M179.28,140.92l6.18,31.65-4.84.94-21.64-18,4.19,21.43-5.83,1.14-6.19-31.65,4.84-.94,21.64,18-4.19-21.43Z" style="fill: rgb(255, 255, 255); transform-origin: 168.305px 159.5px;" id="eltir0exma13g" class="animable"></path><path d="M212.41,150.5l5.56-1.08L220.43,162a20.38,20.38,0,0,1-11.6,6.44c-9.81,1.92-18.38-3.49-20.23-12.94s4.06-17.69,14-19.63c5.29-1,10.07-.13,13.71,2.68l-3,4.34a12,12,0,0,0-9.43-1.92c-6.74,1.32-10.59,6.81-9.31,13.37s6.92,10.19,13.61,8.89a13,13,0,0,0,6.19-2.9Z" style="fill: rgb(255, 255, 255); transform-origin: 204.346px 152.148px;" id="elh22v6s7nfj8" class="animable"></path><g id="elx1kd2nj11kg"><path d="M261.29,113.26S265.71,301,146.58,361.89l157.27-30.72Z" style="opacity: 0.1; transform-origin: 225.215px 237.575px;" class="animable"></path></g></g><g id="freepik--Character--inject-33" class="animable" style="transform-origin: 324.656px 263.291px;"><path d="M312.87,132.18c-3.74.14-9.44.88-13.22,10-2.22,5.33-14.18,9.29-16.3,4.7,0,0-.5,5,1.26,7.41s5.52,2.11,5.52,2.11-4.51,1.71-5.52.92a7.72,7.72,0,0,0,3.92,5.95c3.77,2.16,10.8-1.35,10.8-1.35s-6.23,5.69-9,5.69c0,0,7-.84,10.77-3.73,0,0-4.66,5.83-7,6.36,0,0,14.06,9.16,25.55,8.44s16.78-3.75,16.78-3.75-6.16-6.09-7.53-10.76c0,0,4.79,6.37,10.22,8.56,0,0-6-6.07-8-9.46,0,0,5.89,4.77,11.23,6.33,0,0,5-2.79,7-10.7,0,0-11.91-2.07-14.28-6.77s-.11-13-7.78-16.58A37.63,37.63,0,0,0,312.87,132.18Z" style="fill: rgb(38, 50, 56); transform-origin: 316.317px 155.45px;" id="elbf7q1alsf3s" class="animable"></path><path d="M285.88,177.28c-.81-1.15-1.46-2.15-2.12-3.24s-1.29-2.16-1.91-3.25c-1.23-2.18-2.36-4.41-3.42-6.69a80.08,80.08,0,0,1-5.08-14.27l-.23-.93-.12-.47-.12-.58a10.68,10.68,0,0,1-.19-1.18c-.06-.39-.09-.77-.11-1.13a27.66,27.66,0,0,1,.05-4.19,50.92,50.92,0,0,1,1.24-7.62,83.55,83.55,0,0,1,4.71-14.09l4.72,1.48c-.78,4.59-1.49,9.3-1.91,13.85a58.29,58.29,0,0,0-.28,6.65,24.49,24.49,0,0,0,.26,3c0,.23.08.45.13.65a4.07,4.07,0,0,0,.15.58l.08.29.13.4.27.79c.68,2.12,1.52,4.22,2.38,6.31s1.85,4.14,2.88,6.18,2.11,4,3.23,6c.57,1,1.14,2,1.73,2.95s1.21,2,1.75,2.8Z" style="fill: rgb(255, 181, 115); transform-origin: 283.312px 148.46px;" id="elm2jy1wha74f" class="animable"></path><path d="M298.74,173.32c-5.7-3.61-10.85-13.68-10.85-13.68l-11,7.48s5.77,11.59,7.25,19.21C285,191,298.74,173.32,298.74,173.32Z" style="fill: rgb(0, 255, 136); transform-origin: 287.815px 173.378px;" id="eldcvc0lwcsn" class="animable"></path><g id="el2if04osjcaf"><g style="opacity: 0.4; transform-origin: 287.795px 173.353px;" class="animable"><path d="M298.74,173.32a128.68,128.68,0,0,1-9.08,10.41c-2.77,2.73-5.2,4.46-5.56,2.6a39.5,39.5,0,0,0-1.11-4.25,120.2,120.2,0,0,0-6.14-15l11-7.48S293,169.71,298.74,173.32Z" style="fill: rgb(255, 255, 255); transform-origin: 287.795px 173.353px;" id="elh1vkrib1cza" class="animable"></path></g></g><g id="el2bexf9kkvg4"><path d="M289.66,183.73c-2.77,2.73-5.2,4.46-5.56,2.6a39.5,39.5,0,0,0-1.11-4.25,20.67,20.67,0,0,1,5.66-4.71A20.43,20.43,0,0,1,289.66,183.73Z" style="opacity: 0.2; transform-origin: 286.325px 182.238px;" class="animable"></path></g><polygon points="298.26 410.3 290.07 410.06 287.27 391.02 295.45 391.25 298.26 410.3" style="fill: rgb(255, 181, 115); transform-origin: 292.765px 400.66px;" id="elf1fomus7c8h" class="animable"></polygon><path d="M289.47,409.1l9.19.26a.65.65,0,0,1,.64.58l.84,7.31a1.31,1.31,0,0,1-1.36,1.41c-3.2-.14-4.74-.38-8.78-.49-2.49-.07-9.64,0-13.08-.12s-3.52-3.5-2.08-3.77c6.46-1.19,11-3,13.25-4.72A2.19,2.19,0,0,1,289.47,409.1Z" style="fill: rgb(38, 50, 56); transform-origin: 287.051px 413.88px;" id="elb9bybgxwgfk" class="animable"></path><g id="el38a87khdri7"><g style="opacity: 0.2; transform-origin: 292.085px 396.05px;" class="animable"><polygon points="287.27 391.02 288.72 400.84 296.9 401.08 295.46 391.26 287.27 391.02" id="elszqodf2q7z9" class="animable" style="transform-origin: 292.085px 396.05px;"></polygon></g></g><path d="M291.32,174.43s-10.83,14.81-9.82,50.14c12.93,2.64,26.29,2.86,32.59,4.14,2.15-13.37,3.7-21.58,15.59-47.5a95.62,95.62,0,0,0-13.37-4.61,104.24,104.24,0,0,0-14.79-3C295.05,172.87,291.32,174.43,291.32,174.43Z" style="fill: rgb(255, 181, 115); transform-origin: 305.557px 201.058px;" id="el4h71s2v3lw3" class="animable"></path><path d="M318.24,159.64c-1.9,4.57-4.61,13.1-1.93,17,0,0-2.28,4.56-11.13,2.76-9.72-2-3.66-5.78-3.66-5.78,5.57-.19,6.23-4.15,6.06-8Z" style="fill: rgb(255, 181, 115); transform-origin: 308.947px 169.73px;" id="el0c19cuyexns" class="animable"></path><path d="M316.31,176.6a104.24,104.24,0,0,0-14.79-3l-1-.1c-1.63,2-2.64,5.38-.84,11,0,0,14.05-2.57,18.54-7.36C317.6,176.94,317,176.76,316.31,176.6Z" style="fill: rgb(255, 181, 115); transform-origin: 308.472px 179px;" id="eluju7mbmsh" class="animable"></path><g id="elocassz865f"><path d="M313.9,162.05l-6.31,3.49a16.36,16.36,0,0,1-.08,2.72c2.08.12,5.32-1.54,6-3.62A7.43,7.43,0,0,0,313.9,162.05Z" style="opacity: 0.2; transform-origin: 310.706px 165.158px;" class="animable"></path></g><path d="M281.19,225.42s-8.27,62.86-8.45,87.83c-.19,26,14.25,85.65,14.25,85.65l11.07.32s-6.73-57.93-5-83.4c1.87-27.76,12.49-89.69,12.49-89.69Z" style="fill: rgb(38, 50, 56); transform-origin: 289.144px 312.32px;" id="elzrkrlfrg1cj" class="animable"></path><g id="el1qga5up0z7o"><path d="M281.19,225.42s-8.27,62.86-8.45,87.83c-.19,26,14.25,85.65,14.25,85.65l11.07.32s-6.73-57.93-5-83.4c1.87-27.76,12.49-89.69,12.49-89.69Z" style="fill: rgb(255, 255, 255); opacity: 0.2; transform-origin: 289.144px 312.32px;" class="animable"></path></g><polygon points="299 399.64 286.02 399.27 285.19 395.1 299.74 395.01 299 399.64" style="fill: rgb(38, 50, 56); transform-origin: 292.465px 397.325px;" id="ellfz6ay0g41" class="animable"></polygon><g id="elxn0fo0cqzs"><path d="M295.07,241.52c-8.63,16.19-3,46.34-.4,57.57,2-16.7,5-37.09,7.42-52.06C301.1,238.49,299.06,234.06,295.07,241.52Z" style="opacity: 0.2; transform-origin: 296.271px 268.406px;" class="animable"></path></g><polygon points="371.68 339.16 368.7 346.78 349.95 342.68 352.93 335.06 371.68 339.16" style="fill: rgb(255, 181, 115); transform-origin: 360.815px 340.92px;" id="el8i9uy4kzgm" class="animable"></polygon><path d="M366.47,347l.9-9.16a.79.79,0,0,1,.63-.67l7.44-1.26a1.14,1.14,0,0,1,1.34,1.26c-.37,3.19-.71,4.74-1.11,8.76-.25,2.48-.69,9.58-1,13s-3.78,3.71-3.95,2.3c-.76-6.35-2.23-10.79-3.85-12.89A1.88,1.88,0,0,1,366.47,347Z" style="fill: rgb(38, 50, 56); transform-origin: 371.625px 348.958px;" id="eljvjmem9mpaj" class="animable"></path><g id="elqic8zw1z9pk"><g style="opacity: 0.2; transform-origin: 356.275px 339.925px;" class="animable"><polygon points="349.95 342.68 359.62 344.8 362.6 337.17 352.93 335.05 349.95 342.68" id="eleiqnrszm4ng" class="animable" style="transform-origin: 356.275px 339.925px;"></polygon></g></g><path d="M290.38,225.69s7.2,65.32,12.65,90c5.68,25.65,53.34,29.19,53.34,29.19l5.15-9.8s-27.65-8.22-39.2-25.32c-4.42-27.57-7.6-83.34-7.6-83.34Z" style="fill: rgb(38, 50, 56); transform-origin: 325.95px 285.285px;" id="elt9l9h0j4ib" class="animable"></path><g id="el3jrlp2o5sch"><path d="M290.38,225.69s7.2,65.32,12.65,90c5.68,25.65,53.34,29.19,53.34,29.19l5.15-9.8s-27.65-8.22-39.2-25.32c-4.42-27.57-7.6-83.34-7.6-83.34Z" style="fill: rgb(255, 255, 255); opacity: 0.2; transform-origin: 325.95px 285.285px;" class="animable"></path></g><polygon points="362.11 334.14 357.49 346.28 353.09 346.2 357.76 332.49 362.11 334.14" style="fill: rgb(38, 50, 56); transform-origin: 357.6px 339.385px;" id="elbpwemgvwokn" class="animable"></polygon><path d="M367.57,347.43a.17.17,0,0,0-.15-.15.22.22,0,0,0-.21.1c-.23.38-2.23,3.68-1.78,4.66a.54.54,0,0,0,.49.31,1.2,1.2,0,0,0,1-.38,3.32,3.32,0,0,0,.71-2A13.24,13.24,0,0,0,367.57,347.43Zm-.35.65c.13,1.79-.08,3.14-.58,3.64a.78.78,0,0,1-.65.24.2.2,0,0,1-.2-.12.66.66,0,0,1,0-.36A11.6,11.6,0,0,1,367.22,348.08Z" style="fill: rgb(0, 255, 136); transform-origin: 366.515px 349.817px;" id="el6et0210jdpf" class="animable"></path><path d="M367.54,347.35a.17.17,0,0,0-.17-.07,6.26,6.26,0,0,0-3.3,1.31,1.59,1.59,0,0,0-.44,1.08c0,.53.26.68.48.71.92.12,2.89-1.85,3.43-2.84,0,0,0-.05,0-.08A.2.2,0,0,0,367.54,347.35Zm-3.19,1.48a5.12,5.12,0,0,1,2.65-1.11c-.71,1-2.24,2.35-2.79,2.28,0,0-.19,0-.19-.38a.37.37,0,0,1,0-.11A1.13,1.13,0,0,1,364.35,348.83Z" style="fill: rgb(0, 255, 136); transform-origin: 365.589px 348.831px;" id="el8gsirxgneui" class="animable"></path><path d="M288.94,410.22a.19.19,0,0,0,.16-.16.2.2,0,0,0-.1-.2c-.36-.2-3.58-2-4.59-1.44a.64.64,0,0,0-.35.51,1.09,1.09,0,0,0,.33.95,3,3,0,0,0,2,.56A13.42,13.42,0,0,0,288.94,410.22Zm-.64-.29c-1.82.25-3.16.13-3.65-.33a.7.7,0,0,1-.2-.63.22.22,0,0,1,.13-.2.69.69,0,0,1,.37-.06A10.45,10.45,0,0,1,288.3,409.93Z" style="fill: rgb(0, 255, 136); transform-origin: 286.575px 409.381px;" id="ela471tmfb2k" class="animable"></path><path d="M289,410.19a.19.19,0,0,0,.09-.17c0-.09-.13-2.3-1.13-3.19a1.42,1.42,0,0,0-1.07-.36c-.54,0-.7.31-.74.52-.18.93,1.7,2.75,2.66,3.22l.08,0A.15.15,0,0,0,289,410.19Zm-1.3-3.07a4.53,4.53,0,0,1,1,2.56c-1-.63-2.25-2.06-2.14-2.61,0-.05,0-.19.39-.22h.12A1.07,1.07,0,0,1,287.71,407.12Z" style="fill: rgb(0, 255, 136); transform-origin: 287.614px 408.339px;" id="el8oawk1y4ifn" class="animable"></path><path d="M315.4,224.56l.43,2.87c.08.23-.22.44-.61.43l-34.21-1c-.3,0-.52-.16-.52-.34l.13-2.86c0-.2.29-.36.62-.35l33.66,1A.53.53,0,0,1,315.4,224.56Z" style="fill: rgb(0, 255, 136); transform-origin: 298.167px 225.585px;" id="eln3y4ut45iya" class="animable"></path><g id="el23ggtdu1c4p"><path d="M315.4,224.56l.43,2.87c.08.23-.22.44-.61.43l-34.21-1c-.3,0-.52-.16-.52-.34l.13-2.86c0-.2.29-.36.62-.35l33.66,1A.53.53,0,0,1,315.4,224.56Z" style="fill: rgb(255, 255, 255); opacity: 0.7; transform-origin: 298.167px 225.585px;" class="animable"></path></g><path d="M312.65,228l.9,0c.18,0,.33-.08.33-.19l.13-3.71c0-.11-.14-.2-.32-.21l-.9,0c-.18,0-.33.08-.33.19l-.13,3.71C312.33,227.93,312.47,228,312.65,228Z" style="fill: rgb(38, 50, 56); transform-origin: 313.17px 225.945px;" id="elypteyqzv2zi" class="animable"></path><g id="elwnhigd634"><g style="opacity: 0.2; transform-origin: 313.17px 225.945px;" class="animable"><path d="M312.65,228l.9,0c.18,0,.33-.08.33-.19l.13-3.71c0-.11-.14-.2-.32-.21l-.9,0c-.18,0-.33.08-.33.19l-.13,3.71C312.33,227.93,312.47,228,312.65,228Z" style="fill: rgb(255, 255, 255); transform-origin: 313.17px 225.945px;" id="elwvhgbr0rran" class="animable"></path></g></g><path d="M285.8,227.25l.9,0c.18,0,.33-.08.34-.19l.12-3.71c0-.11-.14-.2-.32-.21l-.9,0c-.18,0-.33.08-.33.19l-.13,3.72C285.48,227.16,285.62,227.25,285.8,227.25Z" style="fill: rgb(38, 50, 56); transform-origin: 286.32px 225.195px;" id="eltrdzudg61d" class="animable"></path><g id="elgoid8qw5a8l"><path d="M285.8,227.25l.9,0c.18,0,.33-.08.34-.19l.12-3.71c0-.11-.14-.2-.32-.21l-.9,0c-.18,0-.33.08-.33.19l-.13,3.72C285.48,227.16,285.62,227.25,285.8,227.25Z" style="fill: rgb(255, 255, 255); opacity: 0.2; transform-origin: 286.32px 225.195px;" class="animable"></path></g><path d="M299.23,227.64l.9,0c.18,0,.33-.08.33-.19l.13-3.72c0-.11-.14-.2-.32-.2l-.9,0c-.18,0-.33.08-.34.19l-.12,3.71C298.9,227.54,299.05,227.64,299.23,227.64Z" style="fill: rgb(38, 50, 56); transform-origin: 299.75px 225.585px;" id="eli0qawah8b2o" class="animable"></path><g id="elsqhddmljj6"><path d="M299.23,227.64l.9,0c.18,0,.33-.08.33-.19l.13-3.72c0-.11-.14-.2-.32-.2l-.9,0c-.18,0-.33.08-.34.19l-.12,3.71C298.9,227.54,299.05,227.64,299.23,227.64Z" style="fill: rgb(255, 255, 255); opacity: 0.2; transform-origin: 299.75px 225.585px;" class="animable"></path></g><path d="M354.89,184.5l3.42-8.15-7.94,2.48s-1.05,5.16,1.57,7.33Z" style="fill: rgb(255, 181, 115); transform-origin: 354.236px 181.255px;" id="el6bzkqdzh448" class="animable"></path><polygon points="356.5 169.71 349.96 172.15 350.37 178.83 358.31 176.35 356.5 169.71" style="fill: rgb(255, 181, 115); transform-origin: 354.135px 174.27px;" id="el6qpry2gyxfe" class="animable"></polygon><path d="M325.06,152.44c-3.4,7.38-4.68,10.57-10,13-8,3.61-16.33-2.18-15.21-10.42,1-7.43,6.39-18.25,15-18.39A11.08,11.08,0,0,1,325.06,152.44Z" style="fill: rgb(255, 181, 115); transform-origin: 312.935px 151.582px;" id="elju9lryd7ls" class="animable"></path><path d="M323.28,144.79c-3.25,1.58-3.61,9.64-.62,12.74C328.37,157.34,333,140.07,323.28,144.79Z" style="fill: rgb(38, 50, 56); transform-origin: 324.766px 150.752px;" id="elt2kf2xt6dzs" class="animable"></path><path d="M307,149a17.73,17.73,0,0,1-3.72,3.08,2.83,2.83,0,0,0,2,1.27Z" style="fill: rgb(237, 137, 62); transform-origin: 305.14px 151.175px;" id="eld8nrkjq73ag" class="animable"></path><path d="M324.42,160.16a5.94,5.94,0,0,1-4.08,2c-2.08.1-2.67-1.87-1.7-3.59.86-1.55,3-3.48,4.89-2.77A2.67,2.67,0,0,1,324.42,160.16Z" style="fill: rgb(255, 181, 115); transform-origin: 321.692px 158.906px;" id="elccfw0ar4bra" class="animable"></path><path d="M315.56,149.43a.37.37,0,0,1-.3-.34c-.18-1.78-2.18-2.94-2.2-3a.39.39,0,1,1,.39-.67c.09.05,2.37,1.37,2.58,3.55a.38.38,0,0,1-.35.42A.25.25,0,0,1,315.56,149.43Z" style="fill: rgb(38, 50, 56); transform-origin: 314.43px 147.387px;" id="ellm0gr85sq9r" class="animable"></path><path d="M304.41,143.05a.4.4,0,0,1-.28-.26.38.38,0,0,1,.25-.49,3.87,3.87,0,0,1,3.5.47.39.39,0,1,1-.48.61h0a3,3,0,0,0-2.78-.34A.5.5,0,0,1,304.41,143.05Z" style="fill: rgb(38, 50, 56); transform-origin: 306.084px 142.783px;" id="elb2nofhad1m" class="animable"></path><path d="M304.35,155.35a24.47,24.47,0,0,1,.7,3.49l.62,0c2.84.07,4.19-.83,4.81-1.86a3.6,3.6,0,0,0,.49-1.66,3.42,3.42,0,0,0-.05-1c-1.53.86-4.18,1-5.6,1C304.72,155.37,304.35,155.35,304.35,155.35Z" style="fill: rgb(38, 50, 56); transform-origin: 307.668px 156.582px;" id="elq8ttyvbln7c" class="animable"></path><path d="M305.32,155.36l.23,1c2.67.07,4.57-.25,5.42-1a3.42,3.42,0,0,0-.05-1C309.39,155.21,306.74,155.35,305.32,155.36Z" style="fill: rgb(255, 255, 255); transform-origin: 308.153px 155.365px;" id="eltwgaxotv8y" class="animable"></path><path d="M305.67,158.86c2.84.07,4.19-.83,4.81-1.86a9.33,9.33,0,0,0-3.17.55A3.47,3.47,0,0,0,305.67,158.86Z" style="fill: rgb(222, 87, 83); transform-origin: 308.075px 157.932px;" id="el5lilht9dlhk" class="animable"></path><path d="M310.84,148.84l-.85-.65s.25,1.14,1,1.08h0a1.65,1.65,0,0,1,2,1C312.94,148.29,311.39,148.65,310.84,148.84Z" style="fill: rgb(38, 50, 56); transform-origin: 311.49px 149.23px;" id="el7zl54t59s98" class="animable"></path><path d="M304.28,146.34l-.85-.64s.25,1.14,1,1.08h0a1.65,1.65,0,0,1,2,1C306.38,145.8,304.82,146.16,304.28,146.34Z" style="fill: rgb(38, 50, 56); transform-origin: 304.93px 146.74px;" id="elyyvlinpbfw" class="animable"></path><path d="M321,150.75s-2.83-5-.72-9.64a8.74,8.74,0,0,0-2.08,5.27,19.71,19.71,0,0,0-3.74-3.36,13.79,13.79,0,0,1,1.58-4.88,6.55,6.55,0,0,0-2.49,4.63,7.94,7.94,0,0,1,.91-4.63,7.1,7.1,0,0,0-2.69,3.94l-2.81-.9s.5-2.59,1.76-3.35a13.42,13.42,0,0,0-3.2,2.75s-2.6-.06-3.16.73a8.55,8.55,0,0,1,5.64-5.08s-3.9.46-6.21,2.51c0,0,3.23-5.94,12.86-3.89s11.87,8.75,12.16,11.59S321,150.75,321,150.75Z" style="fill: rgb(38, 50, 56); transform-origin: 316.304px 142.585px;" id="el1mofqcfffch" class="animable"></path><path d="M299.65,173.35s-2.76,5.8,1.56,7.4c6.46,2.39,17-4.4,17-4.4s8.92,2.82,11.49,4.86-8,18.61-13.38,38.91c0,0-30.09-7.72-38.64-10.23,0,0,5.68-28,12.72-37C292.6,170,294.68,169.71,299.65,173.35Z" style="fill: rgb(0, 255, 136); transform-origin: 303.888px 195.395px;" id="el48fzm7w14ve" class="animable"></path><g id="el8p1flzihwes"><path d="M326.16,193.38c-1.3,3-2.8,6.48-4.31,10.28a145.38,145.38,0,0,0-5.55,16.46s-30.09-7.72-38.64-10.23c0,0,5.68-28,12.72-37,2.22-2.83,4.3-3.16,9.27.48,0,0-2.76,5.8,1.56,7.4,6.46,2.39,17-4.4,17-4.4s8.92,2.82,11.49,4.86C330.94,182.21,329.05,186.69,326.16,193.38Z" style="fill: rgb(255, 255, 255); opacity: 0.4; transform-origin: 303.873px 195.412px;" class="animable"></path></g><path d="M284.39,120l3.37-5.88-8.25,1.13s-1.89,4.91.34,7.49l.79-.14A5.29,5.29,0,0,0,284.39,120Z" style="fill: rgb(255, 181, 115); transform-origin: 283.261px 118.43px;" id="el37gcsyd34vm" class="animable"></path><polygon points="287.89 108.03 280.91 107.92 279.51 115.24 287.76 114.11 287.89 108.03" style="fill: rgb(255, 181, 115); transform-origin: 283.7px 111.58px;" id="ela18awlq5wxm" class="animable"></polygon><g id="el8ybsfw1lwyk"><path d="M326.16,193.38c-1.3,3-2.8,6.48-4.31,10.28-2.82-5.53-1.22-11.93-1.22-11.93A7.59,7.59,0,0,1,326.16,193.38Z" style="opacity: 0.2; transform-origin: 323.169px 197.676px;" class="animable"></path></g><path d="M331.87,182.74c.44.82,1,1.86,1.58,2.79s1.15,1.9,1.76,2.82c1.21,1.86,2.48,3.67,3.82,5.37a33.08,33.08,0,0,0,9,8.3l.61.33,0,0-.12,0-.29-.1a4.36,4.36,0,0,0-.71-.12,2.93,2.93,0,0,0-.78,0,2.58,2.58,0,0,0-.7.19,2.37,2.37,0,0,0-1.08.75c-.07.09,0,.09,0,0a10.37,10.37,0,0,0,1-2.31,65.92,65.92,0,0,0,1.75-6.44c1-4.49,1.94-9.16,2.85-13.76l4.94.33a111.5,111.5,0,0,1-.29,14.61,58,58,0,0,1-1.12,7.54c-.15.66-.33,1.33-.55,2a13.94,13.94,0,0,1-.94,2.32,8.87,8.87,0,0,1-1,1.47,6,6,0,0,1-2.48,1.83,5.86,5.86,0,0,1-1.13.3,5.64,5.64,0,0,1-1.23.06,6.28,6.28,0,0,1-1.14-.2l-.5-.17-.29-.11-1-.44a30.73,30.73,0,0,1-7-4.55,46.75,46.75,0,0,1-5.58-5.59,61.61,61.61,0,0,1-4.6-6.16q-1-1.59-2-3.24c-.66-1.12-1.22-2.17-1.86-3.47Z" style="fill: rgb(255, 181, 115); transform-origin: 339.203px 195.795px;" id="el4ad3bfyuj2r" class="animable"></path><path d="M328.93,180.88c3.32,1,9.46,9.71,9.46,9.71L328.52,203s-8-6.78-7.89-11.31C320.79,187,325.13,179.7,328.93,180.88Z" style="fill: rgb(0, 255, 136); transform-origin: 329.509px 191.876px;" id="eldyof8bugw8g" class="animable"></path><g id="el9rx0unztvt"><g style="opacity: 0.4; transform-origin: 329.509px 191.876px;" class="animable"><path d="M328.93,180.88c3.32,1,9.46,9.71,9.46,9.71L328.52,203s-8-6.78-7.89-11.31C320.79,187,325.13,179.7,328.93,180.88Z" style="fill: rgb(255, 255, 255); transform-origin: 329.509px 191.876px;" id="el5zdwn90wbp" class="animable"></path></g></g><polygon points="299.57 186.86 300.94 192.69 306.52 194.86 301.41 197.97 301.06 203.94 296.53 200.04 290.74 201.56 293.05 196.04 289.81 191 295.78 191.49 299.57 186.86" style="fill: rgb(255, 255, 255); transform-origin: 298.165px 195.4px;" id="els388h1sfwr" class="animable"></polygon></g><defs>     <filter id="active" height="200%">         <feMorphology in="SourceAlpha" result="DILATED" operator="dilate" radius="2"></feMorphology>                <feFlood flood-color="#32DFEC" flood-opacity="1" result="PINK"></feFlood>        <feComposite in="PINK" in2="DILATED" operator="in" result="OUTLINE"></feComposite>        <feMerge>            <feMergeNode in="OUTLINE"></feMergeNode>            <feMergeNode in="SourceGraphic"></feMergeNode>        </feMerge>    </filter>    <filter id="hover" height="200%">        <feMorphology in="SourceAlpha" result="DILATED" operator="dilate" radius="2"></feMorphology>                <feFlood flood-color="#ff0000" flood-opacity="0.5" result="PINK"></feFlood>        <feComposite in="PINK" in2="DILATED" operator="in" result="OUTLINE"></feComposite>        <feMerge>            <feMergeNode in="OUTLINE"></feMergeNode>            <feMergeNode in="SourceGraphic"></feMergeNode>        </feMerge>            <feColorMatrix type="matrix" values="0   0   0   0   0                0   1   0   0   0                0   0   0   0   0                0   0   0   1   0 "></feColorMatrix>    </filter></defs></svg>