<svg class="animated" id="freepik_stories-bingo" xmlns="http://www.w3.org/2000/svg" viewBox="0 0 500 500" version="1.1" xmlns:xlink="http://www.w3.org/1999/xlink" xmlns:svgjs="http://svgjs.com/svgjs"><style>svg#freepik_stories-bingo:not(.animated) .animable {opacity: 0;}svg#freepik_stories-bingo.animated #freepik--background-complete--inject-51 {animation: 1s 1 forwards cubic-bezier(.36,-0.01,.5,1.38) zoomOut;animation-delay: 0s;}svg#freepik_stories-bingo.animated #freepik--Stars--inject-51 {animation: 1s 1 forwards cubic-bezier(.36,-0.01,.5,1.38) slideLeft;animation-delay: 0s;}svg#freepik_stories-bingo.animated #freepik--Balls--inject-51 {animation: 1s 1 forwards cubic-bezier(.36,-0.01,.5,1.38) lightSpeedRight;animation-delay: 0s;}svg#freepik_stories-bingo.animated #freepik--bingo-card--inject-51 {animation: 1s 1 forwards cubic-bezier(.36,-0.01,.5,1.38) slideLeft;animation-delay: 0s;}svg#freepik_stories-bingo.animated #freepik--Character--inject-51 {animation: 1s 1 forwards cubic-bezier(.36,-0.01,.5,1.38) lightSpeedLeft;animation-delay: 0s;}svg#freepik_stories-bingo.animated #freepik--Table--inject-51 {animation: 1s 1 forwards cubic-bezier(.36,-0.01,.5,1.38) slideLeft;animation-delay: 0s;}            @keyframes zoomOut {                0% {                    opacity: 0;                    transform: scale(1.5);                }                100% {                    opacity: 1;                    transform: scale(1);                }            }                    @keyframes slideLeft {                0% {                    opacity: 0;                    transform: translateX(-30px);                }                100% {                    opacity: 1;                    transform: translateX(0);                }            }                    @keyframes lightSpeedRight {              from {                transform: translate3d(50%, 0, 0) skewX(-20deg);                opacity: 0;              }              60% {                transform: skewX(10deg);                opacity: 1;              }              80% {                transform: skewX(-2deg);              }              to {                opacity: 1;                transform: translate3d(0, 0, 0);              }            }                    @keyframes lightSpeedLeft {              from {                transform: translate3d(-50%, 0, 0) skewX(20deg);                opacity: 0;              }              60% {                transform: skewX(-10deg);                opacity: 1;              }              80% {                transform: skewX(2deg);              }              to {                opacity: 1;                transform: translate3d(0, 0, 0);              }            }        </style><g id="freepik--background-complete--inject-51" class="animable" style="transform-origin: 255.567px 241.416px;"><g id="elh5i6xv441um"><circle cx="75.6" cy="68.54" r="47.87" style="fill: rgb(235, 235, 235); transform-origin: 75.6px 68.54px; transform: rotate(-87deg);" class="animable"></circle></g><circle cx="74.41" cy="52.96" r="24.8" style="fill: rgb(255, 255, 255); transform-origin: 74.41px 52.96px;" id="eld71vs57qapn" class="animable"></circle><path d="M74.46,80.76c-.83,0-1.66,0-2.5-.11a27.75,27.75,0,1,1,2.5.11Zm-.09-54.59a26.66,26.66,0,1,0,2.41.1C76,26.2,75.17,26.17,74.37,26.17Z" style="fill: rgb(224, 224, 224); transform-origin: 74.4286px 53.01px;" id="el676snbjbrkp" class="animable"></path><path d="M79.25,51.49c3.61.32,5.61,3.48,5.28,7.21-.43,4.87-3.75,7.63-9.45,7.12C69,65.28,65.89,61.29,66.36,56A9.59,9.59,0,0,1,68,51.16l2.87,1.78a5.88,5.88,0,0,0-1.18,3.22c-.26,3,1.31,5,4.69,5.43a5.92,5.92,0,0,1-1.18-4.5C73.51,53.68,75.92,51.2,79.25,51.49Zm-.15,4c-1.62-.14-2.76,1-2.92,2.77a2.78,2.78,0,0,0,2.38,3.29c1.51.13,2.73-.9,2.9-2.87A2.66,2.66,0,0,0,79.1,55.47Z" style="fill: rgb(224, 224, 224); transform-origin: 75.4394px 58.5201px;" id="elu47ccceplol" class="animable"></path><path d="M81.15,35.26c3.33.3,5.16,3.46,4.76,8s-2.76,7.24-6.09,6.94a4.51,4.51,0,0,1-3.92-3,4.11,4.11,0,0,1-3.82,1.72c-3.1-.28-4.8-3.22-4.44-7.24s2.55-6.66,5.65-6.39a4.11,4.11,0,0,1,3.45,2.4A4.52,4.52,0,0,1,81.15,35.26Zm-8.53,9.52c1.34.12,2.26-.87,2.41-2.53s-.58-2.85-1.92-3-2.32.91-2.47,2.58S71.23,44.66,72.62,44.78Zm8-5.39c-1.56-.14-2.64,1.06-2.82,3.11s.67,3.36,2.24,3.5,2.66-1,2.83-3S82.22,39.53,80.65,39.39Z" style="fill: rgb(224, 224, 224); transform-origin: 76.7784px 42.7327px;" id="eljixue8vdm8" class="animable"></path><g id="el819fi2jpleq"><g style="opacity: 0.6; transform-origin: 43.401px 72.3582px;" class="animable"><path d="M40.74,44.18c-1.13-.1-1.85,1-2.29,1.55-3.4,4.29-9,15.81-6.36,30.88,1.42,6.47,1.59,7.51,6.38,14.87,1.66,2.54,5.35,6.91,8.11,8.18s6.21,1.39,7.92-1.12c1.53-2.26.94-5.42-.54-7.73s-3.68-4-5.59-6a30.12,30.12,0,0,1-7.63-27.23c.87-3.76,2.48-7.46,2.16-11.31a2.18,2.18,0,0,0-.56-1.5A2.2,2.2,0,0,0,40.74,44.18Z" style="fill: rgb(255, 255, 255); transform-origin: 43.401px 72.3582px;" id="elfwgjj69pn7n" class="animable"></path></g></g><g id="elbu9mwqnj7cm"><g style="opacity: 0.3; transform-origin: 104.801px 76.04px;" class="animable"><path d="M112.59,46.8a4.31,4.31,0,0,1,.37.61c.21.41.58,1,.94,1.81a38.58,38.58,0,0,1,2.58,7.06,41.46,41.46,0,0,1-15.72,44.12,39.6,39.6,0,0,1-6.46,3.84c-.79.4-1.45.62-1.88.81a3,3,0,0,1-.67.23,4.09,4.09,0,0,1,.63-.33c.41-.22,1.05-.47,1.83-.89a41.93,41.93,0,0,0,21.91-47.69,43.76,43.76,0,0,0-2.4-7.06c-.34-.82-.67-1.42-.86-1.85A3.33,3.33,0,0,1,112.59,46.8Z" style="fill: rgb(255, 255, 255); transform-origin: 104.801px 76.04px;" id="el4qxd1vrir7k" class="animable"></path></g></g><g id="eli2hbth9wwa"><g style="opacity: 0.3; transform-origin: 85.6402px 107.852px;" class="animable"><path d="M84.26,108c0-.14.59-.33,1.35-.41s1.39,0,1.41.11-.59.32-1.35.41S84.27,108.11,84.26,108Z" style="fill: rgb(255, 255, 255); transform-origin: 85.6402px 107.852px;" id="el01rnplsawk1e" class="animable"></path></g></g><g id="elk0qcix55hd"><circle cx="449.71" cy="64.99" r="25.55" style="fill: rgb(235, 235, 235); transform-origin: 449.71px 64.99px; transform: rotate(-45deg);" class="animable"></circle></g><g id="elgi6uxw97muw"><circle cx="456.91" cy="69.2" r="13.23" style="fill: rgb(255, 255, 255); transform-origin: 456.91px 69.2px; transform: rotate(-60.62deg);" class="animable"></circle></g><path d="M456.9,84.26a15.07,15.07,0,1,1,11.59-5.43h0A15,15,0,0,1,456.9,84.26Zm0-29.13c-.43,0-.87,0-1.31.06a14.07,14.07,0,1,0,12.1,23h0a14.06,14.06,0,0,0-10.79-23.06Z" style="fill: rgb(224, 224, 224); transform-origin: 456.907px 69.19px;" id="elzk0vnjtoq5n" class="animable"></path><path d="M456.09,71.75c-1.24,1.49-3.23,1.41-4.77.13-2-1.67-2.21-4-.25-6.31,2.09-2.52,4.77-2.66,7-.83a5.05,5.05,0,0,1,1.61,2.18l-1.65.72a3.26,3.26,0,0,0-1.06-1.5,2.52,2.52,0,0,0-3.81.41,3.21,3.21,0,0,1,2.34.85A3,3,0,0,1,456.09,71.75Zm-1.7-1.27a1.43,1.43,0,0,0-.33-2.12,1.48,1.48,0,0,0-2.17,0,1.47,1.47,0,0,0,.38,2.15A1.43,1.43,0,0,0,454.39,70.48Z" style="fill: rgb(224, 224, 224); transform-origin: 454.693px 68.1786px;" id="el8jgrru233lf" class="animable"></path><path d="M462.63,77.51c-1.14,1.37-3.08,1.22-4.93-.32s-2.34-3.41-1.2-4.78a2.42,2.42,0,0,1,2.53-.8,2.19,2.19,0,0,1,.4-2.19c1.07-1.28,2.88-1.13,4.53.24s2.15,3.14,1.09,4.42a2.19,2.19,0,0,1-2.1.79A2.4,2.4,0,0,1,462.63,77.51ZM461,76c.54-.64.34-1.48-.5-2.18s-1.68-.73-2.22-.08-.35,1.48.48,2.17S460.44,76.69,461,76Zm.08-5.16c-.46.55-.31,1.26.38,1.83s1.42.6,1.88.05.31-1.29-.38-1.86S461.52,70.31,461.05,70.88Z" style="fill: rgb(224, 224, 224); transform-origin: 460.749px 73.4946px;" id="elglrpbhq8w5" class="animable"></path><g id="el39ywwvj9kki"><g style="opacity: 0.6; transform-origin: 456.996px 49.6634px;" class="animable"><path d="M471,57.08c.38-.46.12-1.11,0-1.47-.85-2.8-4.2-8.75-11.62-12.17-3.27-1.34-3.78-1.58-8.46-1.71-1.62,0-4.66.25-6.05,1.07s-2.5,2.31-1.92,3.82a3.86,3.86,0,0,0,3.56,2.11,22,22,0,0,0,4.32-.63A16,16,0,0,1,465.1,53c1.39,1.52,2.52,3.35,4.31,4.38a1.24,1.24,0,0,0,.83.21A1.21,1.21,0,0,0,471,57.08Z" style="fill: rgb(255, 255, 255); transform-origin: 456.996px 49.6634px;" id="el972jylgf32c" class="animable"></path></g></g><g id="el83wus87jjyq"><g style="opacity: 0.3; transform-origin: 437.998px 74.375px;" class="animable"><path d="M448,87.82s-.13,0-.38,0a10.39,10.39,0,0,1-1.09-.11,19.39,19.39,0,0,1-3.9-1A21.91,21.91,0,0,1,428,66.36a20.34,20.34,0,0,1,.32-4,9.65,9.65,0,0,1,.24-1.07q.09-.36.12-.36a37,37,0,0,0-.31,5.43,22.25,22.25,0,0,0,14.41,20A35.35,35.35,0,0,0,448,87.82Z" style="fill: rgb(255, 255, 255); transform-origin: 437.998px 74.375px;" id="elfoptvqryapo" class="animable"></path></g></g><g id="el0qwqzzvm4iul"><g style="opacity: 0.3; transform-origin: 429.423px 57.4698px;" class="animable"><path d="M429.78,56.82c.12.06.07.41-.13.77s-.45.6-.58.53-.07-.42.12-.78S429.65,56.75,429.78,56.82Z" style="fill: rgb(255, 255, 255); transform-origin: 429.423px 57.4698px;" id="elxybff1ep20n" class="animable"></path></g></g><g id="el18d41nn9qjz"><circle cx="153.8" cy="432.06" r="29.96" style="fill: rgb(235, 235, 235); transform-origin: 153.8px 432.06px; transform: rotate(-5.18deg);" class="animable"></circle></g><g id="el9d6c7f314ev"><circle cx="162.24" cy="436.99" r="15.52" style="fill: rgb(255, 255, 255); transform-origin: 162.24px 436.99px; transform: rotate(-2.72deg);" class="animable"></circle></g><path d="M162.23,454.57a17.58,17.58,0,1,1,13.53-6.34A17.48,17.48,0,0,1,162.23,454.57Zm0-34.15a16.58,16.58,0,1,0,10.58,3.83A16.55,16.55,0,0,0,162.26,420.42Z" style="fill: rgb(224, 224, 224); transform-origin: 162.243px 436.99px;" id="elvqi1rea3cie" class="animable"></path><path d="M161.27,440c-1.44,1.75-3.78,1.66-5.58.16-2.35-2-2.59-4.64-.3-7.4,2.45-2.94,5.6-3.11,8.17-1a5.92,5.92,0,0,1,1.88,2.56l-1.93.84a3.63,3.63,0,0,0-1.24-1.75c-1.43-1.19-3-1.11-4.46.47a3.77,3.77,0,0,1,2.74,1A3.51,3.51,0,0,1,161.27,440Zm-2-1.49a1.67,1.67,0,0,0-.38-2.48,1.74,1.74,0,0,0-2.54.05,1.7,1.7,0,0,0,.44,2.51A1.66,1.66,0,0,0,159.28,438.49Z" style="fill: rgb(224, 224, 224); transform-origin: 159.617px 435.82px;" id="elowes4fe9g5" class="animable"></path><path d="M169,446.74c-1.34,1.61-3.61,1.42-5.78-.38s-2.74-4-1.4-5.6a2.8,2.8,0,0,1,3-.93,2.56,2.56,0,0,1,.47-2.58c1.24-1.49,3.36-1.32,5.3.29s2.52,3.68,1.27,5.18a2.57,2.57,0,0,1-2.45.93A2.81,2.81,0,0,1,169,446.74ZM167,445c.63-.76.4-1.74-.59-2.56s-2-.85-2.6-.1-.41,1.74.56,2.55S166.38,445.77,167,445Zm.09-6c-.54.65-.36,1.47.44,2.14s1.68.71,2.21.07.36-1.52-.44-2.19A1.47,1.47,0,0,0,167.09,439Z" style="fill: rgb(224, 224, 224); transform-origin: 166.811px 442.032px;" id="elwyim40qxckf" class="animable"></path><g id="eli5kl456j77f"><g style="opacity: 0.6; transform-origin: 162.329px 414.089px;" class="animable"><path d="M178.75,422.79c.45-.54.15-1.31,0-1.73-1-3.28-4.93-10.26-13.63-14.27-3.83-1.57-4.43-1.85-9.92-2-1.9-.06-5.46.29-7.1,1.25s-2.93,2.7-2.24,4.48a4.52,4.52,0,0,0,4.17,2.47,25.85,25.85,0,0,0,5.07-.74A18.86,18.86,0,0,1,171.85,418c1.62,1.78,3,3.93,5.05,5.13a1.34,1.34,0,0,0,1,.25A1.37,1.37,0,0,0,178.75,422.79Z" style="fill: rgb(255, 255, 255); transform-origin: 162.329px 414.089px;" id="el38k2h09ghk9" class="animable"></path></g></g><g id="el4hizm7r52vw"><g style="opacity: 0.3; transform-origin: 140.097px 443.065px;" class="animable"><path d="M151.82,458.83s-.15,0-.45,0-.72,0-1.27-.14a23.33,23.33,0,0,1-4.57-1.16,25.69,25.69,0,0,1-17.15-23.85,23.75,23.75,0,0,1,.36-4.71,11.82,11.82,0,0,1,.27-1.25,1.7,1.7,0,0,1,.13-.42,12,12,0,0,1-.2,1.7,26.23,26.23,0,0,0,16.72,28.19,27.25,27.25,0,0,0,4.48,1.3A16.35,16.35,0,0,1,151.82,458.83Z" style="fill: rgb(255, 255, 255); transform-origin: 140.097px 443.065px;" id="elg0xasvqv6cb" class="animable"></path></g></g><g id="elb3mmrvioc89"><g style="opacity: 0.3; transform-origin: 130.015px 423.236px;" class="animable"><path d="M130.43,422.47c.13.07,0,.47-.19.89s-.51.71-.64.64,0-.46.19-.89S130.3,422.41,130.43,422.47Z" style="fill: rgb(255, 255, 255); transform-origin: 130.015px 423.236px;" id="el7c22zmj45o" class="animable"></path></g></g><path d="M49,400.68l7.45,5.12a1.36,1.36,0,0,0,1.25.14l8.44-3.23A1.36,1.36,0,0,1,68,404.36L65.4,413a1.38,1.38,0,0,0,.25,1.24l5.69,7a1.36,1.36,0,0,1-1,2.21l-9,.24a1.36,1.36,0,0,0-1.1.62l-4.92,7.58a1.35,1.35,0,0,1-2.41-.29l-3-8.52a1.35,1.35,0,0,0-.93-.85l-8.73-2.34a1.36,1.36,0,0,1-.47-2.39l7.17-5.5a1.34,1.34,0,0,0,.52-1.15l-.47-9A1.36,1.36,0,0,1,49,400.68Z" style="fill: rgb(235, 235, 235); transform-origin: 55.4441px 416.514px;" id="elcrwm2yzrwrs" class="animable"></path><path d="M426.8,122.76l5.58,3.84a1,1,0,0,0,.94.11l6.32-2.43a1,1,0,0,1,1.33,1.24L439.05,132a1,1,0,0,0,.19.92l4.26,5.27a1,1,0,0,1-.76,1.65L436,140a1,1,0,0,0-.83.46l-3.68,5.68a1,1,0,0,1-1.81-.22l-2.26-6.38a1,1,0,0,0-.7-.64l-6.53-1.75a1,1,0,0,1-.36-1.79l5.37-4.12a1,1,0,0,0,.4-.86l-.36-6.76A1,1,0,0,1,426.8,122.76Z" style="fill: rgb(235, 235, 235); transform-origin: 431.575px 134.605px;" id="eldzmsl2sb09" class="animable"></path><path d="M460.84,133.79l3.3,2.26a.6.6,0,0,0,.55.06l3.73-1.43a.6.6,0,0,1,.79.73l-1.13,3.83a.58.58,0,0,0,.11.55l2.51,3.11a.59.59,0,0,1-.45,1l-4,.11a.63.63,0,0,0-.49.27l-2.18,3.35a.6.6,0,0,1-1.07-.12l-1.33-3.77a.62.62,0,0,0-.41-.38l-3.86-1a.6.6,0,0,1-.21-1.06l3.17-2.43a.59.59,0,0,0,.23-.51l-.21-4A.6.6,0,0,1,460.84,133.79Z" style="fill: rgb(245, 245, 245); transform-origin: 463.664px 140.79px;" id="elv93jrp9z1rk" class="animable"></path><path d="M388.07,28.63l3.3,2.26a.6.6,0,0,0,.55.07l3.74-1.43a.59.59,0,0,1,.78.73l-1.13,3.83a.61.61,0,0,0,.11.55l2.51,3.1a.6.6,0,0,1-.45,1l-4,.1a.61.61,0,0,0-.49.28l-2.18,3.35a.59.59,0,0,1-1.06-.13l-1.34-3.76a.58.58,0,0,0-.41-.38l-3.86-1a.6.6,0,0,1-.21-1l3.17-2.44a.59.59,0,0,0,.24-.5l-.21-4A.6.6,0,0,1,388.07,28.63Z" style="fill: rgb(235, 235, 235); transform-origin: 390.913px 35.6284px;" id="els8k20st9ba" class="animable"></path><path d="M435.37,339.76l7.45,5.12a1.36,1.36,0,0,0,1.25.15l8.44-3.24a1.36,1.36,0,0,1,1.79,1.65l-2.57,8.67a1.36,1.36,0,0,0,.25,1.23l5.68,7a1.35,1.35,0,0,1-1,2.2l-9,.24a1.41,1.41,0,0,0-1.1.62L441.59,371a1.35,1.35,0,0,1-2.41-.29l-3-8.51a1.34,1.34,0,0,0-.93-.86L426.5,359a1.35,1.35,0,0,1-.47-2.38l7.16-5.51a1.34,1.34,0,0,0,.53-1.14l-.47-9A1.36,1.36,0,0,1,435.37,339.76Z" style="fill: rgb(245, 245, 245); transform-origin: 441.729px 355.572px;" id="el3hd1uus6kj7" class="animable"></path><path d="M397.49,349.83l1.28,2.61a.45.45,0,0,0,.33.24l2.88.41a.44.44,0,0,1,.24.75l-2.08,2a.42.42,0,0,0-.13.38l.49,2.87a.44.44,0,0,1-.63.46l-2.57-1.36a.49.49,0,0,0-.41,0l-2.57,1.36a.44.44,0,0,1-.63-.46l.49-2.87a.42.42,0,0,0-.13-.38l-2.08-2a.44.44,0,0,1,.24-.75l2.88-.41a.43.43,0,0,0,.33-.24l1.29-2.61A.44.44,0,0,1,397.49,349.83Z" style="fill: rgb(245, 245, 245); transform-origin: 397.095px 354.595px;" id="elomlwohm38k" class="animable"></path><path d="M86.91,438.08l2,4.08a.69.69,0,0,0,.52.37l4.5.66a.68.68,0,0,1,.38,1.16l-3.26,3.18a.7.7,0,0,0-.2.6l.77,4.48a.68.68,0,0,1-1,.72l-4-2.11a.66.66,0,0,0-.64,0l-4,2.11a.68.68,0,0,1-1-.72l.76-4.48a.66.66,0,0,0-.19-.6l-3.26-3.18a.68.68,0,0,1,.38-1.16l4.5-.66a.66.66,0,0,0,.51-.37l2-4.08A.68.68,0,0,1,86.91,438.08Z" style="fill: rgb(235, 235, 235); transform-origin: 86.3px 445.553px;" id="elwsascnmn9q" class="animable"></path></g><g id="freepik--Stars--inject-51" class="animable" style="transform-origin: 246.65px 242.498px;"><path d="M450.34,278.94l2.66,5.39a.94.94,0,0,0,.68.5l6,.86a.9.9,0,0,1,.5,1.54l-4.31,4.2a.92.92,0,0,0-.26.8l1,5.93a.9.9,0,0,1-1.31.95l-5.33-2.8a.89.89,0,0,0-.84,0l-5.32,2.8a.9.9,0,0,1-1.31-.95l1-5.93a.89.89,0,0,0-.26-.8l-4.31-4.2a.91.91,0,0,1,.5-1.54l6-.86a.92.92,0,0,0,.68-.5l2.66-5.39A.9.9,0,0,1,450.34,278.94Z" style="fill: rgb(0, 255, 136); transform-origin: 449.561px 288.848px;" id="el127yislcio9h" class="animable"></path><path d="M44.55,213.87l2.66,5.4a.89.89,0,0,0,.68.49l6,.87a.9.9,0,0,1,.5,1.54L50,226.37a.87.87,0,0,0-.26.8l1,5.93a.9.9,0,0,1-1.31,1l-5.32-2.8a.89.89,0,0,0-.84,0L38,234.05a.9.9,0,0,1-1.31-1l1-5.93a.9.9,0,0,0-.26-.8l-4.31-4.2a.9.9,0,0,1,.5-1.54l6-.87a.91.91,0,0,0,.68-.49l2.66-5.4A.9.9,0,0,1,44.55,213.87Z" style="fill: rgb(0, 255, 136); transform-origin: 43.755px 223.789px;" id="elmvxsge493go" class="animable"></path><path d="M393.23,440l1.65,3.35a.56.56,0,0,0,.42.31l3.7.53a.56.56,0,0,1,.31,1l-2.67,2.61a.54.54,0,0,0-.17.49l.64,3.69a.57.57,0,0,1-.82.59L393,450.81a.53.53,0,0,0-.52,0l-3.3,1.74a.56.56,0,0,1-.82-.59l.63-3.69a.51.51,0,0,0-.16-.49l-2.67-2.61a.56.56,0,0,1,.31-1l3.7-.53a.56.56,0,0,0,.42-.31l1.65-3.35A.56.56,0,0,1,393.23,440Z" style="fill: rgb(0, 255, 136); transform-origin: 392.735px 446.161px;" id="elyai0z0ah5rf" class="animable"></path><path d="M50,181.19l1.65,3.35a.58.58,0,0,0,.43.31l3.7.54a.56.56,0,0,1,.31,1L53.43,189a.58.58,0,0,0-.16.5l.63,3.68a.56.56,0,0,1-.81.59L49.78,192a.59.59,0,0,0-.52,0L46,193.72a.56.56,0,0,1-.81-.59l.63-3.68a.58.58,0,0,0-.16-.5l-2.68-2.61a.56.56,0,0,1,.31-1l3.7-.54a.56.56,0,0,0,.42-.31L49,181.19A.56.56,0,0,1,50,181.19Z" style="fill: rgb(0, 255, 136); transform-origin: 49.535px 187.358px;" id="elqx49z3b00vp" class="animable"></path><path d="M441.77,259.77l.82,1.67a.29.29,0,0,0,.21.16l1.85.27a.27.27,0,0,1,.16.47l-1.34,1.31a.29.29,0,0,0-.08.25l.32,1.84a.28.28,0,0,1-.41.29l-1.65-.87a.3.3,0,0,0-.26,0l-1.66.87a.28.28,0,0,1-.41-.29l.32-1.84a.26.26,0,0,0-.08-.25l-1.34-1.31a.28.28,0,0,1,.16-.47l1.85-.27a.29.29,0,0,0,.21-.16l.82-1.67A.29.29,0,0,1,441.77,259.77Z" style="fill: rgb(0, 255, 136); transform-origin: 441.521px 262.841px;" id="el4t6z1qut5do" class="animable"></path><path d="M185.16,32.55l.83,1.68a.27.27,0,0,0,.21.15l1.85.27a.28.28,0,0,1,.15.48l-1.34,1.3a.33.33,0,0,0-.08.25l.32,1.84a.28.28,0,0,1-.41.3L185,38a.24.24,0,0,0-.26,0l-1.66.87a.28.28,0,0,1-.4-.3l.31-1.84a.27.27,0,0,0-.08-.25l-1.33-1.3a.28.28,0,0,1,.15-.48l1.85-.27a.27.27,0,0,0,.21-.15l.83-1.68A.28.28,0,0,1,185.16,32.55Z" style="fill: rgb(0, 255, 136); transform-origin: 184.89px 35.6318px;" id="el59f27zvpty3" class="animable"></path></g><g id="freepik--Balls--inject-51" class="animable" style="transform-origin: 247.322px 244.555px;"><g id="el2q079u4051x"><circle cx="441.52" cy="204.28" r="36.3" style="fill: rgb(0, 255, 136); transform-origin: 441.52px 204.28px; transform: rotate(-80.56deg);" class="animable"></circle></g><g id="elw16rex9izmd"><circle cx="452.27" cy="199.31" r="18.8" style="fill: rgb(255, 255, 255); transform-origin: 452.27px 199.31px; transform: rotate(-60.78deg);" class="animable"></circle></g><path d="M452.23,220.52a21.26,21.26,0,1,1,5.66-.77A21.5,21.5,0,0,1,452.23,220.52Zm.07-41.41a20.2,20.2,0,0,0-10,37.76,20.2,20.2,0,1,0,10-37.76Z" style="fill: rgb(38, 50, 56); transform-origin: 452.22px 199.26px;" id="el15wuuxrnmll" class="animable"></path><path d="M454,204.27l.67,2.44-9.79,2.7-.54-1.94,3.7-6.1c.85-1.41.87-2.13.7-2.76-.28-1-1.15-1.41-2.52-1a3.29,3.29,0,0,0-2.33,2l-2.57-.81a6.23,6.23,0,0,1,4.49-3.82c2.88-.8,5.21.15,5.86,2.51.35,1.25.31,2.5-1,4.68l-2.2,3.63Z" style="fill: rgb(38, 50, 56); transform-origin: 447.995px 202.056px;" id="elxxv597qtiio" class="animable"></path><path d="M464.93,201.27l.67,2.44-9.79,2.69-.53-1.94,3.69-6.09c.85-1.41.87-2.13.7-2.76-.28-1-1.15-1.42-2.52-1a3.3,3.3,0,0,0-2.33,2l-2.57-.81a6.25,6.25,0,0,1,4.49-3.82c2.88-.79,5.22.16,5.86,2.51.35,1.26.31,2.5-1,4.69l-2.2,3.63Z" style="fill: rgb(38, 50, 56); transform-origin: 458.925px 199.053px;" id="elv1gwgsb3rk" class="animable"></path><g id="el31k1zippqjk"><g style="opacity: 0.3; transform-origin: 430.703px 184.12px;" class="animable"><path d="M449.58,173.06c-.22-.83-1.2-1.05-1.7-1.22-4-1.27-13.62-2.2-23.63,3.67-4.22,2.72-4.91,3.12-8.87,8.47-1.37,1.85-3.49,5.64-3.66,7.93s.65,4.78,2.89,5.33c2,.49,4.1-.77,5.35-2.43a31.34,31.34,0,0,0,2.77-5.56,22.84,22.84,0,0,1,17.33-12.63c2.9-.39,5.95-.22,8.6-1.47a1.64,1.64,0,0,0,.92-.79A1.72,1.72,0,0,0,449.58,173.06Z" style="fill: rgb(255, 255, 255); transform-origin: 430.703px 184.12px;" id="el4erhu4m8b91" class="animable"></path></g></g><g id="elu5dcw1i05g"><g style="opacity: 0.3; transform-origin: 443.24px 230.351px;" class="animable"><path d="M466.76,224.8a2.34,2.34,0,0,1-.33.43,14.48,14.48,0,0,1-1,1.16,28,28,0,0,1-4.32,3.72,31.08,31.08,0,0,1-7.51,3.92,31.3,31.3,0,0,1-28.05-3.4,29.12,29.12,0,0,1-4.43-3.59c-.49-.46-.82-.87-1.06-1.13a2,2,0,0,1-.34-.42s.55.5,1.54,1.41a33.14,33.14,0,0,0,4.49,3.43,32.8,32.8,0,0,0,7.57,3.55,31.85,31.85,0,0,0,27.58-4.07,33.75,33.75,0,0,0,4.39-3.56C466.22,225.32,466.72,224.77,466.76,224.8Z" style="fill: rgb(255, 255, 255); transform-origin: 443.24px 230.351px;" id="elw68fgjoz9zr" class="animable"></path></g></g><g id="elnqr9jkrebab"><g style="opacity: 0.3; transform-origin: 416.268px 221.82px;" class="animable"><path d="M415.79,220.88c.13-.06.45.3.71.82s.37,1,.24,1.06-.44-.3-.7-.82S415.67,221,415.79,220.88Z" style="fill: rgb(255, 255, 255); transform-origin: 416.268px 221.82px;" id="elkb5fbdi40wk" class="animable"></path></g></g><g id="el9mjbfu33ibl"><circle cx="425.5" cy="410.79" r="26.18" style="fill: rgb(69, 90, 100); transform-origin: 425.5px 410.79px; transform: rotate(-49.13deg);" class="animable"></circle></g><path d="M447.73,424.61a2.24,2.24,0,0,1,.18-.38l.58-1.1c.13-.24.28-.51.43-.81s.28-.65.44-1a20.1,20.1,0,0,0,.95-2.58,25.13,25.13,0,0,0,1.19-7.42,26,26,0,0,0-20.64-25.87,29.32,29.32,0,0,0-3.66-.52,28.11,28.11,0,0,0-3.78.06,23.67,23.67,0,0,0-7.56,1.78,25.28,25.28,0,0,0-6.92,4.11,25.78,25.78,0,0,0-8.64,13.89,25.14,25.14,0,0,0-.63,8,23.68,23.68,0,0,0,1.75,7.57,26.66,26.66,0,0,0,1.62,3.41,25.25,25.25,0,0,0,2.09,3.05,26,26,0,0,0,32.33,7.07,25.08,25.08,0,0,0,6.13-4.34,19.79,19.79,0,0,0,1.89-2c.26-.3.51-.57.72-.84l.53-.74.73-1a2.72,2.72,0,0,1,.27-.34,2.36,2.36,0,0,1-.22.37l-.69,1-.52.76c-.2.27-.45.55-.7.86a19.45,19.45,0,0,1-1.87,2,24.68,24.68,0,0,1-6.14,4.46,26.31,26.31,0,0,1-21.65,1.24,26.34,26.34,0,0,1-11.19-8.27,27,27,0,0,1-2.13-3.1,26.47,26.47,0,0,1-1.66-3.48,28.8,28.8,0,0,1-1.21-3.75,30.37,30.37,0,0,1-.59-4,25.52,25.52,0,0,1,.64-8.18,26,26,0,0,1,8.81-14.17,25.5,25.5,0,0,1,7.06-4.18,24.33,24.33,0,0,1,7.71-1.81,27.53,27.53,0,0,1,3.85-.05A28.64,28.64,0,0,1,431,385a26.4,26.4,0,0,1,12.36,6.38,26.33,26.33,0,0,1,8.47,20,24.43,24.43,0,0,1-1.29,7.47,19,19,0,0,1-1,2.59c-.17.36-.31.71-.46,1l-.46.8-.62,1.08A2.13,2.13,0,0,1,447.73,424.61Z" style="fill: rgb(38, 50, 56); transform-origin: 425.455px 410.661px;" id="elyoteghi40x" class="animable"></path><g id="elm8zcuq1i2v8"><circle cx="433.39" cy="414.05" r="13.56" style="fill: rgb(255, 255, 255); transform-origin: 433.39px 414.05px; transform: rotate(-23.93deg);" class="animable"></circle></g><path d="M433.36,429.47a15.42,15.42,0,1,1,13.13-7.27h0A15.44,15.44,0,0,1,433.36,429.47Zm.06-29.85a14.94,14.94,0,0,0-3.31.38,14.43,14.43,0,1,0,15.53,21.67h0a14.43,14.43,0,0,0-12.22-22.05Z" style="fill: rgb(38, 50, 56); transform-origin: 433.4px 414.05px;" id="el8eslo29w95u" class="animable"></path><path d="M432.15,416.39c-.86,1.39-2.72,2-5.07.54a6.7,6.7,0,0,1-2.59-2.83l1.65-1a4.66,4.66,0,0,0,1.89,2.2c1,.59,1.79.57,2.2-.1s.17-1.3-.91-2l-.87-.54.78-1.26,2.89-.86-3.51-2.18.95-1.53,5.77,3.58-.77,1.24-3.18,1A2.75,2.75,0,0,1,432.15,416.39Z" style="fill: rgb(38, 50, 56); transform-origin: 429.91px 412.301px;" id="elan88rgnpmcj" class="animable"></path><path d="M440.08,422.42l-1.34-.84-1.08,1.73-1.85-1.15,1.07-1.73-4.44-2.76.8-1.28,7.13-2.81,2,1.24-6.68,2.72,2.21,1.37,1-1.54,1.8,1.12-1,1.54,1.34.84Z" style="fill: rgb(38, 50, 56); transform-origin: 437.405px 418.445px;" id="eltucwjqyqmw9" class="animable"></path><g id="eljcegrmpq0k"><g style="opacity: 0.3; transform-origin: 430.949px 393.591px;" class="animable"><path d="M446,399.78c.33-.52,0-1.15-.19-1.5-1.26-2.72-5.5-8.29-13.51-10.72-3.5-.9-4-1.08-8.83-.55-1.65.18-4.69.91-6,1.94s-2.21,2.69-1.41,4.14a4,4,0,0,0,3.91,1.65,22.73,22.73,0,0,0,4.3-1.26,16.45,16.45,0,0,1,15.17,3c1.63,1.34,3,3,5,3.84a1.09,1.09,0,0,0,1.56-.54Z" style="fill: rgb(255, 255, 255); transform-origin: 430.949px 393.591px;" id="elv67h29eolzb" class="animable"></path></g></g><g id="elvivumtjuxy"><g style="opacity: 0.3; transform-origin: 415.207px 421.941px;" class="animable"><path d="M427,434.2s-.13,0-.38.06-.64.05-1.12,0a20,20,0,0,1-4.1-.45,22.44,22.44,0,0,1-17.72-18.61,20.41,20.41,0,0,1-.25-4.12c0-.48.07-.86.09-1.11s.06-.39.08-.39a37.14,37.14,0,0,0,.44,5.56,22.78,22.78,0,0,0,17.44,18.31A35.63,35.63,0,0,0,427,434.2Z" style="fill: rgb(255, 255, 255); transform-origin: 415.207px 421.941px;" id="elnot5ak0atzb" class="animable"></path></g></g><g id="eljt5w7dyzk1s"><g style="opacity: 0.3; transform-origin: 403.859px 406px;" class="animable"><path d="M404.11,405.29c.14,0,.13.41,0,.8s-.38.67-.51.62-.12-.41,0-.8S404,405.24,404.11,405.29Z" style="fill: rgb(255, 255, 255); transform-origin: 403.859px 406px;" id="elwslj9vu27b" class="animable"></path></g></g><g id="el19pdoynmyic"><circle cx="351.86" cy="111.17" r="49.34" style="fill: rgb(69, 90, 100); transform-origin: 351.86px 111.17px; transform: rotate(-45deg);" class="animable"></circle></g><path d="M394.92,87.09s-.16-.22-.45-.67l-1.26-2L392.28,83c-.37-.52-.82-1-1.28-1.64s-1-1.23-1.5-1.92a26.44,26.44,0,0,0-1.88-2,46.89,46.89,0,0,0-11.15-8.77,49.23,49.23,0,0,0-17.72-6.08l-2.63-.34c-.89-.06-1.79-.07-2.71-.11s-1.83-.12-2.76,0l-2.83.17-1.43.1-1.43.23-2.91.47c-1,.19-1.92.49-2.9.74a23.87,23.87,0,0,0-2.93.86,47.58,47.58,0,0,0-5.77,2.4c-.94.49-1.92.92-2.85,1.46l-2.76,1.73c-.45.3-.94.56-1.38.89l-1.3,1c-.87.69-1.78,1.35-2.62,2.08a51.18,51.18,0,0,0-4.78,4.87l-1.13,1.32c-.19.22-.38.44-.56.67l-.51.71-2,2.88c-.63,1-1.18,2.06-1.77,3.09-.29.53-.62,1-.86,1.58L307.18,91a54.28,54.28,0,0,0-2.55,6.84l-.84,3.62-.21.91-.13.93-.25,1.86L303,107l-.08,1.89-.07,1.9,0,1c0,.32,0,.64.05,1l.24,3.83c.2,1.27.4,2.54.61,3.82a48.6,48.6,0,0,0,15.11,27l2.94,2.52,3.14,2.21.79.55.83.47,1.65.93,1.65.93,1.73.77,1.71.76.86.38.88.3,3.52,1.18a54.7,54.7,0,0,0,7.17,1.41l1.79.24c.6.08,1.2.06,1.8.1,1.19,0,2.38.11,3.56.1l3.51-.22.88-.05c.28,0,.57-.09.86-.13l1.71-.27a53.55,53.55,0,0,0,6.65-1.52c1.07-.34,2.11-.77,3.15-1.15l1.55-.58c.51-.2,1-.47,1.48-.7l2.92-1.44c1-.52,1.83-1.13,2.74-1.68a44.66,44.66,0,0,0,5.06-3.65,26.13,26.13,0,0,0,2.27-2c.72-.71,1.48-1.36,2.15-2.09s1.28-1.5,1.92-2.23c.32-.37.63-.74.95-1.1l.83-1.17,1.63-2.32c.55-.75.94-1.59,1.41-2.37s.91-1.58,1.33-2.37l1.08-2.42a49.08,49.08,0,0,0,4.1-18.27,47.25,47.25,0,0,0-1.63-14.1,24.12,24.12,0,0,0-.76-2.66l-.84-2.28c-.27-.71-.48-1.37-.73-2l-.76-1.56-1-2.11-.33-.73s.14.23.38.7.6,1.19,1.07,2.1l.78,1.55c.25.58.48,1.24.76,1.94s.55,1.47.86,2.28a27.42,27.42,0,0,1,.78,2.67,46.94,46.94,0,0,1,1.73,14.15,49.36,49.36,0,0,1-4,18.42l-1.09,2.44c-.41.8-.88,1.58-1.32,2.39s-.87,1.64-1.42,2.4l-1.64,2.34-.83,1.18-1,1.11L388,145c-.67.74-1.43,1.4-2.16,2.11a23.64,23.64,0,0,1-2.28,2.07,46,46,0,0,1-5.11,3.7c-.91.56-1.8,1.17-2.75,1.69L372.8,156c-.5.24-1,.51-1.5.72l-1.56.59c-1.06.38-2.1.81-3.18,1.16a52.76,52.76,0,0,1-6.71,1.54l-1.73.28c-.29,0-.58.1-.87.13l-.88.06-3.55.22c-1.2,0-2.39-.07-3.6-.1-.6,0-1.21,0-1.81-.1l-1.81-.24a54.13,54.13,0,0,1-7.24-1.42l-3.56-1.19-.89-.3L333,157l-1.73-.77-1.74-.77-1.67-.94-1.68-.94-.84-.48-.79-.55-3.18-2.23-3-2.55a53,53,0,0,1-9.87-12.41,52.48,52.48,0,0,1-5.4-14.91c-.21-1.29-.41-2.58-.62-3.86s-.15-2.59-.23-3.88c0-.32-.05-.64-.06-1l0-1,.07-1.92.08-1.91.25-1.89.25-1.88.13-.93.21-.92c.29-1.22.57-2.44.85-3.65a56.57,56.57,0,0,1,2.58-6.92l.75-1.66c.24-.56.58-1.06.86-1.6.61-1,1.16-2.1,1.8-3.11l2.05-2.91.5-.72.57-.67,1.15-1.33a50.94,50.94,0,0,1,4.83-4.91c.85-.74,1.77-1.4,2.65-2.1l1.32-1c.44-.33.93-.6,1.39-.9l2.79-1.74c.94-.55,1.93-1,2.88-1.47a45.65,45.65,0,0,1,5.83-2.41,23.65,23.65,0,0,1,3-.86c1-.25,1.95-.55,2.93-.74l2.93-.46,1.44-.23,1.45-.1,2.85-.17c.93-.07,1.87,0,2.79.05s1.83.06,2.72.12l2.65.36a49.1,49.1,0,0,1,17.81,6.19,46.74,46.74,0,0,1,11.16,8.88,26.21,26.21,0,0,1,1.86,2.06l1.49,1.93c.46.61.9,1.14,1.26,1.67l.91,1.47c.54.88.95,1.54,1.23,2S394.92,87.09,394.92,87.09Z" style="fill: rgb(38, 50, 56); transform-origin: 351.791px 111.135px;" id="eli95xvfu2yu" class="animable"></path><g id="elxjnic9grznr"><ellipse cx="371.04" cy="97.42" rx="18.68" ry="25.55" style="fill: rgb(255, 255, 255); transform-origin: 371.04px 97.42px; transform: rotate(-29.21deg);" class="animable"></ellipse></g><path d="M377,124.44c-8.78,0-18.51-6.31-24.34-16.73a34.33,34.33,0,0,1-4.51-20.61c.82-6.69,4-11.9,8.92-14.66s11-2.74,17.17.07a34.35,34.35,0,0,1,15.19,14.63c7.71,13.78,5.73,29.6-4.41,35.27A16.26,16.26,0,0,1,377,124.44Zm-11.87-53a15.38,15.38,0,0,0-7.57,1.92c-4.65,2.6-7.64,7.54-8.42,13.91a33.36,33.36,0,0,0,4.4,20c7.43,13.29,21.34,19.72,31,14.32s11.46-20.61,4-33.91a33.39,33.39,0,0,0-14.74-14.21A21,21,0,0,0,365.12,71.39Z" style="fill: rgb(38, 50, 56); transform-origin: 371.061px 97.4134px;" id="el56ifae2ncqk" class="animable"></path><path d="M366.06,91.52,375,107.46,372.28,109,365,96l-2.33,1.3-1.66-3Z" style="fill: rgb(38, 50, 56); transform-origin: 368.005px 100.26px;" id="elhxhqodp76mt" class="animable"></path><path d="M384,98.45l1.68,3-8.81,4.92L375.57,104l1.25-8.32a5.2,5.2,0,0,0-.43-3.62,2,2,0,0,0-3-.94,3.08,3.08,0,0,0-1.52,3L369,93.43a5.8,5.8,0,0,1,3-5.55c2.6-1.46,5.35-.6,7,2.29a8.46,8.46,0,0,1,.86,6.12l-.74,5Z" style="fill: rgb(38, 50, 56); transform-origin: 377.331px 96.7758px;" id="elinw5wf9mvxd" class="animable"></path><g id="elcnxmz7r0pg8"><g style="opacity: 0.3; transform-origin: 330.625px 88.4699px;" class="animable"><path d="M352.36,67.34c-.56-1-1.92-1-2.64-1-5.63-.41-18.69,1.51-30,12.51-4.69,5-5.47,5.71-9,14.06-1.21,2.89-2.78,8.57-2.26,11.65s2.41,6.1,5.54,6.09c2.82,0,5.17-2.34,6.27-4.94s1.3-5.47,1.86-8.23A31,31,0,0,1,341,75.13c3.7-1.44,7.79-2.22,10.88-4.72a2.35,2.35,0,0,0,1-1.35A2.33,2.33,0,0,0,352.36,67.34Z" style="fill: rgb(255, 255, 255); transform-origin: 330.625px 88.4699px;" id="elnbfeb802abl" class="animable"></path></g></g><g id="elq3bnhoe2dli"><g style="opacity: 0.3; transform-origin: 360.9px 141.774px;" class="animable"><path d="M391.84,130a3.34,3.34,0,0,1-.31.67c-.22.42-.51,1.08-1,1.86a40.3,40.3,0,0,1-4.52,6.29,42.7,42.7,0,0,1-46.68,12.22,39.55,39.55,0,0,1-7-3.27c-.8-.44-1.37-.87-1.78-1.13a3.43,3.43,0,0,1-.59-.43,4.34,4.34,0,0,1,.65.34c.42.23,1,.63,1.82,1a45,45,0,0,0,7,3.09,43.75,43.75,0,0,0,25,1,43.25,43.25,0,0,0,12.67-5.7,44.75,44.75,0,0,0,13.24-13.58c.5-.76.81-1.39,1.07-1.8A4,4,0,0,1,391.84,130Z" style="fill: rgb(255, 255, 255); transform-origin: 360.9px 141.774px;" id="elt8lms5i3vs8" class="animable"></path></g></g><g id="elx1dj9lz1dib"><g style="opacity: 0.3; transform-origin: 324.24px 142.521px;" class="animable"><path d="M323.31,141.43c.11-.09.61.32,1.13.92s.84,1.16.73,1.26-.61-.32-1.13-.92S323.2,141.52,323.31,141.43Z" style="fill: rgb(255, 255, 255); transform-origin: 324.24px 142.521px;" id="elis2nrfck24" class="animable"></path></g></g><g id="el0gsg86nsjmkd"><circle cx="69.72" cy="316.88" r="42.86" style="fill: rgb(69, 90, 100); transform-origin: 69.72px 316.88px; transform: rotate(-29.32deg);" class="animable"></circle></g><path d="M32.31,296s.11-.2.35-.6.6-1,1.06-1.74l.79-1.28c.32-.46.7-.93,1.1-1.45l1.29-1.68a21.66,21.66,0,0,1,1.62-1.79,40.53,40.53,0,0,1,9.69-7.73,42.88,42.88,0,0,1,15.48-5.38L66,274c.78-.06,1.57-.07,2.37-.1s1.61-.11,2.43,0l2.47.15,1.26.08,1.25.2,2.55.4c.85.17,1.69.43,2.55.64a23.53,23.53,0,0,1,2.57.75,40.67,40.67,0,0,1,5.06,2.1c.83.42,1.69.8,2.51,1.27L93.43,281c.4.26.82.5,1.21.79l1.15.89c.76.6,1.56,1.17,2.3,1.82a43.48,43.48,0,0,1,4.2,4.27,43.92,43.92,0,0,1,3.71,4.89c.56.88,1,1.8,1.57,2.71.24.46.54.9.75,1.38l.64,1.45a47.54,47.54,0,0,1,2.25,6c.25,1.06.49,2.11.74,3.18l.18.8.12.81.22,1.64.21,1.64.07,1.66.06,1.67,0,.84,0,.83-.21,3.37c-.18,1.12-.35,2.24-.53,3.36a42.75,42.75,0,0,1-13.28,23.75l-2.58,2.22-2.77,1.94-.69.48-.73.41-1.45.82-1.45.82-1.52.67-1.5.67-.76.33-.77.26-3.1,1a46.44,46.44,0,0,1-6.3,1.24l-1.57.21c-.52.07-1,.05-1.57.08-1,0-2.09.1-3.13.09a45.49,45.49,0,0,1-6.11-.6A46.34,46.34,0,0,1,56.94,358c-.94-.3-1.84-.68-2.76-1l-1.36-.51c-.44-.18-.86-.42-1.3-.63L49,354.62c-.82-.45-1.6-1-2.39-1.47a39,39,0,0,1-4.44-3.22,21.17,21.17,0,0,1-2-1.79c-.63-.62-1.3-1.2-1.88-1.84l-1.68-2-.82-1-.73-1-1.42-2c-.49-.66-.82-1.4-1.24-2.09s-.79-1.38-1.15-2.08-.63-1.42-.94-2.12a42.89,42.89,0,0,1-3.52-16,40.69,40.69,0,0,1,1.51-12.3,21.33,21.33,0,0,1,.68-2.32l.75-2c.24-.61.44-1.19.67-1.69l.67-1.35c.41-.79.72-1.39.93-1.81s.33-.62.33-.62-.08.22-.28.64l-.88,1.84c-.2.4-.41.85-.65,1.35s-.41,1.08-.64,1.69l-.73,2a20.64,20.64,0,0,0-.65,2.31A40.73,40.73,0,0,0,27.07,318a42.49,42.49,0,0,0,3.56,15.87l.94,2.1c.36.68.76,1.36,1.15,2.05s.75,1.41,1.23,2.06.94,1.34,1.41,2l.73,1,.82.95c.55.64,1.1,1.29,1.67,1.94s1.24,1.2,1.86,1.81a20.72,20.72,0,0,0,2,1.77,38.58,38.58,0,0,0,4.4,3.18c.79.47,1.55,1,2.37,1.45l2.54,1.25c.43.2.84.43,1.28.61l1.35.5c.91.33,1.8.7,2.73,1a45.38,45.38,0,0,0,5.78,1.32,44.6,44.6,0,0,0,6,.58c1,0,2.06-.07,3.09-.09.52,0,1,0,1.56-.09l1.55-.2a49,49,0,0,0,6.23-1.23l3-1,.77-.25.74-.33,1.49-.66,1.5-.67,1.43-.81,1.44-.81.72-.41.68-.47,2.73-1.92c.85-.72,1.7-1.46,2.55-2.19a45.53,45.53,0,0,0,8.48-10.66,45.85,45.85,0,0,0,4.64-12.81c.18-1.11.35-2.21.53-3.31s.13-2.23.2-3.33l0-.83,0-.83-.06-1.65-.07-1.64-.21-1.62-.21-1.62-.12-.8-.18-.79-.72-3.14a49,49,0,0,0-2.22-5.94l-.63-1.44c-.21-.47-.5-.91-.75-1.37-.52-.89-1-1.81-1.54-2.67a44.29,44.29,0,0,0-3.66-4.85,44.85,44.85,0,0,0-4.15-4.23c-.73-.64-1.52-1.2-2.27-1.8l-1.14-.89c-.38-.28-.8-.51-1.19-.77l-2.39-1.51c-.81-.47-1.66-.84-2.48-1.26a40,40,0,0,0-5-2.09,23,23,0,0,0-2.54-.75c-.85-.21-1.68-.47-2.52-.64l-2.52-.41-1.25-.2-1.24-.08-2.45-.15a24,24,0,0,0-2.4,0c-.8,0-1.58,0-2.36.1l-2.28.29a42.7,42.7,0,0,0-15.38,5.27,40.8,40.8,0,0,0-9.69,7.61A21.57,21.57,0,0,0,37,289.32L35.73,291c-.4.52-.79,1-1.11,1.43l-.81,1.27-1.1,1.71C32.46,295.77,32.31,296,32.31,296Z" style="fill: rgb(38, 50, 56); transform-origin: 69.7904px 316.917px;" id="eli8hflvcq1s" class="animable"></path><g id="el8cpdozhtosp"><ellipse cx="53.06" cy="304.94" rx="22.2" ry="16.23" style="fill: rgb(255, 255, 255); transform-origin: 53.06px 304.94px; transform: rotate(-60.79deg);" class="animable"></ellipse></g><path d="M47.89,328.48a14.25,14.25,0,0,1-7-1.77C32.06,321.77,30.33,308,37,296h0a29.88,29.88,0,0,1,13.22-12.74c5.35-2.45,10.67-2.47,15-.06S72.31,290.13,73,296a29.92,29.92,0,0,1-3.93,17.94C64,323,55.54,328.48,47.89,328.48Zm-10-32h0C31.47,308,33,321.16,41.38,325.84s20.4-.9,26.84-12.42A28.93,28.93,0,0,0,72,296.09c-.68-5.51-3.26-9.79-7.28-12s-9-2.21-14.07.1A28.87,28.87,0,0,0,37.91,296.47Z" style="fill: rgb(38, 50, 56); transform-origin: 53.0405px 304.944px;" id="el76ejf9dqy2q" class="animable"></path><path d="M49.67,306.71c-1.71,2.23-4.39,3.26-7,1.24a6.48,6.48,0,0,1-2.48-4l2.55-1.58a4.6,4.6,0,0,0,1.75,3.13,2,2,0,0,0,3-.32c.75-1,.78-2-.9-3.28l-2.35-1.8,5.9-6.73,5.62,4.3L53.93,300,50.09,297l-2,2.28.75.58C51.58,302,51.38,304.47,49.67,306.71Z" style="fill: rgb(38, 50, 56); transform-origin: 47.975px 301.202px;" id="eljhgdfsix96" class="animable"></path><path d="M56.15,314.17l-1.82,2.38-7-5.33,1.44-1.89,7.07-1.87a4.52,4.52,0,0,0,2.74-1.59,1.72,1.72,0,0,0-.28-2.69,2.65,2.65,0,0,0-2.87-.21l-.5-2.55a5,5,0,0,1,5.44.46c2.06,1.57,2.32,4.05.57,6.34A7.3,7.3,0,0,1,56.4,310l-4.21,1.12Z" style="fill: rgb(38, 50, 56); transform-origin: 54.7153px 308.187px;" id="elpvvsrextlwj" class="animable"></path><g id="el6ntbd76vz"><g style="opacity: 0.3; transform-origin: 88.1875px 297.129px;" class="animable"><path d="M69.29,278.81c.49-.88,1.67-.86,2.29-.91,4.9-.35,16.24,1.32,26.05,10.87,4.08,4.31,4.76,5,7.78,12.22,1,2.51,2.41,7.44,2,10.12s-2.1,5.3-4.82,5.29c-2.45,0-4.49-2-5.45-4.29S96,307.36,95.5,305a26.93,26.93,0,0,0-16.3-19.38c-3.21-1.26-6.76-1.93-9.45-4.11a2,2,0,0,1-.83-1.17A2,2,0,0,1,69.29,278.81Z" style="fill: rgb(255, 255, 255); transform-origin: 88.1875px 297.129px;" id="el8549so28swb" class="animable"></path></g></g><g id="elk2wb75u7xw"><g style="opacity: 0.3; transform-origin: 61.865px 343.514px;" class="animable"><path d="M35,333.28a2.62,2.62,0,0,1,.35.53c.23.35.5.91.94,1.56a38.55,38.55,0,0,0,4,5.34,38,38,0,0,0,7.48,6.44,36.37,36.37,0,0,0,23,6,38.76,38.76,0,0,0,15.81-4.63c.7-.36,1.21-.7,1.58-.9a2.81,2.81,0,0,1,.57-.29,4.14,4.14,0,0,1-.51.38c-.35.23-.85.6-1.54,1a35.12,35.12,0,0,1-6.1,2.85,37.77,37.77,0,0,1-9.77,2.08A37.08,37.08,0,0,1,40,341a35,35,0,0,1-3.92-5.47c-.41-.68-.66-1.25-.86-1.62A4,4,0,0,1,35,333.28Z" style="fill: rgb(255, 255, 255); transform-origin: 61.865px 343.514px;" id="el8bbju2fvab8" class="animable"></path></g></g><g id="el85nx64igucn"><g style="opacity: 0.3; transform-origin: 93.7247px 344.117px;" class="animable"><path d="M94.53,343.17c.1.1-.17.59-.61,1.12s-.9.87-1,.77.16-.59.61-1.11S94.42,343.08,94.53,343.17Z" style="fill: rgb(255, 255, 255); transform-origin: 93.7247px 344.117px;" id="el1os1upf6nx2" class="animable"></path></g></g></g><g id="freepik--bingo-card--inject-51" class="animable" style="transform-origin: 206.58px 227.185px;"><g id="elwot9ydtxn2l"><rect x="76.6" y="51.83" width="259.96" height="350.71" style="fill: rgb(0, 255, 136); transform-origin: 206.58px 227.185px; transform: rotate(-8.64deg);" class="animable"></rect></g><g id="elz5hm0vw328l"><g style="opacity: 0.2; transform-origin: 206.575px 230.195px;" class="animable"><polygon points="214.73 215.3 214.76 215.3 214.73 215.29 214.73 215.3" id="elg5v3053tl4a" class="animable" style="transform-origin: 214.745px 215.295px;"></polygon><polygon points="214.65 215.28 214.72 215.3 214.67 215.26 214.65 215.28" id="elmz479227bt" class="animable" style="transform-origin: 214.685px 215.28px;"></polygon><polygon points="214.57 215.22 214.51 215.26 214.64 215.28 214.57 215.22" id="elfrtobxab6am" class="animable" style="transform-origin: 214.575px 215.25px;"></polygon><polygon points="214.47 215.18 214.49 215.17 214.47 215.16 214.47 215.18" id="el0hde5lxk0f2p" class="animable" style="transform-origin: 214.48px 215.17px;"></polygon><polygon points="214.47 215.03 214.49 215.05 214.47 215.02 214.47 215.03" id="elpfwprkjk79" class="animable" style="transform-origin: 214.48px 215.035px;"></polygon><polygon points="214.7 215.24 214.72 215.25 214.72 215.22 214.7 215.24" id="ely68nxixxzlo" class="animable" style="transform-origin: 214.71px 215.235px;"></polygon><polygon points="214.09 214.99 214.36 215.23 214.41 215.21 214.42 215.14 214.09 214.99" id="el5ugzjek84uo" class="animable" style="transform-origin: 214.255px 215.11px;"></polygon><polygon points="214.42 215.21 214.47 215.19 214.44 215.15 214.42 215.21" id="elzsg6zpi678f" class="animable" style="transform-origin: 214.445px 215.18px;"></polygon><polygon points="214.7 215.19 214.66 215.2 214.68 215.22 214.7 215.19" id="elvc9t8hgsern" class="animable" style="transform-origin: 214.68px 215.205px;"></polygon><polygon points="214.64 215.25 214.65 215.27 214.66 215.25 214.64 215.25" id="elfucetbp76b" class="animable" style="transform-origin: 214.65px 215.26px;"></polygon><path d="M217.64,48.14l-1.3,67.33h.41l-2,98.69,29.41-94.23.21.07,24.78-79.68Z" id="eldar2bvflhil" class="animable" style="transform-origin: 241.95px 127.24px;"></path><path d="M322.48,124.73l-8.84-58.18-43.79,65.68.2.13L214.83,215Z" id="eltoixoxkpkwl" class="animable" style="transform-origin: 268.655px 140.775px;"></path><path d="M328.65,165.36,215.26,215.11l-.33-.06.16-.14-.27.12h0l.18-.51-.24.36V215l-.13.06,0-.09h-.08l0-.13-.1-.37v.45l0,0h0l-.18-.16.08.13-.32,0L56.91,72.55l-5.17.79L62.2,142.2l62.64,30h0l89,42.67-.37-.06.86.41h0l0,0v0h.07v0h0v0l.06,0,.07.07-.13,0,.06.07.06,0,0,0h.11v0l0,0h0l-.06,0,.35.23-.28-.25,89.56,42.91-.09.2,41.56,20-6.53-43-26.44-4.32,0,.17-98-15.92h0l0,0,0-.09.46-.05-.39.17.91-.12-.43-.07,118.62-15ZM214.36,215.23l-.27-.25.33.16v.07Zm.06,0,0-.06,0,0Zm.05,0v0h0Zm0-.15h0l0,0Zm.23.16,0,0,0,0Zm-.06.06h0Zm0,0,0,0,.05,0Zm0,0,0,0v0Zm.06.06h0Z" id="elsk97vwmfjb8" class="animable" style="transform-origin: 198.705px 175.5px;"></path><path d="M162.31,130.35h0l52.06,84.54L188.27,119h0L170.84,55.25l-50.11,7.61Z" id="elr1f0u9k1lt" class="animable" style="transform-origin: 167.55px 135.07px;"></path><path d="M361.41,381l-5.83-38.37L288.52,282l-.07.08-73.54-66.37,52,84.42-.18.11,53.49,87,30.87-4.69Z" id="elrxv3gku7ohc" class="animable" style="transform-origin: 288.16px 301.475px;"></path><polygon points="214.65 215.49 214.66 215.51 214.67 215.5 214.65 215.49" id="elsfaabqbc1t" class="animable" style="transform-origin: 214.66px 215.5px;"></polygon><polygon points="214.46 215.28 214.45 215.3 214.41 215.27 214.41 215.35 214.42 215.34 214.42 215.35 214.49 215.34 214.46 215.31 214.48 215.29 214.5 215.3 214.5 215.28 214.51 215.26 214.41 215.25 214.46 215.28" id="el9xrntgdetae" class="animable" style="transform-origin: 214.46px 215.3px;"></polygon><polygon points="213.96 215.41 214.37 215.35 214.4 215.26 214.38 215.24 213.96 215.41" id="elivapcu26f5q" class="animable" style="transform-origin: 214.18px 215.325px;"></polygon><path d="M152.86,267l61.23-51.35L123.4,255.41c-.05-.11-.1-.22-.14-.33l-41.18,18,7.15,47.1Z" id="ele23aw9onvst" class="animable" style="transform-origin: 148.085px 267.915px;"></path><path d="M76,232.73l39.87-5h0l98.52-12.47L69.72,191.75Z" id="elb1ru64qju1f" class="animable" style="transform-origin: 142.055px 212.24px;"></path><polygon points="114.09 418.6 152.77 412.72 214.18 215.97 99.47 387.63 104.4 420.07 114.09 418.6" id="el0yn02enju4v" class="animable" style="transform-origin: 156.825px 318.02px;"></polygon><polygon points="214.69 215.36 214.7 215.39 214.71 215.35 214.69 215.36" id="elf8a1go1kxrg" class="animable" style="transform-origin: 214.7px 215.37px;"></polygon><polygon points="214.7 216.04 210.88 403.9 263.72 395.87 214.7 216.04" id="el6onwft9lnq3" class="animable" style="transform-origin: 237.3px 309.97px;"></polygon><polygon points="214.39 216.38 214.61 215.69 214.54 215.43 214.41 215.63 214.39 216.38" id="el3on2jzjevjn" class="animable" style="transform-origin: 214.5px 215.905px;"></polygon><polygon points="214.66 215.37 214.68 215.38 214.67 215.37 214.66 215.37" id="elrg00s4eeuiq" class="animable" style="transform-origin: 214.67px 215.375px;"></polygon></g></g><path d="M125.75,133.62c1,6.88-4,11.78-14.73,13.4l-21.49,3.27-6-39.81,20.36-3.1c10.47-1.59,16.23,1.9,17.17,8a9.52,9.52,0,0,1-4,9.46C121.71,125.79,125,128.78,125.75,133.62Zm-29.89-16.7L97,124.59l7.73-1.17c3.76-.57,5.49-2.17,5.1-4.73s-2.51-3.52-6.26-3Zm18.32,17.17c-.41-2.73-2.66-3.73-6.53-3.14l-9.44,1.44,1.23,8.07,9.44-1.43C112.75,138.44,114.6,136.82,114.18,134.09Z" style="fill: rgb(255, 255, 255); transform-origin: 104.703px 128.643px;" id="elved6w65zu8" class="animable"></path><path d="M127.22,103.83l11.26-1.71,6.05,39.81-11.26,1.71Z" style="fill: rgb(255, 255, 255); transform-origin: 135.875px 122.88px;" id="eldlral9wx8d" class="animable"></path><path d="M184.38,95.15,190.43,135l-9.27,1.41-20.8-18.54L163.58,139l-11,1.68L146.5,100.9l9.27-1.4L176.57,118l-3.22-21.21Z" style="fill: rgb(255, 255, 255); transform-origin: 168.465px 117.915px;" id="el565j0z9j1pc" class="animable"></path><path d="M221.92,108.94l10-1.51,2.5,16.49a30.08,30.08,0,0,1-16,7.61c-12.68,1.92-23.25-5.26-25.1-17.37s6.13-22.11,19-24.07c7.45-1.14,13.87.51,18.51,4.63l-6.18,7.58a12.55,12.55,0,0,0-10.34-3c-6.83,1-10.7,6.22-9.65,13.1,1,6.71,6.28,10.68,13,9.66a14.49,14.49,0,0,0,5.88-2.23Z" style="fill: rgb(255, 255, 255); transform-origin: 213.737px 110.788px;" id="el41s0yhf7e2w" class="animable"></path><path d="M237.12,107.51c-1.81-12,6.24-22.13,19-24.07s23.46,5.4,25.27,17.34-6.24,22.13-19,24.07S238.94,119.45,237.12,107.51Zm32.87-5c-1-6.88-6.44-10.65-12.47-9.74s-10.07,6.13-9,13,6.44,10.66,12.47,9.74S271,109.39,270,102.51Z" style="fill: rgb(255, 255, 255); transform-origin: 259.255px 104.145px;" id="elt7zqpywdjs" class="animable"></path><g id="elwc5zjd3hi7"><rect x="103.78" y="151.5" width="216.42" height="222.67" style="fill: rgb(255, 255, 255); transform-origin: 211.99px 262.835px; transform: rotate(-8.64deg);" class="animable"></rect></g><path d="M335.69,356.67s-.09-.38-.22-1.07-.29-1.72-.52-3.07c-.43-2.69-1.07-6.68-1.91-11.87-1.63-10.35-4-25.53-7.05-44.82-6-38.47-14.46-93.38-24.66-159.18l1.06.77L88.47,170.07h0l.89-1.22L122.63,389l-1-.77L276.53,365.2l43.57-6.38,11.55-1.65,3-.4a7.66,7.66,0,0,1,1.05-.1s-.3.07-.94.19l-2.87.49-11.34,1.83L277.24,366,121.86,390.07l-.9.14-.14-.91c-9.74-63.82-21.27-139.39-33.59-220.13l-.16-1,1.06-.16h0l214-32.35.92-.14.14.92c9.84,66.1,18.05,121.26,23.81,159.9,2.81,19.25,5,34.37,6.54,44.7l1.67,11.72c.18,1.31.31,2.31.4,3A5.74,5.74,0,0,1,335.69,356.67Z" style="fill: rgb(38, 50, 56); transform-origin: 211.385px 262.865px;" id="elsz49xn9ltz" class="animable"></path><path d="M287.48,76.87l10.64-1.62,2.78,30.24-7.1,1.07Zm6,40.48a5.57,5.57,0,1,1,11-1.67c.5,3.28-1.38,6.32-4.59,6.81S294,120.63,293.45,117.35Z" style="fill: rgb(255, 255, 255); transform-origin: 296.02px 98.9023px;" id="elixg0mf7s8p" class="animable"></path><path d="M160.93,379.87a26.84,26.84,0,0,1,1,4.64l-.58.08c-2.4-12.81-9.34-56.38-17.2-108.11-4.74-31.18-8.91-59.43-11.82-79.89-1.46-10.23-2.6-18.51-3.34-24.25-.37-2.86-.64-5.09-.8-6.61a9.9,9.9,0,0,1-.14-2.32,9.06,9.06,0,0,1,.57,2.26c.29,1.49.7,3.7,1.19,6.55,1,5.69,2.37,13.94,4,24.14,3.3,20.41,7.7,48.62,12.44,79.8,7.86,51.73,14.15,95.39,15.67,108.35l-.58.08A27.1,27.1,0,0,1,160.93,379.87Z" style="fill: rgb(38, 50, 56); transform-origin: 144.982px 274px;" id="elutbj1g1y8id" class="animable"></path><path d="M206.08,373a27.69,27.69,0,0,1,1,4.64l-.57.09c-2.4-12.82-9.35-56.38-17.21-108.11-4.73-31.19-8.9-59.44-11.81-79.9-1.46-10.23-2.6-18.51-3.34-24.24-.37-2.87-.64-5.1-.8-6.61a10,10,0,0,1-.14-2.33,10.07,10.07,0,0,1,.56,2.26c.3,1.5.7,3.7,1.2,6.55,1,5.7,2.36,13.95,4,24.15,3.29,20.4,7.7,48.61,12.44,79.8,7.85,51.73,14.15,95.39,15.66,108.34l-.57.09A26,26,0,0,1,206.08,373Z" style="fill: rgb(38, 50, 56); transform-origin: 190.137px 267.135px;" id="elortkziywtc" class="animable"></path><path d="M251.22,366.16a26.18,26.18,0,0,1,1,4.63l-.57.09c-2.4-12.82-9.35-56.38-17.21-108.11-4.73-31.19-8.9-59.43-11.82-79.89-1.45-10.23-2.59-18.52-3.34-24.25-.37-2.87-.64-5.09-.8-6.61a8.94,8.94,0,0,1-.13-2.33,10.08,10.08,0,0,1,.56,2.27c.3,1.49.7,3.7,1.2,6.54,1,5.7,2.36,13.95,4,24.15,3.29,20.4,7.7,48.61,12.43,79.8,7.86,51.73,14.16,95.39,15.67,108.34l-.57.09A26.81,26.81,0,0,1,251.22,366.16Z" style="fill: rgb(38, 50, 56); transform-origin: 235.272px 260.285px;" id="el84cjec6tha6" class="animable"></path><path d="M296.37,359.3a26.5,26.5,0,0,1,1,4.63l-.58.09c-2.4-12.81-9.35-56.38-17.2-108.11-4.74-31.18-8.91-59.43-11.82-79.89-1.46-10.23-2.6-18.52-3.34-24.25-.37-2.86-.64-5.09-.8-6.61a9.9,9.9,0,0,1-.14-2.32,9.06,9.06,0,0,1,.57,2.26c.29,1.49.7,3.7,1.19,6.55,1,5.69,2.37,13.94,4,24.14,3.3,20.41,7.7,48.62,12.44,79.8,7.86,51.73,14.15,95.39,15.67,108.34l-.58.09A27.16,27.16,0,0,1,296.37,359.3Z" style="fill: rgb(38, 50, 56); transform-origin: 280.422px 253.43px;" id="elfmqw5w0py0i" class="animable"></path><path d="M324.87,315.92a24.8,24.8,0,0,1,4.48-1l.09.57c-12.4,2.33-54.55,9.07-104.6,16.67-30.17,4.58-57.5,8.61-77.3,11.43-9.9,1.4-17.91,2.5-23.46,3.22-2.77.35-4.93.61-6.4.76a8.9,8.9,0,0,1-2.25.13,9.14,9.14,0,0,1,2.19-.55c1.44-.29,3.58-.68,6.33-1.17,5.51-1,13.49-2.29,23.36-3.89,19.74-3.19,47-7.46,77.21-12,50-7.6,92.3-13.69,104.83-15.13l.09.57A25,25,0,0,1,324.87,315.92Z" style="fill: rgb(38, 50, 56); transform-origin: 222.435px 331.321px;" id="elgjbh7zimxl5" class="animable"></path><path d="M318,270.77a25.11,25.11,0,0,1,4.48-1l.09.57C310.18,272.71,268,279.44,218,287c-30.18,4.59-57.51,8.62-77.31,11.43-9.9,1.4-17.91,2.51-23.46,3.22-2.77.36-4.93.61-6.39.77a9.11,9.11,0,0,1-2.25.12,8.94,8.94,0,0,1,2.18-.55c1.45-.29,3.58-.68,6.34-1.16,5.51-1,13.49-2.3,23.36-3.89,19.74-3.2,47-7.46,77.2-12.05,50.06-7.6,92.3-13.68,104.83-15.13l.09.57A25,25,0,0,1,318,270.77Z" style="fill: rgb(38, 50, 56); transform-origin: 215.59px 286.161px;" id="eltp2e8q70ipm" class="animable"></path><path d="M311.15,225.63a25.52,25.52,0,0,1,4.49-1l.08.57c-12.39,2.34-54.54,9.08-104.59,16.68-30.17,4.58-57.5,8.61-77.3,11.42-9.9,1.41-17.92,2.51-23.46,3.22-2.78.36-4.93.62-6.4.77a8.52,8.52,0,0,1-2.25.12,8.92,8.92,0,0,1,2.19-.54c1.44-.29,3.58-.69,6.33-1.17,5.51-1,13.49-2.29,23.36-3.89,19.74-3.19,47-7.46,77.21-12,50.05-7.61,92.3-13.69,104.83-15.14l.08.58A25,25,0,0,1,311.15,225.63Z" style="fill: rgb(38, 50, 56); transform-origin: 208.72px 241.033px;" id="el67o0ukicm0a" class="animable"></path><path d="M304.3,180.48a24.8,24.8,0,0,1,4.48-1l.09.57c-12.4,2.34-54.55,9.07-104.6,16.67-30.17,4.58-57.5,8.61-77.3,11.43-9.9,1.4-17.91,2.5-23.46,3.22-2.78.35-4.93.61-6.4.76a8.9,8.9,0,0,1-2.25.13,9.14,9.14,0,0,1,2.19-.55c1.44-.29,3.58-.68,6.33-1.17,5.51-1,13.49-2.29,23.36-3.89,19.74-3.19,47-7.46,77.21-12C254,187,296.25,181,308.78,179.51l.09.57A25,25,0,0,1,304.3,180.48Z" style="fill: rgb(38, 50, 56); transform-origin: 201.865px 195.881px;" id="elpu6340c3prk" class="animable"></path><path d="M110.39,180.84l2.48,16.35-3.79.58-2-13.32-3.27.5-.46-3Z" style="fill: rgb(38, 50, 56); transform-origin: 108.11px 189.305px;" id="elivh1ffhbyq" class="animable"></path><path d="M119.54,179.45,122,195.8l-3.78.58-2-13.31-3.27.49-.46-3Z" style="fill: rgb(38, 50, 56); transform-origin: 117.245px 187.915px;" id="elkonom4jbeok" class="animable"></path><path d="M154.37,187.73l.47,3.09-12.35,1.87-.38-2.45,5.4-6.91c1.24-1.6,1.37-2.48,1.25-3.27-.19-1.29-1.19-1.9-2.92-1.64a4.07,4.07,0,0,0-3.14,2.15l-3-1.35a7.69,7.69,0,0,1,6-4c3.64-.55,6.35.95,6.8,3.91.24,1.59,0,3.11-1.95,5.58l-3.22,4.12Z" style="fill: rgb(38, 50, 56); transform-origin: 147.27px 183.899px;" id="elm94p56i4dhj" class="animable"></path><path d="M155.11,182.41c-.82-5.39,1.71-8.9,5.72-9.51s7.47,2,8.29,7.38-1.68,8.91-5.72,9.52S155.93,187.81,155.11,182.41Zm10.21-1.55c-.57-3.71-2.11-5.05-4-4.77s-2.94,2-2.38,5.74,2.11,5.06,4,4.77S165.88,184.58,165.32,180.86Z" style="fill: rgb(38, 50, 56); transform-origin: 162.116px 181.35px;" id="eld77zib17cue" class="animable"></path><path d="M199.45,178.93c.42,2.75-1.32,5.6-6,6.3a11.34,11.34,0,0,1-6.5-.8l1-3.12a8,8,0,0,0,4.89.76c1.9-.28,2.95-1.23,2.74-2.56s-1.21-1.87-3.36-1.55l-1.73.27-.38-2.5,2.79-4.32-7,1.06-.46-3L197,167.69l.37,2.45-3,4.77C197.31,174.93,199.09,176.52,199.45,178.93Z" style="fill: rgb(38, 50, 56); transform-origin: 192.475px 176.542px;" id="el5c31r6z1ubb" class="animable"></path><path d="M216.4,178l-2.66.41.52,3.43-3.69.56-.52-3.43-8.8,1.34-.39-2.55L207,166.17l4-.6-5.65,10.92,4.39-.67-.46-3.06,3.57-.54.46,3.06,2.67-.41Z" style="fill: rgb(38, 50, 56); transform-origin: 208.63px 173.985px;" id="eld0qxm033jjv" class="animable"></path><path d="M244.48,160.48l.37,2.45-4,14.82-4.11.62,3.84-14.15-5.41.82.4,2.66-3.36.51-.87-5.74Z" style="fill: rgb(38, 50, 56); transform-origin: 238.095px 169.425px;" id="eldgwn15jifsm" class="animable"></path><path d="M252.69,159.23l2.48,16.35-3.78.57-2-13.31-3.27.5-.46-3Z" style="fill: rgb(38, 50, 56); transform-origin: 250.415px 167.69px;" id="el3xf5jdmk9s2" class="animable"></path><path d="M279.57,155.15l2.48,16.35-3.78.57-2-13.31-3.26.5-.47-3Z" style="fill: rgb(38, 50, 56); transform-origin: 277.295px 163.61px;" id="elwjlwp8lhnih" class="animable"></path><path d="M283.65,162.89c-.81-5.39,1.71-8.91,5.73-9.52s7.47,2,8.29,7.39-1.69,8.91-5.73,9.52S284.47,168.28,283.65,162.89Zm10.21-1.55c-.56-3.71-2.11-5.06-4-4.77s-2.94,2-2.38,5.74,2.11,5.05,4,4.77S294.42,165.05,293.86,161.34Z" style="fill: rgb(38, 50, 56); transform-origin: 290.662px 161.825px;" id="elbzt3x3okbrb" class="animable"></path><path d="M119.88,234.87c.5,3.33-1.91,5.85-5.36,6.38-4.51.68-7.74-1.72-8.54-7-.86-5.65,2.07-9.32,7-10.07a9,9,0,0,1,4.73.43l-1,3a5.49,5.49,0,0,0-3.18-.36c-2.74.42-4.24,2.29-3.88,5.44a5.58,5.58,0,0,1,3.82-2.06C116.63,230.15,119.41,231.78,119.88,234.87Zm-3.64.74a2.49,2.49,0,0,0-3.15-2,2.59,2.59,0,0,0-2.46,2.88c.22,1.4,1.42,2.27,3.25,2A2.47,2.47,0,0,0,116.24,235.61Z" style="fill: rgb(38, 50, 56); transform-origin: 112.888px 232.702px;" id="elmcs306fyyw" class="animable"></path><path d="M133.78,234.88l.47,3.08-12.36,1.88-.37-2.45,5.4-6.91c1.24-1.6,1.37-2.48,1.25-3.28-.2-1.28-1.2-1.89-2.92-1.63a4,4,0,0,0-3.14,2.15l-3-1.36a7.7,7.7,0,0,1,6-4c3.65-.55,6.36.95,6.81,3.91.24,1.59,0,3.11-1.95,5.58L126.75,236Z" style="fill: rgb(38, 50, 56); transform-origin: 126.68px 231.044px;" id="el2h5ohtfeuof" class="animable"></path><path d="M155.58,218l2.48,16.35-3.78.57-2-13.31-3.27.5-.46-3Z" style="fill: rgb(38, 50, 56); transform-origin: 153.305px 226.46px;" id="eli2jnj7wvu2l" class="animable"></path><path d="M173.62,226.7c.51,3.34-1.9,5.86-5.36,6.38-4.51.69-7.74-1.71-8.54-7-.86-5.65,2.07-9.32,7-10.07a8.93,8.93,0,0,1,4.72.43l-1,3a5.44,5.44,0,0,0-3.19-.35c-2.73.41-4.24,2.29-3.88,5.44a5.56,5.56,0,0,1,3.82-2.06C170.37,222,173.15,223.62,173.62,226.7Zm-3.64.75c-.22-1.5-1.47-2.29-3.15-2a2.58,2.58,0,0,0-2.45,2.88c.21,1.4,1.42,2.27,3.24,2A2.47,2.47,0,0,0,170,227.45Z" style="fill: rgb(38, 50, 56); transform-origin: 166.63px 224.533px;" id="elr9g79ycvrv" class="animable"></path><path d="M206.24,221.77c.44,2.9-1.3,5.74-6,6.45a11.38,11.38,0,0,1-6.5-.8l1.06-3.13a7.88,7.88,0,0,0,4.86.77c1.9-.29,2.94-1.26,2.74-2.59s-1.16-2-4.13-1.55l-4.18.64-.55-9.33,10-1.51.46,3-6.82,1,.21,3.14,1.34-.2C203.56,217,205.8,218.88,206.24,221.77Z" style="fill: rgb(38, 50, 56); transform-origin: 199.923px 219.551px;" id="elcg3wmsk6iwo" class="animable"></path><path d="M219.76,219.86c.42,2.76-1.32,5.6-6,6.31a11.34,11.34,0,0,1-6.5-.81l1-3.12a8,8,0,0,0,4.89.77c1.89-.29,2.94-1.24,2.74-2.57s-1.21-1.87-3.36-1.54l-1.73.26-.38-2.5,2.79-4.32-7,1.06-.46-3,11.44-1.73.37,2.45-3,4.76C217.62,215.86,219.39,217.46,219.76,219.86Z" style="fill: rgb(38, 50, 56); transform-origin: 212.785px 217.501px;" id="elorlk3vfanu" class="animable"></path><path d="M259.6,215.41l-2.67.41.52,3.43-3.68.56-.53-3.43-8.8,1.33-.39-2.54,6.14-11.54,4-.6-5.65,10.91,4.39-.66-.46-3.06,3.57-.54.47,3,2.66-.4Z" style="fill: rgb(38, 50, 56); transform-origin: 251.825px 211.42px;" id="el4xcn753sppu" class="animable"></path><path d="M286.1,198.18l2.48,16.34-3.78.58-2-13.32-3.27.5-.46-3Z" style="fill: rgb(38, 50, 56); transform-origin: 283.825px 206.64px;" id="elyom90puruqm" class="animable"></path><path d="M304.4,207.27c.46,3.08-2,5.44-6.15,6.07s-7.16-.89-7.63-4a4.2,4.2,0,0,1,1.89-4.23,3.8,3.8,0,0,1-2.4-3.07c-.44-2.87,1.85-5.06,5.57-5.63s6.6.84,7,3.71a3.86,3.86,0,0,1-1.41,3.66A4.19,4.19,0,0,1,304.4,207.27Zm-10.51-5.62c.19,1.24,1.29,1.86,2.83,1.63s2.45-1.17,2.26-2.4-1.34-1.9-2.88-1.67S293.69,200.37,293.89,201.65Zm6.66,6.09c-.22-1.45-1.55-2.16-3.44-1.87s-2.9,1.35-2.68,2.79,1.53,2.19,3.39,1.9S300.77,209.18,300.55,207.74Z" style="fill: rgb(38, 50, 56); transform-origin: 297.256px 204.883px;" id="elxqcg37rui3" class="animable"></path><path d="M125.76,281.46c.46,3.08-2,5.44-6.15,6.07s-7.16-.9-7.63-4a4.19,4.19,0,0,1,1.89-4.23,3.8,3.8,0,0,1-2.4-3.07c-.44-2.88,1.86-5.07,5.57-5.63s6.6.84,7,3.71a3.85,3.85,0,0,1-1.41,3.65A4.22,4.22,0,0,1,125.76,281.46Zm-10.51-5.62c.19,1.24,1.29,1.86,2.83,1.62s2.45-1.16,2.26-2.4-1.34-1.89-2.88-1.66S115.06,274.55,115.25,275.84Zm6.66,6.08c-.22-1.45-1.55-2.15-3.44-1.86s-2.9,1.34-2.68,2.79,1.53,2.18,3.39,1.9S122.13,283.37,121.91,281.92Z" style="fill: rgb(38, 50, 56); transform-origin: 118.616px 279.074px;" id="elcso8tylh819" class="animable"></path><path d="M139.94,281l.47,3.08L128.06,286l-.37-2.45,5.4-6.92c1.24-1.6,1.37-2.47,1.25-3.27-.2-1.28-1.2-1.89-2.93-1.63a4,4,0,0,0-3.14,2.15l-3-1.36a7.65,7.65,0,0,1,6-4c3.64-.56,6.35.94,6.8,3.91.25,1.59,0,3.1-1.94,5.58l-3.22,4.12Z" style="fill: rgb(38, 50, 56); transform-origin: 132.84px 277.202px;" id="el69hvqgjzb73" class="animable"></path><path d="M170.32,274.28c.44,2.9-1.31,5.74-6,6.45a11.38,11.38,0,0,1-6.5-.8l1.06-3.12a8,8,0,0,0,4.87.76c1.89-.29,2.94-1.26,2.73-2.59s-1.16-2-4.13-1.54l-4.18.63-.55-9.33,10-1.51.46,3-6.82,1,.22,3.14,1.33-.2C167.63,269.51,169.88,271.39,170.32,274.28Z" style="fill: rgb(38, 50, 56); transform-origin: 164.003px 272.061px;" id="el6dgz3gqv65t" class="animable"></path><path d="M184.09,272.19c.44,2.9-1.3,5.74-6,6.45a11.35,11.35,0,0,1-6.5-.8l1-3.13a7.93,7.93,0,0,0,4.87.77c1.89-.29,2.94-1.26,2.74-2.59s-1.17-2-4.13-1.55L172,272l-.56-9.33,10-1.51.46,3-6.82,1,.22,3.14,1.33-.2C181.4,267.41,183.65,269.3,184.09,272.19Z" style="fill: rgb(38, 50, 56); transform-origin: 177.798px 269.982px;" id="el3gb4bq0v95c" class="animable"></path><path d="M253.3,250.21l2.48,16.35-3.78.57-2-13.31-3.27.5-.46-3Z" style="fill: rgb(38, 50, 56); transform-origin: 251.025px 258.67px;" id="ell4u29flh2s" class="animable"></path><path d="M270.37,261.19l.47,3.08-12.35,1.88-.37-2.45,5.4-6.92c1.24-1.6,1.37-2.47,1.24-3.27-.19-1.28-1.19-1.9-2.92-1.63A4,4,0,0,0,258.7,254l-3-1.36a7.65,7.65,0,0,1,6-4c3.64-.56,6.35.94,6.8,3.91.25,1.59,0,3.1-1.94,5.58l-3.22,4.12Z" style="fill: rgb(38, 50, 56); transform-origin: 263.27px 257.337px;" id="elitw8wozxbk" class="animable"></path><path d="M306.63,250.11c.86,5.65-2.05,9.32-7,10.07a8.76,8.76,0,0,1-4.7-.43l1-3a5.36,5.36,0,0,0,3.18.35c2.71-.41,4.24-2.29,3.88-5.46a5.67,5.67,0,0,1-3.84,2.09c-3.15.48-5.93-1.16-6.4-4.24-.51-3.34,1.9-5.86,5.36-6.38C302.62,242.43,305.83,244.83,306.63,250.11Zm-4.66-2.2c-.21-1.41-1.42-2.27-3.22-2a2.47,2.47,0,0,0-2.36,2.84c.23,1.5,1.47,2.29,3.15,2A2.56,2.56,0,0,0,302,247.91Z" style="fill: rgb(38, 50, 56); transform-origin: 299.731px 251.661px;" id="eleaolmatsl4t" class="animable"></path><path d="M131.26,321.91c.85,5.65-2,9.32-7,10.07a8.86,8.86,0,0,1-4.7-.43l1-3a5.32,5.32,0,0,0,3.19.36c2.71-.41,4.24-2.3,3.87-5.47a5.61,5.61,0,0,1-3.84,2.09c-3.15.48-5.93-1.15-6.4-4.23-.5-3.34,1.91-5.86,5.36-6.39C127.25,314.23,130.45,316.63,131.26,321.91Zm-4.66-2.21c-.22-1.4-1.42-2.27-3.22-2a2.48,2.48,0,0,0-2.37,2.84c.23,1.49,1.47,2.28,3.16,2A2.57,2.57,0,0,0,126.6,319.7Z" style="fill: rgb(38, 50, 56); transform-origin: 124.362px 323.459px;" id="el9hl4187imv6" class="animable"></path><path d="M133.13,322c-.82-5.39,1.7-8.91,5.72-9.52s7.47,2,8.29,7.39-1.69,8.91-5.73,9.52S133.94,327.38,133.13,322Zm10.2-1.55c-.56-3.71-2.1-5.05-4-4.77s-2.94,2-2.37,5.74,2.1,5.06,4,4.77S143.89,324.15,143.33,320.43Z" style="fill: rgb(38, 50, 56); transform-origin: 140.135px 320.935px;" id="el85n3g2xrak7" class="animable"></path><path d="M175.41,318.81c.41,2.75-1.33,5.6-6,6.31a11.44,11.44,0,0,1-6.5-.81l1-3.12a8,8,0,0,0,4.9.76c1.89-.28,2.94-1.23,2.74-2.56s-1.22-1.87-3.37-1.55l-1.72.27-.38-2.5,2.78-4.32-7,1.06-.46-3,11.44-1.74.38,2.46-3.05,4.76C173.27,314.81,175,316.4,175.41,318.81Z" style="fill: rgb(38, 50, 56); transform-origin: 168.434px 316.444px;" id="elzbssbsbags" class="animable"></path><path d="M188,305.28l.37,2.45-4,14.82-4.11.63L184.16,309l-5.41.82.4,2.67-3.36.51-.87-5.75Z" style="fill: rgb(38, 50, 56); transform-origin: 181.645px 314.23px;" id="el88gcby1lx17" class="animable"></path><path d="M222.81,313.21l-2.66.41.52,3.43-3.69.56-.52-3.43-8.81,1.33-.38-2.54,6.13-11.54,4-.6-5.66,10.91,4.4-.66-.47-3.06,3.57-.55.47,3.06,2.66-.4Z" style="fill: rgb(38, 50, 56); transform-origin: 215.04px 309.22px;" id="eli88fvx3an9t" class="animable"></path><path d="M236.14,311.54l.47,3.09-12.35,1.87-.37-2.45,5.4-6.91c1.24-1.6,1.36-2.48,1.24-3.27-.19-1.29-1.19-1.9-2.92-1.64a4.07,4.07,0,0,0-3.14,2.15l-3-1.35a7.69,7.69,0,0,1,6-4c3.64-.55,6.35.95,6.8,3.92.24,1.58,0,3.1-1.94,5.57l-3.23,4.12Z" style="fill: rgb(38, 50, 56); transform-origin: 229.04px 307.709px;" id="elrb4yz48j4xr" class="animable"></path><path d="M269.42,294.73l.37,2.45-4,14.82-4.11.62,3.85-14.15-5.42.82.41,2.66-3.37.52-.87-5.75Z" style="fill: rgb(38, 50, 56); transform-origin: 263.035px 303.675px;" id="elg4l51akb5pd" class="animable"></path><path d="M305.86,301l.47,3.08L294,305.91l-.38-2.45,5.4-6.91c1.24-1.6,1.37-2.48,1.25-3.27-.19-1.29-1.19-1.9-2.92-1.64a4.07,4.07,0,0,0-3.14,2.15l-3-1.35a7.7,7.7,0,0,1,6-4c3.65-.55,6.36.95,6.81,3.92.24,1.58,0,3.1-1.95,5.57L298.83,302Z" style="fill: rgb(38, 50, 56); transform-origin: 298.77px 297.119px;" id="elas42ld7sn96" class="animable"></path><path d="M322.1,298.13l-2.66.4L320,302l-3.69.56-.52-3.44-8.8,1.34-.39-2.54,6.13-11.54,4-.6L311,296.66l4.39-.67-.46-3.06,3.57-.54.46,3.06,2.67-.4Z" style="fill: rgb(38, 50, 56); transform-origin: 314.35px 294.17px;" id="el4kd9aa3a5rc" class="animable"></path><path d="M145.51,365.78c.44,2.89-1.3,5.74-6,6.45a11.45,11.45,0,0,1-6.5-.81l1.05-3.12a7.93,7.93,0,0,0,4.87.77c1.89-.29,2.94-1.26,2.74-2.59s-1.16-2-4.13-1.55l-4.18.64-.56-9.33,10-1.52.47,3-6.82,1,.21,3.15,1.33-.2C142.83,361,145.07,362.88,145.51,365.78Z" style="fill: rgb(38, 50, 56); transform-origin: 139.188px 363.554px;" id="el2bb4o7w66dd" class="animable"></path><path d="M183.62,361.73l-2.66.41.52,3.43-3.69.56-.52-3.43L168.46,364l-.38-2.55L174.21,350l4-.6-5.66,10.92,4.39-.67-.46-3.06L180,356l.47,3.06,2.66-.41Z" style="fill: rgb(38, 50, 56); transform-origin: 175.85px 357.765px;" id="el8gdg4cpsf3" class="animable"></path><path d="M198,357.79c.51,3.34-1.91,5.85-5.36,6.38-4.51.68-7.74-1.72-8.54-7-.86-5.66,2.07-9.33,7-10.07a9,9,0,0,1,4.72.42l-1,3a5.48,5.48,0,0,0-3.18-.36c-2.73.42-4.24,2.3-3.88,5.44a5.58,5.58,0,0,1,3.82-2.06C194.72,353.07,197.5,354.71,198,357.79Zm-3.64.74c-.23-1.49-1.47-2.28-3.15-2a2.58,2.58,0,0,0-2.45,2.88c.21,1.4,1.42,2.27,3.24,2A2.47,2.47,0,0,0,194.33,358.53Z" style="fill: rgb(38, 50, 56); transform-origin: 191.009px 355.621px;" id="elwgrb5z64n6" class="animable"></path><path d="M220.67,344.71l2.48,16.35-3.78.57-2-13.31-3.27.5-.46-3Z" style="fill: rgb(38, 50, 56); transform-origin: 218.395px 353.17px;" id="elh992mkpbnri" class="animable"></path><path d="M237.57,353.61c.44,2.9-1.3,5.74-6,6.45a11.4,11.4,0,0,1-6.51-.81l1.06-3.12a7.92,7.92,0,0,0,4.87.77c1.89-.29,2.94-1.26,2.74-2.59s-1.17-2-4.13-1.55l-4.18.64-.56-9.33,10-1.52.46,3-6.82,1,.22,3.15,1.33-.2C234.88,348.83,237.13,350.71,237.57,353.61Z" style="fill: rgb(38, 50, 56); transform-origin: 231.248px 351.385px;" id="elu8srl5d24r" class="animable"></path><path d="M278.26,349.53l.46,3.08-12.35,1.88L266,352l5.4-6.91c1.24-1.6,1.37-2.48,1.25-3.28-.2-1.28-1.2-1.89-2.93-1.63a4,4,0,0,0-3.14,2.15l-3-1.36a7.7,7.7,0,0,1,6-4c3.64-.55,6.35.95,6.81,3.91.24,1.59,0,3.11-1.95,5.58l-3.22,4.12Z" style="fill: rgb(38, 50, 56); transform-origin: 271.15px 345.674px;" id="elfhzez1q3pb8" class="animable"></path><path d="M312.2,337c.85,5.65-2.05,9.32-7,10.07a8.9,8.9,0,0,1-4.71-.43l1-3a5.32,5.32,0,0,0,3.19.36c2.71-.41,4.24-2.29,3.87-5.47a5.61,5.61,0,0,1-3.84,2.09c-3.15.48-5.93-1.15-6.4-4.23-.5-3.34,1.91-5.86,5.36-6.38C308.19,329.32,311.39,331.72,312.2,337Zm-4.66-2.21c-.22-1.4-1.42-2.27-3.22-2a2.48,2.48,0,0,0-2.37,2.84c.23,1.5,1.47,2.29,3.16,2A2.57,2.57,0,0,0,307.54,334.79Z" style="fill: rgb(38, 50, 56); transform-origin: 305.296px 338.552px;" id="elwtnwc18951" class="animable"></path><path d="M329.75,339.54l-2.66.4.52,3.44-3.69.56-.52-3.43-8.8,1.33-.39-2.54,6.13-11.54,4-.6-5.65,10.91,4.39-.67-.46-3,3.57-.55.46,3.06,2.67-.4Z" style="fill: rgb(38, 50, 56); transform-origin: 321.98px 335.55px;" id="elolp32wlzwlq" class="animable"></path><path d="M214.11,281.05a17.18,17.18,0,0,1-16.92-14.58,17.14,17.14,0,1,1,33.9-5.15h0a17.15,17.15,0,0,1-14.37,19.53A17.85,17.85,0,0,1,214.11,281.05Zm.07-33.3a15.68,15.68,0,0,0-2.46.19,16.14,16.14,0,1,0,18.38,13.53h0a16.16,16.16,0,0,0-15.92-13.72Z" style="fill: rgb(0, 255, 136); transform-origin: 214.14px 263.897px;" id="elxt0n3cus3s9" class="animable"></path><path d="M213.14,252.58l3.64,5.21a.8.8,0,0,0,.65.34l6.36,0a.79.79,0,0,1,.64,1.27l-3.84,5.07a.83.83,0,0,0-.12.73l2,6a.8.8,0,0,1-1,1l-6-2.08a.79.79,0,0,0-.73.11L209.61,274a.79.79,0,0,1-1.26-.65l.12-6.36a.81.81,0,0,0-.33-.66l-5.17-3.7a.8.8,0,0,1,.23-1.41l6.09-1.84a.79.79,0,0,0,.52-.52l1.93-6.06A.79.79,0,0,1,213.14,252.58Z" style="fill: rgb(0, 255, 136); transform-origin: 213.617px 263.2px;" id="elwq3tevodfy" class="animable"></path><g id="el8vh7f5prs88"><circle cx="260.39" cy="104.12" r="25.89" style="fill: rgb(69, 90, 100); transform-origin: 260.39px 104.12px; transform: rotate(-76.43deg);" class="animable"></circle></g><path d="M286.27,103.5a2.26,2.26,0,0,1-.06-.41l-.12-1.23c0-.27,0-.57-.08-.9s-.12-.69-.19-1.08a20.72,20.72,0,0,0-.61-2.65,25,25,0,0,0-3-6.78,25.67,25.67,0,0,0-31.09-10.2,26.84,26.84,0,0,0-3.31,1.55,28.62,28.62,0,0,0-3.1,2.1,29.47,29.47,0,0,0-2.84,2.54,29.93,29.93,0,0,0-2.44,3,24.63,24.63,0,0,0-3.49,7.15,25.43,25.43,0,0,0,.38,16.17,25,25,0,0,0,3.83,7,28.81,28.81,0,0,0,2.58,2.91,29.25,29.25,0,0,0,3,2.41,26.88,26.88,0,0,0,3.19,1.94,26.43,26.43,0,0,0,3.38,1.39,25.8,25.8,0,0,0,13.5.81,25.9,25.9,0,0,0,17.07-12.49,24.85,24.85,0,0,0,2.71-6.91,18.91,18.91,0,0,0,.48-2.68c.05-.39.11-.75.14-1.08s0-.63,0-.91c0-.52,0-.92.06-1.23a1.8,1.8,0,0,1,0-.42s0,.15,0,.42,0,.71,0,1.24c0,.27,0,.57,0,.91s-.07.69-.12,1.09a18.43,18.43,0,0,1-.43,2.7,24.71,24.71,0,0,1-2.66,7,26,26,0,0,1-31,12,29.07,29.07,0,0,1-3.45-1.41,26.73,26.73,0,0,1-3.26-2,29,29,0,0,1-3-2.44,27.71,27.71,0,0,1-2.64-3,25.36,25.36,0,0,1-3.92-7.11,25.95,25.95,0,0,1-.39-16.49A25.24,25.24,0,0,1,239,89.18a29.77,29.77,0,0,1,2.49-3.09,28.26,28.26,0,0,1,2.91-2.58,26.1,26.1,0,0,1,3.16-2.13,27,27,0,0,1,3.37-1.57,26.14,26.14,0,0,1,13.69-1.43A26,26,0,0,1,282.41,90.3a24.4,24.4,0,0,1,3,6.88,18.85,18.85,0,0,1,.57,2.68c.06.39.13.75.17,1.08s0,.64.05.91c0,.52.05.93.07,1.23S286.27,103.5,286.27,103.5Z" style="fill: rgb(38, 50, 56); transform-origin: 260.256px 104.125px;" id="el5ex7ifpgop2" class="animable"></path><g id="el0qi45v3jlrmp"><circle cx="268.68" cy="102.54" r="13.41" style="fill: rgb(255, 255, 255); transform-origin: 268.68px 102.54px; transform: rotate(-34.34deg);" class="animable"></circle></g><path d="M268.67,117.8a14.85,14.85,0,1,1,.38,0Zm0-29.52h-.35a14.25,14.25,0,1,0,14.6,13.91h0A14.29,14.29,0,0,0,268.69,88.28Z" style="fill: rgb(38, 50, 56); transform-origin: 268.86px 102.951px;" id="elvt7zr66m72" class="animable"></path><path d="M269,106.26l0,1.8-7.24.17,0-1.43,3.61-3.58c.83-.83,1-1.32,1-1.79,0-.75-.55-1.18-1.56-1.15a2.37,2.37,0,0,0-2,1l-1.63-1A4.43,4.43,0,0,1,265,98.41c2.13,0,3.58,1,3.62,2.75,0,.93-.22,1.78-1.53,3.06l-2.15,2.13Z" style="fill: rgb(38, 50, 56); transform-origin: 265.09px 103.318px;" id="elzpw4n826bq8" class="animable"></path><path d="M277.08,106.06l.05,1.81-7.24.17,0-1.44,3.61-3.57c.83-.83,1-1.33.95-1.79,0-.76-.55-1.18-1.56-1.16a2.33,2.33,0,0,0-2,1l-1.64-1A4.44,4.44,0,0,1,273,98.22c2.14,0,3.59,1,3.63,2.74,0,.94-.22,1.79-1.53,3.07L273,106.16Z" style="fill: rgb(38, 50, 56); transform-origin: 273.19px 103.129px;" id="elitcttxdpgt" class="animable"></path><g id="elco9ectqdy1l"><g style="opacity: 0.3; transform-origin: 256.477px 87.5674px;" class="animable"><path d="M271.36,83.91c0-.6-.65-.93-1-1.13-2.52-1.57-9-3.88-17-1.54-3.39,1.15-3.94,1.31-7.6,4.33-1.27,1-3.39,3.29-3.91,4.85s-.37,3.42,1.08,4.19a3.94,3.94,0,0,0,4.13-.76A21.65,21.65,0,0,0,250,90.48a16.29,16.29,0,0,1,14.17-5.75c2.08.24,4.16.88,6.21.47a1.15,1.15,0,0,0,.77-.39A1.19,1.19,0,0,0,271.36,83.91Z" style="fill: rgb(255, 255, 255); transform-origin: 256.477px 87.5674px;" id="el7gmmg14g7wq" class="animable"></path></g></g><g id="elia0gf7fb7vj"><g style="opacity: 0.3; transform-origin: 257.965px 121.001px;" class="animable"><path d="M274.31,122.68s-.09.1-.29.25-.5.39-.91.64a20.15,20.15,0,0,1-3.63,1.85,22.2,22.2,0,0,1-24.75-5.79,20.19,20.19,0,0,1-2.43-3.27,10.89,10.89,0,0,1-.53-1,1.5,1.5,0,0,1-.15-.36,36.94,36.94,0,0,0,3.38,4.35,22.53,22.53,0,0,0,24.35,5.7A37.07,37.07,0,0,0,274.31,122.68Z" style="fill: rgb(255, 255, 255); transform-origin: 257.965px 121.001px;" id="ell8ow76f8b0i" class="animable"></path></g></g><g id="eljc91nknl2u"><g style="opacity: 0.3; transform-origin: 239.888px 111.901px;" class="animable"><path d="M239.72,111.17c.14,0,.33.27.42.67s.05.76-.09.79-.32-.27-.41-.67S239.58,111.2,239.72,111.17Z" style="fill: rgb(255, 255, 255); transform-origin: 239.888px 111.901px;" id="elacyw8xc49nv" class="animable"></path></g></g><path d="M356.66,378.1C356.34,376,335.55,239.75,305,39.29l.27.2L58,77.06h0l.21-.3c19.21,126.6,37,243.81,51.42,338.85l-.24-.18L356.66,378.1,109.41,415.86l-.21,0,0-.21c-14.45-95-32.27-212.25-51.51-338.84l0-.26.26,0h0L305.16,39l.23,0,0,.23C335.74,239.72,356.35,376,356.66,378.1Z" style="fill: rgb(255, 255, 255); transform-origin: 207.175px 227.43px;" id="el4rqklzphawf" class="animable"></path><path d="M113,172.35a16.57,16.57,0,0,0-11.82,28,16.54,16.54,0,0,0,28.51-10.57c.47-6.89-4.24-14.51-11.66-14.79-.81,0-.81,1.22,0,1.25,6.08.23,10.22,6.24,10.44,11.92A15.31,15.31,0,1,1,113,173.6a.63.63,0,0,0,0-1.25Z" style="fill: rgb(0, 255, 136); transform-origin: 113.164px 188.924px;" id="ely1udkkfbull" class="animable"></path><path d="M169.31,173.91a16.56,16.56,0,0,0-30.16,2.21,16.54,16.54,0,0,0,22.17,20.79c6.49-2.72,11.24-10.47,8-17.33-.34-.72-1.42-.09-1.08.63,2.68,5.66-1,12.22-6.14,15a15.3,15.3,0,0,1-22.26-17,15.32,15.32,0,0,1,28.4-3.61c.39.7,1.47.07,1.08-.63Z" style="fill: rgb(0, 255, 136); transform-origin: 154.263px 181.741px;" id="el84517n3ngpi" class="animable"></path><path d="M193.12,160.38a16.56,16.56,0,0,0,3.07,30.08,16.54,16.54,0,0,0,20.19-22.65c-2.85-6.46-10.81-11.06-17.59-7.6-.72.37-.08,1.44.63,1.08,5.58-2.85,12.25.63,15.14,5.68a15.31,15.31,0,0,1-16.34,22.77,15.33,15.33,0,0,1-4.47-28.28.63.63,0,0,0-.63-1.08Z" style="fill: rgb(0, 255, 136); transform-origin: 201.363px 175.158px;" id="elizfpnq1iexa" class="animable"></path><path d="M236.22,156.15a16.57,16.57,0,0,0,3.07,30.09,16.54,16.54,0,0,0,20.2-22.65c-2.85-6.46-10.82-11.07-17.6-7.6-.71.36-.08,1.44.64,1.08,5.57-2.85,12.24.63,15.13,5.67a15.31,15.31,0,1,1-20.81-5.51.63.63,0,0,0-.63-1.08Z" style="fill: rgb(0, 255, 136); transform-origin: 244.47px 170.938px;" id="el3bdj0yvwvpc" class="animable"></path><path d="M279,149.66a16.56,16.56,0,0,0,3.07,30.08,16.53,16.53,0,0,0,20.19-22.65c-2.85-6.46-10.81-11.06-17.59-7.6-.71.37-.08,1.45.63,1.08,5.58-2.85,12.25.64,15.14,5.68A15.31,15.31,0,0,1,284.08,179a15.33,15.33,0,0,1-4.47-28.28.63.63,0,0,0-.63-1.08Z" style="fill: rgb(0, 255, 136); transform-origin: 287.247px 164.442px;" id="el155qa74xt75" class="animable"></path><path d="M119.37,214.39a16.56,16.56,0,0,0-11.81,28,16.54,16.54,0,0,0,28.51-10.57c.46-6.89-4.25-14.51-11.67-14.79-.8,0-.8,1.22,0,1.25,6.08.23,10.23,6.23,10.45,11.92a15.31,15.31,0,1,1-15.48-14.54.63.63,0,0,0,0-1.25Z" style="fill: rgb(0, 255, 136); transform-origin: 119.537px 230.964px;" id="el04im86lmhknm" class="animable"></path><path d="M175.69,215.94a16.56,16.56,0,0,0-30.15,2.22A16.54,16.54,0,0,0,167.7,239c6.49-2.72,11.25-10.48,8-17.33-.34-.73-1.42-.1-1.08.63,2.69,5.66-1,12.22-6.14,15a15.31,15.31,0,0,1-22.26-17,15.33,15.33,0,0,1,28.4-3.61c.39.71,1.47.08,1.08-.63Z" style="fill: rgb(0, 255, 136); transform-origin: 160.64px 223.811px;" id="ela4wwutkfqk" class="animable"></path><path d="M199.5,202.41a16.57,16.57,0,0,0,3.07,30.09,16.54,16.54,0,0,0,20.2-22.65c-2.85-6.46-10.81-11.07-17.59-7.6-.72.36-.09,1.44.63,1.07,5.57-2.84,12.24.64,15.14,5.68a15.31,15.31,0,1,1-20.81-5.51.63.63,0,0,0-.64-1.08Z" style="fill: rgb(0, 255, 136); transform-origin: 207.75px 217.198px;" id="elkvq5sj5kgtt" class="animable"></path><path d="M242.61,198.19a16.56,16.56,0,0,0,3.06,30.08,16.54,16.54,0,0,0,20.2-22.65c-2.85-6.46-10.81-11.06-17.59-7.6-.72.37-.09,1.45.63,1.08,5.57-2.85,12.24.63,15.14,5.68a15.31,15.31,0,0,1-16.34,22.77,15.33,15.33,0,0,1-4.47-28.28.63.63,0,0,0-.63-1.08Z" style="fill: rgb(0, 255, 136); transform-origin: 250.852px 212.97px;" id="elzg4cyubysmc" class="animable"></path><path d="M285.36,191.69a16.57,16.57,0,0,0,3.07,30.09,16.54,16.54,0,0,0,20.2-22.65c-2.85-6.46-10.81-11.07-17.59-7.6-.72.36-.09,1.44.63,1.08,5.57-2.85,12.24.63,15.14,5.67A15.31,15.31,0,1,1,286,192.77a.63.63,0,0,0-.64-1.08Z" style="fill: rgb(0, 255, 136); transform-origin: 293.61px 206.478px;" id="elyvc5oqyvt4n" class="animable"></path><path d="M125,262.61a16.56,16.56,0,0,0-11.81,28A16.54,16.54,0,0,0,141.71,280c.46-6.89-4.25-14.51-11.67-14.79-.8,0-.8,1.22,0,1.25,6.08.23,10.23,6.24,10.45,11.92A15.31,15.31,0,1,1,125,263.86a.63.63,0,0,0,0-1.25Z" style="fill: rgb(0, 255, 136); transform-origin: 125.172px 279.188px;" id="el542b37e8fqw" class="animable"></path><path d="M183.75,264.66a16.57,16.57,0,0,0-30.16,2.22,16.54,16.54,0,0,0,22.17,20.79c6.49-2.72,11.24-10.48,8-17.33-.34-.73-1.42-.1-1.08.63,2.69,5.66-1,12.22-6.14,15a15.31,15.31,0,0,1-22.26-17,15.33,15.33,0,0,1,28.4-3.61c.39.71,1.47.08,1.08-.63Z" style="fill: rgb(0, 255, 136); transform-origin: 168.703px 272.505px;" id="elp95ierg826q" class="animable"></path><path d="M250.23,244a16.56,16.56,0,0,0,3.06,30.08,16.54,16.54,0,0,0,20.2-22.65c-2.85-6.46-10.81-11.06-17.59-7.6-.72.37-.09,1.45.63,1.08,5.57-2.85,12.24.63,15.14,5.68a15.31,15.31,0,0,1-16.34,22.77,15.32,15.32,0,0,1-4.47-28.28.63.63,0,0,0-.63-1.08Z" style="fill: rgb(0, 255, 136); transform-origin: 258.472px 258.78px;" id="elinhpyczl5z" class="animable"></path><path d="M293,237.52a16.57,16.57,0,0,0,3.07,30.09A16.54,16.54,0,0,0,316.25,245c-2.85-6.46-10.81-11.07-17.59-7.6-.72.36-.09,1.44.63,1.08,5.57-2.85,12.24.63,15.14,5.67a15.31,15.31,0,1,1-20.82-5.51.63.63,0,0,0-.63-1.08Z" style="fill: rgb(0, 255, 136); transform-origin: 301.228px 252.321px;" id="elspaizlw9s38" class="animable"></path><path d="M131.48,305.18a16.56,16.56,0,1,0,6.06,32,16.82,16.82,0,0,0,10.63-14.63c.47-6.89-4.24-14.51-11.66-14.79-.81,0-.81,1.22,0,1.25,6.08.23,10.22,6.23,10.44,11.92a15.31,15.31,0,1,1-15.47-14.54.63.63,0,0,0,0-1.25Z" style="fill: rgb(0, 255, 136); transform-origin: 131.598px 321.72px;" id="eldevv9kcd9ti" class="animable"></path><path d="M190.22,307.23a16.57,16.57,0,0,0-30.16,2.22,16.54,16.54,0,0,0,22.16,20.79c6.5-2.73,11.25-10.48,8-17.33-.35-.73-1.42-.1-1.08.63,2.68,5.66-1,12.22-6.14,15a15.63,15.63,0,0,1-16.89-1.41,15.32,15.32,0,1,1,23-19.23c.39.71,1.47.08,1.08-.63Z" style="fill: rgb(0, 255, 136); transform-origin: 175.172px 315.073px;" id="eliyedarpuge" class="animable"></path><path d="M256.69,286.59a16.56,16.56,0,0,0,3.07,30.08A16.54,16.54,0,0,0,280,294c-2.86-6.46-10.82-11.06-17.6-7.6-.71.36-.08,1.44.63,1.08,5.58-2.85,12.25.63,15.14,5.67A15.31,15.31,0,0,1,261.8,316a15.33,15.33,0,0,1-4.48-28.28.63.63,0,0,0-.63-1.08Z" style="fill: rgb(0, 255, 136); transform-origin: 264.968px 301.37px;" id="elm5owgmnq7rm" class="animable"></path><path d="M211.77,293.21a16.57,16.57,0,0,0,3.06,30.09A16.54,16.54,0,0,0,235,300.65c-2.85-6.46-10.81-11.07-17.59-7.61-.72.37-.09,1.45.63,1.08,5.58-2.84,12.24.64,15.14,5.68a15.31,15.31,0,0,1-16.34,22.77,15.33,15.33,0,0,1-4.47-28.28.63.63,0,0,0-.63-1.08Z" style="fill: rgb(0, 255, 136); transform-origin: 219.996px 307.99px;" id="el7vco0nrmfg" class="animable"></path><path d="M299.45,280.09a16.57,16.57,0,0,0,3.07,30.09,16.54,16.54,0,0,0,20.19-22.65c-2.85-6.46-10.81-11.07-17.59-7.61-.72.37-.08,1.45.63,1.08,5.58-2.84,12.25.64,15.14,5.68a15.31,15.31,0,0,1-16.34,22.77,15.33,15.33,0,0,1-4.47-28.28.63.63,0,0,0-.63-1.08Z" style="fill: rgb(0, 255, 136); transform-origin: 307.694px 294.874px;" id="ely4drmplbmvd" class="animable"></path><path d="M138,348.09a16.56,16.56,0,0,0-11.81,28,16.54,16.54,0,0,0,28.51-10.57c.47-6.89-4.24-14.51-11.67-14.79-.8,0-.8,1.22,0,1.25,6.08.23,10.23,6.23,10.45,11.92A15.31,15.31,0,1,1,138,349.34a.63.63,0,0,0,0-1.25Z" style="fill: rgb(0, 255, 136); transform-origin: 138.167px 364.663px;" id="el6bmpilz3jgu" class="animable"></path><path d="M196.73,350.14a16.56,16.56,0,0,0-30.15,2.22,16.54,16.54,0,0,0,22.16,20.79c6.49-2.73,11.25-10.48,8-17.33-.34-.73-1.42-.1-1.07.63,2.68,5.66-1,12.22-6.15,15a15.31,15.31,0,0,1-22.26-17,15.32,15.32,0,0,1,28.4-3.61c.39.71,1.47.08,1.08-.63Z" style="fill: rgb(0, 255, 136); transform-origin: 181.691px 357.981px;" id="ele52l2jn3tc5" class="animable"></path><path d="M263.21,329.5a16.56,16.56,0,0,0,3.07,30.08,16.54,16.54,0,0,0,20.19-22.65c-2.85-6.46-10.81-11.06-17.59-7.6-.72.36-.08,1.44.63,1.08,5.58-2.85,12.25.63,15.14,5.67a15.32,15.32,0,0,1-16.34,22.78,15.33,15.33,0,0,1-4.47-28.28.63.63,0,0,0-.63-1.08Z" style="fill: rgb(0, 255, 136); transform-origin: 271.453px 344.278px;" id="el69zt0rx54qf" class="animable"></path><path d="M218.29,336.12a16.57,16.57,0,0,0,3.06,30.09,16.54,16.54,0,0,0,20.2-22.65C238.7,337.1,230.74,332.49,224,336c-.72.37-.09,1.45.63,1.08,5.57-2.84,12.24.64,15.14,5.68a15.31,15.31,0,0,1-16.34,22.77,15.32,15.32,0,0,1-4.47-28.28.63.63,0,0,0-.63-1.08Z" style="fill: rgb(0, 255, 136); transform-origin: 226.533px 350.917px;" id="ela1i00yovaer" class="animable"></path><path d="M306,323A16.57,16.57,0,0,0,309,353.09a16.54,16.54,0,0,0,20.2-22.65c-2.85-6.46-10.81-11.07-17.59-7.6-.72.36-.09,1.44.63,1.07,5.57-2.84,12.24.64,15.14,5.68a15.31,15.31,0,0,1-16.34,22.77,15.32,15.32,0,0,1-4.47-28.28A.63.63,0,0,0,306,323Z" style="fill: rgb(0, 255, 136); transform-origin: 314.202px 337.788px;" id="eluu3rlxryt8o" class="animable"></path></g><g id="freepik--Character--inject-51" class="animable" style="transform-origin: 285.311px 311.536px;"><path d="M269.06,156.51l2.23-.07a43.19,43.19,0,0,1,44.27,38.36c2.34,20.79,4.65,43.8,4.87,55,.44,23.18-22.62,27.51-22.62,27.51l.58,9.43a28.15,28.15,0,0,1-26.52,29.83h0a28.16,28.16,0,0,1-29.66-26.16l-6-86.09C233.4,180.32,245,158.68,269.06,156.51Z" style="fill: rgb(255, 191, 157); transform-origin: 278.117px 236.516px;" id="eljaeonh89vk" class="animable"></path><path d="M298,277.25s-14.76,1.35-30.63-7.93c0,0,7.66,16.44,30.71,13.63Z" style="fill: rgb(255, 154, 108); transform-origin: 282.725px 276.297px;" id="el3unij3d6a2l" class="animable"></path><path d="M305.23,214.86a3.31,3.31,0,0,1-3.09,3.44,3.17,3.17,0,0,1-3.5-2.88,3.31,3.31,0,0,1,3.08-3.44A3.18,3.18,0,0,1,305.23,214.86Z" style="fill: rgb(38, 50, 56); transform-origin: 301.935px 215.14px;" id="elogujlzuf4ar" class="animable"></path><path d="M310.94,206.27c-.4.45-3-1.33-6.52-1.21s-6.11,2-6.51,1.56c-.2-.18.2-1,1.31-1.84a9.07,9.07,0,0,1,5.19-1.78,8.73,8.73,0,0,1,5.21,1.5C310.74,205.3,311.14,206.07,310.94,206.27Z" style="fill: rgb(38, 50, 56); transform-origin: 304.425px 204.841px;" id="elh3sha4iob8" class="animable"></path><path d="M274,216.12a3.3,3.3,0,0,1-3.09,3.43,3.16,3.16,0,0,1-3.5-2.87,3.32,3.32,0,0,1,3.08-3.44A3.17,3.17,0,0,1,274,216.12Z" style="fill: rgb(38, 50, 56); transform-origin: 270.705px 216.395px;" id="elsoh2f6761q" class="animable"></path><path d="M276,208c-.4.45-3-1.33-6.52-1.2s-6.11,2-6.51,1.55c-.2-.18.19-1,1.31-1.84a9.07,9.07,0,0,1,5.19-1.78,8.73,8.73,0,0,1,5.21,1.5C275.77,207.07,276.17,207.84,276,208Z" style="fill: rgb(38, 50, 56); transform-origin: 269.479px 206.572px;" id="elq8efv4vkr1n" class="animable"></path><path d="M289.72,234c0-.2,2.18-.66,5.75-1.23.9-.12,1.76-.33,1.89-1a4.72,4.72,0,0,0-.69-2.68q-1.38-3.25-2.91-6.83c-4-9.74-7-17.76-6.6-17.92s4,7.61,8,17.34q1.47,3.6,2.79,6.88c.38,1,1,2.18.59,3.56a2.31,2.31,0,0,1-1.45,1.37,6,6,0,0,1-1.54.27C292,234.14,289.74,234.23,289.72,234Z" style="fill: rgb(38, 50, 56); transform-origin: 292.9px 219.231px;" id="el91wk0sic6mg" class="animable"></path><path d="M276.45,194.06c-.32,1-3.89.63-8.05,1.26s-7.5,1.88-8.08,1c-.26-.41.3-1.34,1.63-2.32a14.14,14.14,0,0,1,12.29-1.74C275.79,192.86,276.59,193.59,276.45,194.06Z" style="fill: rgb(38, 50, 56); transform-origin: 268.362px 194.097px;" id="el8be5s6zz0y3" class="animable"></path><path d="M309.31,196c-.6.83-3.08.07-6,.12s-5.43.72-6-.11c-.27-.4.1-1.23,1.17-2a8.77,8.77,0,0,1,9.72,0C309.2,194.79,309.57,195.61,309.31,196Z" style="fill: rgb(38, 50, 56); transform-origin: 303.308px 194.481px;" id="elovikrdcgvhn" class="animable"></path><path d="M313,184.23s-6.56-14.31-13.66-17.48c-8.6-3.83-11.95,5.58-20.09,3.58s-16.35-5.69-24.4.81c-8.82,7.11-4.44,11.77-4.67,22.07-1,41.74-8.19,53.76-11,34.2-.3-2.14-6.32-3.67-7.49-12.72-1.52-11.75-2.42-26-.05-34.48,2-7.12,5.86-12.11,12.89-17.71,11.11-8.83,26.73-9.5,37.37-8.76S313.4,166,313,184.23Z" style="fill: rgb(38, 50, 56); transform-origin: 271.595px 195.035px;" id="elhxdfr23xc47" class="animable"></path><path d="M240.66,226.73a6.29,6.29,0,0,0-7-5.84c-4.3.54-9,3.15-8.47,12.06,1,15.82,16.68,11.55,16.68,11.1S241.14,233.35,240.66,226.73Z" style="fill: rgb(255, 191, 157); transform-origin: 233.509px 232.878px;" id="elmhxoroj7hyr" class="animable"></path><path d="M238.07,238.31c-.07,0-.26.22-.72.46a2.71,2.71,0,0,1-2,.17c-1.71-.51-3.29-3.07-3.55-5.92a9.26,9.26,0,0,1,.52-4,3.21,3.21,0,0,1,1.94-2.25,1.42,1.42,0,0,1,1.68.65c.24.43.16.76.24.78s.32-.29.16-.94a1.84,1.84,0,0,0-.69-1,2.11,2.11,0,0,0-1.55-.3,3.87,3.87,0,0,0-2.72,2.63,9.33,9.33,0,0,0-.68,4.47c.31,3.18,2.13,6.06,4.46,6.58a3,3,0,0,0,2.49-.58C238.06,238.7,238.13,238.34,238.07,238.31Z" style="fill: rgb(255, 154, 108); transform-origin: 234.374px 232.814px;" id="elbrwnz6tyyd7" class="animable"></path><path d="M316.8,167.2c-2.38-1.89-5.72-2.24-8.08-4.15-4.31-3.48-4.29-11.14-9.4-13.27-3-1.27-6.5.1-9.75-.32-5.27-.69-7.2-4.73-15.22-5-10.41-.3-14,7.38-14,7.38a12,12,0,0,0-12,.81c-4.8,3.07-5.28,9.45-5.28,9.45s-1.62-.88-6.73,2.94c-3.24,2.43-6,7.78-7.24,11.63-1.87,5.74.49,11.92,2.81,17.49,1.25,3,2.82,6.35,5.89,7.47,3.74,1.37,8-1.47,9.55-5.13s4-7.33,5.88-10.84c3.27-6.1,6.61-11.78,4.1-15.8a18,18,0,0,1,11.12.23c3.59,1.29,6.7,3.7,10.26,5.07s8.14,1.41,10.66-1.46c1.7,4.44,8.25,6,11.8,2.88,2.7,4.74,9.32,7.06,14.06,4.37S321.07,170.59,316.8,167.2Z" style="fill: rgb(38, 50, 56); transform-origin: 273.946px 173.216px;" id="eldq9zmvcgo39" class="animable"></path><path d="M230.45,190.45c.15-.07.74,1.41,1.74,3.66a7.81,7.81,0,0,0,2.52,3.27,6.88,6.88,0,0,0,4.88.69,11.83,11.83,0,0,0,4.79-1.88,18.54,18.54,0,0,0,3.17-2.89c1.64-1.86,2.6-3.1,2.72-3a13.33,13.33,0,0,1-2.21,3.44,17.31,17.31,0,0,1-3.18,3.18,12,12,0,0,1-5.14,2.09,7.56,7.56,0,0,1-5.52-.9,8,8,0,0,1-2.64-3.72A16.11,16.11,0,0,1,230.45,190.45Z" style="fill: rgb(69, 90, 100); transform-origin: 240.36px 194.741px;" id="eloz3tcnjktsj" class="animable"></path><path d="M230.73,202.66a12.71,12.71,0,0,0,3.08,1.82,8.92,8.92,0,0,0,3.77.42,10.74,10.74,0,0,0,4.38-1.54,21.5,21.5,0,0,0,6.11-6.11,17.51,17.51,0,0,1,2.23-2.94,12.51,12.51,0,0,1-1.67,3.31,19.32,19.32,0,0,1-6.18,6.55,10.91,10.91,0,0,1-4.8,1.59,8.68,8.68,0,0,1-4.08-.66C231.36,204.12,230.64,202.68,230.73,202.66Z" style="fill: rgb(69, 90, 100); transform-origin: 240.511px 200.049px;" id="eloelso2u9js" class="animable"></path><path d="M231.07,211.75a15.31,15.31,0,0,0,3.06,1.37,9.65,9.65,0,0,0,7.61-1.51,22.35,22.35,0,0,0,5.66-5.82c1.23-1.72,2-2.81,2.12-2.73a11.6,11.6,0,0,1-1.57,3.1,19.17,19.17,0,0,1-5.7,6.24,11,11,0,0,1-4.43,1.7,8.67,8.67,0,0,1-3.87-.34C231.8,213,231,211.79,231.07,211.75Z" style="fill: rgb(69, 90, 100); transform-origin: 240.293px 208.619px;" id="elzcvicqoihzl" class="animable"></path><path d="M279.47,239.58a20.08,20.08,0,0,0-1,5.29c-.27,1.86.49,3.2,1.6,4.71a6.66,6.66,0,0,0,5.06,2.5h.06a7.39,7.39,0,0,0,7.45-6.09l.73-3.9C289.65,241,279.74,239.84,279.47,239.58Z" style="fill: rgb(255, 154, 108); transform-origin: 285.893px 245.831px;" id="eluys5tfawnr" class="animable"></path><path d="M288.91,251.05c0-.08-.47,0-1.27.09a10.83,10.83,0,0,1-3.34-.06,6.5,6.5,0,0,1-4-2.48,8.19,8.19,0,0,1-1.45-5.59,8.29,8.29,0,0,1,.93-3.19l-.49.23c3.54.63,6.63,1.14,8.85,1.46a15.09,15.09,0,0,0,3.57.35,15.2,15.2,0,0,0-3.46-1c-2.19-.48-5.26-1.11-8.79-1.79l-.33-.06-.17.3a8.7,8.7,0,0,0-1.07,3.56,8.8,8.8,0,0,0,1.71,6.23,7.07,7.07,0,0,0,4.6,2.61,9.13,9.13,0,0,0,3.52-.25A2.9,2.9,0,0,0,288.91,251.05Z" style="fill: rgb(38, 50, 56); transform-origin: 284.774px 245.395px;" id="elljtfl001ph" class="animable"></path><path d="M242.21,290.39s26.63,19.43,30.85,18.19,25-18.19,25-18.19L332.78,324,346,478.11H218.51l3.55-128.49Z" style="fill: rgb(245, 245, 245); transform-origin: 282.255px 384.25px;" id="el8r4xc9kid3l" class="animable"></path><path d="M393.33,300.65l-1.88,7.56s-39.69-13-46-12.44-10.08,36.73-10.08,36.73,20.15,28.24,20.94,28.05,37.92-4.35,54.9-7.71,27.46-8.49,30.22-22.12,0-23.5-1-24.29-6.72-3.55-6.72-3.55Z" style="fill: rgb(69, 90, 100); transform-origin: 388.996px 328.152px;" id="elr7oyxc6up9s" class="animable"></path><path d="M133,413.64s-5,6.08-5,11,0,17.32,4,26.45,2.34,10.06,9.36,13.34a32.7,32.7,0,0,0,14.28,2.81s20.2-7.65,24.42-18.18S195,416.55,195,416.55V303.4s-22.23,8-27.85,27.15-18.49,68.81-18.49,68.81Z" style="fill: rgb(69, 90, 100); transform-origin: 161.5px 385.327px;" id="elev3ywiedq0g" class="animable"></path><path d="M242,279.76,230.7,292.58,195,303.4l-1.63,111.88-2.9,62.83H242s2.38-15.78,6.26-39.65,7.46-43.55,8.06-56.38,5.67-25.95,0-41.47S242,301.53,242.93,293.48A36.35,36.35,0,0,0,242,279.76Z" style="fill: rgb(69, 90, 100); transform-origin: 224.724px 378.935px;" id="el8t5qpvetllj" class="animable"></path><path d="M253.82,362.91a.53.53,0,0,1,0-.22c0-.17.07-.38.11-.64.11-.55.23-1.38.36-2.45a37.92,37.92,0,0,0-4.11-22.06,64.71,64.71,0,0,0-4.45-6.81,21.52,21.52,0,0,1-2.13-3.83,9.61,9.61,0,0,1-.77-4.49l.29.28a7.15,7.15,0,0,1-4-.84,7.46,7.46,0,0,1-3.88-5l.4.17a24.35,24.35,0,0,0-7.14,7.28l-.53.85.08-1c.79-8.86,1.46-16.45,1.93-21.87.26-2.65.46-4.77.6-6.27.08-.7.14-1.25.18-1.67a4.24,4.24,0,0,1,.09-.57,3.63,3.63,0,0,1,0,.58c0,.42-.06,1-.1,1.67-.11,1.51-.26,3.63-.46,6.28-.43,5.42-1,13-1.74,21.89l-.45-.15a24.78,24.78,0,0,1,7.27-7.46l.32-.21.07.38a7,7,0,0,0,3.61,4.68,6.59,6.59,0,0,0,3.71.78l.31,0,0,.31a9.23,9.23,0,0,0,.72,4.26,21.29,21.29,0,0,0,2.08,3.74l2.37,3.43,1.1,1.71,1,1.73a37,37,0,0,1,4,13.12,35.4,35.4,0,0,1-.12,9.19,20.84,20.84,0,0,1-.46,2.44l-.15.63A1.26,1.26,0,0,1,253.82,362.91Z" style="fill: rgb(38, 50, 56); transform-origin: 241.436px 328.34px;" id="elh8zjy8gjzg" class="animable"></path><path d="M365.4,401.72c0-1.18-4.81-67.09-4.81-67.09l-13.67-38.88s-34.32-4.39-34.91-4.39-11.18-11.6-11.18-11.6-11.57,22-13.53,34.43-2.75,20.32,0,33.66,15.1,53.15,17.45,66.88,12.59,53.49,13.57,63.89l51.51-.51C368.26,463.59,365.4,402.89,365.4,401.72Z" style="fill: rgb(69, 90, 100); transform-origin: 327.676px 379.19px;" id="el0dre64bwqwu8" class="animable"></path><path d="M358.15,318a5.09,5.09,0,0,1,.18.85c.11.61.24,1.43.42,2.46s.37,2.38.57,3.91.44,3.26.65,5.18c.91,7.69,1.89,18.34,2.77,30.12s1.52,22.45,1.94,30.18c.18,3.83.33,6.95.44,9.16,0,1,.06,1.87.08,2.49a4.8,4.8,0,0,1,0,.87,5.49,5.49,0,0,1-.1-.86q-.08-.93-.18-2.49c-.15-2.21-.36-5.32-.61-9.14-.51-7.73-1.2-18.4-2.09-30.17s-1.8-22.43-2.62-30.12c-.18-1.92-.4-3.66-.57-5.19s-.33-2.84-.48-3.91-.24-1.86-.32-2.47A6.86,6.86,0,0,1,358.15,318Z" style="fill: rgb(38, 50, 56); transform-origin: 361.685px 360.61px;" id="els84c8afxjmb" class="animable"></path><path d="M312.7,293a.74.74,0,0,1,0,.22c0,.17-.07.37-.11.63-.12.59-.27,1.4-.47,2.42-.41,2.11-1,5.18-1.59,9s-1.33,8.4-2.14,13.5-1.76,10.75-3.08,16.67l-.11.52-.34-.42a21.52,21.52,0,0,0-12.7-7.56l.29-.23a95.45,95.45,0,0,0,.9,26.08c.56,3.22,1.15,5.76,1.58,7.5l.52,2a5.26,5.26,0,0,1,.15.7,3.64,3.64,0,0,1-.24-.68c-.14-.45-.36-1.1-.6-2-.49-1.73-1.13-4.27-1.73-7.49a92.1,92.1,0,0,1-1.08-26.19l0-.27.27,0a21.86,21.86,0,0,1,9.84,4.56,21.16,21.16,0,0,1,3.17,3.18l-.45.1c1.32-5.89,2.27-11.53,3.12-16.63s1.58-9.67,2.25-13.48,1.28-6.88,1.75-9c.22-1,.43-1.86.56-2.4.06-.25.12-.46.16-.62A.8.8,0,0,1,312.7,293Z" style="fill: rgb(38, 50, 56); transform-origin: 302.092px 328.515px;" id="el2zq2u6ebs4k" class="animable"></path><path d="M194.18,353.26a3.72,3.72,0,0,1,.07.74l.12,2.13c.1,1.86.2,4.54.3,7.86.2,6.63.34,15.8.24,25.92s-.42,19.3-.74,25.92c-.17,3.32-.32,6-.45,7.85-.07.89-.12,1.59-.16,2.13a4.78,4.78,0,0,1-.09.74,3.26,3.26,0,0,1,0-.74l.07-2.14c.06-1.91.16-4.58.28-7.85.23-6.63.49-15.79.59-25.91s0-19.28-.09-25.92c-.05-3.27-.1-5.94-.13-7.85,0-.89,0-1.6,0-2.14A3.48,3.48,0,0,1,194.18,353.26Z" style="fill: rgb(38, 50, 56); transform-origin: 194.196px 389.905px;" id="elo2gjtkus5bk" class="animable"></path><path d="M424.13,327.41a8.67,8.67,0,0,1-1.61,0,30.4,30.4,0,0,1-4.36-.56,51.8,51.8,0,0,1-13.57-5c-2.52-1.31-4.86-2.62-6.94-4a16,16,0,0,1-4.77-4.47,9.11,9.11,0,0,1-1.53-4.13,6.7,6.7,0,0,1,0-1.2,1.21,1.21,0,0,1,.09-.42c.05,0,0,.58.11,1.59a9.54,9.54,0,0,0,1.63,4,16,16,0,0,0,4.73,4.26c2.06,1.29,4.42,2.6,6.91,3.89a55.8,55.8,0,0,0,13.41,5.12,42.18,42.18,0,0,0,4.3.72A10.79,10.79,0,0,1,424.13,327.41Z" style="fill: rgb(38, 50, 56); transform-origin: 407.727px 317.539px;" id="elqp2e7yldjoj" class="animable"></path><path d="M405.14,333.61a5.33,5.33,0,0,1-1.13-.52,10.2,10.2,0,0,1-1.26-.71,17.38,17.38,0,0,1-1.6-1.08,26.67,26.67,0,0,1-3.76-3.31,30.31,30.31,0,0,1-3.71-4.91,30.92,30.92,0,0,1-2.57-5.58,26.69,26.69,0,0,1-1.14-4.88,16.34,16.34,0,0,1-.19-1.92,10.64,10.64,0,0,1,0-1.45,5.56,5.56,0,0,1,.08-1.24c.11,0,0,1.77.51,4.55a30.42,30.42,0,0,0,1.23,4.78,33.49,33.49,0,0,0,2.57,5.48,32.59,32.59,0,0,0,3.61,4.84,29.69,29.69,0,0,0,3.63,3.35C403.6,332.74,405.19,333.51,405.14,333.61Z" style="fill: rgb(38, 50, 56); transform-origin: 397.448px 320.81px;" id="elvgcbxn6svvj" class="animable"></path><g id="el2sx2ejugy4"><g style="opacity: 0.3; transform-origin: 173.395px 375.177px;" class="animable"><path d="M181.05,324.61c-5.64-.28-11,3-14.52,7.43s-5.41,9.9-6.92,15.34a141,141,0,0,0-1.45,69.53l14.65,8.85c7.35-16.21-1.27-35.54,2.93-52.83,1.42-5.85,4.25-11.23,7.07-16.55l6.48-12.27c1.49-2.81,3-5.78,3-9C192.17,329.5,186.69,324.89,181.05,324.61Z" id="el3xp2w27xzv5" class="animable" style="transform-origin: 173.395px 375.177px;"></path></g></g><path d="M147,358.82a108,108,0,0,1,2.16-14c1.62-7,7.19-32.73,8.45-35.07s3.24-5.58,8.64-4.14,14.92,3.06,16.54,5a7.82,7.82,0,0,1,1.8,3.77s3.78,2.88,4,4.68a10.18,10.18,0,0,1,0,2.7s2.7-.32,2.34,3.17-1.08,2.76-1.08,2.76,3.24.72,2.34,3.42-3.6,5.58-5.58,7.2-6.11.54-6.11.54a64.28,64.28,0,0,1-5.22,12.41c-3.24,5.57-6.48,7.55-6.48,7.55Z" style="fill: rgb(255, 191, 157); transform-origin: 169.674px 332.037px;" id="el9cxm5wh3is" class="animable"></path><path d="M189.32,327.29a8.86,8.86,0,0,1-2.11-.32l-2.26-.5-1.32-.31a5.57,5.57,0,0,1-1.46-.46,2.16,2.16,0,0,1-1-1.27,6,6,0,0,0-.53-1.2,5.15,5.15,0,0,0-1.53-1.58,11.69,11.69,0,0,0-1.89-.86,3.25,3.25,0,0,1,2.09.55,5,5,0,0,1,1.73,1.64c.57.73.59,1.89,1.36,2.27a5.92,5.92,0,0,0,1.33.42l1.32.34,2.23.6A9,9,0,0,1,189.32,327.29Z" style="fill: rgb(255, 154, 108); transform-origin: 183.27px 324.035px;" id="elw9l59sq34m" class="animable"></path><path d="M188.42,321.15a8.18,8.18,0,0,0-2.56-1.75,15.14,15.14,0,0,0-3.29-.87,19.57,19.57,0,0,1-4.15-1,22.58,22.58,0,0,0-3.89-1.53,10.1,10.1,0,0,0-3.36-.18,19.51,19.51,0,0,0-3,.75,2.1,2.1,0,0,1,.74-.44,8.44,8.44,0,0,1,2.26-.67,9.51,9.51,0,0,1,3.51.07,21.12,21.12,0,0,1,4,1.52,21.23,21.23,0,0,0,4,1,14.15,14.15,0,0,1,3.35,1,6.07,6.07,0,0,1,1.93,1.38C188.31,320.85,188.45,321.14,188.42,321.15Z" style="fill: rgb(255, 154, 108); transform-origin: 178.297px 318.24px;" id="elvtxdw05me7" class="animable"></path><path d="M183.54,314.19c0,.08-1.11-.74-3.08-1.51a15.65,15.65,0,0,0-3.58-.92c-.7-.09-1.42-.1-2.2-.14a5.18,5.18,0,0,1-2.4-.63c-.74-.42-1.34-1-2-1.35a5.31,5.31,0,0,0-2-.74,8.28,8.28,0,0,0-3.62.29c-2,.62-3.19,1.27-3.23,1.17a3,3,0,0,1,.79-.5,15.57,15.57,0,0,1,2.34-1,8.14,8.14,0,0,1,3.8-.4,5.58,5.58,0,0,1,2.17.78c.68.41,1.28,1,2,1.33,1.34.8,3,.48,4.4.75a13.73,13.73,0,0,1,3.66,1,12.26,12.26,0,0,1,2.23,1.25A2.88,2.88,0,0,1,183.54,314.19Z" style="fill: rgb(255, 154, 108); transform-origin: 172.485px 311.292px;" id="elqj48gvx6e5k" class="animable"></path><path d="M187.23,336.62s-.51.33-1.45.17a3,3,0,0,1-1.48-.76,3.13,3.13,0,0,1-.94-1.88h.5a6,6,0,0,1-.33,1.31,3,3,0,0,1-1.59,1.76,2.06,2.06,0,0,1-2-.16l.28-.27a2.31,2.31,0,0,1,.35,1.62c-.06.39-.19.57-.22.56s0-.22,0-.58a2.39,2.39,0,0,0-.46-1.38l-.67-.88.94.61a1.65,1.65,0,0,0,1.58,0,2.58,2.58,0,0,0,1.3-1.5,6.42,6.42,0,0,0,.31-1.2l.3-1.91.2,1.92a2.82,2.82,0,0,0,.75,1.62,2.85,2.85,0,0,0,1.25.76A7.16,7.16,0,0,0,187.23,336.62Z" style="fill: rgb(255, 154, 108); transform-origin: 183.225px 335.55px;" id="el030ivoseajew" class="animable"></path><path d="M172.36,425.52s-7.85-52.42-3.64-66.7l-4.68-6-17.08,6S133.31,412,133,422.93c0,0-1.52,13.21,15.78,13.21S172.36,425.52,172.36,425.52Z" style="fill: rgb(255, 191, 157); transform-origin: 152.663px 394.48px;" id="elljp1a9c9eua" class="animable"></path><g id="elzk08p91rpzo"><g style="opacity: 0.3; transform-origin: 302.702px 324.09px;" class="animable"><path d="M312.45,294.18c-2.91,12-4.5,29.24-7.41,41.24-3.5-3.32-7.62-6.69-12.86-7.65.15,2.24-.67,4-.52,6.27L293,354a64.09,64.09,0,0,1,2.23-18.59L307.4,346l4.38-14.23c.34-1.1.64-2.22.87-3.35C314.51,319.17,313.75,303.48,312.45,294.18Z" id="elzrk9l7c83w" class="animable" style="transform-origin: 302.702px 324.09px;"></path></g></g><g id="elahs29mjxkvh"><g style="opacity: 0.3; transform-origin: 311.97px 331.32px;" class="animable"><path d="M312.28,330.49c-.17.39-.31.8-.48,1.19,0,.16-.09.32-.14.47Z" id="elppfscaf0ry" class="animable" style="transform-origin: 311.97px 331.32px;"></path></g></g><path d="M349.61,191.36s-4.76,0-1.95,6,3.25,5.84,4.54,6.49,9.08,2.81,9.08,2.81,2.81,5.4,11.67,5.19L390.89,197s-11.46-14.69-14.27-21-5.61-10.81-8.86-10.16c0,0-4.75-.72-6.44,2.21s-9.91,8.56-11.83,10.81-3.94,5.75-3.72,7.44S349.61,191.36,349.61,191.36Z" style="fill: rgb(255, 191, 157); transform-origin: 368.322px 188.809px;" id="elk4noccegkk" class="animable"></path><path d="M366.22,208.1a2.59,2.59,0,0,1-.91-.71,7.41,7.41,0,0,1-1.59-2.72,18.78,18.78,0,0,1-.86-4.57,18.75,18.75,0,0,0-1.08-5.45c-.74-1.83-1.76-3.47-2.4-5.12a8.7,8.7,0,0,1-.72-4.61,5.13,5.13,0,0,1,1.36-2.84,3.2,3.2,0,0,1,.68-.54.86.86,0,0,1,.27-.12s-.34.24-.8.79A5.39,5.39,0,0,0,359,185a8.65,8.65,0,0,0,.8,4.38c.65,1.59,1.68,3.21,2.44,5.11a18.33,18.33,0,0,1,1.08,5.6,19.49,19.49,0,0,0,.73,4.5A8.14,8.14,0,0,0,366.22,208.1Z" style="fill: rgb(255, 154, 108); transform-origin: 362.411px 194.76px;" id="elwvq71u4bny" class="animable"></path><path d="M362.1,194.76a4.13,4.13,0,0,1-1.78.78,6.48,6.48,0,0,1-2.13.16,15.9,15.9,0,0,1-2.55-.47,10.84,10.84,0,0,1-4.13-2.21,4.82,4.82,0,0,1-1.28-1.46,15.62,15.62,0,0,1,1.51,1.17,12.65,12.65,0,0,0,4,2,10.55,10.55,0,0,0,4.47.45C361.38,195,362.07,194.68,362.1,194.76Z" style="fill: rgb(255, 154, 108); transform-origin: 356.165px 193.643px;" id="elmeybcafevo" class="animable"></path><path d="M354.3,181.28s.56.28,1.11,1.09a5.47,5.47,0,0,1,.85,3.73l-.08-.23a3.09,3.09,0,0,1,.4.47,2.74,2.74,0,0,1,.18,2.7l-.28-.33a3.57,3.57,0,0,1,2.42.2c.54.26.76.53.73.56s-.31-.14-.83-.3a3.55,3.55,0,0,0-2.18,0l-.52.17.24-.49a2.34,2.34,0,0,0-.2-2.22,2.25,2.25,0,0,0-.31-.37l-.1-.1,0-.13a5.71,5.71,0,0,0-.64-3.47C354.67,181.74,354.25,181.34,354.3,181.28Z" style="fill: rgb(255, 154, 108); transform-origin: 356.964px 185.377px;" id="elx2ssqyz28xp" class="animable"></path><path d="M358.86,186.48c0,.06-.1.2-.39.3a1.81,1.81,0,0,1-1.14-.05,1.77,1.77,0,0,1-.9-.71c-.15-.25-.16-.44-.1-.47s.49.45,1.18.69S358.8,186.35,358.86,186.48Z" style="fill: rgb(255, 154, 108); transform-origin: 357.578px 186.199px;" id="elhqdbqcfmg0v" class="animable"></path><path d="M363,199a5.81,5.81,0,0,1,.49,2.16,2.93,2.93,0,0,1,0,.58.79.79,0,0,1-.14.34c-.06.14-.33.21-.38.21a4,4,0,0,1-.65.12,1.58,1.58,0,0,1-.72-.24,11.61,11.61,0,0,1-2.42-1.72,20.81,20.81,0,0,1-3.36-4.14,8.1,8.1,0,0,1-1.06-1.93,10.53,10.53,0,0,1,1.36,1.72,27.64,27.64,0,0,0,3.41,4,13.41,13.41,0,0,0,2.3,1.68,1.3,1.3,0,0,0,.5.2,3.41,3.41,0,0,0,.56-.08c.22.06.25-.4.26-.7C363.09,199.82,362.9,199,363,199Z" style="fill: rgb(255, 154, 108); transform-origin: 359.132px 198.395px;" id="ellf6roem3d1" class="animable"></path><path d="M354.81,203.45a23,23,0,0,0,1.26-3,23.59,23.59,0,0,0,.35-3.21,5.63,5.63,0,0,1-1.61,6.19Z" style="fill: rgb(255, 154, 108); transform-origin: 355.785px 200.345px;" id="elu0sg9ffbme" class="animable"></path><path d="M370.51,170.89A7,7,0,0,0,369,168a7.16,7.16,0,0,0-2.93-1.39c0-.06.39-.17,1-.08a4.09,4.09,0,0,1,2.25,1.1,4.14,4.14,0,0,1,1.22,2.19C370.66,170.49,370.58,170.89,370.51,170.89Z" style="fill: rgb(255, 154, 108); transform-origin: 368.336px 168.693px;" id="el7i5psjksoj4" class="animable"></path><path d="M390.89,197s20.44,34.83,28,51.83c12.49,28.12,18.25,63.79,18.25,63.79s-.66,5.52-11.25,4-30.9-3.08-32.44-15,0-24.43-4.85-44.66-15.64-45-15.64-45l9.9-14.64Z" style="fill: rgb(255, 191, 157); transform-origin: 405.05px 256.942px;" id="elpjpn1b1jev" class="animable"></path></g><g id="freepik--Table--inject-51" class="animable" style="transform-origin: 246px 478.11px;"><path d="M466.37,478.11c0,.14-98.67.26-220.36.26s-220.38-.12-220.38-.26,98.65-.26,220.38-.26S466.37,478,466.37,478.11Z" style="fill: rgb(38, 50, 56); transform-origin: 246px 478.11px;" id="ellcpt9um8b18" class="animable"></path></g><defs>     <filter id="active" height="200%">         <feMorphology in="SourceAlpha" result="DILATED" operator="dilate" radius="2"></feMorphology>                <feFlood flood-color="#32DFEC" flood-opacity="1" result="PINK"></feFlood>        <feComposite in="PINK" in2="DILATED" operator="in" result="OUTLINE"></feComposite>        <feMerge>            <feMergeNode in="OUTLINE"></feMergeNode>            <feMergeNode in="SourceGraphic"></feMergeNode>        </feMerge>    </filter>    <filter id="hover" height="200%">        <feMorphology in="SourceAlpha" result="DILATED" operator="dilate" radius="2"></feMorphology>                <feFlood flood-color="#ff0000" flood-opacity="0.5" result="PINK"></feFlood>        <feComposite in="PINK" in2="DILATED" operator="in" result="OUTLINE"></feComposite>        <feMerge>            <feMergeNode in="OUTLINE"></feMergeNode>            <feMergeNode in="SourceGraphic"></feMergeNode>        </feMerge>            <feColorMatrix type="matrix" values="0   0   0   0   0                0   1   0   0   0                0   0   0   0   0                0   0   0   1   0 "></feColorMatrix>    </filter></defs></svg>